<?xml version="1.0" encoding="UTF-8"?>
<svg id="Layer_1" data-name="Layer 1" xmlns="http://www.w3.org/2000/svg" viewBox="0 0 200 200">
  <defs>
    <style>
      .cls-1 {
        fill: #915ea5;
      }

      .cls-1, .cls-2 {
        stroke: #5b2c62;
        stroke-miterlimit: 10;
        stroke-width: 3px;
      }

      .cls-2 {
        fill: #5b2c62;
      }
    </style>
  </defs>
  <path class="cls-2" d="M47.88,105.69c-1.58-2.41-3.01-4.53-4.38-6.69-5.19-8.2-10.04-16.56-13.52-25.69-5.71-14.98,3.97-33.13,20.75-37.17,17.8-4.29,34.62,7.83,36.49,26.07,.54,5.24-1.03,9.99-2.99,14.65-3.91,9.3-9.23,17.81-14.78,26.18-.46,.7-.94,1.4-1.4,2.1-.05,.08-.04,.21-.06,.36,.54,.39,1.17,.18,1.74,.18,29.44,.01,58.88,.03,88.32-.02,1.76,0,2.64,.43,3.27,2.22,6.14,17.27,12.27,34.54,18.66,51.72,2.59,6.98,4.8,14.1,7.5,21.04,.83,2.14,.47,2.6-1.82,2.6-57.03,0-114.06,0-171.1,0-2.33,0-2.7-.55-1.85-2.72,9.47-24.22,18.96-48.44,28.38-72.68,.64-1.64,1.43-2.37,3.18-2.17,1.05,.12,2.13,.02,3.59,.02Zm-30.95,71.95c.2-.11,.41-.19,.58-.32,8.61-6.39,18.06-11.22,28.08-14.97,2.49-.93,4.99-1.84,7.48-2.75-.02-.09-.03-.18-.05-.27-.48,0-.95,0-1.43,0-8.18,0-16.37,0-24.55,0-3.37,0-3.39,0-4.64,3.21-1.92,4.96-3.81,9.93-5.71,14.9-.23,.13-.3,.29-.12,.51,.11-.1,.23-.21,.34-.31Zm13.87-113.5c-.15,3.68,.93,7.11,2.31,10.43,6.01,14.41,14.91,27.07,23.95,39.65,.67,.93,1.03,.66,1.56-.1,1.87-2.66,3.82-5.27,5.66-7.95,6.64-9.67,13.05-19.48,17.71-30.3,1.97-4.58,3.33-9.28,2.7-14.37-1.76-14.16-14.06-24.41-28.54-23.74-13.79,.63-24.99,12.29-25.35,26.39Zm86.93,92.79c6.39,0,12.78-.03,19.17,.02,1.16,0,1.58-.25,1.41-1.49-.99-7.44-1.93-14.89-2.87-22.34-.12-.95-.53-1.29-1.52-1.29-11.55,.03-23.09,.04-34.64,0-1.13,0-1.42,.39-1.45,1.45-.22,7.4-.46,14.79-.76,22.19-.05,1.23,.36,1.49,1.49,1.48,6.39-.05,12.78-.02,19.17-.03Zm-100.71,23.85c1.56,0,2.64-.1,3.69,.02,2.35,.27,4.31-.51,6.28-1.76,15.02-9.47,31.33-15.91,48.42-20.5,.94-.25,1.71-.18,2.56,.26,15.68,8.08,32.49,11.72,49.98,12.55,17.06,.8,33.92-.98,50.62-4.4,.49-.1,1.67,.12,1.15-1.04-.37-.83,.08-2.41-1.91-2-17.04,3.45-34.21,5.34-51.62,4.18-10.38-.69-20.58-2.4-30.46-5.73-24.46-8.24-42.76-23.56-53.88-47.09-.1-.21-.1-.56-.57-.54-.28,.7-.49,1.47-.88,2.13-1.2,2.08-.73,3.87,.37,5.91,6.93,12.88,16.51,23.26,28.78,31.19,.68,.44,1.63,.74,1.46,1.83-.17,1.08-1.17,1.08-1.94,1.32-2.78,.87-5.58,1.67-8.35,2.56-11.64,3.76-23.15,7.83-33.68,14.22-3.34,2.03-6.58,4.2-9.99,6.89Zm159.22-23.84c-.11-.42-.15-.69-.24-.94-2.74-7.65-5.52-15.28-8.21-22.95-.4-1.13-1.07-1.2-2.04-1.2-8.69,.02-17.38,.05-26.07-.02-1.58-.01-2.01,.39-1.8,1.97,.99,7.16,1.89,14.33,2.78,21.51,.16,1.32,.7,1.68,2.03,1.67,10.59-.06,21.19-.04,31.79-.03,.55,0,1.1,0,1.76,0Zm-59.85-27.57c5.72,0,11.44,0,17.15,0,.64,0,1.39,.2,1.23-.97-.87-6.39-1.72-12.77-2.52-19.17-.11-.89-.47-1.09-1.28-1.08-10.31,.02-20.63,.03-30.95,0-.96,0-1.24,.31-1.27,1.25-.19,6.17-.4,12.33-.67,18.49-.05,1.21,.32,1.52,1.49,1.51,5.61-.05,11.21-.02,16.82-.02Zm-42.95,51.44c6.27,0,12.55-.03,18.82,.02,1.15,0,1.54-.29,1.56-1.48,.03-3.31,.18-6.61,.34-9.91,.05-.97-.17-1.48-1.2-1.81-5.34-1.71-10.53-3.81-15.52-6.36-.71-.36-1.36-.4-2.09-.19-6.15,1.71-12.22,3.65-18.22,5.84-1,.37-1.39,.93-1.57,1.89-.66,3.41-1.31,6.82-2.06,10.21-.3,1.36-.09,1.85,1.46,1.83,6.16-.09,12.32-.04,18.49-.03Zm6.08-51.45h0c4.88,0,9.75,0,14.63,.02,.91,0,1.41-.1,1.44-1.23,.17-6.22,.4-12.44,.66-18.66,.04-1.01-.23-1.36-1.29-1.35-8.63,.04-17.26,.03-25.89,0-.86,0-1.31,.22-1.49,1.15-1.21,6.27-2.45,12.53-3.76,18.78-.23,1.09,0,1.32,1.07,1.31,4.87-.05,9.75-.02,14.63-.02Zm-.31,2.54c-4.09,0-8.18,0-12.27,0q-3.84,0-4.61,3.67c-.14,.66-.26,1.32-.44,1.97-.28,1.05-.08,1.82,.8,2.63,6.37,5.92,13.48,10.73,21.2,14.71,2.98,1.54,5.98,2.34,9.33,2.08,1-.08,1.34-.32,1.37-1.33,.25-7.4,.52-14.79,.87-22.19,.06-1.35-.43-1.57-1.62-1.55-4.88,.06-9.75,.02-14.63,.03Zm-39.13,25.03c4.59,0,9.19-.04,13.78,.02,1.19,.02,1.81-.22,1.99-1.55,.29-2.1,.77-4.18,1.25-6.26,.23-.97,.05-1.62-.73-2.32-3.25-2.93-6.18-6.16-8.97-9.54-1.48-1.79-2.28-4.53-4.43-5.27-2.11-.72-4.65-.17-7-.17-.11,0-.23,.01-.34,0-.95-.14-1.38,.34-1.71,1.2-2.89,7.47-5.78,14.93-8.75,22.36-.56,1.41-.12,1.55,1.14,1.54,4.59-.05,9.19-.02,13.78-.02Zm111.61-27.54c4.37,0,8.75-.03,13.12,.02,1.24,.01,1.56-.24,1.09-1.51-2.3-6.2-4.54-12.42-6.74-18.65-.33-.95-.83-1.14-1.73-1.13-7.06,.03-14.13,.05-21.19-.01-1.29-.01-1.63,.32-1.45,1.62,.85,6.22,1.65,12.45,2.4,18.68,.14,1.12,.82,.99,1.54,.99,4.32,0,8.63,0,12.95,0Zm-55.51,39.33c0,3.82,.03,7.4-.02,10.98-.01,.95,.37,1.11,1.19,1.11,14.35-.02,28.71-.01,43.06,0,.82,0,1.24-.11,1.04-1.12-.28-1.43-.44-2.88-.55-4.33-.09-1.1-.43-1.44-1.66-1.42-10.39,.17-20.72-.5-30.95-2.43-3.9-.73-7.74-1.73-12.11-2.8Zm68.13,12.08c6.39,0,12.78-.03,19.16,.02,1.26,.01,1.41-.36,1-1.45-1.15-3.04-2.28-6.09-3.31-9.17-.36-1.07-.83-1.15-1.84-.94-3.29,.68-6.6,1.26-9.91,1.82-8.29,1.39-16.63,2.32-25.04,2.67-.98,.04-1.28,.36-1.12,1.3,.23,1.44,.47,2.88,.56,4.33,.07,1.16,.54,1.45,1.67,1.44,6.28-.06,12.55-.03,18.83-.03ZM64.9,110.11c-.08-.03-.16-.07-.24-.1-.84,1.17-1.68,2.35-2.53,3.52-.86,1.18-1.72,2.35-2.61,3.51-1.46,1.9-1.97,1.92-3.38,.04-1.41-1.88-3.01-3.67-4.13-5.72-1.46-2.67-3.41-3.59-6.38-3.24-2.27,.27-3.37,1.72-2.46,3.92,1.86,4.53,4.38,8.7,6.78,12.95,1.91,3.38,4.26,5.27,8.27,4.4,.48-.1,1.01-.06,1.51,0,.95,.11,1.41-.21,1.56-1.22,.27-1.77,.71-3.51,1.06-5.27,.85-4.26,1.7-8.52,2.55-12.78Zm53.03,49.22c-6.44,0-12.89-.01-19.33,.02-.55,0-1.46-.39-1.6,.37-.15,.8,.88,.62,1.36,.91,.05,.03,.11,.03,.16,.05,12.97,3.97,26.28,5.39,39.79,5.33,1.29,0,1.35-.56,1.19-1.52-.21-1.27-.47-2.54-.52-3.82-.04-1.14-.53-1.35-1.55-1.34-6.5,.04-13,.02-19.5,.02Zm41.43,0c-5.55,0-11.1,.03-16.65-.02-1.22-.01-1.6,.32-1.33,1.53,.25,1.09,.47,2.21,.47,3.32,0,1.48,.67,1.69,1.97,1.64,11.11-.43,22.07-2,32.96-4.16,.43-.09,1.2,.06,.95-.77-.18-.58-.14-1.43-1.05-1.52-.39-.04-.78-.02-1.18-.02-5.38,0-10.76,0-16.14,0Zm-106.17,9.15c-8.54,3.44-16.41,7.31-23.82,12.16,6.89,.16,13.74,.16,20.59,.17,.56,0,.79-.28,.89-.78,.75-3.71,1.5-7.42,2.34-11.55Zm6.28-18.73c-.45,2.22-.88,4.28-1.3,6.35-.12,.58,.13,.77,.71,.83,2.75,.26,5.11-.98,7.89-1.71-2.58-1.93-4.84-3.63-7.29-5.46Zm-17.77-20.38c-1.31-2.3-2.44-4.3-3.71-6.53-.8,2.06-1.49,3.87-2.21,5.67-.3,.74,.04,.87,.67,.87,1.66-.01,3.32,0,5.26,0Zm13.43,2.48c1.44,2.16,3.16,4.02,4.35,4.77,1.63-4.86,1.59-4.91-3.33-4.83-.27,0-.53,.03-1.02,.06Z"/>
  <path class="cls-2" d="M147.57,31.25c12.61,0,25.23,0,37.84,0,4.61,0,7.85,2.86,8.39,7.44,.09,.78,.14,1.56,.14,2.35,0,13.69,0,27.38,.01,41.07,0,2.18-.35,4.25-1.55,6.1-1.51,2.33-3.62,3.61-6.44,3.61-25.57,.02-51.13,.04-76.7,.05-4.58,0-8.08-3.65-8.1-8.53-.05-10.94-.02-21.88-.02-32.82,0-3.53-.02-7.07,.01-10.6,.05-5.34,3.44-8.69,8.74-8.69,12.56,0,25.12,0,37.67,0v.03Zm-.08,58.03c12.73,0,25.45,0,38.18,0,2.65,0,4.27-1.15,5.25-3.63,.44-1.12,.52-2.28,.52-3.46,0-13.69,0-27.38,0-41.07,0-.62,.01-1.24-.05-1.85-.26-2.62-2.21-5.8-6.12-5.62-4.48,.2-8.97,.05-13.45,.05-20.75,0-41.49,0-62.24,0-2.79,0-4.51,1.22-5.48,3.84-.4,1.07-.5,2.17-.5,3.3,.01,7.97,0,15.93,0,23.9,0,5.95-.02,11.9,0,17.84,.02,4.45,2.31,6.71,6.7,6.71,12.39,0,24.78,0,37.17,0Z"/>
  <path class="cls-2" d="M18.53,45.39c-.96-.01-1.56-1.07-.97-1.97,1.82-2.76,3.82-5.41,6.01-7.89,.52-.59,1.19-.63,1.78-.08,.53,.5,.54,1.09,.11,1.66-1.93,2.55-3.88,5.08-5.81,7.63-.29,.38-.64,.62-1.12,.64Z"/>
  <path class="cls-1" d="M.11,95.22c.13-1.73,.25-3.46,.4-5.19,.07-.8,.37-1.47,1.3-1.43,1.03,.05,1.24,.78,1.17,1.67-.24,3.01-.47,6.03-.44,9.05,0,.83-.31,1.47-1.22,1.49-1.02,.03-1.32-.66-1.31-1.56,0-1.34,0-2.69,0-4.03,.04,0,.07,0,.11,0Z"/>
  <path class="cls-1" d="M104.86,0c2.2,.2,4.59,.44,6.99,.64,.94,.08,1.73,.39,1.6,1.49-.12,1-.91,1.08-1.79,1-2.79-.23-5.58-.4-8.37-.61-.94-.07-2.1,.02-2.02-1.39,.07-1.29,1.16-1.12,2.04-1.13,.45,0,.9,0,1.55,0Z"/>
  <path class="cls-2" d="M9,62.59c-.86-.18-1.37-.78-1.02-1.68,1.22-3.13,2.71-6.15,4.4-9.06,.34-.59,.95-.8,1.6-.41,.6,.36,.86,.91,.54,1.57-1.43,2.98-2.88,5.95-4.34,8.91-.21,.42-.6,.65-1.18,.66Z"/>
  <path class="cls-1" d="M2.01,79.96c.7-3.34,1.49-6.55,2.5-9.69,.24-.74,.82-1.1,1.58-.83,.74,.26,1,.87,.78,1.63-.9,3-1.7,6.03-2.34,9.1-.15,.72-.6,1.25-1.42,1.13-.79-.11-1.1-.68-1.1-1.33Z"/>
  <path class="cls-2" d="M46.71,18.15c-.67,0-1.09-.24-1.28-.77-.27-.76,.08-1.3,.72-1.69,1.92-1.15,3.84-2.3,5.77-3.43,.82-.48,1.66-.94,2.52-1.34,.7-.33,1.34-.14,1.72,.56,.35,.65,.1,1.23-.5,1.58-2.8,1.64-5.61,3.26-8.42,4.89-.19,.11-.41,.15-.53,.2Z"/>
  <path class="cls-2" d="M122.16,2.41c3.29,.74,6.41,1.62,9.48,2.65,.72,.24,1.15,.76,.93,1.54-.25,.91-.99,1-1.76,.79-2.15-.6-4.29-1.25-6.44-1.86-.86-.24-1.75-.39-2.61-.64-.73-.21-1.17-.71-1.01-1.5,.16-.8,.77-1.03,1.4-.98Z"/>
  <path class="cls-1" d="M.45,110.25c-.04-.98-.02-1.96,1.22-2.02,1.1-.06,1.22,.85,1.34,1.75,.37,2.77,.81,5.53,1.23,8.3,.13,.86,.27,1.81-.84,2.06-1.24,.28-1.5-.72-1.64-1.63-.46-2.81-.87-5.64-1.3-8.45Z"/>
  <path class="cls-1" d="M90.86,.29c.74,0,1.07,.02,1.41,0,.81-.04,1.49,.14,1.55,1.09,.06,.92-.5,1.24-1.35,1.35-3.05,.36-6.09,.76-9.13,1.15-.83,.11-1.48-.12-1.62-1.01-.14-.9,.43-1.35,1.24-1.47,2.76-.4,5.52-.78,7.9-1.11Z"/>
  <path class="cls-2" d="M150.55,14.4c-.21,.96-.84,1.52-1.8,1.05-2.96-1.45-5.88-2.99-8.8-4.53-.61-.32-.84-.93-.49-1.58,.44-.82,1.18-.8,1.89-.45,2.16,1.05,4.31,2.13,6.46,3.21,.65,.33,1.27,.71,1.9,1.07,.46,.26,.78,.63,.84,1.23Z"/>
  <path class="cls-1" d="M4.29,129.06c-.02-.88,.22-1.33,.86-1.5,.7-.18,1.24,.06,1.49,.73,1.13,3.09,2.24,6.19,3.33,9.3,.21,.59-.03,1.15-.59,1.42-.61,.29-1.32,.22-1.61-.43-1.43-3.16-2.57-6.42-3.48-9.52Z"/>
  <path class="cls-2" d="M39.82,22.68c-.09,.57-.44,.91-.83,1.25-2.15,1.88-4.29,3.76-6.42,5.65-.71,.64-1.47,1.24-2.29,.3-.78-.89-.04-1.53,.57-2.12,2.12-2.08,4.37-4,6.67-5.88,.51-.42,1.06-.63,1.7-.3,.44,.23,.57,.66,.61,1.1Z"/>
  <path class="cls-2" d="M73.08,3.68c.9-.06,1.35,.34,1.45,1.02,.1,.71-.32,1.16-.98,1.37-1.38,.44-2.78,.84-4.15,1.31-1.59,.54-3.15,1.14-4.74,1.68-.75,.25-1.49,.22-1.79-.69-.25-.76,.09-1.32,.82-1.6,2.96-1.17,5.98-2.17,9.04-3.04,.16-.04,.33-.04,.34-.04Z"/>
  <path class="cls-2" d="M105.59,199.99c-.99,.02-2.09,.09-2.12-1.27-.03-1.23,1.03-1.24,1.94-1.32,2.39-.21,4.78-.43,7.17-.66,.9-.09,1.79-.06,1.95,1.04,.16,1.13-.73,1.39-1.61,1.49-2.44,.26-4.89,.48-7.34,.72Z"/>
  <path class="cls-2" d="M78.49,197.73c-2.94-.63-5.87-1.33-8.71-2.37-.65-.24-.9-.85-.62-1.52,.27-.64,.79-.93,1.49-.74,2.75,.73,5.5,1.47,8.24,2.22,.73,.2,1.19,.7,1,1.49-.16,.68-.67,1-1.41,.93Z"/>
  <path class="cls-2" d="M195.06,122.23c.56-3.19,1.03-6,1.55-8.81,.14-.75,.65-1.19,1.47-1.02,.79,.17,1.11,.75,.97,1.51-.49,2.75-1.01,5.5-1.53,8.25-.14,.77-.6,1.2-1.41,1.12-.85-.09-1.07-.69-1.06-1.05Z"/>
  <path class="cls-2" d="M94.47,199.99c-2.14-.2-4.47-.42-6.8-.65-.91-.09-1.74-.39-1.56-1.51,.18-1.09,1.03-1.1,1.95-1,2.22,.23,4.44,.38,6.66,.59,1,.1,2.44-.2,2.4,1.35-.04,1.58-1.45,1.16-2.65,1.21Z"/>
  <path class="cls-2" d="M130.15,192.91c.72,0,1.18,.27,1.32,.9,.14,.61-.06,1.17-.66,1.38-2.89,1.04-5.85,1.83-8.85,2.42-.57,.11-1.08-.29-1.23-.92-.14-.6,.02-1.21,.64-1.38,2.94-.84,5.9-1.62,8.77-2.4Z"/>
  <path class="cls-2" d="M195.12,130.95c-.84,2.68-1.85,5.52-3.13,8.25-.3,.64-.98,.75-1.6,.46-.57-.27-.83-.82-.61-1.41,1.01-2.78,2.04-5.56,3.11-8.32,.22-.57,.78-.79,1.4-.63,.73,.19,.92,.74,.83,1.64Z"/>
  <path class="cls-2" d="M16.73,150.89c-.05,.81-.33,1.19-.86,1.38-.54,.19-1.07,.07-1.35-.38-.93-1.53-1.81-3.09-2.65-4.66-.27-.5,0-.99,.41-1.34,.43-.36,1.01-.49,1.38-.07,1.37,1.57,2.14,3.49,3.07,5.08Z"/>
  <path class="cls-2" d="M144.2,189.09c-.06,.56-.41,.92-.88,1.14-1.37,.63-2.75,1.24-4.12,1.86-.76,.34-1.47,.29-1.84-.53-.37-.83,.07-1.39,.83-1.73,1.37-.63,2.72-1.3,4.12-1.87,1.02-.42,1.96,.19,1.9,1.13Z"/>
  <path class="cls-2" d="M162.77,22.62c-.02,1.1-1.05,1.67-1.95,1.07-1.39-.93-2.7-1.99-4.01-3.02-.49-.39-.57-.97-.28-1.52,.3-.56,.88-.87,1.41-.57,1.71,.95,3.25,2.15,4.64,3.53,.14,.14,.15,.41,.19,.51Z"/>
  <path class="cls-2" d="M185.02,151.9c-1.18,.06-1.76-.82-1.25-1.85,.71-1.45,1.54-2.84,2.36-4.23,.35-.6,.92-.82,1.58-.52,.59,.26,.88,.8,.66,1.38-.69,1.77-1.66,3.39-2.76,4.94-.14,.19-.47,.24-.58,.29Z"/>
  <path class="cls-2" d="M57.82,188.02c1.61,.74,3.35,1.5,5.04,2.34,.49,.24,.56,.82,.37,1.34-.21,.61-.75,.97-1.3,.78-1.79-.59-3.56-1.3-5.15-2.34-.48-.31-.47-.87-.28-1.37,.2-.54,.66-.71,1.32-.76Z"/>
  <path class="cls-2" d="M197.5,102.41c0-.72-.01-1.45,0-2.17,.02-.83,.38-1.45,1.27-1.44,.89,.01,1.25,.66,1.23,1.48-.03,1.56-.08,3.11-.16,4.67-.04,.79-.49,1.23-1.31,1.17-.74-.05-1.09-.5-1.1-1.21-.02-.83,0-1.67,0-2.5h.06Z"/>
  <path class="cls-2" d="M57.91,51.8c8.26,.02,14.92,6.73,14.91,15.03,0,8.19-6.81,14.97-15.04,14.95-8.22-.01-15.01-6.79-15.01-14.99,0-8.31,6.76-15.01,15.13-14.99Zm-.11,27.44c6.96-.01,12.51-5.58,12.49-12.52-.02-6.91-5.66-12.51-12.56-12.48-6.88,.03-12.41,5.67-12.4,12.64,.01,6.83,5.61,12.37,12.46,12.36Z"/>
  <path class="cls-2" d="M108.54,61.68c0-6.9,0-13.79,0-20.69,0-2.2,.12-2.32,2.24-2.32,11.65,0,23.31,0,34.96,0,2.04,0,2.24,.2,2.24,2.19,0,13.91,0,27.81,0,41.72,0,2.16-.16,2.32-2.27,2.32-11.65,0-23.31,0-34.96,0-2.07,0-2.21-.13-2.21-2.18,0-7.01,0-14.02,0-21.03Zm2.46,.02c0,6.34,.04,12.67-.03,19.01-.02,1.37,.31,1.8,1.74,1.79,9.86-.07,19.72-.03,29.59-.03,3.29,0,3.23,0,3.3-3.22,.03-1.19-.41-1.65-1.45-2.03-4.14-1.53-7.83-3.84-11.14-6.76-8.18-7.22-13.18-16.45-16.64-26.63-.92-2.72-.89-2.65-3.67-2.76-1.45-.06-1.75,.44-1.73,1.8,.07,6.28,.03,12.56,.03,18.84Zm34.56-3.61c0-5.05-.05-10.09,.03-15.14,.02-1.42-.25-1.92-1.81-1.9-7.95,.09-15.91,.06-23.87,.02-1.33,0-1.78,.17-1.28,1.65,2.01,5.92,4.62,11.55,8.14,16.72,4.43,6.5,9.87,11.86,17.21,15.08,1.48,.65,1.62,.22,1.6-1.12-.06-5.1-.02-10.2-.02-15.31Z"/>
  <path class="cls-2" d="M169.84,60.05c-4.99,0-9.97,0-14.96,0-.9,0-1.99,.13-2-1.16,0-1.21,.98-1.29,1.94-1.28,9.97,.01,19.94,.01,29.91,0,.96,0,1.93,.08,1.91,1.31-.02,1.15-.95,1.15-1.85,1.14-4.99-.02-9.97,0-14.96-.01Z"/>
  <path class="cls-2" d="M169.89,64.91c4.93,0,9.85,0,14.78,0,.93,0,1.98-.03,1.97,1.22,0,1.23-1.05,1.22-1.98,1.22-9.96,0-19.93,0-29.89,0-.98,0-1.93-.11-1.88-1.32,.04-1.14,1.02-1.13,1.9-1.13,5.04,0,10.08,0,15.11,0Z"/>
  <path class="cls-2" d="M169.87,50.43c4.94,0,9.87,0,14.81,0,.93,0,1.99-.04,1.96,1.23-.02,1.24-1.07,1.21-2,1.21-9.93,0-19.85,0-29.78,0-.93,0-1.96,.05-1.95-1.24,.01-1.3,1.07-1.2,1.98-1.2,4.99,0,9.98,0,14.97,0Z"/>
  <path class="cls-2" d="M161.6,72.09c2.3,0,4.59,0,6.89,0,.87,0,1.64,.19,1.7,1.19,.06,1.05-.7,1.26-1.58,1.26-4.7,0-9.41,0-14.11,0-.88,0-1.66-.23-1.63-1.24,.03-.98,.78-1.23,1.67-1.22,2.35,.02,4.7,0,7.06,0Z"/>
  <path class="cls-2" d="M140.9,52.92c.03,3.43-2.71,6.26-6.1,6.31-3.51,.05-6.34-2.74-6.33-6.24,0-3.46,2.72-6.19,6.17-6.21,3.44-.02,6.24,2.72,6.26,6.13Zm-2.48,.1c0-1.97-1.82-3.78-3.78-3.75-1.97,.02-3.76,1.86-3.71,3.82,.05,1.93,1.75,3.61,3.7,3.64,2,.04,3.79-1.71,3.79-3.71Z"/>
</svg>