<?xml version="1.0" encoding="UTF-8"?>
<svg id="Layer_1" data-name="Layer 1" xmlns="http://www.w3.org/2000/svg" viewBox="0 0 200 200">
  <defs>
    <style>
      .cls-1 {
        fill: #fff;
      }
    </style>
  </defs>
  <path class="cls-1" d="M200,142.6c-1.01,1.25-2.07,2.39-3.92,1.69-1.81-.69-1.95-2.19-1.95-3.84,.01-36.05,.01-72.1,.01-108.14v-2.58H5.88c0,.71,0,1.4,0,2.09,0,7.55,0,15.1,0,22.64,0,.59,.06,1.19-.06,1.75-.34,1.5-1.29,2.42-2.87,2.42-1.58,0-2.54-.92-2.86-2.43-.13-.62-.06-1.3-.06-1.95,0-13.99,0-27.98,0-41.97C.02,4.34,4.26,.08,12.15,.08c58.06,0,116.12,.06,174.18-.08,6.73-.02,11.47,2.07,13.68,8.67V142.6Zm-5.86-118.93c0-3.85,0-7.49,0-11.13,0-5.05-1.56-6.6-6.65-6.6-58.32,0-116.64,0-174.97,0-.72,0-1.44-.03-2.15,.03-2.26,.21-4.29,1.82-4.38,4.03-.19,4.52-.06,9.06-.06,13.68H194.14Z"/>
  <path class="cls-1" d="M8.61,200c-.28-.14-.54-.32-.83-.42C2.83,197.9,.03,194.08,.02,188.86c-.02-16.59,0-33.19,0-49.78,0-22.65,0-45.29,0-67.94,0-.59-.03-1.17,.02-1.76,.14-1.69,1.3-2.86,2.85-2.9,1.62-.04,2.85,1.18,2.98,2.97,.04,.58,.01,1.17,.01,1.76,0,38.78,0,77.57,0,116.35,0,4.97,1.58,6.58,6.48,6.58,58.46,0,116.91,0,175.37,0,4.78,0,6.42-1.65,6.42-6.44,0-10.41,.01-20.82-.01-31.24,0-1.65,.15-3.16,1.96-3.84,1.84-.7,2.91,.44,3.92,1.69v37.09c-1.39,4.34-4.26,7.2-8.59,8.59H8.61Z"/>
  <path class="cls-1" d="M81.71,64.72c-1.92-1.83-3.69-3.45-5.4-5.14-2.12-2.1-2.07-3.53,.09-5.59,18.58-17.77,49.85-8.97,56.73,16.04,.9,3.29,1.16,6.76,1.77,10.5,2.05,0,4.47-.27,6.8,.06,4.43,.63,7.59-.99,10.44-4.33,3.03-3.55,6.55-6.7,9.89-9.98,.79-.77,1-1.36,.57-2.5-2.35-6.13,.97-12.74,7.12-14.4,5.98-1.62,12.25,2.16,13.46,8.11,1.31,6.45-2.98,12.39-9.61,13.03-1.56,.15-3.3-.11-4.76-.68-1.32-.52-1.95-.17-2.81,.7-4.71,4.77-9.49,9.47-14.19,14.25-1.14,1.16-2.35,1.66-3.97,1.63-4.35-.08-8.71-.03-13.22-.03v24.81c.52,.04,1.07,.13,1.62,.13,8.07,0,16.14-.02,24.22,.03,1.2,0,1.8-.31,2.31-1.48,2.12-4.82,7.2-7.34,12.19-6.21,4.92,1.11,8.49,5.57,8.47,10.59-.02,5.13-3.59,9.46-8.72,10.57-4.84,1.05-9.75-1.54-12.04-6.25-.29-.6-1.12-1.33-1.7-1.34-8.53-.08-17.05-.06-25.58-.05-.24,0-.49,.09-.82,.16v24.64c.69,.04,1.38,.1,2.06,.1,3.78,.01,7.55,.05,11.33-.02,1.55-.03,2.71,.47,3.8,1.57,4.75,4.83,9.58,9.57,14.32,14.4,.85,.87,1.52,1.01,2.69,.57,6.05-2.28,12.48,.98,14.24,7.11,1.71,5.97-2.19,12.39-8.22,13.53-6.38,1.21-12.3-3.1-12.91-9.59-.15-1.62,.22-3.38,.74-4.95,.38-1.14,.21-1.73-.57-2.51-3.94-3.88-8.04-7.63-11.68-11.78-2.31-2.63-4.86-2.73-7.97-2.3,0,.61,.04,1.18,0,1.75-.2,2.33-.17,4.24,2.73,5.27,2.27,.8,3.15,3.21,3.19,5.63,.07,3.77,.06,7.55,.01,11.32-.03,2.32-1.06,3.31-3.34,3.42-.45,.02-.91,0-1.37,0-26.43,0-52.86,0-79.29,0-4.14,0-4.72-.59-4.73-4.76,0-3.12,.02-6.25,0-9.37-.03-3.52,1.5-5.94,4.85-7.21,.46-.17,1-.82,1.04-1.29,.13-1.54,.05-3.1,.05-4.9-4.39,0-8.66-.04-12.92,.05-.52,.01-1.07,.65-1.52,1.09-4.3,4.26-8.53,8.59-12.88,12.8-1.05,1.02-1.19,1.81-.68,3.17,1.7,4.54,.12,9.43-3.8,12.3-3.74,2.74-9.05,2.71-12.77-.06-3.85-2.88-5.36-7.92-3.73-12.38,1.62-4.41,5.96-7.33,10.62-7.09,.84,.04,1.8,.03,2.47,.44,2.06,1.25,3.22,.16,4.58-1.24,4.4-4.53,8.94-8.92,13.36-13.43,1.09-1.11,2.25-1.58,3.8-1.56,6.31,.06,12.63,.02,18.94,.02,.71,0,1.41,0,2.19,0,1.09-8.34-1.72-16.97,3.04-24.84-.75-.03-1.25-.08-1.75-.08-11.91,0-23.83,.01-35.74-.03-1.19,0-1.8,.3-2.32,1.46-2.12,4.76-7.14,7.28-12,6.19-5.12-1.15-8.67-5.53-8.63-10.64,.04-5.03,3.65-9.48,8.55-10.53,5.02-1.07,9.99,1.44,12.14,6.31,.48,1.09,1.04,1.4,2.16,1.4,14.06-.03,28.12,0,42.18-.06,.83,0,1.77-.37,2.46-.85,4.51-3.16,6.35-7.54,5.73-13.21-1.46,.37-2.82,.71-4.17,1.07-4.96,1.32-9.92,2.64-14.88,3.98-1.84,.5-3.24,.1-4.4-1.54-2.26-3.18-4.66-6.26-7-9.39-1.56-2.09-1.61-2.41-.76-4.98-1.98,0-3.94,.18-5.83-.06-1.25-.16-2.7-.64-3.58-1.48-4.89-4.68-9.64-9.5-14.39-14.32-.86-.87-1.49-1.19-2.8-.67-4.84,1.93-10.21,.04-12.95-4.32-2.66-4.23-2.07-9.73,1.43-13.3,3.56-3.63,9.15-4.29,13.44-1.59,4.37,2.75,6.22,8.05,4.34,12.94-.49,1.26-.27,1.94,.64,2.83,4.38,4.28,8.65,8.66,13.04,12.92,.66,.64,1.75,1.1,2.66,1.14,3.12,.14,6.25,.08,9.37,.03,.66-.01,1.51-.13,1.96-.54,5.44-4.94,10.82-9.94,16.57-15.25Zm46.76,77.3c.06-.49,.13-.81,.13-1.13,0-20.69,.19-41.39-.09-62.08-.24-17.52-15.35-30.22-32.75-27.95-5.11,.67-9.68,2.72-13.91,6.18,1.86,1.79,3.62,3.43,5.32,5.12,2.15,2.14,2.12,3.53-.09,5.58-4.06,3.76-8.13,7.5-12.2,11.25-3.57,3.3-7.14,6.6-10.79,9.97,1.57,2.08,3.1,4.02,4.51,6.04,.7,1.02,1.38,1.25,2.6,.91,5.63-1.58,11.33-2.92,16.93-4.6,2.73-.82,5.26-.81,7.99-.06,2.09,.57,4.4,1.05,6.5,.75,4.41-.62,7.42-4.61,7.14-9.72-.11-1.99,1.11-3.27,2.78-3.32,1.62-.05,2.85,1.13,3.04,2.93,1.03,9.74-7.75,17.78-17.37,15.89-.99-.19-1.99-.37-3.22-.59,0,1.2,.03,2.17,0,3.13-.22,5.5-2.49,10.03-6.64,13.61-1.38,1.19-2.91,2.2-4.31,3.36-3.09,2.55-4.68,5.85-4.74,9.86-.04,2.28-.01,4.56-.01,6.83,0,2.64,0,5.29,0,8.02h49.19Zm-62.99,27.51h77c0-2.67-.05-5.19,.02-7.72,.04-1.49-.48-2.09-2.04-2.07-4.42,.07-8.85,.03-13.28,.02-2.38,0-3.78-1.16-3.72-3.02,.06-1.78,1.4-2.82,3.71-2.83,3.04-.02,6.09,0,9.36,0,0-1.08,0-1.97,0-2.87q0-3.07-3.09-3.07c-19.07,0-38.14-.04-57.21,.02-5.55,.02-4.8-1.25-4.8,5.2,0,.18,.1,.35,.22,.72,.68,0,1.38,0,2.08,0,12.5,0,24.99,0,37.49,0,.65,0,1.32-.06,1.95,.07,1.52,.33,2.41,1.35,2.39,2.9-.01,1.45-.87,2.44-2.29,2.79-.62,.15-1.29,.09-1.94,.1-10.94,0-21.87,0-32.81,0-3.71,0-7.42,0-11.13,0-.98,0-1.89,.03-1.9,1.34-.01,2.78,0,5.56,0,8.42ZM26.62,119.17c2.71,0,5-2.29,4.96-4.98-.03-2.72-2.29-4.89-5.06-4.85-2.69,.04-4.82,2.17-4.85,4.85-.03,2.73,2.21,4.98,4.95,4.98ZM177.54,59.72c-.05-2.72-2.38-4.97-5.07-4.88-2.62,.09-4.82,2.33-4.83,4.94-.01,2.68,2.31,4.99,4.99,4.97,2.72-.02,4.95-2.32,4.9-5.04Zm-5.02,49.61c-2.75,.04-4.97,2.33-4.88,5.03,.09,2.64,2.3,4.79,4.94,4.8,2.74,0,4.98-2.23,4.96-4.96-.02-2.76-2.23-4.91-5.03-4.87Zm5.02,59.29c-.02-2.71-2.33-4.97-5.03-4.91-2.62,.05-4.84,2.27-4.87,4.89-.04,2.7,2.22,4.96,4.96,4.97,2.77,0,4.97-2.2,4.95-4.95ZM22.47,59.86c.03,2.72,2.35,4.98,5.04,4.91,2.62-.07,4.83-2.3,4.86-4.91,.03-2.67-2.29-5.01-4.97-5.01-2.7,0-4.96,2.3-4.93,5.01Zm5,113.72c2.74-.03,4.98-2.32,4.91-5.02-.07-2.62-2.3-4.81-4.92-4.84-2.71-.03-4.99,2.24-4.98,4.96,0,2.76,2.22,4.94,5,4.9Z"/>
  <path class="cls-1" d="M19.04,10.96c2.23-.04,3.99,1.66,4.01,3.85,.01,2.15-1.8,3.98-3.95,3.97-2.09-.01-3.82-1.7-3.88-3.81-.07-2.24,1.59-3.98,3.82-4.01Z"/>
  <path class="cls-1" d="M51.47,10.95c2.2,0,3.98,1.76,3.96,3.92-.03,2.13-1.91,3.96-4.03,3.91-2.1-.05-3.77-1.75-3.8-3.88-.03-2.25,1.62-3.95,3.87-3.95Z"/>
  <path class="cls-1" d="M39.19,14.8c.02,2.21-1.72,3.99-3.89,3.99-2.13,0-3.97-1.87-3.95-3.99,.03-2.08,1.74-3.79,3.85-3.84,2.25-.05,3.97,1.61,3.99,3.84Z"/>
</svg>