<?xml version="1.0" encoding="UTF-8"?>
<svg id="Layer_1" data-name="Layer 1" xmlns="http://www.w3.org/2000/svg" viewBox="0 0 200 200">
  <defs>
    <style>
      .cls-1 {
        fill: #fff;
      }
    </style>
  </defs>
  <path class="cls-1" d="M98.82,200c-4.83-1.05-8.56-3.85-11.89-7.35-.5-.52-1.65-.86-2.35-.69-4.31,1.05-8.54,.75-12.7-.58-6.37-2.04-12.72-4.14-19.07-6.26-3.64-1.21-6.78-3.26-9.5-5.95-4.12-4.07-8.28-8.1-12.37-12.2-3.25-3.26-4.44-7.22-3.79-11.79,.09-.63-.13-1.6-.57-1.97-2.35-1.96-3.23-4.43-3.22-7.4,.04-8,.01-16.01,.01-24.01,0-5.6-.03-11.19,0-16.79,.04-6.28,4.52-9.9,10.74-8.75,5.3,.98,10.62,1.89,15.92,2.9,4.96,.95,9.85,.11,14.75-.47,.71-.08,1.42-.22,2.13-.26,3.5-.18,6.55-.74,8.59-4.33,1.74-3.07,5.16-4.07,8.62-4.08,7.81-.02,15.61,.03,23.42,.16,6.71,.11,12.7,2.48,18.18,6.21,5.8,3.95,11.56,7.97,17.31,11.99,3.68,2.57,7.71,3.62,12.17,3.18,3.88-.38,7.77-.78,11.66-1.01,6.2-.36,9.72,2.98,9.74,9.13,.02,10.02,.02,20.04,0,30.07-.01,5.81-2.55,9.32-8.07,11.27-5.7,2.01-11.38,4.05-17.1,5.99-1.19,.4-1.57,.93-1.51,2.21,.22,4.66-1.21,8.89-4.76,11.91-4.4,3.74-9.04,7.24-13.82,10.48-5.11,3.46-11.29,4.13-17.12,5.66-3.56,.94-7.14,1.83-10.71,2.75h-4.69Zm19.32-10.59c-.48-.82-.82-1.44-1.19-2.04-3.79-6.22-7.58-12.44-11.36-18.67-.4-.66-.8-1.35-1.07-2.07-.58-1.55-.07-2.85,1.25-3.74,1.33-.9,2.75-.83,3.96,.24,.62,.54,1.07,1.3,1.51,2.02,4.17,6.83,8.33,13.66,12.49,20.5,.36,.59,.73,1.16,1.32,2.08,3.28-2.21,6.37-4.29,9.48-6.39-6.34-10.16-12.47-19.98-18.6-29.8-.38-.61-.78-1.2-1.1-1.84-.81-1.65-.37-3.36,1.05-4.31,1.47-.98,3.33-.65,4.51,.83,.4,.51,.73,1.07,1.08,1.63,5.72,9.16,11.44,18.32,17.16,27.47,.36,.57,.74,1.13,1.12,1.71,4.02-3.34,4.67-7.77,1.92-12.4-5.31-8.95-10.71-17.84-15.95-26.83-1.93-3.3-4.19-6.2-7.17-8.63-3.73-3.04-7.24-6.36-10.9-9.49-7.86-6.73-4.53-5.47-15.07-5.54-.93,0-2,.46-2.78,1.01-2.33,1.65-4.46,3.61-6.85,5.17-3.49,2.28-7.25,2.4-10.93,.46-3.69-1.95-5.78-5.12-5.67-9.31,.05-2.12,.85-4.21,1.33-6.4-.59,.06-1.29,.18-1.99,.21-4.92,.23-9.88,.93-14.75,.52-5.94-.49-11.79-1.91-17.68-2.94-2.54-.44-3.19,.07-3.19,2.64,0,13.35,0,26.69,0,40.04,0,2.39,.42,2.81,2.86,2.82,4.04,.02,8.08,.11,12.11-.03,4.04-.14,7.26,1.3,10.13,4.11,12.71,12.42,25.5,24.76,38.27,37.12,.84,.81,1.71,1.63,2.68,2.26,1.62,1.04,3.39,1.63,5.65,1.32-1.65-2.29-3.1-4.29-4.54-6.29-1.64-2.27-3.34-4.49-4.89-6.82-1.13-1.69-.72-3.64,.78-4.67,1.46-1.01,3.22-.74,4.53,.75,.43,.49,.79,1.03,1.17,1.56,3.09,4.27,6.17,8.55,9.3,12.79,.36,.48,1.14,1.08,1.6,.99,2.78-.55,5.53-1.29,8.45-2.01Zm29.33-28.07c6.64-2.33,13.07-4.57,19.5-6.85,2-.71,3-2.14,2.99-4.3-.02-10.22,0-20.44-.01-30.65,0-2.09-.43-2.51-2.61-2.36-3.76,.27-7.52,.58-11.27,.98-6.3,.66-11.97-.88-17.13-4.52-5.74-4.04-11.5-8.05-17.3-12-3.76-2.56-7.89-4.51-12.45-4.69-8.32-.31-16.65-.3-24.98-.21-1.31,.01-3.07,.8-3.81,1.82-2.49,3.4-4.69,7.03-6.86,10.65-1.11,1.85-.67,3.86,.8,5.14,1.43,1.25,3.51,1.38,5.23,.21,1.18-.8,2.23-1.8,3.42-2.6,2.28-1.54,4.31-3.17,3.64-6.37-.02-.12,.03-.26,.05-.38,.32-1.72,1.47-2.64,3.11-2.69,1.64-.04,2.85,.81,3.23,2.52,.16,.74,.24,1.5,.38,2.37,1.49,0,2.92,.08,4.34-.02,4.08-.27,7.48,1.08,10.46,3.86,2.99,2.8,6.01,5.6,9.26,8.09,7.34,5.64,13.03,12.52,17.4,20.71,3.85,7.21,8.32,14.09,12.61,21.26Zm-67.61,24.85c-.39-.73-.42-.87-.51-.95-9.9-9.6-19.8-19.22-29.73-28.79-.62-.6-1.54-1.24-2.34-1.26-4.4-.12-8.8-.06-13.2-.06-.91,2.95-.31,5.35,1.83,7.42,4.02,3.89,7.85,7.99,12.03,11.7,2.14,1.9,4.69,3.57,7.34,4.58,6,2.29,12.17,4.15,18.3,6.07,1.88,.59,3.87,.81,6.26,1.29Z"/>
  <path class="cls-1" d="M0,75.78c.7-.84,1.33-1.77,2.13-2.51,9.38-8.65,18.77-17.28,28.2-25.88,.86-.78,1.2-1.33,.68-2.59-2.3-5.67-.38-11.98,4.58-15.62,4.71-3.46,11.58-3.24,16.13,.52,4.75,3.93,6.21,10.27,3.66,15.87-.16,.35-.32,.7-.56,1.23,3.24,3.23,6.51,6.49,9.77,9.75,1.43,1.43,2.9,2.81,4.26,4.3,.73,.8,1.32,.92,2.34,.44,3.61-1.71,7.31-1.72,10.92-.02,1,.47,1.57,.37,2.34-.4,9.91-9.97,19.86-19.91,29.82-29.83,.7-.7,.84-1.22,.41-2.17-2.68-5.97-1.03-12.62,3.94-16.27,5.25-3.86,11.97-3.61,16.91,.63,4.62,3.97,5.81,10.72,2.81,16.36-.52,.97-.47,1.58,.28,2.38,1.56,1.66,2.95,3.48,4.56,5.09,.44,.44,1.48,.68,2.07,.48,3.49-1.18,6.91-1.2,10.24,.41,.91,.44,1.47,.39,2.2-.34,9.97-10.01,19.96-19.99,29.95-29.97,.21-.21,.38-.47,.71-.88-.88-.06-1.51-.06-2.12-.16-1.66-.27-2.85-1.63-2.88-3.22-.02-1.57,1.14-3.17,2.8-3.24,3.64-.15,7.29-.16,10.92-.02,1.82,.07,2.87,1.55,2.9,3.55,.04,2.99,.04,5.99,0,8.98-.03,2.47-1.34,4-3.34,3.99-1.93,0-3.15-1.43-3.3-3.82-.02-.3-.04-.6-.08-1.2-.61,.54-1.04,.89-1.44,1.28-9.67,9.66-19.31,19.35-29.02,28.97-1.05,1.04-1.19,1.81-.58,3.17,2.45,5.48,.58,12.21-4.21,15.72-5.16,3.78-11.93,3.55-16.76-.56-4.62-3.94-6-10.81-3.09-16.14,.7-1.28,.55-2.02-.4-3.02-1.75-1.83-3.36-3.79-5.11-5.8-4.23,1.96-8.43,1.93-12.6-.39-.39,.33-.8,.64-1.15,.99-9.85,9.85-19.69,19.71-29.57,29.53-.84,.84-1.1,1.44-.55,2.65,2.6,5.72,.85,12.15-4.22,16.02-4.59,3.5-11.4,3.43-15.98-.17-4.93-3.87-6.54-10.28-4.02-15.94,.18-.41,.39-.82,.68-1.44-4.82-4.78-9.66-9.59-14.53-14.37-.28-.27-.94-.4-1.32-.28-6.3,2.07-7.75,2.03-13.37-.6-5.86,5.37-11.75,10.77-17.65,16.18-3.93,3.61-7.85,7.23-11.8,10.83-2.75,2.51-4.38,2.37-6.55-.51,0-.65,0-1.3,0-1.95ZM133.23,23.52c.12-3.69-2.64-6.7-6.28-6.85-3.7-.16-6.87,2.75-6.97,6.4-.1,3.64,2.91,6.83,6.53,6.92,3.54,.09,6.61-2.86,6.72-6.47Zm16.69,19.83c-3.63,.05-6.65,3.19-6.56,6.81,.09,3.56,3.15,6.5,6.71,6.46,3.57-.05,6.54-3.06,6.54-6.62,0-3.68-3.03-6.7-6.69-6.65Zm-66.68,30.07c.02-3.79-2.84-6.71-6.57-6.71-3.7,0-6.65,2.98-6.63,6.7,.02,3.52,3.07,6.55,6.62,6.56,3.57,.01,6.56-2.97,6.58-6.56Zm-39.98-26.87c3.77,0,6.73-2.94,6.68-6.64-.04-3.51-3.03-6.55-6.43-6.56-3.73-.01-6.75,2.93-6.8,6.61-.04,3.61,2.92,6.6,6.54,6.6Z"/>
</svg>