<?xml version="1.0" encoding="UTF-8"?>
<svg id="Layer_1" data-name="Layer 1" xmlns="http://www.w3.org/2000/svg" viewBox="0 0 200 200">
  <defs>
    <style>
      .cls-1 {
        fill: #fff;
      }
    </style>
  </defs>
  <path class="cls-1" d="M151.56,0c1.06,.25,2.11,.52,3.17,.76,13.53,3.16,23.12,14.72,23.33,28.6,.19,12.75,.22,25.51,0,38.27-.29,16.06-13.16,28.86-29.23,29.18-7.67,.15-15.4,.38-23-.4-14.13-1.46-25.37-13.79-25.7-28-.32-13.27-.3-26.56,0-39.83,.32-14.16,11.32-26.1,25.39-28.21,.36-.05,.71-.24,1.06-.37,8.33,0,16.67,0,25,0Zm20.31,48.45c0-5.92,.01-11.85,0-17.77-.04-14.09-10.32-24.38-24.4-24.43-5.6-.02-11.19-.02-16.79,0-14.09,.04-24.39,10.32-24.42,24.4-.03,11.85-.03,23.69,0,35.54,.03,14.09,10.32,24.38,24.4,24.43,5.6,.02,11.19,.02,16.79,0,14.09-.04,24.38-10.32,24.43-24.4,.02-5.92,0-11.85,0-17.77Z"/>
  <path class="cls-1" d="M200,198.05c-1.08,1.46-2.38,2.42-4.3,1.7-1.91-.72-1.95-2.37-1.95-4.05,0-20.76-.15-41.53,.09-62.29,.09-7.39-3.91-11.96-11.7-11.58-6.1,.3-12.23,.07-18.35,.06-11.07-.01-18.09-7.87-16.88-18.89,.2-1.83,1.31-2.92,3.03-2.96,1.79-.04,3,1.09,3.17,3,.06,.65,.03,1.3,.03,1.95,.01,7.06,3.62,10.64,10.74,10.64,5.79,0,11.6,.23,17.38-.05,9.1-.45,16.68,3.42,18.76,13.72v68.75Z"/>
  <path class="cls-1" d="M48.05,0c.32,.3,.66,.58,.97,.89,1.23,1.28,1.25,3.18,.05,4.39-1.19,1.21-3.19,1.21-4.39,0-1.2-1.22-1.18-3.12,.05-4.39C45.04,.58,45.38,.3,45.7,0c.78,0,1.56,0,2.34,0Z"/>
  <path class="cls-1" d="M112.5,193.75h17.64c8.27,0,16.53,0,24.8,0,.65,0,1.31-.03,1.94,.1,1.64,.33,2.46,1.42,2.45,3.05-.01,1.63-.87,2.71-2.51,3-.7,.12-1.43,.09-2.14,.09-49.98,0-99.96,0-149.94,0-4,0-4.74-.74-4.74-4.81,0-17.7,0-35.4,0-53.11,0-3.78,.8-4.58,4.57-4.58,34.43,0,68.85,0,103.28,0,3.88,0,4.65,.77,4.65,4.7,0,16.34,0,32.67,0,49.01v2.54ZM6.39,143.83v49.76H106.15v-49.76H6.39Z"/>
  <path class="cls-1" d="M68.67,65.62v-3.12h-2.17c-14.45,0-28.9,0-43.35,0-3.53,0-4.4-.86-4.41-4.36,0-10.67,0-21.35,0-32.02,0-3.35,.91-4.24,4.32-4.24,14.45,0,28.9,0,43.35,0,.7,0,1.4,0,2.33,0,0-2.93-.01-5.71,0-8.48,.02-3.01,.98-4,3.96-4.01,3.71-.02,7.42-.03,11.13,0,2.39,.02,3.65,1.16,3.63,3.15-.02,1.98-1.28,3.06-3.7,3.08-2.85,.03-5.7,0-8.78,0v2.42c0,16.4,0,32.8,0,49.2,0,3.81-.8,4.62-4.53,4.62-15.75,0-31.5,0-47.25,0-.78,0-1.58,.01-2.32-.19-1.44-.39-2.11-1.49-2.11-2.93,0-1.44,.67-2.55,2.11-2.92,.8-.21,1.68-.19,2.52-.19,14.32-.01,28.64,0,42.96,0h2.3Zm.04-37.38H25.14v27.84h43.57V28.25Z"/>
  <path class="cls-1" d="M140.63,140.72h-6.25v2.18c0,8.13,0,16.26,0,24.4,0,.65,.03,1.31-.07,1.95-.29,1.74-1.4,2.62-3.12,2.59-1.63-.03-2.69-.91-2.96-2.55-.12-.7-.08-1.43-.08-2.14,0-8.78,0-17.56,0-26.3-2.79-1.09-3.12-1.56-3.12-4.51,0-4.55-.02-9.11,0-13.66,.01-2.88,1.01-3.9,3.86-3.91,5.79-.02,11.58-.03,17.37,0,2.72,.01,3.74,1.05,3.75,3.82,.03,4.68,.02,9.37,0,14.05,0,2.64-.44,3.21-3.12,4.16,0,2.93,0,5.91,0,8.89,0,6.12,.01,12.23,0,18.35,0,2.55-1.1,3.84-3.15,3.82-2.03-.02-3.08-1.31-3.09-3.89-.01-8.33,0-16.65,0-24.98,0-.7,0-1.41,0-2.27Zm-9.29-6.48h12.26v-9.14h-12.26v9.14Z"/>
  <path class="cls-1" d="M175,178.12v-7.82c0-8.4,0-16.79,0-25.19,0-.71-.02-1.45,.13-2.14,.34-1.55,1.43-2.31,2.96-2.32,1.53-.01,2.63,.73,3,2.27,.15,.62,.14,1.29,.14,1.94,0,11.72,0,23.43,0,35.15,0,3.49-.88,4.35-4.41,4.35-15.23,0-30.46,.02-45.69-.03-1.28,0-2.2,.34-3.06,1.28-1.22,1.35-2.53,2.63-3.86,3.87-1.55,1.44-3.23,1.45-4.5,.15-1.3-1.32-1.3-2.95,.17-4.51,1.92-2.03,3.83-4.1,5.98-5.89,.89-.74,2.36-1.08,3.57-1.09,14.38-.07,28.77-.05,43.15-.05h2.41Z"/>
  <path class="cls-1" d="M100.85,115.62c3.71,0,7.42,.03,11.13,0,6.07-.06,9.82-3.83,9.9-9.9,.01-.98-.05-1.96,.06-2.92,.2-1.74,1.26-2.67,2.99-2.76,1.71-.08,2.99,1.01,3.15,2.8,1.1,11.83-6.32,19.13-16.49,19.05-6.7-.05-13.4-.05-20.1,.02-1.87,.02-3.78,.2-5.6,.62-3.12,.72-4.18,2.25-4.69,5.43-.16,1.03-.79,2.31-1.61,2.84-2.15,1.39-4.59-.33-4.56-3.03,.06-5.51,3.76-10.03,9.5-11.32,2.2-.49,4.5-.69,6.76-.78,3.18-.13,6.38-.03,9.56-.03Z"/>
  <path class="cls-1" d="M59.29,75.01c5.26-.05,9.43,4.06,9.45,9.32,.02,5.26-4.11,9.41-9.37,9.4-5.19,0-9.28-4.04-9.35-9.23-.07-5.26,4.02-9.45,9.27-9.5Zm.16,6.26c-1.76-.04-3.11,1.22-3.17,2.98-.07,1.76,1.18,3.13,2.93,3.22,1.83,.1,3.26-1.24,3.27-3.07,.01-1.76-1.26-3.09-3.02-3.13Z"/>
  <path class="cls-1" d="M34.46,93.74c-5.26,.05-9.43-4.06-9.45-9.32-.02-5.26,4.11-9.41,9.37-9.4,5.19,0,9.28,4.04,9.35,9.22,.07,5.26-4.02,9.45-9.27,9.5Zm-.13-12.46c-1.76,.03-3.05,1.34-3.05,3.1,0,1.76,1.29,3.07,3.05,3.1,1.84,.03,3.2-1.36,3.15-3.19-.05-1.76-1.38-3.03-3.15-3Z"/>
  <path class="cls-1" d="M6.22,25.03c1.65-.02,3.14,1.46,3.13,3.11,0,1.65-1.51,3.12-3.16,3.08-1.58-.04-2.98-1.43-3.03-3.01-.05-1.65,1.41-3.16,3.06-3.18Z"/>
  <path class="cls-1" d="M87.35,31.22c-1.65-.09-3.05-1.66-2.94-3.29,.12-1.66,1.7-3.03,3.33-2.88,1.59,.14,2.9,1.61,2.85,3.18-.06,1.65-1.61,3.08-3.24,2.99Z"/>
  <path class="cls-1" d="M6.32,53.16c1.65,.04,3.09,1.57,3.02,3.21-.07,1.65-1.63,3.07-3.26,2.97-1.58-.1-2.94-1.54-2.93-3.11,.01-1.65,1.52-3.11,3.16-3.07Z"/>
  <path class="cls-1" d="M84.41,56.1c.09-1.65,1.66-3.05,3.29-2.94,1.66,.12,3.03,1.7,2.88,3.33-.14,1.59-1.61,2.9-3.18,2.85-1.65-.06-3.08-1.61-2.99-3.24Z"/>
  <path class="cls-1" d="M6.33,87.47c-1.65,.05-3.16-1.41-3.18-3.06-.02-1.65,1.46-3.14,3.11-3.13,1.57,0,3,1.39,3.08,2.96,.08,1.64-1.36,3.18-3.01,3.22Z"/>
  <path class="cls-1" d="M87.46,81.28c1.65-.02,3.14,1.46,3.13,3.11,0,1.65-1.51,3.12-3.16,3.08-1.58-.04-2.98-1.43-3.03-3.01-.05-1.65,1.4-3.16,3.06-3.18Z"/>
  <path class="cls-1" d="M46.86,112.53c1.65,0,3.13,1.48,3.11,3.13-.02,1.65-1.53,3.11-3.18,3.06-1.58-.05-2.97-1.45-3.01-3.03-.04-1.65,1.43-3.15,3.08-3.15Z"/>
  <path class="cls-1" d="M143.75,25.01c-2.45,1.83-4.51,3.5-6.71,4.96-.98,.65-2.23,1.2-3.37,1.22-6.89,.11-13.79,.07-20.68,.04-2.22,0-3.39-.98-3.57-2.8-.2-2.06,1.12-3.41,3.52-3.43,6.18-.04,12.36,.05,18.54-.07,1.18-.02,2.52-.5,3.5-1.19,3.14-2.19,6.15-4.59,9.21-6.9,1.16-.88,2.32-1.69,3.9-.91,1.68,.83,1.98,2.24,1.92,3.91-.06,1.62-.01,3.24-.01,5.14,2.02,0,3.94,0,5.86,0,2.99,0,5.98-.01,8.98,0,2.58,.02,3.87,1.06,3.89,3.09,.02,2.04-1.27,3.14-3.82,3.15-5.72,.02-11.45,.02-17.17,0-2.99,0-3.94-.99-3.98-4,0-.58,0-1.17,0-2.24Z"/>
  <path class="cls-1" d="M138.43,82.13c-4.77,.09-8.77,.3-12.16-2.05-2.11-1.47-4.01-3.27-5.82-5.11-1.13-1.16-.99-2.68,.12-3.88,1.16-1.26,2.6-1.46,4.01-.4,.88,.66,1.65,1.46,2.42,2.26,1.96,2.03,4.31,3.05,7.14,2.97,1.23-.04,2.48-.11,3.7,.01,4.59,.47,8.38-.86,11.41-4.5,1.54-1.85,3.38-1.84,4.76-.47,1.38,1.37,1.17,2.97-.38,4.82-4.22,5.04-9.5,7.31-15.2,6.35Z"/>
  <path class="cls-1" d="M125.86,45.54c.04,2.39-1.9,4.41-4.27,4.43-2.32,.02-4.38-2.04-4.38-4.36,0-2.29,1.9-4.21,4.21-4.28,2.44-.07,4.39,1.78,4.43,4.21Z"/>
  <path class="cls-1" d="M152.27,45.69c-.03-2.44,1.85-4.35,4.28-4.36,2.39,0,4.38,1.97,4.36,4.33-.03,2.25-1.97,4.23-4.23,4.3-2.35,.08-4.37-1.89-4.4-4.28Z"/>
  <path class="cls-1" d="M56.1,180.88c-6.79-.07-12.37-5.73-12.34-12.5,.03-6.82,5.92-12.62,12.64-12.46,6.81,.17,12.38,5.83,12.34,12.56-.04,6.87-5.74,12.47-12.63,12.39Zm.06-6.25c3.43,.04,6.25-2.67,6.32-6.06,.07-3.44-2.82-6.4-6.25-6.39-3.35,0-6.2,2.85-6.23,6.22-.02,3.4,2.75,6.2,6.15,6.24Z"/>
  <path class="cls-1" d="M31.39,34.46h6v15.45h-6v-15.45Z"/>
  <path class="cls-1" d="M43.89,34.46h6.01v15.38h-6.01v-15.38Z"/>
  <path class="cls-1" d="M62.4,49.91h-6.15v-15.41h6.15v15.41Z"/>
</svg>