<?xml version="1.0" encoding="UTF-8"?>
<svg id="Layer_1" data-name="Layer 1" xmlns="http://www.w3.org/2000/svg" viewBox="0 0 200 200">
  <defs>
    <style>
      .cls-1 {
        fill: #fff;
      }
    </style>
  </defs>
  <path class="cls-1" d="M0,56.95c.91-2.42,2.73-3.16,5.2-3.15,16.79,.05,33.58,.08,50.37-.01,5.14-.03,10.02,.41,13.94,4.51,3.95-4.17,8.91-4.7,14.11-4.49,1.95,.08,3.91-.03,5.86,.03,2.56,.08,4.25,1.69,4.23,3.92-.01,2.23-1.7,3.82-4.27,3.87-3.19,.06-6.38-.03-9.57,.03-3.75,.08-6.43,2.69-6.44,6.43-.04,18.96-.02,37.91,0,56.87,0,.13,.05,.25,.12,.51,6.49-2.29,13.21-1.07,19.84-1.25,6.7-.18,13.41-.04,20.11-.04h2.6c-9.23-6.92-14.41-15.69-15.88-26.71-4.66-.03-8.65-1.43-11.53-5.19-1.85-2.41-2.79-5.17-2.7-8.18,.22-7.28,5.1-11.8,13.91-12.86,.03-.59,.09-1.22,.09-1.85,0-6.97-.03-13.94,.03-20.91,.01-1.35-.37-2.05-1.63-2.64-6.94-3.27-13.82-6.65-20.73-9.98-1.59-.77-2.65-1.93-2.66-3.75,0-1.83,1.05-3.01,2.65-3.75,.41-.19,.81-.41,1.22-.61,14.11-6.81,28.21-13.62,42.32-20.43,4.57-2.2,9.15-4.37,13.68-6.64,1.71-.85,3.25-.91,5-.06,19.01,9.22,38.03,18.4,57.06,27.56,2.05,.99,3.02,2.44,3,4.76-.06,7.49,0,14.98-.03,22.47,0,2.83-1.6,4.66-3.92,4.64-2.32-.02-3.83-1.85-3.88-4.69-.01-.72,0-1.43,0-2.15,0-4.82,0-9.64,0-14.69-.6,.21-1.08,.32-1.51,.52-4.8,2.31-9.61,4.61-14.38,6.99-.57,.28-1.26,1.05-1.27,1.6-.08,7.81-.06,15.62-.06,23.65,4.79,.05,8.82,1.67,11.63,5.63,1.67,2.35,2.51,5.03,2.37,7.9-.35,7.22-4.61,11.05-14.03,12.77-3.85,19.73-15.68,30.87-35.87,33.49,0,3.45,0,7.08,0,10.71,0,4.24-1.22,5.46-5.47,5.46-38.2,0-76.4,0-114.6,0-.77,0-1.54,0-2.42,0v18.99H183.53v-2.22c0-17.65,0-35.31,0-52.96,0-.46,0-.91,0-1.37,.05-2.82,1.62-4.66,3.94-4.63,2.32,.03,3.86,1.85,3.86,4.7,.01,18.04,0,36.09,0,54.13,0,.77,0,1.53,0,2.51,1.58,0,3-.05,4.41,.01,2.22,.09,3.91,1.24,4.02,3.24,.32,5.84,.73,11.75-1.98,17.25-3.49,7.07-9.08,11.39-16.88,12.78-.31,.05-.59,.22-.89,.34H19.91c-.3-.11-.58-.28-.89-.34-9.59-1.9-15.71-7.56-18.34-16.99C.45,181.81,.23,180.94,0,180.07c0-3.65,0-7.3,0-10.94,1.87-3.73,5.54-2.45,8.49-2.8v-19.02c-3.09-.3-6.63,.87-8.49-2.81V56.95ZM7.9,124.17h1.86c9.31,0,18.61-.17,27.92,.05,9.28,.22,18.63-1.09,27.92,1.08,0-.47,0-.92,0-1.38,0-18.3,0-36.61,0-54.91,0-4.95-2.47-7.38-7.49-7.38-16.07,0-32.15,0-48.22,0h-1.99v62.54Zm.1,50.13c-1.42,10.11,5.43,17.87,15.73,17.88,50.81,.01,101.63,0,152.44,0,1.29,0,2.61-.09,3.88-.33,7.92-1.46,13.4-9.27,11.74-17.54H8.01ZM88.06,32.08c.47,.29,.68,.45,.91,.56,15.74,7.6,31.47,15.21,47.24,22.74,.76,.36,2.04,.23,2.85-.15,12.61-6.02,25.17-12.11,37.75-18.2,.42-.2,.81-.47,1.21-.71-.03-.11-.06-.22-.09-.33-.63,0-1.25,0-1.88,0-8.65,0-17.31,0-25.96,0-3.7,0-5.63-1.39-5.55-3.97,.08-2.54,1.93-3.84,5.53-3.84,8.59,0,17.18,0,25.76,0,.66,0,1.32-.06,2.56-.13-.93-.51-1.31-.73-1.69-.91-12.63-6.11-25.28-12.2-37.89-18.35-1.08-.53-1.88-.41-2.88,.08-15.37,7.46-30.76,14.88-46.15,22.32-.52,.25-1.02,.54-1.73,.92Zm20.08,44.87c0,6.93-.55,13.74,.11,20.43,1.45,14.55,14.41,25.63,29.19,25.64,14.78,0,27.71-11.09,29.23-25.62,.66-6.25,.32-12.61,.42-18.91,0-.48-.05-.96-.08-1.59-.87,.35-1.53,.6-2.17,.88-6.54,2.88-13.06,5.79-19.61,8.63-9.36,4.05-6.2,4.05-15.54,0-7.2-3.11-14.37-6.31-21.55-9.46Zm58.96-26.46c-1.02,.46-1.67,.73-2.31,1.03-8.19,3.95-16.4,7.87-24.56,11.89-1.93,.95-3.61,.96-5.54,.01-8.22-4.05-16.49-7.99-24.74-11.97-.62-.3-1.25-.57-2.15-.96,0,5.89-.03,11.47,.05,17.05,0,.42,.7,1.01,1.2,1.23,9.08,4.04,18.17,8.05,27.29,12.01,.57,.25,1.43,.32,1.99,.08,9.24-4.01,18.45-8.07,27.65-12.16,.47-.21,1.06-.87,1.06-1.33,.07-5.52,.05-11.04,.05-16.88ZM7.94,131.99v7.34h57.59c.17-4.6-2.4-7.32-6.93-7.33-9.88-.02-19.76,0-29.64,0-6.95,0-13.9,0-21.02,0Zm65.57,7.29h57.53v-7.29c-17.19,0-34.21-.03-51.24,.02-4.02,.01-6.53,3.04-6.29,7.26Zm26.38-60.03c-2.4-.26-4.13,.61-5.35,2.55-1.07,1.7-1.07,3.43,0,5.14,1.22,1.94,2.95,2.82,5.34,2.5v-10.19Zm75.13,.03v10.16c2.3,.33,3.99-.49,5.22-2.32,1.17-1.74,1.24-3.53,.12-5.3-1.21-1.93-2.93-2.86-5.35-2.54Z"/>
  <path class="cls-1" d="M195.99,69.77c2.11-.01,3.89,1.71,3.91,3.79,.02,2.06-1.76,3.85-3.85,3.87-2.09,.02-3.89-1.74-3.91-3.81-.02-2.08,1.74-3.84,3.85-3.85Z"/>
  <path class="cls-1" d="M35.91,79.62c4.35,0,8.7-.04,13.05,.01,3.24,.04,5.18,2.53,4.14,5.25-.65,1.72-2.04,2.53-3.8,2.53-8.96,.03-17.92,.05-26.88-.01-2.4-.02-4.06-1.76-4.04-3.89,.02-2.13,1.68-3.82,4.08-3.86,4.48-.08,8.96-.02,13.44-.02h0Z"/>
  <path class="cls-1" d="M28.52,106.2c-1.95,0-3.9,.04-5.85-.01-2.54-.07-4.27-1.68-4.28-3.88,0-2.2,1.71-3.86,4.26-3.9,3.9-.06,7.81-.06,11.71,0,2.55,.04,4.27,1.68,4.28,3.88,0,2.2-1.72,3.83-4.26,3.9-1.95,.06-3.9,.01-5.85,.01Z"/>
  <path class="cls-1" d="M53.4,102.27c.01,2.03-1.82,3.88-3.86,3.9-2.06,.02-3.85-1.77-3.86-3.85-.01-2.09,1.75-3.89,3.82-3.9,2.02-.01,3.89,1.83,3.9,3.86Z"/>
  <path class="cls-1" d="M100.16,187.1c-2.66,0-5.33,.02-7.99,0-2.8-.03-4.65-1.64-4.61-3.95,.03-2.25,1.83-3.83,4.51-3.85,5.33-.03,10.66-.03,15.99,0,2.76,.02,4.43,1.52,4.46,3.85,.03,2.41-1.68,3.92-4.55,3.95-2.6,.03-5.2,0-7.8,0Z"/>
  <path class="cls-1" d="M137.5,35.91c-2.11,.03-3.9-1.69-3.93-3.77-.03-2.07,1.73-3.86,3.83-3.89,2.1-.03,3.89,1.69,3.93,3.78,.04,2.07-1.72,3.85-3.82,3.88Z"/>
</svg>