<?xml version="1.0" encoding="UTF-8"?>
<svg id="Layer_1" data-name="Layer 1" xmlns="http://www.w3.org/2000/svg" viewBox="0 0 200 200">
  <defs>
    <style>
      .cls-1 {
        fill: #fff;
      }
    </style>
  </defs>
  <path class="cls-1" d="M200,161.27c-1.05,1.9-2.62,2.46-4.6,2.44-8.72-.07-17.44-.03-26.17-.03-.76,0-1.53,0-2.5,0,0,1,0,1.76,0,2.52,0,8.65-.02,17.3,0,25.95,.01,3.16-.88,5.74-3.64,7.15-2.77,1.42-5.18,.56-7.33-1.6-.1-.1-.19-.19-.29-.28-6.17-5.88-12.34-11.76-18.52-17.64-.62-.59-1.26-1.16-2.26-2.08,0,3.22,0,6.01,0,8.8,0,3.85-1.03,4.98-4.5,4.98-39.51,0-79.02,0-118.53,0-7.22,0-11.64-4.85-11.64-12.75,0-9.71-.04-19.43,0-29.14,.07-12.44,4.95-22.05,14.45-28.94,.61-.44,1.15-1.5,1.2-2.3,.3-5.03,1.42-9.76,3.58-14.23,.45-.94,.61-2.15,.61-3.23,.03-31.84,.02-63.68,.03-95.52C19.89,.91,20.72,0,24.78,0c41.66,0,83.32,0,124.97,0,3.21,0,4.81,1.19,4.82,3.55,0,2.38-1.63,3.6-4.8,3.6-40.23,0-80.45,0-120.68,0-.83,0-1.65,0-2.59,0V94.33c2.82-1.54,5.6-2.99,8.28-4.63,.41-.25,.53-1.34,.53-2.04,.03-9.22,.02-18.44,.02-27.66,0-8.58,0-17.16,0-25.74,0-3.73,1.04-4.87,4.4-4.87,46.8,0,93.6,0,140.4,0,3.3,0,4.34,1.11,4.34,4.67,0,35.81,0,71.62,0,107.43,0,3.67-1.04,4.77-4.47,4.77-4.35,0-8.69,0-13.16,0v10.18h26.46V7.16c-.74,0-1.43,0-2.12,0-5.53,0-11.07,0-16.6,0-.59,0-1.18,.03-1.75-.06-1.93-.3-3.08-1.77-2.98-3.76,.1-1.88,1.31-3.28,3.2-3.3,7.88-.06,15.75-.02,23.63-.03,1.66,0,2.57,1.15,3.32,2.54V161.27Zm-120.91-45.7c.1-.35,.18-.61,.24-.88,2.31-9.2,9.01-15.07,17.34-15.2,8.47-.13,15.27,5.48,17.78,14.8,.35,1.3,.96,1.41,1.96,1.41,4.88-.03,9.76-.04,14.64,0,2.29,.02,3.49,1.3,3.62,3.76,.06,1.06,.02,2.13,.02,3.19,0,1.84,0,3.68,0,5.51,7.22-7.23,13.94-14.54,20.6-21.91,2.15-2.38,4.54-3.63,7.53-2.28,2.97,1.34,3.93,4.05,3.91,7.39-.04,8.44-.01,16.87-.01,25.31v2.29h11.19V36.66H41.96v51.43c7.68-.53,14.51,1.68,20.41,6.93,5.95,5.3,9.36,12.19,10.44,20.55h6.28ZM6.75,176.67c-.65,5.95,.72,7.69,5.77,7.69,37.75,0,75.51,0,113.26,0,.75,0,1.49,0,2.19,0v-61.57c-3.87,0-7.58,.06-11.28-.03-1.38-.03-1.97,.38-2.4,1.95-2.76,10.16-12.15,16.09-21.57,13.54-6.71-1.82-11.07-6.53-13.18-13.73-.19-.66-.81-1.59-1.3-1.64-1.78-.2-3.6-.08-5.35-.08-2.84,17.85-14.99,26.14-25.46,27.31-5.91,.66-11.54-.5-16.77-3.65-6.93-4.18-11.46-10.51-13.86-18.7-7.67,4.73-12.62,19.22-9.85,28.8h2.29c16.99,0,33.98,0,50.97,0,3.55,0,4.57,1.09,4.57,4.89,0,3.4,0,6.81,0,10.21,0,3.95-.98,5-4.66,5-16.99,0-33.98,0-50.97,0-.77,0-1.54,0-2.42,0ZM44.34,95.14c-12.21,0-22.09,10.78-22.06,24.07,.02,13.18,9.85,23.88,21.99,23.95,12.18,.06,22.15-10.72,22.17-23.97,.01-13.28-9.88-24.04-22.09-24.04Zm103.16,85.22v-55.57c-4.31,4.7-8.35,9.07-12.34,13.51-.34,.38-.43,1.16-.43,1.75-.03,8.92-.03,17.85,0,26.77,0,.64,.17,1.5,.56,1.89,3.95,3.86,7.97,7.64,12.21,11.66Zm-38.92-61.21c0-6.88-5.19-12.55-11.54-12.62-6.33-.06-11.55,5.56-11.6,12.5-.06,7.02,5.18,12.77,11.59,12.73,6.33-.05,11.55-5.74,11.55-12.61Zm51.51-8.14c-1.86,2.06-3.47,3.7-4.9,5.5-.54,.67-.98,1.7-.98,2.57-.05,22.05-.05,44.09-.02,66.14,0,.66,.11,1.52,.5,1.93,1.66,1.74,3.43,3.35,5.41,5.23V111.01ZM6.66,169.45H58.11v-5.58H6.66v5.58Z"/>
  <path class="cls-1" d="M58.92,21.72c-4.87,0-9.74,.01-14.61,0-2.38,0-3.85-1.31-3.94-3.41-.09-2.17,1.43-3.7,3.89-3.71,9.74-.03,19.48-.03,29.23,0,2.53,0,3.94,1.41,3.9,3.67-.04,2.24-1.44,3.45-4.04,3.46-4.81,.01-9.61,0-14.42,0Z"/>
  <path class="cls-1" d="M95.18,78.82c0-4.68-.02-9.35,0-14.03,.02-4.03,2.22-5.55,5.48-3.79,8.73,4.71,17.44,9.45,26.17,14.16,1.43,.77,2.53,1.73,2.51,3.66-.02,1.82-1.07,2.76-2.43,3.5-8.78,4.74-17.55,9.51-26.34,14.24-3.19,1.72-5.35,.22-5.38-3.7-.03-4.67,0-9.35,0-14.03Zm23.62-.07c-5.94-3.21-11.41-6.18-16.98-9.19v18.4c5.68-3.08,11.12-6.03,16.98-9.21Z"/>
  <path class="cls-1" d="M95.89,167.21c-4.29,0-8.57,.01-12.86,0-2.67,0-4.16-1.33-4.13-3.62,.03-2.27,1.51-3.53,4.21-3.54,8.64-.01,17.27-.01,25.91,0,2.61,0,4.2,1.42,4.17,3.63-.03,2.2-1.6,3.52-4.26,3.53-4.35,.01-8.7,0-13.05,0Z"/>
  <path class="cls-1" d="M44.39,115.72c1.04,0,2.09-.08,3.12,.02,1.72,.16,2.87,1.55,2.92,3.36,.05,1.83-.98,3.39-2.72,3.53-2.26,.18-4.55,.18-6.81-.02-1.71-.15-2.72-1.77-2.63-3.6,.08-1.8,1.26-3.13,3-3.27,1.03-.08,2.08-.02,3.12-.02,0,0,0,0,0,0Z"/>
</svg>