<?xml version="1.0" encoding="UTF-8"?>
<svg id="Layer_1" data-name="Layer 1" xmlns="http://www.w3.org/2000/svg" viewBox="0 0 200 200">
  <defs>
    <style>
      .cls-1 {
        fill: #fff;
      }
    </style>
  </defs>
  <path class="cls-1" d="M0,107.56c0-5.04,0-10.07,0-15.11,.23-.84,.56-1.67,.67-2.53C5.78,49.7,27.31,21.88,64.66,6.71,73.39,3.17,83.16,2.17,92.44,0c5.04,0,10.07,0,15.11,0,.83,.23,1.66,.58,2.5,.67,41.15,4.36,74.91,32.59,86.11,72.32,1.79,6.34,2.58,12.97,3.83,19.46v15.11c-.23,.84-.56,1.67-.67,2.53-5.1,40.22-26.63,68.03-63.99,83.2-8.73,3.54-18.49,4.54-27.78,6.71h-15.11c-.83-.23-1.66-.56-2.51-.67-39.82-5.06-67.63-26.17-82.83-63.18-3.69-8.99-4.81-19.04-7.1-28.6Zm103.04,85.78c52.86-1.61,95.73-48.09,89.77-103.73C187.64,41.28,143.72,1.54,89.84,7.16,41.78,12.18,1.34,55.86,7.21,110.36c5.15,47.81,46.75,84.62,95.83,82.97Z"/>
  <path class="cls-1" d="M114.76,128.74c.47-9.16,1.01-18.31,1.34-27.48,.05-1.43-.32-3.56-1.29-4.24-7.44-5.21-8.73-12.84-7.92-20.87,.54-5.38,2.15-10.71,3.83-15.89,2.05-6.33,7.72-10.12,14.16-10.18,6.38-.06,12.48,3.64,14.25,9.98,1.93,6.89,3.26,14.05,3.88,21.18,.54,6.16-2.25,11.4-7.23,15.46-1.15,.94-1.75,3.24-1.69,4.88,.56,16.26,1.4,32.51,1.99,48.77,.29,8.05-4.14,12.92-11.22,12.83-7.02-.09-11.37-5.21-11.04-13.17,.29-7.09,.71-14.18,1.08-21.28-.04,0-.09,0-.13,0Zm6.54,1.84h-.04c-.31,6.8-.78,13.6-.83,20.41-.01,1.65,.97,3.88,2.25,4.8,1.1,.79,4.02,.75,4.81-.12,1.29-1.42,2.14-3.85,2.07-5.8-.64-17.16-1.48-34.31-2.38-51.45-.15-2.95,.71-4.67,3.18-6.6,2.57-2.01,5.02-5.17,5.79-8.25,1.94-7.78-.45-15.36-3.83-22.28-1.08-2.21-4.72-3.85-7.45-4.39-3.44-.67-6.63,1.51-7.59,4.88-1.69,5.92-3.16,11.98-3.8,18.09-.5,4.8,.85,9.62,5.89,11.95,2.96,1.37,3.58,3.43,3.42,6.4-.58,10.79-.99,21.59-1.47,32.38Z"/>
  <path class="cls-1" d="M78.73,132.88c-.66-12.56-1.47-25.11-1.81-37.68-.06-2.11,1.42-4.96,3.11-6.3,5.64-4.45,7.68-9.83,6.93-16.95-.6-5.71-.33-11.55,.03-17.3,.1-1.55,1.96-2.98,3.01-4.46,1.11,1.45,3.13,2.88,3.18,4.36,.3,9.17,.43,18.37-.05,27.52-.12,2.36-2.22,5.11-4.19,6.76-4.36,3.65-5.82,7.8-5.39,13.48,1.17,15.79,1.8,31.61,2.62,47.43,.34,6.61-2.57,11.39-7.79,12.95-7.5,2.23-14.68-2.97-14.4-10.99,.56-16.27,1.3-32.53,2.45-48.76,.39-5.56-.1-10.12-5-13.5-3.88-2.67-4.95-6.43-4.72-11.14,.38-7.83-.06-15.69,.24-23.53,.06-1.56,1.68-4.16,2.91-4.37,2.9-.5,3.37,1.99,3.36,4.44-.04,7.4,.16,14.81-.09,22.2-.12,3.55,.68,6.34,3.63,8.43,5.32,3.77,6.86,8.75,6.31,15.31-1.24,14.89-1.71,29.84-2.49,44.76-.1,1.92-.24,3.85-.22,5.77,.04,3.09,1.46,5.26,4.74,5.19,3.33-.06,4.6-2.41,4.5-5.43-.2-6.06-.57-12.12-.87-18.18Z"/>
  <path class="cls-1" d="M166.49,104.71c-.12,12.85-6.06,28.18-18.24,40.96-1.11,1.16-3.38,2.14-4.83,1.84-2.72-.55-2.62-3.34,.16-6.31,7.25-7.7,12.22-16.62,14.65-26.92,4.29-18.2,.8-34.84-10.01-50.05-1.55-2.17-5.21-4.66-1.62-7.43,3.6-2.78,5.11,1.29,6.74,3.46,8.79,11.73,13.16,24.98,13.16,44.44Z"/>
  <path class="cls-1" d="M33.49,99.67c0-13.58,3.96-25.92,11.5-37.17,1.4-2.1,3.14-4.34,5.54-2.16,.94,.86,.75,4.19-.14,5.65-15.89,25.88-13.85,52.15,6.09,75.24,1.58,1.83,2.94,3.77,.7,5.73-2.21,1.94-4.04,.4-5.67-1.36-12.01-12.97-17.95-28.3-18.03-45.94Z"/>
  <path class="cls-1" d="M115,41.82c-12.8-2.94-24.25-2.14-35.62,1.61-1.25,.41-3.13-1.1-4.72-1.72,.92-1.45,1.53-3.73,2.81-4.21,12.06-4.57,24.5-5.13,37.03-2.36,1.41,.31,2.8,2.52,3.32,4.13,.19,.58-2.18,2-2.83,2.55Z"/>
  <path class="cls-1" d="M76.64,66.38c0-3.99-.32-8.02,.16-11.95,.19-1.53,2.18-2.84,3.34-4.25,1.06,1.37,2.99,2.71,3.04,4.12,.29,8.26,.29,16.55,0,24.81-.05,1.36-2.04,2.66-3.14,3.98-1.13-1.44-3.07-2.78-3.24-4.33-.46-4.08-.16-8.26-.16-12.39Z"/>
  <path class="cls-1" d="M73.19,67.11c0,3.84,.3,7.72-.14,11.51-.19,1.59-1.95,3-2.99,4.5-1.12-1.42-3.16-2.81-3.21-4.28-.32-8.12-.32-16.26,0-24.37,.06-1.46,2.1-2.85,3.23-4.27,1.04,1.5,2.8,2.93,2.97,4.52,.43,4.09,.14,8.26,.14,12.4Z"/>
  <path class="cls-1" d="M100.02,159.79c2.36,0,4.78-.3,7.07,.12,1.28,.23,2.33,1.66,3.49,2.55-.99,1.23-1.91,3.44-2.99,3.53-4.99,.39-10.04,.39-15.03,.02-1.1-.08-2.04-2.28-3.05-3.5,1.14-.9,2.18-2.34,3.44-2.58,2.29-.42,4.71-.12,7.07-.12,0,0,0-.02,0-.02Z"/>
</svg>