<?xml version="1.0" encoding="UTF-8"?>
<svg id="Layer_1" data-name="Layer 1" xmlns="http://www.w3.org/2000/svg" viewBox="0 0 200 200">
  <defs>
    <style>
      .cls-1 {
        fill: #fff;
      }
    </style>
  </defs>
  <path class="cls-1" d="M0,181.64c.66-1.47,1.12-3.08,2.02-4.39,2.19-3.17,5.37-4.6,9.21-4.6,5.21,0,10.41,0,15.62,0,25.84,0,51.68,0,77.52,0h2.64c-5.66-20.2-11.28-40.23-16.96-60.51-6.8,5.23-14.12,6.48-22.26,3.16-.04,.86-.1,1.54-.1,2.22,0,7.29,0,14.58,0,21.87,0,3.25-.33,3.69-3.47,4.73-8.63,2.87-17.25,5.78-25.9,8.59-1.41,.46-1.95,1.1-1.87,2.6,.13,2.6,.07,5.21,.02,7.81-.05,2.13-1.05,3.26-2.78,3.32-1.8,.06-2.99-1.12-3.03-3.3-.07-3.84-.02-7.68-.02-11.52,0-2.04,1.26-2.94,3.04-3.53,8.7-2.86,17.37-5.81,26.09-8.63,1.52-.49,2.15-1.11,2.12-2.82-.1-8.01-.01-16.01-.09-24.02,0-.95-.36-2.08-.95-2.8-3.38-4.11-4.89-8.8-4.88-14.07,.02-8.46,0-16.92,0-25.39,0-.71,0-1.42,0-2.8-2.69,1.86-5.17,3.25-7.26,5.08-6.91,6.02-10.93,13.6-11.65,22.83-.08,.97-.19,1.94-.29,2.91-.17,1.68-1.14,2.6-2.77,2.73-1.51,.13-2.89-1.06-2.96-2.75-.07-1.81,.02-3.66,.31-5.45,2.29-14.2,9.94-24.46,22.87-30.74,1.06-.51,1.79-.89,1.8-2.33,.04-6.87,1.02-8.58,6.51-12.26-1.41-2-3.1-3.87-4.14-6.05-1.07-2.24-2.05-4.78-2.11-7.21-.16-6.28-.53-12.71,.55-18.85C58.52,5.87,68.55-.84,78.3,.09c10.1,.96,18.21,9.33,18.6,19.34,.17,4.35,.14,8.72,.04,13.08-.14,6.03-1.71,9.42-6.66,15.02,.66,.41,1.32,.78,1.94,1.21,3.25,2.25,4.78,5.38,4.77,9.31-.01,4.88,0,9.76,0,14.65,0,.7,0,1.4,0,2.31h2.29c7.16,0,14.32,0,21.48,0,.46,0,.91-.01,1.37,0,2.13,.09,3.37,1.22,3.32,3.01-.04,1.7-1.26,2.81-3.3,2.83-5.01,.04-10.02,.01-15.04,.01-3.3,0-6.61,0-10.13,0,0,3.95,.01,7.71,0,11.47-.01,3.77,.43,7.65-1.25,11.15-1.15,2.4-.79,4.5-.12,6.87,5.7,20.13,11.32,40.28,16.93,60.44,.39,1.4,.95,1.91,2.49,1.91,13.99-.07,27.99-.04,41.98-.04,.58,0,1.15,0,1.91,0-.71-5.24-1.38-10.31-2.07-15.38-2.02-14.82-4.08-29.64-6.06-44.46-.61-4.6-.53-4.61-5.2-4.61-10.54,0-21.09,.06-31.63-.02-7.83-.06-12.91-7.16-10.42-14.36,1.48-4.27,5.49-7.04,10.42-7.09,4.81-.05,9.62-.01,14.31-.01,.84-1.77,1.43-3.53,2.41-5.02,2.93-4.47,7.21-6.63,12.52-6.68,5.01-.05,10.03-.07,15.04,.02,1.5,.03,2.51-.47,3.55-1.51,7.6-7.68,15.23-15.33,22.92-22.92,4.59-4.53,11.54-3.53,14.29,1.99,1.59,3.2,1.25,6.31-.86,9.19-.57,.78-1.28,1.47-1.97,2.16-8.46,8.47-16.92,16.96-25.42,25.39-.97,.97-1.29,1.86-1.1,3.25,2.09,14.88,4.09,29.76,6.12,44.65,1.6,11.72,3.2,23.44,4.84,35.42,2.29,0,4.55,0,6.8,0,2.99,0,5.99-.03,8.98,0,2.49,.03,3.55,1.09,3.57,3.6,.03,4.1,.03,8.2,0,12.3-.03,5.72-2.79,9.39-8.27,11.1-.25,.08-.47,.22-.7,.33h-49.6c-1.51-.97-2.01-2.34-1.98-4.13,.08-5.14,.03-10.28,.03-15.42v-1.93c-.82,0-1.34,0-1.85,0-41.98,0-83.95,0-125.93,0-.46,0-.92-.02-1.37,.04-1.9,.25-3.24,1.3-4.02,3.01-.78,1.7-.46,3.3,.66,4.76,1.28,1.67,3.04,1.98,5.03,1.98,38.98-.02,77.96-.02,116.95-.02,3.19,0,4.63,.9,4.65,2.9,.02,2.02-1.44,2.96-4.6,2.96-35.66,0-71.33,0-106.99,0h-2.26q-.55,4.56-2.14,5.86h-1.95c-2.33-1.3-1.91-3.67-2.01-5.86-.98,0-1.74,0-2.51,0-3.8-.03-6.95-1.47-9.11-4.63-.89-1.3-1.34-2.89-2-4.36,0-1.17,0-2.34,0-3.52ZM90.99,93.7c.06-.42,.12-.67,.12-.92,0-11.65,.03-23.3-.01-34.95-.01-3.09-2.1-5.06-5.23-5.07-6.18-.03-12.36-.03-18.55,0-3.89,.02-6.05,2.75-5.21,6.73,.75-.11,1.5-.25,2.27-.32,2.07-.19,4.16-.6,6.21-.43,.98,.08,2.32,1.1,2.66,2.01,.3,.8-.35,2.19-.97,3.02-.4,.53-1.51,.59-2.33,.7-2.68,.37-5.36,.67-7.97,.99v28.24h29Zm54.45,84.86v15.58c2.02,0,3.9,0,5.78,0,12.43,0,24.86,0,37.3,0,2.78,0,5.11-1.26,5.31-3.6,.34-3.96,.09-7.98,.09-11.98h-48.49Zm29.25-5.98c-2.94-21.57-5.86-42.93-8.76-64.23h-9.86c2.94,21.52,5.85,42.88,8.76,64.23h9.86ZM61.98,27.36c-.64,6.87,.36,13.01,6.44,17.01,5.2,3.42,10.68,3.38,16.01,.13,5.27-3.22,7.71-9.77,6.45-17.14-2.03,0-4.12,.18-6.15-.07-1.24-.15-2.67-.71-3.55-1.56-3.09-2.98-6.26-2.97-9.37,.01-.88,.85-2.31,1.39-3.55,1.55-2.04,.25-4.12,.07-6.27,.07Zm72.88,59.37h1.93c8.84,0,17.69-.02,26.53,.03,1.27,0,2.16-.35,3.06-1.26,8.61-8.68,17.27-17.31,25.91-25.96,.41-.41,.84-.82,1.18-1.29,.94-1.29,.85-2.61-.23-3.72-1.08-1.11-2.41-1.24-3.71-.33-.58,.4-1.09,.93-1.59,1.43-7.82,7.81-15.65,15.62-23.43,23.47-1.23,1.24-2.54,1.83-4.31,1.8-5.72-.08-11.44-.06-17.17-.01-3.99,.03-7.13,2.28-8.17,5.84Zm13.14,5.86c-5.38,0-10.57,0-15.77,0-6.12,0-12.23,0-18.35,0-2.27,0-3.88,1.11-4.77,3.1-.77,1.74-.58,3.66,.89,4.85,1.17,.94,2.84,1.72,4.3,1.74,11.12,.14,22.25,.08,33.38,.07,.5,0,1-.08,1.63-.13-.44-3.22-.86-6.31-1.31-9.63ZM91,21.49c.39-8.8-6.5-15.9-14.86-15.6-8.31,.3-14.91,7.48-14.11,15.6,.74,0,1.51-.03,2.27,0,2.04,.11,3.72-.25,5.51-1.65,4.29-3.38,10.15-2.88,14.39,.7,.47,.4,1.06,.86,1.63,.9,1.67,.12,3.36,.04,5.17,.04Zm-.41,78.2h-28.21c.89,6.46,7.28,11.67,14.18,11.63,6.85-.04,13.28-5.31,14.03-11.63Zm73.21-6.89h-9.85c.46,3.29,.88,6.35,1.32,9.46h9.81c-.44-3.24-.85-6.36-1.27-9.46Z"/>
</svg>