<?xml version="1.0" encoding="UTF-8"?>
<svg id="Layer_1" data-name="Layer 1" xmlns="http://www.w3.org/2000/svg" viewBox="0 0 200 200">
  <defs>
    <style>
      .cls-1 {
        fill: #fff;
      }
    </style>
  </defs>
  <path class="cls-1" d="M0,123.07c.88-3.01,1.46-6.17,2.69-9.02,5.38-12.52,18.77-19.54,31.52-16.71,13.45,2.98,22.86,14.82,22.92,28.84,.06,15.32-11.31,28.51-25.6,29.69-15.51,1.29-28.68-9.2-31.16-24.8-.06-.38-.24-.74-.37-1.11,0-2.3,0-4.59,0-6.89Zm28.23,27.24c12.63,.27,23.18-10.25,23.42-23.36,.25-13.21-9.78-24.22-22.33-24.51-12.85-.3-23.56,10.11-23.84,23.18-.29,13.53,9.74,24.42,22.74,24.69Z"/>
  <path class="cls-1" d="M99.81,200c-11.78,0-23.57,0-35.35,0-5.63,0-8.55-3.02-8.56-8.83,0-6.48,.15-12.96-.03-19.44-.49-18.08,12.62-30.88,27.29-33.63,2.8-.53,5.69-.73,8.54-.73,7.55,0,15.12-.2,22.64,.37,14.24,1.06,26.49,12.47,29.22,26.75,.38,1.97,.51,4.02,.53,6.03,.06,6.95,.03,13.9,.02,20.86,0,5.54-3,8.63-8.36,8.63-11.98,0-23.96,0-35.94,0Zm19.46-5.79c0-.84,0-1.56,0-2.29,0-5.4,0-10.8,0-16.2,0-1.89-.06-3.78,.05-5.67,.1-1.7,1.02-2.83,2.73-2.8,1.69,.02,2.58,1.09,2.67,2.85,.03,.61,.02,1.21,.02,1.82,0,6.68,0,13.36,0,20.04,0,.72,0,1.44,0,2.36,3.82,0,7.38,.01,10.95,0,2.38,0,2.95-.62,2.96-3.14,0-7.02,.04-14.04-.02-21.06-.02-1.74-.19-3.51-.56-5.21-2.42-11.41-12.42-20.62-24.09-21.51-7.71-.59-15.48-.37-23.22-.37-2.39,0-4.82,.27-7.17,.74-10.92,2.18-20.28,10.8-21.56,21.5-1.07,8.91-.52,18.04-.56,27.08,0,.64,1.04,1.83,1.63,1.85,4,.17,8.01,.09,12.18,.09v-2.45c0-6.61,0-13.23,0-19.84,0-.81-.23-1.79,.13-2.39,.55-.93,1.39-1.97,2.32-2.27,1.29-.42,2.4,.46,2.79,1.88,.21,.76,.22,1.6,.22,2.4,.02,6.82,0,13.63,.01,20.45,0,.71,.07,1.42,.1,2.15h38.41Z"/>
  <path class="cls-1" d="M74.26,24.16c-1.81,1.26-3.29,2.32-4.8,3.34-1.78,1.2-3.32,1.02-4.26-.48-.88-1.41-.49-2.99,1.13-4.14,10.3-7.31,20.62-14.6,30.93-21.9,1.82-1.29,3.63-1.3,5.45-.01,10.31,7.29,20.63,14.58,30.93,21.9,1.65,1.17,2.03,2.73,1.15,4.14-.93,1.5-2.47,1.7-4.25,.5-1.51-1.02-2.99-2.08-4.81-3.35,0,1.07,0,1.78,0,2.49,0,8.1,0,16.19,0,24.29,0,4.46-1.76,6.29-6.02,6.3-13.14,.01-26.29,.01-39.43,0-4.27,0-6.02-1.83-6.02-6.29-.01-8.1,0-16.19,0-24.29,0-.71,0-1.42,0-2.5Zm45.81,27.26c.1-.39,.17-.52,.17-.64,.01-9.78,.04-19.57-.02-29.35,0-.69-.61-1.59-1.2-2.02-5.87-4.24-11.81-8.38-17.69-12.6-.91-.65-1.54-.79-2.55-.06-5.87,4.24-11.79,8.41-17.73,12.55-.98,.68-1.35,1.4-1.34,2.62,.05,9.25,.02,18.49,.03,27.74,0,.58,.07,1.16,.11,1.74h9.89c0-.85,0-1.58,0-2.3,0-3.37-.07-6.75,.05-10.12,.18-5.09,3.9-9.25,8.69-9.91,5.11-.7,9.8,2.24,11.24,7.24,.42,1.45,.47,3.05,.5,4.59,.07,3.49,.02,6.98,.02,10.54h9.82Zm-15.4,0c0-4.39,.14-8.68-.06-12.95-.11-2.22-2.35-3.86-4.56-3.89-2.2-.03-4.53,1.58-4.65,3.77-.22,4.33-.06,8.68-.06,13.06h9.33Z"/>
  <path class="cls-1" d="M33.05,88.34c-15.65,.01-28.44-13.21-28.46-29.44-.02-16.52,12.71-29.83,28.53-29.79,15.87,.03,28.61,13.3,28.59,29.77-.02,16.29-12.82,29.45-28.66,29.46Zm-.06-5.68c12.84,.02,23.2-10.57,23.25-23.77,.05-13.33-10.29-24.09-23.16-24.11-12.62-.01-23,10.73-23.02,23.81-.02,13.33,10.19,24.05,22.93,24.07Z"/>
  <path class="cls-1" d="M195.4,58.71c.04,16.45-12.7,29.63-28.66,29.63-15.62,0-28.45-13.29-28.45-29.47,0-16.39,12.72-29.72,28.41-29.76,15.92-.04,28.67,13.11,28.71,29.6Zm-5.47,.2c.08-13.27-10.13-24.04-22.9-24.13-12.64-.09-23.17,10.58-23.28,23.58-.11,13.41,10.13,24.25,22.94,24.29,12.87,.04,23.15-10.47,23.23-23.75Z"/>
  <path class="cls-1" d="M171.38,155.98c-15.79,0-28.47-13.14-28.51-29.57-.04-16.42,12.75-29.65,28.67-29.65,15.57,0,28.45,13.36,28.45,29.52,0,16.5-12.72,29.7-28.62,29.7Zm-23.04-29.63c-.03,13.27,10.17,23.88,23.03,23.97,12.6,.08,23.09-10.65,23.15-23.69,.07-13.35-10.25-24.17-23.08-24.2-12.75-.03-23.07,10.66-23.1,23.92Z"/>
  <path class="cls-1" d="M125.43,107.11c-.02,14.65-11.52,26.49-25.63,26.39-14-.1-25.25-11.94-25.24-26.59,0-14.38,11.49-26.3,25.34-26.29,14.17,.01,25.56,11.82,25.53,26.49Zm-5.47-.02c0-11.39-8.84-20.71-19.74-20.79-11.19-.08-20.22,9.28-20.2,20.94,.02,11.3,9.04,20.61,19.94,20.59,11.05-.02,19.99-9.29,19.99-20.74Z"/>
  <path class="cls-1" d="M77.52,83.51c-.02,2.52-2.05,3.97-3.88,2.95-4.05-2.26-8.02-4.69-11.96-7.16-1.27-.79-1.54-2.18-.84-3.55,.74-1.44,2.05-2.06,3.45-1.26,4.09,2.33,8.13,4.77,12.12,7.28,.62,.39,.89,1.37,1.12,1.75Z"/>
  <path class="cls-1" d="M139.48,77.66c-.31,.39-.78,1.42-1.57,1.91-3.66,2.31-7.39,4.5-11.12,6.68-1.59,.93-3.14,.54-3.94-.81-.83-1.42-.37-3.09,1.26-4.09,3.69-2.25,7.39-4.5,11.14-6.65,2.06-1.18,4.19,.06,4.22,2.96Z"/>
  <path class="cls-1" d="M137.22,122.36c-2.86-.82-6.13-1.64-9.33-2.71-1.36-.45-1.99-1.76-1.55-3.27,.45-1.55,1.59-2.39,3.13-2,3.15,.78,6.27,1.66,9.37,2.62,1.54,.48,2.1,1.79,1.73,3.36-.36,1.52-1.47,2.13-3.35,2.01Z"/>
  <path class="cls-1" d="M102.73,68.87c0,1.55,.05,3.1-.01,4.65-.07,1.74-1.02,2.75-2.68,2.88-1.45,.11-2.7-1.14-2.73-2.81-.07-3.24-.07-6.48,0-9.71,.04-1.69,1.27-2.86,2.76-2.76,1.7,.12,2.59,1.17,2.65,2.89,.06,1.62,.01,3.24,.01,4.86Z"/>
  <path class="cls-1" d="M73.79,117.72c-.43,.46-1.05,1.68-1.96,2-2.93,1.03-5.96,1.8-8.98,2.55-1.78,.44-3.14-.45-3.47-2.01-.34-1.61,.44-2.91,2.22-3.44,2.86-.85,5.74-1.65,8.63-2.38,1.9-.48,3.51,.76,3.57,3.28Z"/>
  <path class="cls-1" d="M34.93,119.8c1.91,0,3.4-.05,4.89,.01,3.4,.14,6.01,2.85,6.17,6.34,.15,3.29-2.23,6.3-5.52,6.75-1.72,.24-3.48,.19-5.48,.28,0,1.41,.02,2.74,0,4.06-.09,4.31-2.8,7.33-6.52,7.25-3.69-.08-6.22-3.02-6.26-7.28,0-1.27,0-2.54,0-4.01-1.99-.11-3.86-.07-5.69-.35-3.4-.52-5.53-3.5-5.27-7.09,.24-3.27,2.81-5.82,6.07-5.96,1.54-.06,3.09-.01,4.89-.01,0-1.74-.03-3.27,0-4.8,.1-3.69,2.7-6.46,6.11-6.55,3.49-.1,6.25,2.38,6.57,6.06,.15,1.66,.02,3.34,.02,5.29Zm.61,7.59c1.11,0,2.23,.12,3.31-.05,.56-.09,1.05-.67,1.57-1.03-.51-.28-1-.79-1.52-.82-1.95-.1-3.9-.02-5.85-.05-2.57-.03-3.47-.98-3.52-3.68-.03-1.69,.09-3.38-.05-5.05-.07-.87-.58-2.46-.84-2.45-1.55,.05-.88,1.46-.93,2.33-.1,1.75,0,3.5-.04,5.26-.04,2.55-1,3.56-3.43,3.6-2.02,.03-4.03-.05-6.05,.05-.49,.03-.96,.59-1.43,.91,.48,.33,.95,.91,1.45,.94,2.01,.11,4.03,.03,6.05,.06,2.47,.04,3.38,.99,3.42,3.57,.03,1.95-.07,3.92,.05,5.86,.04,.65,.58,1.26,.89,1.88,.3-.66,.76-1.29,.87-1.98,.15-.99,.04-2.02,.04-3.03q0-6.31,6.01-6.31Z"/>
  <path class="cls-1" d="M41.87,50.72c-.61,.61-1.3,1.81-2.22,2.04-.83,.21-1.98-.52-2.86-1.04-.44-.26-.55-1.05-.9-1.52-1.04-1.4-2.44-1.8-4-1.19-1.57,.62-2.35,1.94-2.16,3.68,.18,1.72,1.2,2.8,2.86,3.14,.76,.15,1.56,.14,2.32,.3,3.87,.85,6.49,3.78,7.08,7.89,.53,3.67-1.29,7.45-4.65,9.25-1.08,.58-1.49,1.19-1.46,2.45,.05,2.2-1.01,3.49-2.65,3.55-1.69,.06-2.79-1.28-2.76-3.6,.02-1.15-.27-1.82-1.35-2.32-2.05-.94-3.43-2.63-4.25-4.79-.62-1.63-.23-3,1.29-3.74,1.52-.74,2.84-.23,3.59,1.35,.76,1.59,1.82,2.64,3.61,2.57,1.73-.07,3.17-1.67,3.24-3.45,.07-1.77-1.2-3.34-3.01-3.67-.89-.16-1.82-.14-2.69-.38-3.62-.98-6.24-4.13-6.64-7.87-.39-3.69,1.38-7.42,4.63-9.08,1.29-.66,1.6-1.43,1.57-2.77-.04-2.05,1.03-3.23,2.69-3.22,1.66,0,2.8,1.19,2.7,3.23-.07,1.53,.5,2.2,1.74,2.88,2.22,1.21,3.64,3.2,4.27,6.34Z"/>
  <path class="cls-1" d="M166.86,43.32c3.32,0,6.64-.03,9.96,0,4.53,.05,7.3,2.87,7.4,7.55,.03,1.48,.14,3.01-.17,4.43-.26,1.18-.83,2.6-1.72,3.24-1.36,.98-1.56,2.07-1.5,3.56,.08,2.22,.05,4.45,.01,6.68-.05,3.38-1.86,5.29-5.08,5.31-5.92,.03-11.85,.03-17.77,0-3.26-.01-5.03-1.83-5.12-5.27-.06-2.5,.07-5-.07-7.49-.04-.79-.49-1.74-1.06-2.27-1.34-1.25-2.2-2.63-2.2-4.53,0-1.28-.03-2.57,0-3.85,.08-4.42,2.84-7.29,7.15-7.35,3.38-.05,6.77-.01,10.15-.01Zm11.82,10.73c.03-.5,.07-1.03,.08-1.56,.04-3.37-.09-3.5-3.38-3.5-5.33,0-10.66,0-15.99,0q-4.62,0-4.32,4.86c0,.11,.12,.22,.19,.33,2.76,.84,3.07,1.25,3.08,4.26,0,3.28,0,6.57,0,9.84h17.05c0-3.24,0-6.33,0-9.42,0-3.45,.17-3.71,3.3-4.81Z"/>
  <path class="cls-1" d="M171.42,114.13c2.78-2.76,6.02-3.91,9.71-3.03,7.47,1.79,10.36,11.24,5.13,17.08-3.85,4.3-7.93,8.37-11.97,12.47-1.87,1.9-4.05,1.77-6.03-.26-3.8-3.88-7.6-7.76-11.3-11.73-3.98-4.27-4.03-10.44-.24-14.57,3.76-4.1,9.67-4.31,14.06-.5,.15,.13,.3,.25,.64,.54Zm-.19,21.38c3.82-3.87,7.57-7.5,11.09-11.36,.76-.83,1.02-2.46,.98-3.71-.05-1.82-1.24-3.11-2.91-3.68-1.89-.65-3.6-.16-4.99,1.33-1.19,1.27-2.43,2.81-4.26,2.33-1.35-.36-2.6-1.39-3.7-2.35-2.19-1.91-4.83-2.06-6.66-.19-1.87,1.91-1.89,4.71,.12,6.86,3.39,3.63,6.87,7.17,10.32,10.77Z"/>
</svg>