<?xml version="1.0" encoding="UTF-8"?>
<svg id="Layer_1" data-name="Layer 1" xmlns="http://www.w3.org/2000/svg" viewBox="0 0 200 200">
  <defs>
    <style>
      .cls-1 {
        fill: #fff;
      }
    </style>
  </defs>
  <path class="cls-1" d="M0,185.15v-2.73c.95-1.82,2.42-2.48,4.47-2.42,4,.11,8.01,.03,12.22,.03,0-1.09,0-1.92,0-2.75,0-25.18,0-50.36,.01-75.53,0-1.36-.01-2.76,.3-4.07,1.16-4.88,5.12-7.68,10.79-7.69,11.06-.02,22.12,0,33.17,0,.74,0,1.49,0,2.33,0,0-1.17,.02-2.01,0-2.85-.07-2.38-1.19-3.58-3.55-3.79-.58-.05-1.17-.02-1.76-.02-10.21,0-20.42,.04-30.64-.02-6.56-.03-10.54-4.05-10.65-10.58-.02-.88,0-1.76,0-2.19-3.25-.64-6.24-.82-8.9-1.85C3.34,66.93,1.14,63.08,0,58.59,0,46.22,0,33.85,0,21.48c.13-.43,.28-.85,.4-1.28,1.83-6.25,6.26-10,12.76-10.11,11.19-.18,22.39-.21,33.58,0,7.95,.15,13.15,5.71,13.24,13.89,.12,10.67,.13,21.35,0,32.03-.1,8.56-5.68,13.91-14.23,13.94-6.51,.02-13.02,0-19.52,0-.89,0-1.78,0-2.64,0-.82,5.33,.52,6.8,5.28,6.72,10.09-.16,20.18-.08,30.26-.04,6.73,.03,10.76,4.13,10.82,10.87,0,.76,0,1.52,0,2.31h26.5v-29.81c-4.2,0-8.23,.05-12.26,0-8.54-.12-14.17-5.62-14.22-14.02-.07-10.68-.05-21.35,0-32.03,.02-4.7,1.69-8.72,5.66-11.4,1.68-1.14,3.73-1.73,5.61-2.56,12.5,0,24.99,0,37.49,0,.29,.12,.57,.28,.87,.37,6.54,1.87,10.32,6.58,10.38,13.4,.1,10.8,.09,21.61,0,32.41-.05,5.67-2.46,10.22-7.8,12.44-2.54,1.05-5.54,1.17-8.36,1.35-3.41,.22-6.85,.05-10.34,.05v29.8h36.31c.18-1.96,.15-3.81,.54-5.57,1.02-4.59,5.04-7.53,10.28-7.6,4.1-.06,8.2,.02,12.3-.03,2.14-.02,3.4-.91,3.57-2.83,.2-2.3,.05-4.63,.05-7.1-4.17,0-8.19,.03-12.22,0-8.21-.07-13.88-4.8-14.16-12.93-.4-11.57-.33-23.17,.07-34.74,.25-7.25,5.83-12.22,13.11-12.32,11.13-.14,22.26-.16,33.38,0,7.52,.11,13.11,5.69,13.21,13.16,.15,11.19,.14,22.39,0,33.58-.07,5.47-2.7,9.7-7.76,11.86-2.3,.99-5.03,1.18-7.58,1.33-3.67,.21-7.37,.05-11.24,.05,0,1.92,0,3.6,0,5.27-.02,7.36-3.97,11.31-11.34,11.33-3.77,0-7.55-.04-11.32,.02-2.73,.04-3.89,1.24-4.02,3.94-.04,.83,0,1.66,0,2.71,.92,0,1.62,0,2.32,0,7.61,0,15.23-.02,22.84,.02,1.42,0,2.89,.09,4.24,.46,4.69,1.27,7.22,5.09,7.22,10.72,0,25.38,0,50.77,0,76.15,0,.83,0,1.65,0,2.37,.35,.17,.46,.27,.57,.27,3.38,.02,6.76,.05,10.15,.05,5.57,0,6.79,1.55,5.53,7-.04,.19-.13,.37-.18,.56-2.26,7.72-8.45,12.37-16.67,12.4-11.19,.04-22.38,.01-33.58,.01-43.73,0-87.46,0-131.18,0-4.51,0-8.58-1.13-12.08-4.11C2.47,193.04,.87,189.3,0,185.15Zm110.05-35.15c-.18,1.14-.26,2.17-.52,3.16-1.66,6.32-6.7,10.12-13.55,10.14-12.49,.03-24.99,0-37.48,.01-5.69,0-7.47,1.47-8.58,7.08-.35,1.78-1.74,2.97-3.39,2.91-1.68-.07-2.98-1.34-3.17-3.14-.06-.52-.03-1.04-.03-1.56,0-12.5-.01-24.99,0-37.49,0-8.86,5.48-14.34,14.35-14.41,1.8-.01,3.61,0,5.49,0v-19.93c-.68-.04-1.25-.1-1.83-.1-11.13,0-22.25-.01-33.38,0-3.61,0-4.61,1.03-4.61,4.68,0,25.51,0,51.03,0,76.54,0,.68,.07,1.36,.1,1.99H176.59c0-.72,0-1.3,0-1.88,0-25.58,0-51.16,0-76.74,0-3.58-1.03-4.59-4.69-4.6-7.74-.01-15.49,0-23.23,0-.63,0-1.25,.07-2.04,.12,0,1.99,.06,3.8-.02,5.61-.05,1.12,.44,1.53,1.42,1.93,5.34,2.17,8.44,6.22,8.52,11.94,.19,13.34,.08,26.68,.06,40.03,0,2.15-1.22,3.48-3.06,3.62-1.92,.14-3.27-1.11-3.57-3.31-.62-4.51-3.01-6.59-7.61-6.6-10.15-.01-20.3,0-30.45,0h-1.84ZM36.78,63.3c2.92,0,5.7,0,8.48,0,5.63,0,8.06-2.42,8.06-8.09,.01-10.15,0-20.31,0-30.46,0-.71-.03-1.43-.11-2.14-.41-3.37-2.85-5.82-6.23-5.85-11.32-.08-22.65-.08-33.97,0-3.5,.03-6.26,2.71-6.3,6.21-.11,11.32-.11,22.65,0,33.98,.03,3.65,2.93,6.29,6.61,6.33,5.27,.07,10.54,.02,15.81,.01,.24,0,.48-.09,.75-.14v-19.84h-6.4v-6.67h6.44c.71-9.58,8.47-14.46,16.56-13.05v6.01c-2.33,.49-4.59,.61-6.54,1.46-2.18,.95-3.17,3.04-3.21,5.68h9.76v6.63h-9.72v19.94Zm113.03,81.77c.09-.52,.13-.65,.13-.77,0-8.85,.02-17.69,.01-26.54,0-5.23-2.52-7.74-7.79-7.75-12.62-.01-25.23-.02-37.85,0-5.14,0-7.65,2.52-7.68,7.68-.03,5.92-.02,11.84,0,17.76,.02,5.36,2.56,7.87,7.91,7.88,11.64,0,23.28,0,34.92,0,3.5,0,7.02-.25,10.35,1.75ZM99.92,6.65c-5.2,0-10.41,0-15.61,0-4.97,.01-7.67,2.62-7.68,7.53-.03,10.54-.03,21.08,0,31.62,.01,4.86,2.61,7.49,7.49,7.52,10.54,.05,21.08,.04,31.61,0,4.99-.02,7.57-2.65,7.59-7.62,.02-10.48,.02-20.95,0-31.43-.01-4.95-2.68-7.61-7.59-7.62-5.27-.02-10.54,0-15.81,0Zm93.37,30.26c0-5.4,.02-10.8,0-16.2-.02-4.67-2.73-7.39-7.41-7.4-10.6-.02-21.21-.02-31.81,0-4.72,0-7.4,2.62-7.43,7.38-.05,10.67-.06,21.34,0,32.01,.03,4.65,2.65,7.27,7.31,7.3,10.67,.06,21.34,.06,32,0,4.73-.03,7.32-2.74,7.34-7.47,.02-5.21,0-10.41,0-15.62ZM89.95,123.43c-.79-.04-1.24-.08-1.69-.08-10.28,0-20.56-.02-30.84,0-4.86,.01-7.42,2.63-7.43,7.52-.01,8.53,0,17.05,0,25.58,0,.55,.06,1.1,.11,1.93,3.4-1.95,6.92-1.76,10.43-1.76,9.63,.02,19.26,0,28.89,0,2.47,0,4.95,.06,7.42-.03,3.73-.13,6.43-3.01,6.22-6.03-2.62-1.08-5.26-1.76-7.42-3.16-4.15-2.69-5.69-6.92-5.69-11.76,0-4.02,0-8.04,0-12.22Zm102.49,63.37H7.36c.21,.52,.32,.88,.5,1.2,2.2,3.83,5.58,5.35,9.91,5.35,54.8-.03,109.6-.02,164.39-.02,.59,0,1.17,0,1.76-.04,3.99-.3,7.32-2.81,8.53-6.49ZM70.02,116.55h19.74c1.55-5.96,1.7-7.34,3.88-8.8,3.09-2.07,3.22-4.8,2.99-7.89-.03-.45-.06-.92,0-1.36,.2-1.46-.39-1.89-1.85-1.88-7.67,.07-15.33,.03-23,.04-.57,0-1.13,.08-1.76,.13v19.77Zm69.8-19.78h-36.33v6.41h36.33v-6.41Z"/>
  <path class="cls-1" d="M116.78,123.45h6.42v6.41h-6.42v-6.41Z"/>
  <path class="cls-1" d="M130.1,129.9v-6.39h6.42v6.39h-6.42Z"/>
  <path class="cls-1" d="M86.67,30c0-4.22,.02-8.45-.01-12.67-.01-1.55,.39-2.83,1.82-3.6,1.38-.74,2.63-.33,3.83,.48,6.32,4.22,12.65,8.41,18.95,12.65,2.76,1.86,2.77,4.41,.03,6.25-6.3,4.24-12.65,8.42-18.96,12.64-1.29,.86-2.79,1.38-3.95,.34-.88-.79-1.58-2.24-1.64-3.43-.19-4.21-.08-8.44-.08-12.67Zm17.31,0c-3.68-2.44-7.05-4.67-10.56-6.99v14.02c3.58-2.38,6.95-4.62,10.56-7.02Z"/>
  <path class="cls-1" d="M186.41,53.21h-6.42c0-3.66-.02-7.22,0-10.78,.02-1.79-.47-3.35-1.86-4.52-1.51-1.27-3.24-1.66-5.08-.8-2,.93-3.08,2.56-3.11,4.78-.05,3.12-.02,6.24-.02,9.36,0,.63,0,1.26,0,1.99h-6.52V30.04c1.94,0,4.15-.59,5.72,.16,1.66,.79,2.81,.14,4.16-.04,6.36-.87,12.35,3.33,13.03,9.71,.47,4.36,.09,8.8,.09,13.34Z"/>
  <path class="cls-1" d="M159.84,53.21h-6.44V30.19h6.44v23.02Z"/>
  <path class="cls-1" d="M159.84,20.07v6.47h-6.4v-6.47h6.4Z"/>
  <path class="cls-1" d="M63.38,143.19v-6.38h6.47v6.38h-6.47Z"/>
  <path class="cls-1" d="M83.19,136.84v6.39h-6.47v-6.39h6.47Z"/>
</svg>