<?xml version="1.0" encoding="UTF-8"?>
<svg id="Layer_1" data-name="Layer 1" xmlns="http://www.w3.org/2000/svg" viewBox="0 0 200 200">
  <defs>
    <style>
      .cls-1 {
        fill: #fff;
      }
    </style>
  </defs>
  <path class="cls-1" d="M0,104.83c.55-.53,1.04-1.2,1.68-1.58,1.96-1.15,4.12,.14,4.43,2.75,.32,2.66,.47,5.34,.59,8.02,.09,2.12-1.08,3.57-2.78,3.67-1.6,.1-2.88-1.12-3.23-3.09-.24-1.37-.46-2.74-.69-4.11,0-1.89,0-3.78,0-5.67Z"/>
  <path class="cls-1" d="M155.81,47.57c-1.7,3.17-3.33,6.07-4.79,9.06-.24,.49,.15,1.52,.55,2.08,6.48,9.18,10.78,19.36,12.72,30.53,2.85,16.45,.76,32.26-6.59,47.15-8.37,16.96-21.22,28.99-38.37,35.86-12.53,5.02-25.54,6.44-38.73,3.63-26.15-5.57-44.72-21.21-54.05-47.07-9.27-25.68-5.42-50.05,10.72-71.93,11.32-15.35,26.57-24.43,44.89-27.55,17.75-3.02,34.4,.55,49.71,10.46,1.1,.71,2.19,1.43,3.53,2.31,1.08-3.64,2.15-7.12,3.08-10.64,.12-.43-.4-1.19-.8-1.61-3.92-4.04-7.86-8.06-11.84-12.03-.48-.48-1.22-.72-1.87-1-1.2-.51-2.46-.89-3.62-1.48-1.41-.73-1.89-2.08-1.45-3.59,.44-1.51,1.53-2.3,3.12-2.17,.58,.05,1.15,.17,1.59,.24,1-1.87,1.73-3.85,2.95-5.42,4.35-5.62,11.36-5.88,16.16-.7,3.07,3.31,6.13,6.62,9.07,10.05,1.18,1.38,2.22,1.77,4,1.18,9.6-3.14,19.27-6.06,28.88-9.18,2.23-.73,3.84-.36,5.38,1.45,1.68,1.96,3.57,3.73,5.36,5.61,2.34,2.45,2.1,4.43-.8,6.11-7.83,4.54-15.68,9.04-23.52,13.56-.39,.23-.77,.49-1.4,.9,1.57,1.72,3.06,3.36,4.55,5,1.92,2.11,3.87,4.19,5.75,6.34,.74,.86,1.4,1.13,2.52,.72,2.45-.89,4.98-1.55,7.45-2.38,1.73-.58,3.15-.34,4.4,1.13,1.42,1.66,2.98,3.2,4.43,4.84,1.86,2.1,1.6,4.08-.79,5.47-4.25,2.47-8.57,4.82-12.81,7.31-.79,.46-1.54,1.24-1.98,2.06-2.31,4.22-4.5,8.51-6.75,12.76-1.69,3.2-3.43,3.43-5.93,.84-1.47-1.53-2.93-3.07-4.42-4.58-1.14-1.15-1.48-2.41-.96-4.03,.87-2.68,1.66-5.39,2.34-8.13,.16-.63,.02-1.67-.39-2.09-3.63-3.67-7.35-7.25-11.28-11.09Zm-48.22-11.88c0,.51-.02,.59,0,.64,.3,.52,.6,1.03,.91,1.54,3.27,5.52,4.27,11.33,2.23,17.6-1.79,5.5-4.8,10.24-8.77,14.17-7.57,7.5-15.49,14.63-23.08,22.1-2.51,2.48-4.66,5.42-6.63,8.4-1.52,2.3-1.02,4.83,.86,6.85,.98,1.06,2.09,2.07,3.32,2.78,2.72,1.58,5.63,2.81,8.31,4.45,3.01,1.84,6.1,3.67,8.69,6.05,3.93,3.61,2.76,8.56-2.18,10.43-7.07,2.68-14.29,2.63-21.54,1.04-8.36-1.83-15.41-6.35-21.9-11.89-4.42-3.77-8.67-7.76-13.09-11.53-1.76-1.51-3.62-3.04-6.42-3.21,1.33,21.48,9.74,38.92,26.18,51.75,16.1,12.57,34.27,16.28,53.92,12.11,0-3.13-.23-5.97,.04-8.76,.76-7.87,4.99-13.98,10.12-19.36,5.12-5.37,10.78-10.17,15.92-15.51,5.09-5.3,8.76-11.49,9.43-19.25,.33-3.83,.86-7.84,3.81-10.56,2.74-2.53,5.85-4.65,8.91-6.78,1.04-.72,1.48-1.31,1.07-2.55-1.2-3.63-2.1-7.39-3.61-10.87-1.81-4.18-4.12-8.12-6.4-12.54-1.24,2.3-2.16,4.01-3.07,5.71-.95,1.77-1.84,3.57-2.84,5.3-1.34,2.33-3.26,2.58-5.13,.71-2.15-2.16-4.24-4.38-6.43-6.5-1.37-1.33-1.59-2.78-1.04-4.58,1.38-4.49,2.64-9.02,4-13.52,.36-1.17,.36-1.98-.83-2.64-4.97-2.76-9.82-5.8-14.9-8.3-3.06-1.5-6.48-2.2-9.85-3.3ZM28.54,98c2.95,1.47,5.6,2.55,8,4.07,2.09,1.33,3.89,3.15,5.82,4.74,5.49,4.53,10.75,9.41,16.52,13.51,7.51,5.32,16.06,7.14,25.12,5.89,1.75-.24,3.44-.85,5.16-1.29,.06-.27,.11-.54,.17-.81-2.55-1.55-5.07-3.16-7.66-4.64-3.46-1.98-7.15-3.61-10.43-5.87-4.11-2.83-7.08-6.76-5.66-12.24,.79-3.03,2.18-6.21,4.17-8.5,4.12-4.74,8.83-8.93,13.29-13.36,5.81-5.78,11.88-11.32,17.33-17.44,3.66-4.12,5.79-9.29,4.76-15.24-.83-4.74-3.49-8.34-6.75-11.55-.37-.36-1.04-.5-1.59-.53-12.17-.56-23.68,2.1-34.34,8.19-14.55,8.31-24.65,20.67-30.33,36.85-2.12,6.03-3.32,12.29-3.59,18.22Zm144.39-27.04c1.89-3.6,3.81-7.04,5.52-10.59,.83-1.73,1.96-2.87,3.62-3.73,3.42-1.78,6.74-3.76,10.12-5.68-1.3-1.69-1.3-1.7-2.91-1.2-2.37,.73-4.76,1.37-7.09,2.23-2.05,.76-3.55,.34-5.03-1.35-4.47-5.09-9.05-10.07-13.58-15.1-2.51-2.79-2.26-4.49,.94-6.32,5.58-3.19,11.17-6.36,16.76-9.54,2.61-1.48,5.21-2.98,7.82-4.48q-2.46-3.52-6.06-2.39c-9.46,2.96-18.92,5.88-28.36,8.91-2.09,.67-3.56,.25-5.02-1.41-3.64-4.13-7.33-8.23-11.18-12.16-.95-.97-2.56-1.67-3.9-1.73-2.22-.08-3.65,1.57-4.49,3.62-.82,2-.15,3.7,1.29,5.11,3.97,3.9,7.91,7.83,11.96,11.63,1.62,1.53,1.95,3.08,1.31,5.22-3.07,10.22-6.04,20.48-9.01,30.74-.2,.69-.3,1.65,.02,2.2,.61,1.05,1.54,1.9,2.47,2.99,.62-1.11,.99-1.74,1.34-2.38,4.25-7.88,8.5-15.77,12.75-23.65,1.54-2.86,3.28-3.17,5.59-.93,5.04,4.88,10.03,9.82,15.1,14.68,1.38,1.33,1.66,2.76,1.11,4.55-.79,2.56-1.43,5.19-2.28,7.73-.45,1.33-.19,2.19,1.19,3.02Zm-58.5,96.22c35.74-12.33,48.73-49.41,44.34-72.77-5.05,2.62-8.7,6.22-9.08,12.55-.44,7.34-3.33,13.75-8.08,19.06-4.54,5.08-9.44,9.82-14.38,14.49-3.82,3.62-7.39,7.43-10.07,12.01-2.6,4.44-3.58,9.3-2.74,14.65Z"/>
  <path class="cls-1" d="M181.61,106.91c.11-1.68,.15-3.36,.34-5.03,.21-1.87,1.45-2.95,3.17-2.81,1.75,.14,2.81,1.2,2.8,2.99-.02,3.16-.14,6.32-.4,9.47-.15,1.84-1.59,2.95-3.24,2.74-1.72-.22-2.66-1.3-2.71-3.11-.04-1.41,0-2.83,0-4.24,.02,0,.04,0,.06,0Z"/>
  <path class="cls-1" d="M76.25,198.35c-2.49-.68-5.72-1.42-8.84-2.49-1.49-.51-2.07-2.02-1.53-3.66,.53-1.59,1.69-2.41,3.32-2.08,2.92,.61,5.81,1.32,8.71,2.03,1.72,.42,2.48,1.66,2.35,3.42-.13,1.67-1.48,2.75-4.01,2.79Z"/>
  <path class="cls-1" d="M76.77,13.14c-1.81-.02-3.02-.71-3.36-2.53-.33-1.73,.56-3.28,2.31-3.62,2.92-.57,5.88-1.02,8.84-1.33,1.8-.19,3.1,1.03,3.31,2.68,.21,1.62-.79,2.98-2.56,3.48-.37,.1-.76,.2-1.14,.26-2.5,.37-5.01,.72-7.4,1.06Z"/>
  <path class="cls-1" d="M.74,89.53c.37-2.14,.81-5.13,1.44-8.08,.4-1.9,2.02-2.87,3.65-2.47,1.54,.38,2.53,1.93,2.25,3.72-.44,2.85-.91,5.71-1.45,8.54-.38,1.97-1.77,2.99-3.48,2.72-1.59-.25-2.48-1.56-2.41-4.42Z"/>
  <path class="cls-1" d="M100.96,5.22c2.07,.26,4.46,.51,6.84,.86,2.01,.29,3.25,1.75,3.07,3.48-.18,1.75-1.67,3.04-3.64,2.87-2.65-.22-5.3-.54-7.93-.95-2.12-.33-3.13-1.66-2.92-3.53,.19-1.75,1.44-2.73,3.48-2.73,.26,0,.52,0,1.1,0Z"/>
  <path class="cls-1" d="M65.87,14.58c-.42,.47-1.04,1.65-1.99,2.16-2.41,1.27-4.96,2.3-7.49,3.31-1.9,.76-3.39,.17-4.12-1.45-.75-1.66-.14-3.4,1.73-4.3,2.46-1.19,4.96-2.3,7.51-3.26,2.26-.86,4.28,.53,4.36,3.54Z"/>
  <path class="cls-1" d="M145.75,182.9c-.36,.44-.92,1.54-1.8,2.14-2.11,1.45-4.34,2.71-6.56,3.97-1.8,1.02-3.56,.61-4.45-.93-.92-1.59-.47-3.32,1.32-4.46,2.32-1.48,4.65-2.98,7.1-4.2,2.23-1.12,4.41,.38,4.39,3.48Z"/>
  <path class="cls-1" d="M95.29,199.93c-1.3,0-2.61,.08-3.9-.02-1.78-.14-3.06-1.48-2.99-3.12,.08-1.78,1.06-2.99,2.77-3.1,2.98-.18,5.99-.24,8.97-.15,1.56,.05,2.45,1.24,2.56,2.83,.11,1.7-.73,2.92-2.36,3.2-1.66,.29-3.37,.3-5.05,.43,0-.02,0-.04,0-.07Z"/>
  <path class="cls-1" d="M12.86,137.74c-.83,.88-1.53,2.08-2.55,2.58-1.34,.66-2.88,.14-3.47-1.35-1.19-3.05-2.23-6.18-3.11-9.34-.4-1.43,.42-2.66,1.76-3.23,1.4-.58,2.97-.41,3.6,1.05,1.37,3.18,2.41,6.52,3.77,10.28Z"/>
  <path class="cls-1" d="M39.09,174.93c-.01,2.8-2.56,4.5-4.38,3.08-2.58-2-4.95-4.31-7.21-6.69-1.11-1.17-.92-2.78,.23-4,1.08-1.14,2.5-1.43,3.7-.41,2.4,2.04,4.67,4.23,6.93,6.45,.47,.46,.6,1.28,.73,1.57Z"/>
  <path class="cls-1" d="M153.92,176.28c-.56-.42-1.68-.85-2.05-1.65-.4-.89-.55-2.53-.04-3.13,2.19-2.55,4.55-4.97,7.11-7.11,.61-.51,2.56-.16,3.25,.51,.68,.67,1.14,2.76,.68,3.32-2.26,2.73-4.85,5.16-7.36,7.66-.24,.24-.73,.2-1.58,.4Z"/>
  <path class="cls-1" d="M28.72,40.12c-.51,1.14-.75,2-1.23,2.67-1.47,2.04-3.01,4.04-4.58,6-1.39,1.74-3.21,2.05-4.59,.89-1.43-1.2-1.57-2.97-.22-4.82,1.56-2.14,3.19-4.23,4.86-6.28,.91-1.12,2.2-1.68,3.47-.9,.91,.55,1.53,1.61,2.29,2.45Z"/>
  <path class="cls-1" d="M58.27,187.37c0,2.89-2.15,4.43-4.25,3.42-2.64-1.27-5.21-2.73-7.71-4.28-1.44-.9-1.85-2.43-1.04-4.05,.82-1.64,2.31-2.13,3.81-1.41,2.7,1.3,5.31,2.8,7.86,4.4,.72,.45,1.07,1.53,1.33,1.91Z"/>
  <path class="cls-1" d="M23.53,158.54c-.48,.57-1.06,1.82-1.96,2.15-.9,.33-2.61,.15-3.11-.51-1.99-2.62-3.76-5.44-5.38-8.33-.71-1.27-.1-2.65,1.09-3.52,1.19-.87,2.7-.99,3.54,.17,2.02,2.77,3.77,5.75,5.6,8.66,.13,.2,.09,.52,.21,1.37Z"/>
  <path class="cls-1" d="M12.05,57.03c2.81,.02,4.26,2.1,3.44,4.27-1.04,2.76-2.25,5.45-3.51,8.11-.76,1.6-2.35,2.09-3.81,1.45-1.44-.64-2.27-2.24-1.66-3.83,1.07-2.81,2.24-5.6,3.58-8.28,.44-.88,1.56-1.38,1.96-1.72Z"/>
  <path class="cls-1" d="M180.47,137.29c-2.7,0-4.22-1.72-3.76-3.62,.72-2.92,1.59-5.81,2.55-8.66,.59-1.77,2.15-2.45,3.77-1.92,1.5,.49,2.4,2.14,1.93,3.88-.73,2.71-1.44,5.45-2.45,8.06-.41,1.06-1.59,1.8-2.03,2.27Z"/>
  <path class="cls-1" d="M35.3,33.32c-.61-.53-1.84-1.11-2.17-2.03-.33-.93-.17-2.66,.46-3.25,2.29-2.15,4.81-4.06,7.37-5.86,1.26-.89,2.66-.46,3.65,.77,.93,1.16,1.17,2.73,.11,3.67-2.53,2.28-5.29,4.27-7.98,6.35-.23,.18-.62,.16-1.44,.35Z"/>
  <path class="cls-1" d="M176.98,147.45c-.34,1.08-.42,1.7-.71,2.21-1.38,2.43-2.76,4.86-4.25,7.21-1.02,1.62-2.82,2.01-4.23,1.1-1.45-.93-1.87-2.69-.9-4.41,1.36-2.44,2.79-4.84,4.26-7.21,.83-1.33,2.17-1.95,3.53-1.27,.96,.49,1.62,1.63,2.31,2.37Z"/>
  <path class="cls-1" d="M186.74,86.55c-.04,2.15-.83,3.33-2.43,3.65-1.59,.33-2.96-.4-3.38-2.02-.78-2.98-1.41-6.01-1.88-9.06-.25-1.65,.72-2.87,2.3-3.27,1.6-.4,2.98,.3,3.42,1.9,.83,3.03,1.39,6.14,1.97,8.8Z"/>
  <path class="cls-1" d="M125.01,193.01c-.46,.45-1.19,1.68-2.23,2.08-2.54,.99-5.21,1.67-7.86,2.34-1.7,.44-3.22-.56-3.67-2.17-.47-1.68,.25-3.25,2-3.82,2.72-.88,5.48-1.67,8.26-2.34,1.85-.45,3.52,1.12,3.5,3.91Z"/>
</svg>