<?xml version="1.0" encoding="UTF-8"?>
<svg id="Layer_1" data-name="Layer 1" xmlns="http://www.w3.org/2000/svg" viewBox="0 0 200 200">
  <defs>
    <style>
      .cls-1 {
        fill: #5c2e63;
      }
    </style>
  </defs>
  <path class="cls-1" d="M126.05,0c21.85-.08,39.73,18.75,39.77,41.88,.04,23.01-17.67,42.02-39.22,42.1-22.51,.09-40.37-18.41-40.42-41.88C86.12,18.73,103.79,.08,126.05,0Z"/>
  <path class="cls-1" d="M72.76,143.23v-14.37c-12.01-2.09-23.82-4.14-35.64-6.2,1.5-4.58,3.75-6.93,8.79-6.67,10.5,.53,21.05,.16,31.58,.15,6.81,0,9.68-3.08,9.75-10.49,.05-4.97,0-9.94,0-15.76,19.29,2.05,38.16,4.06,58.26,6.2-3.42,7.74-6.52,14.35-9.29,21.11-2.91,7.1-6.53,10.16-14.83,9.11-16.53-2.1-31.73,3.61-45.2,14.28-.9,.71-1.81,1.4-3.42,2.63Z"/>
  <path class="cls-1" d="M160.91,155.1c-2.71,3.51-5.26,6.84-7.95,10.33-13.68-14.76-30.15-20.73-49.13-14.67-18.99,6.06-29.88,20.67-34.16,41.81-3.91-.63-7.83-1.26-11.69-1.88-1.88-16.19,16.19-41.79,35.79-50.77,24.44-11.21,51.81-3.23,67.14,15.19Z"/>
  <path class="cls-1" d="M170.9,150.04c4.72-1.79,9.05-.59,12.64,2.64,8.52,7.67,13.56,17.8,16.16,29.29,.97,4.28-.55,8.1-3.94,10.83-.09,.07-.18,.16-.27,.23-6.28,4.68-12.79,9.42-20.74,5.54-8.42-4.11-12.48-12.25-14.35-21.61-1.06-5.28,.72-9.8,4.65-13.25,1.16-1.02,2.41-1.93,3.52-3.02,3.45-3.4,4-5.95,2.34-10.64Z"/>
  <path class="cls-1" d="M0,104.95c.16-3.24,.19-6.49,.5-9.71,1.15-12.2,11.09-18.34,21.64-13.43,9.22,4.29,15.13,16.88,13.13,27.99-1.83,10.18-10,17.08-20.67,17.46-9.66,.35-12.95-2.56-14.17-12.97-.36-3.07-.06-6.22-.06-9.34h-.37Z"/>
  <path class="cls-1" d="M22.92,70.61c-.17,1.18-.33,2.26-.55,3.8-1.48-.18-2.91-.35-4.29-.51-1.85-6.67-.27-9.16,5.73-9.17,17.34-.02,34.67-.03,52.01-.02,5.33,0,6.16,.94,6.16,6.79,0,11.09,.01,22.19,0,33.28,0,4.87-1.05,5.99-5.46,5.99-10.52,.01-21.04,0-31.55,0-1.01,0-2.02-.11-3.07-.17v-5.46h34.86v-34.54H22.92Z"/>
  <path class="cls-1" d="M162.63,143.98c-3.93-2.98-8.34-6.34-12.51-9.5,4.52-10.09,9.03-20.12,13.54-30.17,10.02,4.76,19.4,23.14,18.68,36.85-3.28-.2-6.62-.91-9.82-.47-3.19,.44-6.24,2.03-9.88,3.3Z"/>
  <path class="cls-1" d="M60.81,89.91c-3.45-.07-6.03-2.97-6.01-6.74,.02-3.69,2.74-6.62,6.14-6.63,3.45-.01,6.4,3.25,6.27,6.96-.12,3.58-3.02,6.48-6.41,6.41Z"/>
  <path class="cls-1" d="M70.63,99.47h-19.24c.27-4.72,3.52-7.45,8.92-7.67,5.93-.23,9.64,2.41,10.31,7.67Z"/>
  <path class="cls-1" d="M29.5,78.01h18.27c.07,1.6,.12,2.89,.2,4.92-6.18-1.32-12.94,2.77-18.48-4.92Z"/>
  <path class="cls-1" d="M37.72,87.98h9.99c0,1.46,0,2.76,0,4.05-5.83,1.92-8.15,1.06-9.99-4.05Z"/>
</svg>