<?xml version="1.0" encoding="UTF-8"?>
<svg id="Layer_1" data-name="Layer 1" xmlns="http://www.w3.org/2000/svg" viewBox="0 0 200 200">
  <defs>
    <style>
      .cls-1 {
        fill: #fbb247;
      }
    </style>
  </defs>
  <path class="cls-1" d="M54.21,195.89c.03-32.95,.06-65.89,.07-98.84,0-9.75-.77-10.61-9.09-10.61-12.09,0-24.18-.04-36.26,.02-5.17,.02-6.07,1.07-6.12,7.31-.08,10.07,0,20.13-.05,30.2,0,1.58,.68,4.25-1.32,4.26-2.02,0-1.33-2.66-1.34-4.24-.05-10.24-.08-20.48,0-30.72,.05-6.6,2.85-9.9,8.47-9.98,7.22-.1,14.45-.14,21.67,.03,2.36,.06,3-.84,2.96-3.52-.12-9.02-.06-18.05-.03-27.07,.03-8.35,2.16-11.13,9.26-10.72,4.18,.25,5.12-1.4,4.96-6.01-.3-9.01-.14-18.05-.07-27.07C47.37,2.7,49.61,.04,54.9,.03,100.74,0,146.59,0,192.43,.02c5.27,0,7.54,2.7,7.54,8.88,.03,35.41,.04,70.81,0,106.22,0,7.79-3.52,11.92-10.08,11.94-16.21,.06-32.43,.12-48.64-.06-3.11-.03-3.91,.83-2.77,4.26,.86,2.57,1.69,5.23,2.08,7.94,.76,5.26,2.49,8.67,7.72,7.38,.89-.22,2.33-.37,2.4,1.37,.08,2.11-1.46,1.79-2.57,1.79-10.32,.03-20.64,.19-30.95-.08-3.48-.09-4.37,1.07-4.33,5.15,.14,14.19-.58,14.86-12.76,14.86-13.12,0-26.24,.09-39.36-.07-2.79-.03-3.89,.71-3.72,4.25,.26,5.54-.02,11.11,.11,16.66,.06,2.74-.85,4.4-2.97,5.27l.1,.11ZM123.78,16.83c-23.14,0-46.28,.1-69.43-.11-3.6-.03-4.57,1.24-4.35,5.25,.27,4.84,.32,9.74-.01,14.57-.3,4.34,.86,5.5,4.57,5.45,16.65-.25,33.31-.13,49.97-.09,5.33,.01,8.24,2.38,8.18,7.66-.05,4.4,1.63,4.53,4.49,4.51,22.4-.1,44.81-.06,67.22-.06,1.03,0,2.07-.05,3.09,.02,.85,.06,1.85,0,1.74,1.59-.1,1.42-.96,1.53-1.88,1.55-1.03,.02-2.06,0-3.1,0-22.26,0-44.52,.14-66.77-.14-4.07-.05-4.86,1.37-4.73,5.79,.29,10.05,.22,20.13,.03,30.19-.07,3.55,.66,4.71,3.85,4.69,25.5-.16,51-.15,76.5,0,3.21,.02,4.25-.78,4.22-4.81-.17-23.77-.17-47.55,0-71.33,.03-3.95-.9-4.88-4.18-4.86-23.14,.17-46.28,.09-69.43,.1Zm-13.64,83.54c0-16.14-.08-32.28,.05-48.42,.04-4.88-1.62-6.88-5.77-6.86-20.93,.1-41.86,.11-62.79,0-4.24-.02-5.8,2.21-5.7,6.97,.14,6.07,0,12.15,.05,18.22,.03,4.14-1.12,9.53,.63,12.09,1.87,2.72,6.65,.97,10.12,.8,7.06-.33,10.66,4.64,10.45,12.48-.46,17.51-.09,35.05-.2,52.58-.02,3.09,.6,4.19,3.4,4.17,15.48-.16,30.95-.17,46.43,0,2.83,.03,3.4-1.05,3.37-4.14-.13-15.97-.06-31.93-.05-47.9Zm45.12,.46c-12.97,0-25.94,.09-38.91-.07-2.66-.03-3.64,.69-3.49,4,.24,5.19,.14,10.41,.03,15.61-.05,2.52,.37,3.61,2.88,3.6,24.76-.12,49.52-.04,74.28-.1,4.7-.01,7.03-2.82,7.2-8.31,.1-3.29-.19-6.62,.09-9.88,.33-3.84-.66-5.01-4.06-4.94-12.67,.26-25.35,.1-38.02,.1ZM123.99,13.63c23.14,0,46.27-.06,69.41,.08,2.96,.02,4.08-.64,4.01-4.47-.1-5.46-2.69-6.09-6.38-6.08-44.8,.05-89.59,.03-134.39,.03-.88,0-1.77-.04-2.65,.04-3.98,.39-3.78,3.8-3.96,7.22-.23,4.28,2.28,3.15,4.12,3.15,23.28,.04,46.57,.03,69.85,.03Zm-41.38,152.86c1.18,0,2.36,0,3.53,0,6.48,0,12.96,.03,19.44-.02,4.09-.03,4.39-3.28,4.62-7.11,.26-4.23-1.86-3.81-4.13-3.8-15.32,.02-30.63,.13-45.94-.07-4.59-.06-2.85,3.62-3.04,6.07-.19,2.44-.79,5.18,2.99,5.02,7.5-.33,15.02-.1,22.53-.09Zm43.71-19.96c3.53,0,7.06-.12,10.58,.05,2.14,.1,2.55-.84,1.97-3.03-1.22-4.62-2.43-9.24-3.55-13.89-.48-1.99-1.38-2.66-3.16-2.62-5.58,.13-11.17,.13-16.75,0-1.91-.04-2.62,.71-2.56,2.95,.1,3.8,.24,7.63-.01,11.41-.25,3.87,.51,5.75,4.24,5.24,3.04-.42,6.16-.09,9.25-.1Z"/>
  <path class="cls-1" d="M5.23,140.58c0-15.28,.11-30.56-.08-45.83-.05-4.15,1.05-5.37,4.56-5.31,12.68,.23,25.36,.2,38.04,.01,3.31-.05,4.33,1.25,4.32,5.1-.1,30.73-.04,61.46-.07,92.18,0,5.55-1.32,7.05-6.08,7.07-11.65,.04-23.3-.07-34.94,.06-4.17,.04-5.81-2.11-5.78-6.92,.1-15.45,.04-30.9,.03-46.35Zm2.74-5.94c0,12.65,.1,25.3-.06,37.95-.04,3.41,.42,4.81,3.73,4.74,11.33-.26,22.67-.21,34-.02,2.89,.05,3.69-.93,3.67-4.33-.11-25.3-.09-50.6,0-75.9,.01-3.21-.48-4.52-3.58-4.46-11.48,.24-22.96,.21-34.44,.01-2.79-.05-3.42,.93-3.39,4.07,.15,12.65,.06,25.3,.07,37.95Zm20.75,45.81c-5.74,0-11.5,.22-17.23-.09-3.09-.17-3.83,1.22-3.56,4.46,.23,2.79-.79,5.96,3.45,5.87,11.49-.24,22.98-.22,34.47,0,3.78,.07,3.4-2.58,3.44-5.41,.04-2.8,.11-5.09-3.34-4.91-5.73,.29-11.49,.08-17.23,.08Z"/>
  <path class="cls-1" d="M54.12,195.78c-.29,3.26-2.16,4.18-4.57,4.19-13.99,.01-27.98,.11-41.97-.06-4.6-.06-7.44-3.85-7.46-9.55-.07-17.69-.04-35.37-.02-53.06,0-1.47-.42-3.77,1.35-3.76,1.75,0,1.33,2.3,1.34,3.78,.02,16.82,0,33.64,.02,50.46,0,7.47,1.35,9,7.83,9,11.93,0,23.86,.05,35.79-.04,2.6-.02,5.2-.55,7.81-.84,0,0-.09-.11-.09-.11Z"/>
  <path class="cls-1" d="M158.05,71.4c9.41,0,18.81-.03,28.22,.04,1.16,0,3.13-.76,3.09,1.59-.03,2.22-1.94,1.58-3.15,1.58-18.96,.04-37.92,.03-56.88,.02-1.25,0-3.23,.5-3.32-1.4-.12-2.67,2.09-1.78,3.37-1.79,9.55-.07,19.11-.04,28.66-.04Z"/>
  <path class="cls-1" d="M154.51,35.3c10.31,0,20.61-.05,30.92,.06,1.4,.01,3.89-1.17,3.91,1.63,.02,2.3-2.32,1.43-3.65,1.43-21.2,.05-42.41,.05-63.61,0-1.29,0-3.58,.9-3.49-1.62,.09-2.31,2.34-1.44,3.67-1.45,10.75-.07,21.5-.04,32.25-.04Z"/>
  <path class="cls-1" d="M169.39,46.76c-5.44,0-10.88,.03-16.32-.02-1.23,0-3.09,.51-3.11-1.66-.02-1.8,1.7-1.46,2.83-1.47,11.32-.02,22.64-.03,33.96,0,1.08,0,2.76-.44,2.67,1.6-.08,1.84-1.7,1.52-2.83,1.52-5.73,.03-11.47,.01-17.2,.01Z"/>
  <path class="cls-1" d="M74.38,122.94q-6.2,0-6.36-7.39c-.05-2.55,.19-5.28-3.27-3.82-.34,.14-1.18-.42-1.36-.89-.35-.91,.25-1.67,.87-2.13,1.35-1.01,2.83-1.06,4.21-.19,1.94,1.22,2.28,3.39,2.29,5.78,0,2.7-.98,5.69,3.34,5.68,3.92,0,4.71-1.55,4.43-5.62-.15-2.25-.41-5,2.19-6.12,2.42-1.05,3.87,.68,5.25,2.51,1.44,1.9,2.9,3.83,4.82,.85,1.38-2.13,5.3-3.25,1.56-7.5-2.95-3.35-1.01-8.01,3.38-8.07,4.33-.07,2.55-3.43,2.89-5.71,.45-3.04-.78-3.92-3.24-3.72-2.46,.2-5.23,.65-6.48-2.87-1.25-3.49,.9-5.51,2.72-7.51,1.74-1.91,3.19-3.51,.41-5.98-1.87-1.66-3.14-5.06-5.66-.86-1.15,1.91-2.89,3.06-5.02,2.19-2.31-.95-3.1-3.17-2.86-5.8,.38-4.13-2.02-3.28-3.98-3.31-2.02-.03-4.28-.58-3.8,3.44,.3,2.44-.62,4.47-2.59,5.51-2.29,1.22-4.1-.08-5.4-2.11-2.62-4.11-3.87-.53-5.7,1.07-2.5,2.18-1.59,3.81,.25,5.58,.57,.55,1.06,1.21,1.57,1.83,.64,.79,1.2,1.67,.43,2.7-.83,1.13-1.55,.3-2.24-.34-.12-.11-.24-.22-.33-.35-1.64-2.38-5.46-4.34-4.77-6.87,1.12-4.13,4.67-7,7.68-9.71,1.71-1.54,2.57,1.46,3.8,2.42,1.17,.92,1.79,3.32,3.45,2.71,1.78-.66,1.28-2.96,1.12-4.54-.37-3.77,.99-5,4.01-4.55,1.31,.19,2.66,.18,3.97,0,3.68-.49,6.12,.4,5.31,5.71-.17,1.13-.29,2.62,.77,3.29,1.44,.91,2.24-.71,2.84-1.69,2.87-4.76,5.44-3.91,8.08,.24,.7,1.1,1.56,2.1,2.49,2.95,2.45,2.24,2.27,4.12,.06,6.64-1.56,1.77-4.73,3.15-3.76,6.29,1.04,3.38,4.15,1.37,6.31,1.53,2.19,.17,3.75,.18,3.03,3.59-.28,1.31-.14,2.77-.03,4.15,.33,4.38,.63,8.33-5.05,7.28-2.41-.45-2.84,1.94-1.02,3.52,4.15,3.58,2.55,6.34-.5,9.19-1.03,.96-2.15,1.85-2.99,3.01-2.04,2.81-3.64,1.89-5.39-.43-1.22-1.62-2.5-4.09-4.68-2.84-1.69,.98-.65,3.43-.69,5.17-.13,6.1-.04,6.1-6.32,6.1Z"/>
  <path class="cls-1" d="M74.27,82.29c4.18-.08,7.58,3.9,7.57,8.84-.01,4.8-3.11,8.6-7.15,8.78-4.19,.19-7.72-3.66-7.84-8.55-.12-4.87,3.25-8.99,7.42-9.07Zm4.83,8.5c-.35-3.26-1.98-5.31-4.87-5.23-2.93,.08-4.62,2.34-4.54,5.72,.08,3.39,1.91,5.51,4.82,5.4,2.89-.11,4.42-2.29,4.6-5.89Z"/>
  <path class="cls-1" d="M83.24,134.16c-4.41,0-8.82,.01-13.23,0-1.15,0-2.65,.17-2.53-1.84,.1-1.66,1.51-1.31,2.47-1.31,8.82-.03,17.64-.03,26.46,0,.95,0,2.37-.44,2.51,1.22,.18,2-1.29,1.92-2.46,1.93-4.41,.02-8.82,0-13.23,0Z"/>
  <path class="cls-1" d="M87.15,140.37c3.37,0,6.75-.02,10.12,.02,.7,0,1.57,.07,1.69,1.19,.14,1.32-.69,1.89-1.6,1.9-6.75,.06-13.5,.06-20.25,.02-.91,0-1.82-.51-1.69-1.82,.13-1.38,1.2-1.29,2.05-1.3,3.23-.03,6.46-.01,9.68-.01Z"/>
  <path class="cls-1" d="M123.42,114.8c-1.89,0-3.79,.05-5.68-.02-.76-.03-1.47-.5-1.42-1.55,.04-.95,.69-1.53,1.45-1.54,3.93-.05,7.86-.05,11.79,0,.74,.01,1.4,.55,1.42,1.57,.02,1.08-.68,1.48-1.44,1.51-2.04,.06-4.08,.02-6.12,.02Z"/>
  <path class="cls-1" d="M32.83,147.34c.48,4.25-.44,6.21-4.58,6.2-4.22,0-4.47-2.45-4.22-6-2.01-.18-2.89,4.45-4.87,1.82-1.59-2.11-6.16-3.12-3.17-7.95,.49-.79,.04-1.24-.64-1.33-5.21-.67-2.55-5.38-2.58-8.08-.05-3.68,3.35-1.08,5.16-2.68-2.53-2.82-3.71-5.42-.2-8.88,2.47-2.44,3.94-2.02,6.3,1.25-.62-6.54,2.76-5.08,5.34-5.38,2.74-.32,3.83,1.04,3.3,5.16,3.81-5.39,5.72-1.59,7.99,.96,3.04,3.41-1.02,4.48-1.61,7.24,5.15-.92,6.23,3.02,4.91,7.17-.98,3.09-1.89,6.55-3.4,9.22-2.79,4.96-3.42,4.71-7.73,1.28Zm-12.09-24.66c-.94-.07-1.43,.64-1.81,1.34-.66,1.23,.4,1.76,.87,2.55,2.33,3.97,1.77,5.6-2.29,6.57-.95,.23-2.13-.26-2.23,1.63-.09,1.75,.95,1.76,1.94,2.13,2.51,.93,3.26,2.85,1.8,5.55-.58,1.08-.53,1.8,.2,2.7,.84,1.04,1.45,.59,2.24-.11,2.97-2.64,4.91-1.98,5.34,2.59,.12,1.3,.09,2.41,1.57,2.45,1.39,.04,1.66-.82,1.74-2.25,.27-4.48,2.09-5.45,5.23-2.95,.72,.57,1.29,1.49,2.22,.4,.68-.8,1.07-1.5,.43-2.67-1.64-2.95-.78-4.91,1.96-5.81,1-.33,1.55-.79,1.53-2.07-.03-1.48-.93-1.38-1.8-1.63-4.71-1.37-4.84-1.76-2.1-7.05,.52-1.01,.86-1.66,.03-2.64-.78-.93-1.41-.92-2.25-.11-2.82,2.71-4.45,1.62-5.31-2.28-.52-2.35-2.66-1.87-2.89-.74-1.12,5.44-3.26,5.54-6.39,2.39Z"/>
  <path class="cls-1" d="M43.03,99.43c-1.48-.54-3.8,.8-3.79-1.63,.01-2.79,2.44-1.6,3.85-1.69,1.33-.09,3.61-.73,3.6,1.49-.02,2.92-2.57,.99-3.65,1.83Z"/>
  <path class="cls-1" d="M28.84,184.29c1.39,.23,3.66-.57,3.46,1.72-.21,2.43-2.59,1.39-4.03,1.4-1.24,0-3.55,.93-3.35-1.59,.21-2.56,2.6-1.07,3.92-1.53Z"/>
  <path class="cls-1" d="M33.1,135.15c-.41,3.45-2.08,5.48-5.02,5.28-2.92-.2-4.61-2.48-4.45-5.89,.16-3.41,2.02-5.47,4.97-5.27,2.93,.2,4.4,2.43,4.5,5.88Zm-4.84,2.12c1.07-.14,1.86-.74,2.02-2.12,.17-1.42-.53-2.37-1.57-2.61-1.39-.33-2.2,.77-2.29,2.28-.08,1.31,.71,2.12,1.84,2.46Z"/>
</svg>