<?xml version="1.0" encoding="UTF-8"?>
<svg id="Layer_1" data-name="Layer 1" xmlns="http://www.w3.org/2000/svg" viewBox="0 0 200 300">
  <defs>
    <style>
      .cls-1 {
        fill: #fbb247;
      }
    </style>
  </defs>
  <path class="cls-1" d="M0,14.97c1.13-2.71,2.03-5.56,3.44-8.1C6.28,1.75,10.87,0,16.31,0c31.41,.03,62.83-.03,94.24,.05,10.24,.03,16.42,7.52,16.53,20.09,.14,17.18,.04,34.36,.04,51.54,0,18.53,.03,37.05-.04,55.58-.01,2.51,.83,6.59-2.44,6.62-3.77,.04-2.71-4.23-2.71-6.81-.08-34.53-.05-69.05-.07-103.58,0-2.52,.06-5.11-.47-7.54-1.2-5.54-4.51-9.74-10.43-9.49-4.94,.21-9.89,.18-14.83-.02-2.78-.12-3.58,.98-3.47,3.78,.17,4.36,.02,8.6-2.77,12.41-1.95,2.66-4.23,3.94-7.22,3.96-13.23,.05-26.47,.18-39.7-.03-6.38-.1-10.11-5.29-10.39-13.52q-.22-6.54-6.47-6.54c-2.87,0-5.76,.23-8.61-.04-7.76-.74-11.24,4.56-12.27,11.52-.22,1.48-.15,3.02-.15,4.54,0,84.89-.01,169.77,0,254.66,0,4.36,.23,8.54,3.07,12.34,2.04,2.74,4.37,3.73,7.32,3.74,32.05,.03,64.1-.07,96.16,.12,5.49,.03,10.21-6.09,10.2-12.69,0-8.25-.13-16.51,.13-24.75,.08-2.63-1.7-7.31,2.54-7.3,4.2,0,2.46,4.66,2.54,7.3,.24,7.74,.19,15.49,.05,23.24-.21,11.87-5.55,21.15-19.42,20.82-28.85-.68-57.72-.31-86.58-.16-11.45,.06-15.73,.06-21.08-15.01V14.97ZM63.16,6.5c-7.02,0-14.03-.02-21.05,.02-1.23,0-3.01-.62-3.57,.65-1.25,2.81-.95,6.01-.11,8.83,.68,2.26,2.08,4.14,5.14,4.09,12.75-.19,25.51-.17,38.27,0,2.31,.03,3.49-1.13,4.5-2.8,1.87-3.07,1.65-6.71,.68-9.74-.7-2.17-3.71-.97-5.68-1.01-6.06-.12-12.12-.05-18.18-.04Z"/>
  <path class="cls-1" d="M200,204.98c-.96,.57-1.91,1.63-2.88,1.64-3.17,.03-5.04,.87-5.89,4.68-.67,3.01-.8,5.07,.99,7.73,1.67,2.48,1.71,5.5-.57,8.31-3.36,4.14-6.35,8.61-9.51,12.93-2.56,3.49-4.97,3.54-7.93,.39-.75-.79-1.4-3.5-2.47-1.91-1.56,2.3-5.28,1.35-5.64,5.27-.72,7.86-.93,7.84-8.27,7.85-3.19,0-6.4-.23-9.56,.05-4.57,.4-6.79-2.05-6.37-6.39,.51-5.29-4.66-4.09-6.32-6.86-.38-.64-1.21,1.54-1.89,2.34-2.66,3.17-5.14,3.04-7.53-.13-3.22-4.27-6.1-8.85-9.56-12.88-2.85-3.32-2.14-6.42-.51-9.64,2.36-4.66,.18-10.45-4.49-11.28-2.19-.39-3.43-1.55-3.63-3.91-.66-7.89-.51-15.79-.09-23.69,.13-2.53,1.31-4.05,3.96-3.9,1.55,.08,3.67,.43,3.73-1.93,.07-3.04,4.01-5.66,.48-9.17-2.98-2.97-2.67-6.31,.18-9.7,3.43-4.09,6.43-8.57,9.65-12.86,2.08-2.77,4.49-3.03,6.94-.61,1.02,1,1.55,3.97,3.29,1.98,1.71-1.95,5.21-1.51,5.51-5.33,.61-7.8,.78-7.78,8.13-7.79,3.19,0,6.4,.26,9.56-.06,4.56-.46,6.82,1.6,6.3,6.26-.57,5.04,3.99,4.75,6.05,6.98,1.01,1.09,1.51-1,2.19-1.81,2.65-3.17,5.65-3.05,8,.2,3.04,4.2,5.81,8.68,9.23,12.5,3.11,3.46,2.57,6.44,.43,9.83-2.52,3.97-.35,10.16,3.98,10.86,2.36,.38,3.47,1.93,4.52,3.79v26.28Zm-70.1-57.94c-3.09,2.33-4.57,5.76-7.04,8.34-2.08,2.17-3.58,4.45-.99,7.45,1.54,1.78,1.43,3.95,.71,6.17-1.03,3.16-2.01,6.33-2.9,9.54-.39,1.42-1.29,2.97-2.35,2.88-5.88-.5-4.5,3.84-4.56,7.22-.05,2.86,.07,5.73-.03,8.58-.08,2.27,.08,3.96,2.96,3.67,2.45-.25,3.63,1.19,4.15,3.79,.52,2.6,1.59,5.08,2.51,7.58,1.16,3.14,1.63,6.18-.95,8.82-1.54,1.57-.92,2.98,.16,4.36,2.68,3.44,5.4,6.86,8.2,10.4,2.02-1.5,2.91-5.86,6.16-4.07,3.83,2.1,9.56,2.74,10.48,7.85,.81,4.48,2.32,5.47,6.04,5.02,2.05-.25,4.14-.03,6.21-.06,.93-.01,2.28,.03,2.11-1.32-.66-5.44,3.17-6.64,6.57-8.87,6.06-3.98,6.18-4.26,10.82,.78,2.38-3.04,4.72-6.12,7.14-9.13,1.59-1.98,2.91-3.55,.61-6.3-2.05-2.45,.94-16.66,3.45-18.64,.37-.29,.87-.64,1.29-.61,4.91,.39,4.54-3.07,4.39-6.51-.12-2.86-.16-5.73,.01-8.58,.16-2.64-.4-4.05-3.3-3.95-2.33,.08-3.66-1.52-4.2-4-.53-2.43-1.06-4.95-2.11-7.15-1.53-3.22-1.61-6.37,.64-8.85,1.84-2.02,.77-3.46-.16-4.72-2.63-3.6-5.53-6.98-8.53-10.71-1.99,4.9-4.94,5.37-8.59,2.86-3.9-2.68-9.82-3.69-8.25-11,.14-.67-.32-1.4-1.04-1.41-3.98-.05-7.96-.08-11.94,.04-.96,.03-1.16,1.18-1.02,1.97,1.27,7.02-4.22,8.26-8.19,10.79-3.69,2.35-6.61,1.72-8.47-2.25Z"/>
  <path class="cls-1" d="M46.64,102.79c5.89,0,11.79-.12,17.68,.04,4.01,.11,7.29,.32,9.06-5.1,2.55-7.79,14.38-7.47,16.77,.1,1.65,5.21,4.73,5.23,8.62,4.98,2.06-.13,4.14,0,6.21-.02,2.09-.03,3.35,.8,3.29,3.22-.06,2.47-1.47,3.1-3.49,3.02-1.11-.04-2.25,.15-3.34-.03-5.74-.95-9.66,.48-12.54,6.74-3.1,6.73-13.23,4.77-16.36-3.18-1.29-3.28-2.82-3.59-5.54-3.57-13.54,.1-27.08,.08-40.62,0-2.16-.01-5.29,1.13-5.39-2.94-.11-4.52,3.32-3.17,5.58-3.21,6.69-.14,13.38-.05,20.07-.05Zm35.78-4.17c-3.58-.02-6.68,3.62-6.28,7.51,.36,3.51,1.24,7.17,5.66,7.13,4.45-.05,5.32-3.66,5.38-7.26,.05-3.6-.69-7.1-4.76-7.38Z"/>
  <path class="cls-1" d="M70.84,146.38c-8.77,0-17.53,.03-26.3-.02-1.83-.01-2.94,.22-3.87,2.42-3.04,7.17-7.16,9.41-12.79,7.64-4.76-1.5-8.38-8.39-7.56-14.67,1.22-9.36,7.52-14.28,14.1-11.71,3.18,1.24,4.83,3.96,5.75,6.79,.96,2.93,2.41,3.31,4.88,3.3,17.22-.08,34.43-.07,51.65,0,2.03,0,4.86-.94,4.99,2.86,.14,4.03-2.72,3.4-5.03,3.41-8.61,.03-17.22,.01-25.82,.01Zm-39.31,4.02c3.44-.04,5.6-2.86,5.56-7.28-.03-3.49-3.09-7.47-5.72-7.42-2.69,.05-5.52,3.96-5.49,7.58,.04,4.48,2.16,7.16,5.64,7.12Z"/>
  <path class="cls-1" d="M37.99,176.7c2.55,0,5.09-.06,7.64,.01,4.22,.12,7.12-.04,10.1-5.16,4.58-7.89,11.52-7.63,16.66,1.79,1.42,2.6,2.73,3.56,5.41,3.41,3.81-.21,7.64,.04,11.45-.08,2.49-.08,3.47,1.58,3.66,3.63,.26,2.72-1.84,2.64-3.63,2.65-2.39,.02-4.79,.21-7.15-.04-5.01-.52-8.58,.25-10.94,6.16-2.39,6-12.87,5.24-15.75-.84-1.93-4.06-4.31-5.71-8.75-5.41-6.97,.47-13.99,.18-20.99,.09-1.89-.02-4.73,.87-4.65-2.56,.07-3.09,2.24-3.86,5-3.71,3.97,.21,7.95,.05,11.93,.05Zm25.61-3.11c-4.3,.25-5.64,3.13-5.49,6.84,.13,3.37,1.17,6.34,5.23,6.39,3.66,.05,5.63-2.43,5.57-7.05-.05-3.85-1.88-5.86-5.31-6.18Z"/>
  <path class="cls-1" d="M172.51,190.25c.21,10.95-3.93,18.88-12.11,24.43-5.07,3.44-15.42,.52-19.6-5.39-8.1-11.45-8.41-26.23,.63-36.85,8.76-10.29,20.27-8.38,27.87,4.45,2.45,4.12,3.64,8.93,3.21,13.36Zm-4.97,.2c.16-1.98-.14-4.5-1.09-6.81-1.93-4.7-4.47-8.98-9.78-9.87-4.37-.73-8.81-.44-11.89,3.39-6.51,8.09-6.79,18.85-.5,27.14,2.66,3.52,6.91,6.19,11.06,5.17,7.81-1.91,12.19-9.34,12.19-19.03Z"/>
</svg>