<?xml version="1.0" encoding="UTF-8"?>
<svg id="Layer_1" data-name="Layer 1" xmlns="http://www.w3.org/2000/svg" viewBox="0 0 200 200">
  <defs>
    <style>
      .cls-1 {
        fill: #fbb247;
      }
    </style>
  </defs>
  <path class="cls-1" d="M200,160c-.27,1.77-.53,3.54-.82,5.44h-8.16c-6.14-27.57-13.48-36.84-27.01-34.25-10.39,1.99-18.2,15.73-19.18,34.31h-10.39q-1.45,9.07-7.19,9.07c-4.4,0-8.81,.25-13.2-.17-1.16-.11-2.24-2.27-3.36-3.49,1.1-1.46,2.15-4.05,3.31-4.17,4.71-.48,9.45-.2,14.38-.2,.07-2.36,.17-4.16,.17-5.96,0-40.72,0-81.44,0-122.16,0-8.38-1.36-10.55-6.68-10.56-11.66-.02-23.32,0-34.98,0-1.28,0-2.57,0-4.01,0,.31-2.93,.57-5.26,.87-8.1,6.01,0,11.94,0,17.86,0,7.02,0,14.04-.04,21.06,.01,7.46,.06,11.06,5.69,11.14,17.42,.06,8.33,.06,16.65,.11,24.98,0,.33,.2,.65,.66,2.03,5.2,0,10.77,.19,16.32-.07,3.78-.18,6.47,2.08,8.04,7.32,2.74,9.18,5.52,18.35,7.95,27.73,.72,2.79,1.39,3.98,3.32,4.5,3.37,.91,6.76,2.17,9.97,4.02,11.97,6.88,18,20.8,19.19,40.24,.13,2.18,.42,4.34,.63,6.51v5.56Zm-41.4-56.99c-2.23-6.93-3.94-12.94-6.02-18.62-3.53-9.63-4.41-10.08-11.55-8.07v26.69h17.58Z"/>
  <path class="cls-1" d="M37.86,0c11.2,11.37,23.07,19.66,37.21,19,.64,38.42-2.5,74.57-24.56,98.24-13.36,14.33-11.87,13.91-25.45,.36C11.27,103.85,4.94,82.27,2.15,57.97,1.09,48.74,.7,39.33,0,30v-12.22c2.95-.02,5.92,.29,8.84-.12,10.55-1.48,20.21-6.57,28.3-17.66h.71ZM4.57,26.1c.87,11.77,1.22,24.01,2.77,35.86,3.3,25.09,11.75,44.52,27.23,55.45,2.27,1.6,4.17,1.53,6.39-.09,16.95-12.34,25.46-34.08,28.19-61.88,.95-9.71,.89-19.67,1.29-29.41-3.2-.38-5.47-.41-7.68-.97-8.1-2.05-15.42-7.25-22.34-13.89-1.93-1.86-3.21-1.91-5.32,.08-4.33,4.08-8.89,8.01-13.7,10.33-5.02,2.43-10.44,2.9-16.84,4.52Z"/>
  <path class="cls-1" d="M82.14,200c-1.54-.87-3.12-1.59-4.61-2.62-8.18-5.68-12.41-19.51-10.18-33.05,2.18-13.22,10.28-22.02,19.32-21,8.81,1,15.64,11.95,16.57,26.6,.81,12.73-5.11,25.52-13.42,29.02-.67,.28-1.32,.7-1.98,1.05h-5.71Zm3.1-17.55c3.89-.11,6.95-5,6.87-11.01-.08-6.01-3.22-10.77-7.09-10.75-3.82,.03-7.1,5.01-7.1,10.8,0,6.2,3.25,11.06,7.33,10.95Z"/>
  <path class="cls-1" d="M185.9,167.62c-.02,15.58-8.09,28.01-18.17,28.02-10.11,0-18.32-12.77-18.33-28.54,0-15.23,8.35-28.06,18.3-28.11,10.12-.05,18.23,12.7,18.2,28.63Zm-18.1-11c-4.01-.04-7.04,4.46-7.09,10.52-.05,6.25,3.17,11.33,7.12,11.26,3.7-.07,7.1-5.37,7.05-11.02-.05-5.95-3.19-10.72-7.08-10.76Z"/>
  <path class="cls-1" d="M18.97,130.56c4.21,1.64,5.85,5.03,5.38,11.33-.38,5.11-.1,10.34-.07,15.52,.04,6.45,1.69,9.08,5.8,9.11,8.68,.06,17.36-.07,26.04,.12,1.25,.03,3.14,.88,3.59,2.26,.98,2.96,.1,5.6-2.3,5.61-9.99,.07-19.98,.23-29.96-.14-4.35-.16-8.14-6.28-8.4-13.63-.34-9.9-.08-19.85-.08-30.18Z"/>
  <path class="cls-1" d="M55.74,36.69c-7.63,17.84-15.28,35.73-22.51,52.62-4.34-8.74-9.18-18.49-14.17-28.54,2.37-5.29,6.75-3.86,13.54,5.64,3.81-7.72,7.92-15.13,11.34-23.23,3.21-7.59,7.36-7.96,11.8-6.48Z"/>
</svg>