<?xml version="1.0" encoding="UTF-8"?>
<svg id="Layer_1" data-name="Layer 1" xmlns="http://www.w3.org/2000/svg" viewBox="0 0 200 299.99">
  <defs>
    <style>
      .cls-1 {
        fill: #fbb247;
      }
    </style>
  </defs>
  <path class="cls-1" d="M135.06,213.74c.02,20.86,.33,41.73-.04,62.58-.26,14.83-8.82,23.48-22.01,23.48-29.81,0-59.63-.44-89.44,.18C8.27,300.32-.06,287.7,0,273.25,.32,190.74,.17,108.23,.19,25.73,.19,9.47,8.63,0,22.96,0,52.89,.02,82.83,0,112.76,0,126.53,0,135.15,9.75,135.21,25.4c.03,10.02,0,20.05,0,30.08-3.07,.28-6.15,.54-9.2-.18,.03-1.9-.07-3.81,.11-5.69,.31-3.11-.87-3.88-3.5-3.87-36.4,.08-72.8,.08-109.19,0-2.88,0-4.15,.39-4.14,4.29,.13,62.32,.11,124.65,.02,186.98,0,3.41,.86,4.25,3.8,4.22,17.24-.16,34.48-.08,51.73-.08,19.4,0,38.8-.05,58.19,.07,2.62,.02,3.33-1.05,3.16-3.78-.17-2.7-.08-5.42-.1-8.13,2.71,0,4.37-1,4.41-4.58,.03-2.63,.89-5.24,1.09-7.88,.2-2.65,1.31-3.53,3.49-3.1h-.01Zm-67.47,68.82c6.52,.07,12.03-6.07,11.97-13.36-.05-7.11-5.4-13.14-11.76-13.27-6.54-.13-11.84,5.85-11.87,13.39-.03,7.14,5.28,13.17,11.65,13.24h.01Zm0-265.51c-5.25,0-10.51,.02-15.76-.01-1.83-.01-3.44,.24-3.49,2.87-.05,2.79,1.54,3.23,3.58,3.22,10.51-.04,21.01-.04,31.52,0,1.84,0,3.45-.2,3.49-2.84,.04-2.74-1.51-3.29-3.58-3.26-5.25,.06-10.51,.02-15.76,.02h0Z"/>
  <path class="cls-1" d="M135.06,213.74c-2.18-.43-3.29,.45-3.49,3.1-.2,2.65-1.06,5.25-1.09,7.88-.04,3.58-1.69,4.59-4.41,4.58-3.82-.12-7.65-.49-11.46-.27-2.96,.17-4.04-1.16-4.32-4.27-.29-3.22-.92-6.41-1.36-9.62-.19-1.4-.58-2.45-1.87-3.15-6.77-3.68-8.18-3.31-12.64,3.63-.28,.44-.57,.87-.82,1.34-1.75,3.36-3.84,3.87-6.71,1.48-2.01-1.67-4.35-2.83-6.51-4.27-6.03-4.03-6.26-4.16-3.38-11.56,2.06-5.28,2.82-9.6-1.84-13.79-1.89-1.7-3.13-2.32-5.28-1.19-2.38,1.25-4.94,2.04-7.34,3.24-1.64,.82-2.58,.49-3.46-1.31-2.24-4.63-4.54-9.23-6.99-13.72-1.16-2.12-.69-3.38,.92-4.72,2.4-2.01,4.62-4.32,7.06-6.26,1.94-1.54,2.45-3.16,1.83-5.83-1.64-7.09-1.52-7.13-8.09-8.26-1.65-.28-3.33-.77-4.97-.67-1.79,.1-1.98-.89-1.98-2.42,0-5.69,.03-11.38-.06-17.06-.03-2.06,.71-2.87,2.47-3.1,3.33-.44,6.63-1.06,9.94-1.64,1.3-.23,2.9-.39,2.82-2.38-.07-1.66,.68-2.76,1.26-4.05,1.21-2.69,1.33-4.99-1.34-6.89-2.11-1.51-3.92-3.55-5.94-5.23-1.67-1.39-1.88-2.8-.78-4.83,2.26-4.15,4.41-8.37,6.47-12.65,1.12-2.33,2.42-3.03,4.65-1.9,2.73,1.38,5.56,2.48,8.35,3.72,1.12,.5,2.15,.99,3.4,.17,5.08-3.34,6.21-6.82,4.11-13.08-2.68-8-2.72-8.08,4.09-12.2,3.23-1.96,6.53-6.37,9.63-5.31,2.97,1.02,4.91,5.91,7.31,9.08,.68,.9,1.14,2.5,2.32,2.28,2.94-.54,6.01-.96,8.67-2.32,1.98-1.02,1.33-4.1,1.62-6.31,1.05-8.06,1.02-8.05,8.01-8.36,.71-.03,1.42-.2,2.13-.3,3.06,.73,6.13,.46,9.2,.18,1.77,3.52,1.76,7.52,2.16,11.35,.37,3.55,1.42,5.85,4.77,6.35,1.05,.15,2.08,.65,3.05,1.16,1.8,.95,3.11,.58,4.3-1.31,1.6-2.53,3.46-4.84,5.1-7.34,1.07-1.62,2.14-1.82,3.66-.8,3.91,2.62,7.84,5.21,11.83,7.67,1.95,1.21,2.43,2.61,1.49,4.94-1.29,3.2-2.31,6.54-3.52,9.78-1.6,4.26,2.15,5.47,3.55,7.99,1.06,1.91,2.56,2.48,4.55,1.39,1.36-.75,2.95-.94,4.39-1.53,4.17-1.69,7.32-.4,9.43,3.89,1.52,3.07,3.02,6.16,4.7,9.12,1.17,2.07,1.22,3.51-.74,5.06-2.43,1.94-4.53,4.44-6.98,6.33-2.19,1.69-2.12,3.56-1.85,6.25,.5,5.02,2.18,7.28,6.98,7.86,7.99,.97,7.95,1.46,7.94,10.59,0,3.11-.1,6.23-.02,9.34,.05,2.04-.74,2.93-2.45,3.2-2.96,.47-5.9,1.18-8.87,1.55-2.39,.3-4.07,1.13-4.41,4.19-.16,1.45-.69,2.88-1.23,4.23-.72,1.81-.27,3.06,1.04,4.22,2.27,1.99,4.44,4.12,6.72,6.1,1.52,1.32,2.13,2.57,.95,4.72-2.34,4.25-4.58,8.58-6.6,13.03-1.16,2.57-2.47,2.77-4.58,1.67-2.61-1.35-5.39-2.27-7.98-3.65-2.01-1.07-3.34-.86-5,1-4.92,5.55-5.01,5.45-2.53,12.83,.38,1.14,.68,2.33,1.17,3.4,1.08,2.35,.75,3.9-1.48,5.21-3.92,2.31-7.73,4.88-11.51,7.49-1.66,1.15-2.8,.96-3.95-.79-1.28-1.95-2.7-3.8-4.07-5.67-2.63-3.57-6.01-4.44-10.14-2.59h0Zm-11.77-21.07c24.74-.04,44.26-22.38,44.22-50.61-.04-28.46-19.78-50.78-45.37-50.25-22.33,.46-42.59,20.65-42.77,50.35-.16,27.97,19.61,50.54,43.91,50.51h0Z"/>
  <path class="cls-1" d="M150.36,142.35c-.02,16.72-12.27,30.45-27.1,30.38-14.83-.07-26.74-13.75-26.71-30.71,.02-16.68,11.8-30.19,26.29-30.17,15.7,.02,27.55,13.16,27.53,30.5h-.01Z"/>
</svg>