<?xml version="1.0" encoding="UTF-8"?>
<svg id="Layer_1" data-name="Layer 1" xmlns="http://www.w3.org/2000/svg" viewBox="0 0 200.5 200.5">
  <defs>
    <style>
      .cls-1 {
        fill: #fff;
      }

      .cls-2 {
        fill: #fbb247;
      }
    </style>
  </defs>
  <path class="cls-1" d="M200.25,121.89v78.36H.25v-11.69c.13,.21,.31,.42,.38,.65,1.58,5.55,5.26,8.39,11.11,8.5,2.86,.06,5.73,.02,8.59,.02,25.39,0,50.77,.01,76.16-.04,1.92,0,3.97-.17,5.73-.86,4.01-1.57,6.3-4.67,6.62-9.04,.12-1.56,.07-3.12,.07-4.68,.01-23.39,0-46.77,.01-70.16,0-.89,.07-1.78,.11-2.58,.25-.11,.3-.16,.36-.16,13,.1,26.02-1.01,38.96,1.06,3.16,.51,5.73,1.86,7.62,4.56,3.82,5.49,7.62,11.01,11.71,16.31,3,3.89,6.15,7.77,9.77,11.07,6.69,6.1,13.99,4.61,18.35-3.35,2.57-4.71,3.54-9.85,4.02-15.12,.09-.96,.28-1.9,.43-2.85Z"/>
  <path class="cls-2" d="M200.25,114.09v7.8c-.15,.95-.34,1.89-.43,2.85-.48,5.27-1.45,10.41-4.02,15.12-4.36,7.96-11.66,9.45-18.35,3.35-3.62-3.3-6.77-7.18-9.77-11.07-4.09-5.3-7.89-10.82-11.71-16.31-1.89-2.7-4.46-4.05-7.62-4.56-12.94-2.07-25.96-.96-38.96-1.06-.06,0-.11,.05-.36,.16-.04,.8-.11,1.69-.11,2.58-.01,23.39,0,46.77-.01,70.16,0,1.56,.05,3.12-.07,4.68-.32,4.37-2.61,7.47-6.62,9.04-1.76,.69-3.81,.86-5.73,.86-25.39,.05-50.77,.04-76.16,.04-2.86,0-5.73,.04-8.59-.02-5.85-.11-9.53-2.95-11.11-8.5-.07-.23-.25-.44-.38-.65V11.56C2.29,4.33,7.38,2.26,14.47,2.31c27.21,.19,54.43,.07,81.64,.08,1.1,0,2.22,.04,3.31,.17,5.35,.63,9.23,4.64,9.42,9.97,.16,4.28,.05,8.57,.06,12.86,0,1.85-.83,3.15-2.65,3.6-2.33,.57-4.28-1.09-4.33-3.73-.07-3.57-.02-7.14-.02-10.72,0-4.02-1.04-5.06-5.07-5.06H12.46c-.53,0-1.05-.01-1.57,.02-1.86,.13-3.02,1.14-3.36,2.95-.18,.95-.18,1.94-.18,2.91-.01,29.89-.01,59.78-.01,89.67v80.5c0,3.98,1.15,5.1,5.12,5.1,28.25,0,56.51,.01,84.76,0,3.5,0,4.68-1.18,4.68-4.68V110.43c-3.58-.48-3.79-.31-3.79,2.81,0,14.43,0,28.85,0,43.28,0,3.9-1.12,5-5,5.01-25.65,0-51.3,0-76.95-.01-3.79,0-4.9-1.11-4.9-4.86V18.06c0-3.65,1.13-4.81,4.74-4.81,25.79,0,51.57,0,77.35,0,3.52,0,4.73,1.17,4.75,4.65,.03,4.42,.01,8.84,.01,13.26q0,5.53,5.41,6.64c8.88,1.84,17.84,1.9,26.81,.98,4.52-.45,9.08-1.08,13.12-3.39,6.37-3.66,13.12-4.59,20.33-3.54,8.19,1.2,14.34,5.11,18.04,12.61,.92,1.86,2.03,3.67,2.66,5.62,2.77,8.57,5.57,17.14,8.04,25.79,2.74,9.6,5.5,19.21,6.7,29.17,.36,3.01,.69,6.03,1.03,9.05Zm-6.67,4.07c-.75-6.26-.88-11.86-2.16-17.18-3.22-13.48-6.87-26.87-10.54-40.25-1.51-5.5-3.49-10.92-6.93-15.56-1.35-1.82-3.13-3.76-5.14-4.58-7.14-2.89-14.35-3.24-21.45,.6-2.43,1.31-5.1,2.34-7.79,2.98-10.17,2.44-20.5,2.55-30.84,1.47-5.44-.56-10.87-1.41-15.73-4.16-4.96-2.8-10.18-3.56-15.8-2.72-5.91,.88-10.37,3.59-12.96,9.06-1.06,2.22-2.35,4.39-3.05,6.73-3.63,12.17-7.18,24.36-10.61,36.59-2.49,8.91-3.86,18.03-3.82,27.29,.03,5.86,.48,11.71,3.04,17.12,2.49,5.24,5.21,5.83,9.11,1.61,3.51-3.81,6.67-7.96,9.8-12.1,3.49-4.61,6.75-9.39,10.15-14.07,2.44-3.36,5.76-5.45,9.83-6.18,3.51-.63,7.06-1.45,10.6-1.46,15.16-.05,30.32,0,45.47,.37,7.79,.19,14.21,3.25,18.66,10.2,4.06,6.33,8.66,12.33,13.22,18.33,1.88,2.46,4.16,4.65,6.47,6.72,1.79,1.59,3.47,1.44,4.91-.45,1.35-1.78,2.7-3.81,3.17-5.93,1.11-4.97,1.7-10.06,2.39-14.43ZM90.98,22.56c.07-1.7-.45-2.21-2.18-2.2-22.78,.05-45.56,.05-68.34,0-1.76-.01-2.17,.58-2.17,2.24,.04,43.19,.04,86.39,0,129.59-.01,1.7,.48,2.2,2.2,2.19,22.78-.05,45.56-.05,68.34,.01,1.78,0,2.15-.58,2.15-2.23-.07-12.8-.04-25.59-.04-38.39v-2c-3.01,.11-4.99,1.54-6.55,3.68-4.89,6.72-9.58,13.61-14.71,20.14-2.7,3.44-5.88,6.64-9.34,9.3-4.61,3.55-9.8,2.92-13.59-1.51-2.02-2.35-3.66-5.27-4.64-8.21-3.35-10.1-2.93-20.52-1.36-30.85,2.59-16.99,7.64-33.39,12.85-49.72,1.08-3.38,2.72-6.59,4.23-9.82,4.12-8.86,11.58-12.71,20.91-13.25,3.97-.24,7.99,.33,12.2,.54,0-2.91-.09-6.21,.04-9.51Z"/>
  <path class="cls-1" d="M200.25,.25V114.09c-.34-3.02-.67-6.04-1.03-9.05-1.2-9.96-3.96-19.57-6.7-29.17-2.47-8.65-5.27-17.22-8.04-25.79-.63-1.95-1.74-3.76-2.66-5.62-3.7-7.5-9.85-11.41-18.04-12.61-7.21-1.05-13.96-.12-20.33,3.54-4.04,2.31-8.6,2.94-13.12,3.39-8.97,.92-17.93,.86-26.81-.98q-5.41-1.12-5.41-6.64c0-4.42,.02-8.84-.01-13.26-.02-3.48-1.23-4.65-4.75-4.65-25.78,0-51.56,0-77.35,0-3.61,0-4.74,1.16-4.74,4.81V156.66c0,3.75,1.11,4.86,4.9,4.86,25.65,.01,51.3,.01,76.95,.01,3.88-.01,5-1.11,5-5.01,0-14.43,0-28.85,0-43.28,0-3.12,.21-3.29,3.79-2.81v75.52c0,3.5-1.18,4.68-4.68,4.68-28.25,.01-56.51,0-84.76,0-3.97,0-5.12-1.12-5.12-5.1V105.03c0-29.89,0-59.78,.01-89.67,0-.97,0-1.96,.18-2.91,.34-1.81,1.5-2.82,3.36-2.95,.52-.03,1.04-.02,1.57-.02H96.83c4.03,0,5.07,1.04,5.07,5.06,0,3.58-.05,7.15,.02,10.72,.05,2.64,2,4.3,4.33,3.73,1.82-.45,2.65-1.75,2.65-3.6-.01-4.29,.1-8.58-.06-12.86-.19-5.33-4.07-9.34-9.42-9.97-1.09-.13-2.21-.17-3.31-.17-27.21-.01-54.43,.11-81.64-.08C7.38,2.26,2.29,4.33,.25,11.56V.25H200.25ZM65.41,176.25c.07-5.95-4.68-10.83-10.63-10.93-5.89-.1-10.78,4.74-10.81,10.7-.03,5.97,4.77,10.83,10.68,10.84,5.82,0,10.7-4.81,10.76-10.61Z"/>
  <path class="cls-1" d="M191.42,100.98c1.28,5.32,1.41,10.92,2.16,17.18-.69,4.37-1.28,9.46-2.39,14.43-.47,2.12-1.82,4.15-3.17,5.93-1.44,1.89-3.12,2.04-4.91,.45-2.31-2.07-4.59-4.26-6.47-6.72-4.56-6-9.16-12-13.22-18.33-4.45-6.95-10.87-10.01-18.66-10.2-15.15-.37-30.31-.42-45.47-.37-3.54,.01-7.09,.83-10.6,1.46-4.07,.73-7.39,2.82-9.83,6.18-3.4,4.68-6.66,9.46-10.15,14.07-3.13,4.14-6.29,8.29-9.8,12.1-3.9,4.22-6.62,3.63-9.11-1.61-2.56-5.41-3.01-11.26-3.04-17.12-.04-9.26,1.33-18.38,3.82-27.29,3.43-12.23,6.98-24.42,10.61-36.59,.7-2.34,1.99-4.51,3.05-6.73,2.59-5.47,7.05-8.18,12.96-9.06,5.62-.84,10.84-.08,15.8,2.72,4.86,2.75,10.29,3.6,15.73,4.16,10.34,1.08,20.67,.97,30.84-1.47,2.69-.64,5.36-1.67,7.79-2.98,7.1-3.84,14.31-3.49,21.45-.6,2.01,.82,3.79,2.76,5.14,4.58,3.44,4.64,5.42,10.06,6.93,15.56,3.67,13.38,7.32,26.77,10.54,40.25Zm-20.86-27.98c.03-8.99-7.01-16.14-15.96-16.2-8.96-.07-16.29,7.01-16.38,15.82-.1,8.98,7.11,16.38,16.01,16.45,9.03,.06,16.29-7.09,16.33-16.07Zm-72.56-.48c-.02-4.8,.04-4.77-4.84-4.82-1.93-.02-4.47,.47-5.58-.54-.97-.88-.37-3.53-.38-5.41-.03-5.09,0-5.05-5.23-4.93-1.28,.03-1.73,.44-1.7,1.69,.06,2.46-.02,4.93,.03,7.4,.03,1.32-.46,1.86-1.83,1.83-2.53-.07-5.07-.08-7.6,.03-.49,.03-1.34,.66-1.37,1.06-.15,1.84-.07,3.71-.07,5.76h10.86v5.96c0,4.97,0,4.9,4.89,4.94,1.71,.02,2.09-.62,2.04-2.16-.1-2.83-.03-5.67-.03-8.74,3.07,0,5.91-.1,8.74,.04,1.69,.08,2.07-.55,2.07-2.11Z"/>
  <path class="cls-2" d="M154.6,56.8c8.95,.06,15.99,7.21,15.96,16.2-.04,8.98-7.3,16.13-16.33,16.07-8.9-.07-16.11-7.47-16.01-16.45,.09-8.81,7.42-15.89,16.38-15.82Z"/>
  <path class="cls-2" d="M93.16,67.7c4.88,.05,4.82,.02,4.84,4.82,0,1.56-.38,2.19-2.07,2.11-2.83-.14-5.67-.04-8.74-.04,0,3.07-.07,5.91,.03,8.74,.05,1.54-.33,2.18-2.04,2.16-4.89-.04-4.89,.03-4.89-4.94v-5.96h-10.86c0-2.05-.08-3.92,.07-5.76,.03-.4,.88-1.03,1.37-1.06,2.53-.11,5.07-.1,7.6-.03,1.37,.03,1.86-.51,1.83-1.83-.05-2.47,.03-4.94-.03-7.4-.03-1.25,.42-1.66,1.7-1.69,5.22-.12,5.2-.16,5.23,4.93,.01,1.88-.59,4.53,.38,5.41,1.11,1.01,3.65,.52,5.58,.54Z"/>
  <path class="cls-1" d="M88.8,20.36c1.73-.01,2.25,.5,2.18,2.2-.13,3.3-.04,6.6-.04,9.51-4.21-.21-8.23-.78-12.2-.54-9.33,.54-16.79,4.39-20.91,13.25-1.51,3.23-3.15,6.44-4.23,9.82-5.21,16.33-10.26,32.73-12.85,49.72-1.57,10.33-1.99,20.75,1.36,30.85,.98,2.94,2.62,5.86,4.64,8.21,3.79,4.43,8.98,5.06,13.59,1.51,3.46-2.66,6.64-5.86,9.34-9.3,5.13-6.53,9.82-13.42,14.71-20.14,1.56-2.14,3.54-3.57,6.55-3.68v2c0,12.8-.03,25.59,.04,38.39,0,1.65-.37,2.23-2.15,2.23-22.78-.06-45.56-.06-68.34-.01-1.72,.01-2.21-.49-2.2-2.19,.04-43.2,.04-86.4,0-129.59,0-1.66,.41-2.25,2.17-2.24,22.78,.05,45.56,.05,68.34,0Z"/>
  <path class="cls-2" d="M54.78,165.32c5.95,.1,10.7,4.98,10.63,10.93-.06,5.8-4.94,10.61-10.76,10.61-5.91-.01-10.71-4.87-10.68-10.84,.03-5.96,4.92-10.8,10.81-10.7Zm3.39,10.86c.05-2.05-1.45-3.6-3.47-3.62-2-.01-3.62,1.56-3.62,3.52s1.52,3.45,3.43,3.52c2.05,.08,3.61-1.38,3.66-3.42Z"/>
  <path class="cls-1" d="M54.7,172.56c2.02,.02,3.52,1.57,3.47,3.62-.05,2.04-1.61,3.5-3.66,3.42-1.91-.07-3.43-1.63-3.43-3.52s1.62-3.53,3.62-3.52Z"/>
</svg>