<?xml version="1.0" encoding="UTF-8"?>
<svg id="Layer_1" data-name="Layer 1" xmlns="http://www.w3.org/2000/svg" viewBox="0 0 200 300">
  <defs>
    <style>
      .cls-1 {
        fill: #fbb247;
      }
    </style>
  </defs>
  <path class="cls-1" d="M99.64-.05c27.39,0,54.78,0,82.17,0,2.64,0,3.52,.76,4.12,3.49,4.41,20.09,8.84,40.18,13.23,60.27,.29,1.31,.43,2.69,.44,4.04,.03,5.13,0,10.26-.07,15.39-.1,7.91-5.06,14.92-12.13,17.01-1.35,.4-1.67,.99-1.67,2.42,.04,34.22,.04,68.43,.04,102.65,0,23.94,.02,47.88-.01,71.82-.01,10.5-6.07,19.24-15.26,22-1.96,.59-4.07,.87-6.11,.87-43.13,.05-86.25,.05-129.38,.03-12.27,0-21.39-9.93-21.4-23.23-.01-17.45,.04-34.9,.04-52.36,0-40.7-.04-81.4-.04-122.11,0-1.15-.24-1.69-1.36-2.02C4.83,98.02,0,91.18-.11,82.92c-.03-1.96,.05-3.94-.11-5.89-.8-9.43,1.49-18.37,3.51-27.37C6.73,34.31,10.08,18.92,13.46,3.55,14.09,.66,14.87-.05,17.63-.05c27.34,0,54.68,0,82.02,0Zm66.01,224.24V97.14c-9.21,6.13-17.35,4.89-24.55-3.76-3.55,4.83-8.06,7.53-13.81,7.51-5.75-.02-10.22-2.79-13.78-7.63-3.57,4.92-8.07,7.63-13.82,7.63-5.79,0-10.31-2.76-13.83-7.63-6.23,9.22-19.78,11.11-27.66,.22-7.18,8.59-15.31,9.78-24.47,3.66v127.05H165.66ZM19.92,247.61c-.04,.31-.09,.51-.09,.72,0,9.88-.1,19.76,.08,29.63,.04,2.25,.73,4.67,1.7,6.69,3.04,6.32,8.2,8.71,14.62,8.63,9.93-.12,19.85-.11,29.78-.12,16.33-.02,32.67-.01,49,0,8.2,0,16.4,.07,24.6,.08,8.18,0,16.35-.14,24.53,0,8.53,.15,15.42-6.92,15.44-16.16,.01-9.22,0-18.44,0-27.67,0-.58,0-1.16,0-1.8H19.92ZM172.06,97.33c-.02,.3-.07,.72-.07,1.14-.01,19.85-.04,39.7-.03,59.55,0,22.91,.03,45.82,.04,68.73,0,2.98-1.09,4.18-3.85,4.18-45.65,0-91.29,0-136.94,0-2.72,0-3.79-1.23-3.79-4.23,0-23.41,0-46.81,0-70.22,0-19.21,0-38.41,0-57.62,0-.57-.04-1.13-.06-1.54-2.49,1.22-4.9,2.4-7.45,3.64V240.68H179.54V101c-2.62-1.29-5.03-2.46-7.48-3.67ZM90.85,6.72c-.59,18.69-1.17,37.29-1.76,55.92h21.21c-.59-18.71-1.18-37.27-1.77-55.92h-17.69Zm23.93-.01c.59,18.77,1.17,37.34,1.75,55.98h21.18c-1.75-18.73-3.48-37.35-5.22-55.98h-17.72Zm-30.16,.21c-.26-.15-.34-.24-.43-.24-5.44-.02-10.88-.06-16.33,0-.35,0-.95,.73-1.01,1.18-.49,4.27-.9,8.55-1.3,12.83-.98,10.51-1.95,21.02-2.92,31.53-.32,3.45-.63,6.9-.95,10.47h21.17c.59-18.66,1.17-37.26,1.76-55.78Zm80.53,55.78c-2.94-18.8-5.86-37.39-8.76-55.93h-17.67c1.77,18.72,3.53,37.29,5.29,55.93h21.14ZM60.67,6.86c-.27-.1-.41-.2-.55-.2-5.39-.01-10.79-.04-16.18,.03-.37,0-.97,.7-1.05,1.15-1.05,6.26-2.03,12.53-3.02,18.8-1.51,9.61-3.01,19.22-4.51,28.83-.37,2.38-.72,4.77-1.1,7.32,6.91,0,13.56,.02,20.2-.05,.35,0,.94-.71,1-1.15,.29-2.1,.44-4.22,.64-6.34,1.18-12.51,2.37-25.03,3.55-37.54,.34-3.62,.67-7.24,1.01-10.85Zm-23.94,0c-.3-.12-.44-.22-.57-.22-5.34-.01-10.69-.04-16.03,.04-.41,0-1.08,.72-1.19,1.21-3.95,17.73-7.86,35.47-11.76,53.21-.11,.5-.16,1.01-.25,1.59H27.92c2.95-18.66,5.88-37.25,8.81-55.84ZM192.43,62.78c-.08-.67-.1-1.1-.19-1.52-3.9-17.76-7.82-35.51-11.7-53.27-.23-1.04-.63-1.4-1.63-1.39-5.04,.05-10.09,.02-15.13,.03-.33,0-.66,.09-1.06,.14,.04,.36,.05,.63,.09,.89,1.16,7.4,2.33,14.8,3.49,22.21,1.63,10.42,3.28,20.84,4.88,31.27,.19,1.25,.62,1.72,1.84,1.67,2.72-.11,5.45-.03,8.17-.03,3.68,0,7.35,0,11.24,0ZM5.99,69.59c0,4.67-.11,9.14,.06,13.59,.06,1.62,.55,3.33,1.23,4.79,2.27,4.88,7.18,7.18,12.08,5.87,4.71-1.25,8.02-5.89,8.05-11.29,.01-3.27,0-6.54,0-9.81,0-1.02,0-2.04,0-3.15H5.99Zm83.03-.01c0,4.71-.18,9.23,.05,13.73,.26,5.32,3.31,9.18,8.07,10.53,6.59,1.88,12.57-3.39,13.07-9.27,.41-4.86,.1-9.79,.1-14.68,0-.08-.11-.17-.21-.3h-21.08Zm48.84,.05h-21.26c0,1.55,0,2.97,0,4.38,0,2.78,.05,5.57-.02,8.35-.06,2.39,.61,4.5,1.77,6.48,2.41,4.08,6.82,6.08,11.26,5.11,4.04-.88,7.84-4.65,8.16-9.03,.37-5.02,.09-10.11,.09-15.29Zm-76.56-.04c0,3.41-.03,6.73,.01,10.04,.03,1.85-.03,3.74,.32,5.53,1.05,5.5,5.91,9.43,10.93,9.03,5.48-.43,9.82-4.85,10.14-10.57,.19-3.36,.08-6.75,.1-10.12,0-1.29,0-2.57,0-3.9h-21.49Zm83.01-.02c0,4.71-.2,9.24,.05,13.74,.35,6.38,5.3,11.12,10.97,10.89,5.92-.24,10.39-5.35,10.39-11.89,0-3.16,0-6.33,0-9.49,0-1.07,0-2.13,0-3.25h-21.41Zm-89.42,.04h-21.1c-.05,.32-.11,.53-.11,.74,0,4.25-.07,8.51,.03,12.76,.14,6.09,4.79,10.95,10.47,11.09,5.49,.14,10.4-4.41,10.76-10.38,.27-4.56,.1-9.15,.11-13.73,0-.15-.1-.3-.17-.49Zm117.26-.05c-.07,.3-.14,.46-.14,.61,0,4.2-.04,8.4,0,12.6,.05,5.84,4.02,10.6,9.41,11.34,5.22,.71,10.38-2.83,11.48-8.47,.64-3.3,.41-6.81,.52-10.23,.06-1.93,.01-3.86,.01-5.85h-21.28Z"/>
  <path class="cls-1" d="M75.34,174.54c-.5,3.39,.89,5.22,3.86,5.22,15.64,0,31.27,0,46.91,0,2.81,0,4.32,1.14,4.37,3.3,.05,2.25-1.48,3.48-4.37,3.48-15.54,0-31.07,0-46.61,0-6.52,0-10.62-4.42-10.61-11.43,.01-9.54,.06-19.08,.07-28.62,0-6.22-.05-12.44-.08-18.66,0-.32-.03-.63-.07-1.16-2.51,0-4.97,.12-7.41-.06-.97-.07-2.23-.51-2.75-1.27-.56-.81-.68-2.25-.5-3.31,.23-1.32,1.36-2.08,2.6-2.1,3.78-.07,7.57-.11,11.35,0,2.03,.06,3.05,1.55,3.05,4.05,0,13.97,0,27.94,0,41.91,0,.58,0,1.17,0,1.93h1.8c12.06,0,24.11-.02,36.17,.03,1.17,0,1.82-.44,2.45-1.43,3.59-5.67,7.22-11.31,10.84-16.96,1.66-2.6,3.34-5.19,5-7.78,.28-.43,.53-.88,.95-1.6-1.94,0-3.63,0-5.32,0-13.72,0-27.44,0-41.16,0-.6,0-1.22,.03-1.81-.1-1.56-.34-2.55-1.74-2.5-3.41,.05-1.63,1.17-2.98,2.71-3.22,.4-.06,.81-.04,1.21-.04,17.4,0,34.8,0,52.21,0,2.53,0,4.01,1.43,3.76,3.71-.07,.67-.37,1.37-.73,1.93-7.22,11.3-14.46,22.57-21.69,33.86-.83,1.29-1.94,1.73-3.37,1.73-12.86-.03-25.72-.01-38.59-.01-.59,0-1.19,0-1.76,0Z"/>
  <path class="cls-1" d="M114.59,195.13c0,3.22-2.43,5.8-5.4,5.76-2.89-.05-5.24-2.65-5.23-5.79,.01-3.2,2.49-5.83,5.41-5.77,2.91,.07,5.22,2.64,5.21,5.8Zm-4.13-.09c-.58-.39-.96-.85-1.23-.78-.3,.08-.64,.6-.69,.97-.03,.22,.49,.75,.73,.73,.33-.04,.63-.46,1.18-.92Z"/>
  <path class="cls-1" d="M84.82,195.13c0-3.23,2.43-5.86,5.35-5.8,2.88,.06,5.31,2.71,5.28,5.77-.03,3.2-2.48,5.84-5.4,5.79-2.93-.05-5.24-2.59-5.24-5.75Zm5.19-1.34c-.34,.68-.69,1.07-.67,1.43,.02,.28,.57,.8,.76,.74,.33-.11,.77-.56,.79-.89,.02-.32-.44-.67-.88-1.28Z"/>
  <path class="cls-1" d="M81.8,270.74c-.09-10.66,7.82-19.28,17.82-19.42,9.76-.13,17.89,8.49,17.99,19.09,.1,10.75-7.8,19.59-17.61,19.69-10.08,.1-18.11-8.43-18.2-19.36Zm17.87,12.58c6.44,0,11.67-5.58,11.73-12.52,.06-6.96-5.26-12.77-11.69-12.76-6.45,0-11.78,5.78-11.74,12.72,.04,6.93,5.29,12.57,11.7,12.57Z"/>
</svg>