<?xml version="1.0" encoding="UTF-8"?>
<svg id="Layer_1" data-name="Layer 1" xmlns="http://www.w3.org/2000/svg" viewBox="0 0 200 300">
  <defs>
    <style>
      .cls-1 {
        fill: #fbb247;
      }
    </style>
  </defs>
  <path class="cls-1" d="M199.5,149.71c0,40.93-.03,81.87,.02,122.8,0,7.31-2.41,13.79-7.91,19.25-5.15,5.12-11.58,8.11-19.48,8.11-48.37,.03-96.74,.05-145.11,0-13.15-.01-24.63-9.34-26.93-21.68-.35-1.85-.54-3.74-.54-5.61-.03-81.79-.05-163.59-.01-245.38,0-9.9,4.34-17.97,13.8-23.61C17.48,1.13,22.11-.07,27.07-.07c48.28-.02,96.57-.03,144.85,.02,12.17,.01,22.94,7.68,26.25,18.74,.94,3.15,1.27,6.53,1.28,9.8,.08,40.41,.05,80.82,.05,121.22h-.01Zm-8.95,113.39v-3.89c0-76.9,0-153.8,0-230.7,0-1.28-.02-2.56-.16-3.83-.91-8.18-7.58-15.1-16.46-15.84-7.41-.62-14.94-.13-22.77-.13,0,1.74,.02,3.45,0,5.16-.07,6.97-4.54,10.92-12.38,10.92-26.23,0-52.46,0-78.68,0-7.45,0-12.06-4.03-12.2-10.66-.04-1.79,0-3.58,0-5.38-7.86,0-15.49-.57-22.96,.14-9.89,.94-16.26,8.68-16.27,18.47-.01,77.73,0,155.46,0,233.18v2.54H190.55Zm-91.02,25.56c6.64,0,13.28,.02,19.93,0,5.51-.02,9.03-3.07,9.1-7.82,.06-4.76-3.64-8.09-9.1-8.1-13.28-.02-26.57-.02-39.85,0-5.39,0-9.2,3.42-9.13,8.09,.07,4.66,3.71,7.8,9.13,7.82,6.64,.02,13.28,0,19.93,0Z"/>
  <path class="cls-1" d="M101.25,66.99c-1.26-1.57-2.38-2.98-3.53-4.38-.97-1.18-.86-2.27,.45-3.15,2.37-1.59,4.78-3.14,7.2-4.68,1.27-.81,2.39-.57,3.31,.52,.41,.48,.83,.95,1.23,1.44,2.54,3.03,2.5,2.91,6.6,1.96,1.99-.46,2.44-1.29,2.4-2.98-.15-5.85-.43-5.58,6.43-5.56,7.83,.03,7.33-.51,7.2,6.27-.03,1.35,.59,1.76,1.94,2.1,4.57,1.18,4.55,1.24,7.36-2.15,2.13-2.58,2.66-2.66,5.5-.83,1.93,1.24,3.85,2.49,5.77,3.73,1.54,.99,1.72,2.1,.55,3.46-1.18,1.37-2.27,2.8-3.37,4.17,.17,.31,.25,.53,.4,.71,3.38,4.11,3.4,4.18,8.89,2.66,2.11-.59,3.24-.1,3.88,1.69,.76,2.15,1.57,4.29,2.38,6.43,.72,1.9,0,3.06-2.2,3.51-.25,.05-.48,.15-.73,.21-4.77,1.31-5.29,2.03-4.46,6.35,.08,.42,.56,.82,.94,1.14,.22,.19,.62,.22,.95,.31,6.7,1.87,6.69,1.21,4.3,7.74-2.32,6.33-1.92,5.78-8.27,3.86-1.79-.54-2.73-.31-3.72,1.13-2.24,3.25-2.33,3.21,.17,6.4,2.27,2.9,2.23,3.17-.89,5.22-1.71,1.12-3.47,2.18-5.15,3.32-1.81,1.24-3.27,.99-4.48-.67-.14-.19-.31-.36-.46-.54-3.12-3.8-3.13-3.83-8.07-1.96-.54,.2-.88,.92-1.17,1.46-.16,.31-.03,.74-.04,1.12,0,5.74,.65,5.61-6.45,5.54-7.39-.07-7.49,.91-7.24-6.21,.04-1.3-.55-1.8-1.94-2.14-4.57-1.1-4.56-1.15-7.37,2.22-2.1,2.52-2.64,2.6-5.54,.76-1.86-1.19-3.69-2.43-5.56-3.6-1.56-.97-1.79-2.1-.69-3.46,.25-.31,.49-.62,.74-.92,3.06-3.74,3.07-4.07-.56-7.46-.39-.37-1.34-.53-1.93-.41-1.57,.32-3.08,.85-4.61,1.31-1.6,.48-2.71-.04-3.24-1.38-.94-2.41-1.81-4.85-2.65-7.3-.51-1.47,.12-2.49,1.81-2.96,.49-.14,.97-.27,1.46-.41,4.29-1.25,4.21-1.25,4.33-5.32,.04-1.39-.47-1.96-1.93-2.4-6.15-1.85-6.84-.78-4.44-7.54,2.38-6.71,2.32-5.88,8.61-4,1.37,.41,2.34,.47,3.13-.87,.7-1.18,1.73-2.21,2.75-3.47Zm24.44,6.04c-8.58,.04-15.13,5.87-15.15,13.47-.02,7.28,6.82,13.31,15.12,13.34,8.47,.03,15.24-5.94,15.24-13.43,0-7.56-6.67-13.42-15.21-13.38Zm-28.86,7.19c1.48-.68,2.53-1.15,3.57-1.63,.19,.88-.02,1.6-.52,2.1-.55,.55-1.68,.75-1.99,1.34-.57,1.09-.92,2.34-.96,3.53-.01,.48,1,1.34,1.62,1.4,1.46,.15,2.96-.08,4.72-.17,0-2.45,0-4.98,0-7.51,0-1.9-1.3-2.75-3.22-2.77-2.08-.02-3.3,.95-3.23,3.71Z"/>
  <path class="cls-1" d="M61.08,90.3c2.29-.08,2.58,1.07,2.95,2.3,.31,1.05,.66,2.66,1.44,2.9,1.95,.61,4.19,.86,6.25,.67,.81-.07,1.57-1.62,2.15-2.59,1.02-1.68,2.24-2.09,4.11-.99,1.48,.87,3.06,1.63,4.63,2.38,1.79,.86,2.17,1.92,1.05,3.5-.7,.98-1.89,2.4-1.54,3.12,.81,1.67,2.26,3.18,3.79,4.44,.5,.41,2.06-.06,3.09-.28,3.3-.7,3.61-.58,4.5,2.23,.41,1.3,.69,2.65,1.19,3.92,.73,1.85,.03,2.83-2.07,3.32-1.27,.29-3.21,.57-3.55,1.32-.78,1.68-.94,3.66-.94,5.51,0,.52,1.41,1.12,2.25,1.55,3.2,1.64,3.29,1.88,1.5,4.68-.25,.39-.51,.78-.76,1.17-2.77,4.31-2.75,4.28-7.66,2.18-.57-.25-1.48-.03-2.18,.15-.45,.12-.74,.64-1.19,.83-2.96,1.28-3.94,3.09-2.47,5.89,.69,1.32-.11,2.33-1.72,2.72-1.97,.47-3.95,.91-5.92,1.37-1.76,.41-2.79-.16-3.11-1.75-.1-.52-.36-1.01-.42-1.53-.19-1.66-1.21-2.34-3.06-2.13-.17,.02-.35,.02-.51-.03-3.17-1.04-5.25-.22-6.44,2.66-.55,1.33-1.87,1.61-3.34,.8-1.74-.94-3.49-1.87-5.28-2.74-1.76-.86-1.86-1.92-.86-3.35,.69-1,1.92-2.41,1.57-3.14-.8-1.67-2.25-3.19-3.78-4.46-.51-.42-2.08,.02-3.11,.25-3.26,.72-3.65,.56-4.53-2.21-.43-1.38-.75-2.79-1.26-4.14-.63-1.66,0-2.54,1.86-3.01,1.35-.34,3.34-.6,3.77-1.42,.82-1.56,.87-3.5,.93-5.28,.02-.48-.99-1.11-1.66-1.48-3.87-2.12-3.88-2.1-1.58-5.64,.68-1.04,1.32-2.1,2-3.14,.82-1.25,1.89-1.66,3.38-.82,.86,.48,1.71,1.03,2.66,1.33,.59,.19,1.5,.17,2.01-.11,1.37-.74,2.74-1.56,3.82-2.6,.51-.49,.62-1.59,.43-2.32-1.04-4.03-1.09-4.02,3.36-5.07,1.56-.37,3.12-.72,4.25-.99Zm4.25,13.02c-8.36,.01-15.01,5.83-14.99,13.12,.01,7.35,6.87,13.42,15.1,13.35,8.17-.07,14.85-6.07,14.84-13.33-.01-7.35-6.61-13.15-14.94-13.13Z"/>
  <path class="cls-1" d="M126.4,168.06c.06,.22,.06,.3,.1,.36,.75,1.29,2.5,3.2,2.06,3.76-1.25,1.58-3.29,2.77-5.26,3.73-.48,.23-2.06-.83-2.79-1.56-.95-.95-1.54-1.71-3.32-1.19-1.83,.53-2.5,1.31-2.24,2.9,.36,2.21-.79,3.06-3.22,2.78-.75-.08-1.54-.09-2.29,0-2.61,.3-3.63-.71-3.29-2.96,.2-1.34-.21-2.15-1.93-2.62-1.67-.45-2.61-.26-3.6,1-1.94,2.44-2.01,2.4-4.69,.66-.41-.27-.82-.54-1.23-.81-3.01-1.97-3.1-2.03-.84-4.61,.97-1.11,.65-1.77-.18-2.7-.82-.92-1.33-1.71-3.04-1.18-3.62,1.12-3.66,1.01-4.86-2.23-.11-.28-.17-.58-.27-.87-1.1-3.08-1.13-3.18,2.25-4.11,1.51-.42,1.84-1.04,1.95-2.37,.14-1.76-.7-2.49-2.42-2.77-2.5-.4-2.99-1.63-1.99-3.55,.21-.41,.3-.86,.47-1.29,1.22-3.23,1.26-3.34,4.88-2.25,1.69,.51,2.26-.26,3.06-1.2,.76-.9,1.25-1.57,.31-2.73-2.33-2.88-2.25-2.94,1.11-5.08,.55-.35,1.13-.68,1.65-1.06,1.46-1.04,2.57-.84,3.49,.63,.86,1.37,1.76,2.38,4,1.56,1.59-.59,2.11-1.29,1.91-2.64-.34-2.27,.73-3.24,3.31-2.89,.42,.06,.85,0,1.27,0,3.99,0,4.11,0,4.14,3.46,.02,1.62,1.19,1.7,2.37,2.1,1.15,.39,1.94,.48,2.83-.56,.78-.92,2.5-2.35,2.99-2.14,2.07,.93,3.92,2.31,5.6,3.75,.26,.22-.57,1.77-1.24,2.44-1.22,1.22-.91,2.08,.05,3.32,1,1.3,1.96,1.29,3.41,.86,3.19-.95,3.21-.9,4.31,1.93,.19,.5,.39,.99,.58,1.49,1.08,2.89,1.1,2.96-2.29,3.89-1.54,.42-2.08,1.02-2.11,2.51-.03,1.59,.57,2.22,2.23,2.65,3.25,.84,3.22,.93,2.19,3.74-.16,.43-.32,.86-.48,1.28-1.17,3.17-1.24,3.33-4.73,2.16-3.06-1.02-2.87,1.56-4.18,2.37Zm-16.01-3.58c5.42,.06,9.82-3.69,9.9-8.42,.08-4.75-4.21-8.73-9.5-8.79-5.53-.07-10,3.74-10.06,8.56-.06,4.71,4.28,8.6,9.66,8.65Z"/>
  <path class="cls-1" d="M100.79,215.03c21.54,0,43.08,0,64.62,0,.68,0,1.37-.03,2.04,.05,2.36,.3,4.05,1.95,4.1,3.98,.06,2.12-1.65,3.93-4.1,4.21-1.18,.13-2.38,.09-3.57,.09-42.48,0-84.96,0-127.45,0-.85,0-1.72,.02-2.54-.12-2.34-.39-3.89-2.13-3.82-4.16,.07-2.15,1.83-3.81,4.32-4.01,.85-.07,1.7-.03,2.55-.03,21.28,0,42.57,0,63.85,0h0Z"/>
  <path class="cls-1" d="M70.65,244.87c-11.4,0-22.81,0-34.21,0-.93,0-1.89,.02-2.79-.16-2.32-.46-3.76-2.29-3.55-4.34,.2-1.97,1.83-3.45,4.12-3.68,.67-.07,1.36-.04,2.04-.04,22.81,0,45.61,0,68.42,0,.77,0,1.53-.02,2.3,.03,2.51,.16,4.38,1.8,4.46,3.87,.09,2.22-1.67,4.03-4.28,4.26-1.18,.11-2.38,.06-3.57,.06-10.98,0-21.96,0-32.93,0Z"/>
  <path class="cls-1" d="M73.43,193.75v2.11c1.63,.17,3.31,.99,3.99-1.17,.08-.25,.89-.54,1.22-.44,.34,.1,.82,.79,.71,.98-.48,.81-1.09,1.59-1.79,2.27-1.22,1.2-2.49,2.37-3.85,3.44-.55,.43-1.39,.82-2.1,.83-12.16,.05-24.32,.06-36.49,.02-3.08-.01-5.04-1.66-5.09-4.03-.05-2.38,1.94-4.25,4.85-4.26,12.59-.03,38.08,.12,38.54,.26Z"/>
  <path class="cls-1" d="M128.38,201.55v-7.9c.75-.07,1.41-.18,2.06-.18,11.92,0,23.84,0,35.76,0,2.35,0,4.22,.75,5.03,2.77,.71,1.78,.32,3.5-1.52,4.62-.86,.52-2.03,.9-3.06,.9-12.43,.05-24.86,.02-37.3,0-.24,0-.48-.1-.98-.22Z"/>
  <path class="cls-1" d="M89.14,201.32v-7.58c.19,0,.37-.01,.56-.02,.04,.65,.09,1.31,.14,2.1,1.55,.24,3.26,1.11,3.94-1.21,.07-.24,.88-.53,1.23-.43,.34,.09,.81,.73,.72,.97-.29,.73-.68,1.51-1.29,2.03-1.65,1.42-3.44,2.71-5.28,4.13Z"/>
  <path class="cls-1" d="M124.42,197.63c0,.97,.11,1.96-.05,2.92-.07,.44-.66,.82-1.01,1.22-.41-.36-1.15-.71-1.17-1.08-.11-2.02-.11-4.05,0-6.07,.02-.39,.73-.74,1.13-1.11,.36,.4,.97,.77,1.04,1.2,.16,.95,.05,1.94,.05,2.92Z"/>
  <path class="cls-1" d="M113.15,198.11c0,.9,.1,1.81-.05,2.69-.06,.36-.67,.88-1.05,.89-.37,0-1.08-.52-1.09-.84-.1-1.87-.09-3.75,.02-5.61,.02-.36,.67-.68,1.03-1.02,.37,.32,1.01,.62,1.06,.98,.15,.95,.05,1.94,.05,2.91,0,0,.02,0,.03,0Z"/>
  <path class="cls-1" d="M99.66,197.02c-.03-.56-.15-1.53-.11-2.5,.02-.34,.45-.66,.69-.99,.39,.29,1.12,.56,1.13,.86,.09,2.17,.08,4.34,0,6.51-.01,.29-.58,.57-.89,.85-.27-.32-.75-.62-.78-.95-.1-1.12-.04-2.24-.04-3.78Z"/>
  <path class="cls-1" d="M83.31,197c-.03-.55-.16-1.53-.11-2.49,.02-.34,.45-.66,.69-.99,.39,.29,1.11,.57,1.12,.87,.09,2.17,.08,4.34,0,6.51-.01,.29-.58,.56-.89,.85-.27-.32-.74-.62-.77-.96-.1-1.12-.04-2.24-.04-3.79Z"/>
  <path class="cls-1" d="M106.16,194.18c.74,.88,1.37,6.54,.67,7.19-.23,.21-1.16,.19-1.37-.02-.69-.7-.05-6.32,.7-7.16Z"/>
  <path class="cls-1" d="M117.96,193.6v8.05c-.22,0-.43,0-.65,0v-8.05c.22,0,.43,0,.65,0Z"/>
  <polyline class="cls-1" points="128.38 193.66 73.43 193.75 73.72 200.94 129.35 201.77"/>
  <rect class="cls-1" x="94.97" y="76.51" width="11.47" height="13.78"/>
</svg>