<?xml version="1.0" encoding="UTF-8"?>
<svg id="Layer_1" data-name="Layer 1" xmlns="http://www.w3.org/2000/svg" viewBox="0 0 200 350">
  <defs>
    <style>
      .cls-1 {
        fill: #fbb247;
      }
    </style>
  </defs>
  <path class="cls-1" d="M1.51,174.42c0-49.3-.01-98.59,0-147.89C1.53,13.77,11.38,3.04,25.7,.27c2.69-.52,5.51-.7,8.28-.7,44.88-.04,89.76-.04,134.64-.02,12.43,0,22.33,4.06,28.86,13.52,2.9,4.2,3.99,8.82,3.99,13.57,.05,98.59,.06,197.19,.02,295.78,0,13.03-9.62,23.52-24.01,26.34-2.78,.55-5.7,.74-8.56,.75-44.78,.04-89.57,.03-134.35,.03-9.74,0-18.26-2.55-25.12-8.77-5.58-5.05-7.93-11.1-7.93-17.96,0-29.71,0-59.42,0-89.13,0-19.75,0-39.5,0-59.26Zm188.51,.35v-6.72c0-47.47,0-94.94,0-142.41,0-8.16-5.36-14.42-14.3-15.77-7.48-1.13-15.14-.32-22.72-.34-1.46,0-1.98,1.04-2.17,2.25-1.04,6.89-4.79,9.73-12.82,9.73-24.51,0-49.01-.14-73.52,.08-8.1,.07-12.17-4.33-12.79-9.64-.23-1.96-1.36-2.52-3.4-2.51-5.48,.04-10.96,0-16.43,.01-11.25,.02-18.84,6.53-18.86,16.19-.02,13.36,0,26.72,0,40.08,0,85.73,.08,171.47-.11,257.2-.02,9.39,8.51,16.83,19.28,16.78,46.22-.21,92.45-.09,138.68-.1,1.53,0,3.1,0,4.58-.26,9.06-1.61,14.58-7.75,14.58-16.18,.01-49.46,0-98.93,0-148.39Z"/>
  <path class="cls-1" d="M57.28,132.42c-8.17,0-16.33-.04-24.5,.03-1.67,.01-2.58-.47-3.39-1.72-9.69-15.07-1.05-34.57,18-39.46,12.73-3.27,24.51-1.18,33.56,7.74,9.01,8.89,10.45,19.03,5.28,29.94-1.18,2.48-2.72,3.69-6.19,3.55-7.57-.29-15.17-.09-22.76-.09Zm4.1-15.03c.02-1.45-.79-2.36-1.88-3.09-6.12-4.12-12.25-8.22-18.38-12.32-.59-.39-1.24-.98-1.98-.3-.72,.65-.07,1.23,.38,1.74,1.84,2.12,3.64,4.25,5.56,6.32,3.22,3.47,6.06,7.22,9.72,10.37,.84,.72,1.88,2.05,3.33,1.16,1.57-.97,3.47-1.93,3.26-3.88Zm-24.71-.97c-1.41,0-1.98,0-2.56,0-.59,.01-1.16,.1-1.41,.65-.33,.72,.44,1.06,.81,1.46,.49,.53,4.56-.13,5-.73,.53-.72,.02-1.12-.68-1.29-.63-.15-1.33-.1-1.17-.09Zm42.32-.04c-1.04,.22-2.4-.45-3.06,.78-.29,.55,.34,.92,.68,1.27,.61,.6,4.75,.02,5.18-.69,.45-.73-.05-1.12-.79-1.25-.65-.12-1.33-.08-2.01-.11Zm-7.97-10.11c.8,.08,4.2-2.88,4.01-3.52-.13-.42-.51-.67-1.05-.67-.82,0-3.88,2.68-3.83,3.35,.04,.48,.42,.69,.87,.85Zm-14.77-7.52c0,1.02-.31,2.65,.93,2.68,1.43,.03,1.22-1.57,1.21-2.62,0-.57,.02-1.15-.04-1.72-.06-.52-.33-.96-1.03-.99-.72-.03-1,.41-1.06,.93-.06,.57-.01,1.15-.01,1.72Z"/>
  <path class="cls-1" d="M57.29,209.77c-7.01,0-14.03,.02-21.04,0-3.48-.01-4.45-.84-4.46-3.85-.03-6.89-.03-13.77,0-20.66,.01-3.04,.95-3.89,4.42-3.89,14.03-.02,28.06-.02,42.09,0,3.46,0,4.47,.89,4.49,3.86,.03,6.89,.02,13.77,0,20.66-.01,3.01-.99,3.86-4.44,3.88-7.01,.02-14.03,0-21.04,0Zm-3.63-15.22c.29,.03,.59,.07,.88,.1,0,2.08,.04,4.17-.02,6.25-.03,1.13,.09,1.87,1.8,1.83,1.63-.03,1.57-.81,1.57-1.78-.02-3.48,.02-6.96-.03-10.44-.01-.87,.6-2.24-1.37-2.13-1.44,.08-3.33-.77-3.98,1.37-.63,2.08-1.54,4.09-2.34,6.13-.27,.68-.26,1.73-1.25,1.79-1.18,.07-.92-1.09-1.17-1.71-.86-2.11-1.61-4.25-2.32-6.39-.65-1.98-2.48-1.02-3.83-1.2-1.14-.15-1.45,.45-1.44,1.36,.03,3.89,.04,7.79,0,11.68,0,.98,.45,1.23,1.53,1.3,1.82,.11,1.64-.85,1.73-1.89,.16-1.8-.61-3.75,.92-5.94,.86,2.36,1.55,4.15,2.15,5.97,.36,1.1,.7,1.92,2.42,1.89,1.61-.03,1.83-.85,2.2-1.82,.82-2.13,1.7-4.25,2.55-6.37Zm21.54,2.2c.15-1.1-.61-1.26-1.25-1.15-3.65,.63-3.57-1.35-3.38-3.48,.06-.74-.05-1.5,.02-2.24,.12-1.24-.58-1.54-1.89-1.55-1.33,0-1.62,.54-1.58,1.53,.05,1.41-.04,2.82,.03,4.23,.05,1.04-.33,1.49-1.62,1.51-1.07,.02-2.63-.56-3.1,.56-.43,1,1.09,1.59,1.75,2.36,.51,.6,1.12,1.13,1.7,1.68,3.32,3.14,2.34,3.41,5.9-.05,1.2-1.17,2.38-2.36,3.42-3.4Z"/>
  <path class="cls-1" d="M174.91,194.58c-.15,5.37-1.45,9.99-4.11,14.31-1.45,2.35-2.14,2.51-4.63,1.04-7.91-4.68-15.8-9.39-23.73-14.05-1.05-.62-1.55-1.24-1.54-2.39,.06-8.7,.08-17.41,0-26.11-.01-1.5,.57-1.73,2.14-1.67,14.09,.49,27.42,9.88,30.66,21.87,.66,2.43,1.4,4.92,1.22,7Z"/>
  <path class="cls-1" d="M136.98,185.77c0,3.07,.07,6.14-.03,9.21-.05,1.32,.48,2.08,1.75,2.81,5.82,3.37,11.53,6.89,17.34,10.26,2.05,1.19,1.9,2.03,.07,3.28-7.58,5.2-18.18,6.04-26.8,2.02-8.58-4.01-13.56-12.19-12.5-20.56,1.07-8.47,7.83-15.45,17.17-17.89,2.25-.59,3.24-.47,3.05,1.91-.24,2.97-.06,5.97-.06,8.96Z"/>
  <path class="cls-1" d="M138.38,272.34c.96,.76,1.47,1.26,2.08,1.63,.78,.47,1.36,1.97,2.43,1.11,1.16-.93-.48-1.58-1.14-2.07-1.61-1.18-1.55-1.96-.09-3.37,2.06-2,3.18-.95,4.74,.36,1,.84,2.31,2.95,3.3,2.02,1.4-1.32-1.21-2.25-2.24-3.01-2.26-1.66-2.17-2.8,.06-4.39,2.14-1.52,3.98-3.36,5.95-5.06,1.3-1.12,2.57-1.2,3.93-.01,3.24,2.84,6.48,5.67,9.79,8.43,1.37,1.14,1.17,1.9-.13,3.01-11.93,10.22-23.81,20.49-35.65,30.79-1.33,1.16-2.22,1.49-3.7,.13-3.15-2.9-6.45-5.69-9.76-8.46-1.41-1.18-1.58-2.17,.03-3.26,.23-.15,.4-.35,.61-.52,1.46-1.17,2.8-3.09,4.42-3.3,1.57-.2,2.73,2.04,4.19,3.1,.53,.39,1.03,1.28,1.87,.59,.85-.7-.15-1.16-.61-1.6-.64-.62-1.28-1.26-2.04-1.75-2.01-1.29-1.94-2.3-.09-3.85,1.63-1.36,2.58-1.31,3.82,.13,.34,.39,.8,.72,1.23,1.05,.4,.31,.86,.39,1.26,0,.41-.39,.17-.77-.18-1.09-.46-.42-.91-.87-1.43-1.23-1.29-.89-1.4-1.54-.17-2.77,1.91-1.91,3.2-1.92,5.1,0,.88,.88,1.94,3.13,3.5,1.9,1.02-.8-1.6-1.82-2.33-2.89-.61-.89-2.66-1.25-1.75-2.66,.71-1.11,1.94-1.96,3-2.98Zm20.51-.17c1.07-.81,2.67-1.25,2.69-2.66,.01-1.41-1.03-2.35-2.69-2.32-1.52,.02-2.45,.89-2.49,2.23-.04,1.45,1.49,1.93,2.5,2.76Z"/>
  <path class="cls-1" d="M153.16,106.79c0,6.14-.06,12.27,.04,18.41,.03,1.77-.47,2.56-2.72,2.46-3.25-.15-6.53-.08-9.79-.02-1.49,.03-2.3-.25-2.29-1.76,.05-12.85,.04-25.7,.02-38.55,0-1.3,.63-1.74,2.08-1.72,3.36,.05,6.72,.1,10.08-.02,2.05-.07,2.64,.6,2.62,2.31-.09,6.3-.04,12.6-.04,18.9Z"/>
  <path class="cls-1" d="M59.04,281.38c-4.41,0-8.82-.06-13.23,.03-1.82,.04-2.58-.37-2.51-2.06,.14-3.22,.08-6.46,.02-9.69-.03-1.28,.22-1.97,2.01-1.95,9.2,.07,18.41,.07,27.61,0,1.73-.01,2.09,.58,2.06,1.9-.07,3.31-.08,6.62,0,9.93,.03,1.4-.52,1.89-2.16,1.86-4.6-.08-9.2-.03-13.8-.03Zm-.18-4.53c2.79,0,5.57,0,8.36,0,.68,0,1.54-.03,1.54-.77,0-.75-.86-.77-1.54-.77-5.38,0-10.76,0-16.14,0-.68,0-1.54,.02-1.54,.76,0,.73,.84,.77,1.54,.77,2.59,0,5.19,0,7.78,0Z"/>
  <path class="cls-1" d="M129.87,114.92c0,3.57-.05,7.13,.02,10.7,.03,1.45-.45,2.1-2.28,2.05-3.45-.1-6.91-.07-10.37-.01-1.61,.03-2.2-.48-2.19-1.88,.05-7.3,.05-14.6,0-21.89,0-1.45,.73-1.85,2.28-1.83,3.36,.06,6.72,.09,10.08,0,1.91-.06,2.53,.58,2.49,2.18-.09,3.56-.03,7.13-.03,10.7Z"/>
  <path class="cls-1" d="M176.41,119.47c0,1.99-.08,3.98,.03,5.97,.08,1.53-.36,2.28-2.37,2.21-3.45-.12-6.91-.07-10.37-.02-1.48,.02-2.05-.46-2.03-1.75,.06-4.31,.05-8.62,0-12.93-.02-1.34,.7-1.71,2.11-1.69,3.55,.04,7.1,.05,10.66,0,1.49-.02,2.05,.45,2,1.75-.09,2.15-.02,4.31-.02,6.47Z"/>
  <path class="cls-1" d="M59.2,298.16q-6.02,0-6.87-5.04c-.46-2.78-.83-5.58-1.35-8.35-.25-1.35,.03-1.9,1.82-1.86,4.21,.11,8.43,.09,12.65,0,1.63-.03,2.19,.3,1.91,1.8-.73,3.92-1.32,7.85-1.88,11.79-.18,1.26-.84,1.72-2.25,1.66-1.34-.06-2.68-.01-4.02-.01Z"/>
  <path class="cls-1" d="M145.81,134.97c-9.8,0-19.6,0-29.4,0-.77,0-1.54,0-2.3-.05-.53-.03-.92-.3-.96-.76-.06-.61,.41-.88,1.06-.92,.77-.04,1.54-.05,2.3-.05,19.6,0,39.2,0,58.8,0,.38,0,.77-.02,1.15,0,.83,.05,2.01-.14,1.95,.93-.06,1.02-1.22,.83-2.05,.83-10.18,0-20.37,0-30.55,0Z"/>
  <path class="cls-1" d="M83.95,45.08c0-.66,.02-1.32,0-1.99-.04-.99,.23-1.27,1.6-1.37,2.54-.18,5.05,.63,7.59-.03,1.61-.42,2.72,.64,2.98,1.7,.37,1.51,.14,3.12,.16,4.69,0,.67-.52,.78-1.14,.79-.77,.02-1.31-.16-1.31-.94,0-1.08,0-2.15-.05-3.22-.02-.62-.3-1.2-1.12-1.21-.82-.01-1.13,.54-1.16,1.17-.05,.91,0,1.82-.06,2.73-.04,.59,.35,1.47-.92,1.43-.99-.03-1.55-.55-1.56-1.43-.01-.66,0-1.32-.02-1.99-.02-.84,.01-1.91-1.26-1.86-1.19,.05-1.2,1.12-1.24,1.95-.03,.74-.06,1.49,0,2.23,.06,.85-.34,1.18-1.33,1.16-.89-.02-1.16-.4-1.14-1.09,.02-.91,0-1.82,0-2.73Z"/>
  <path class="cls-1" d="M135.58,48.6c-4.3,.08-5.46-1-5.12-4.31,.2-1.93,1.27-2.72,3.55-2.57,4.03,.28,4.04,.22,4.04,3.92,0,.91,.05,1.82-.04,2.72-.27,2.86-2.8,4.15-5.89,3.08-.74-.26-1.59-.41-1.11-1.29,.3-.55,.69-1.04,1.77-.73,1.34,.39,1.41,.23,2.81-.83Zm-1.31-1.91c1.07-.17,1.25-.9,1.23-1.65-.02-.74-.19-1.59-1.31-1.56-1.11,.03-1.18,.87-1.2,1.62-.02,.78,.14,1.47,1.28,1.59Z"/>
  <path class="cls-1" d="M128.83,44.04c0,.41,0,.83,0,1.24,0,3.66-1.06,4.42-5.33,3.66-2.76-.49-2.4-2.5-2.36-4.18,.03-1.48,.28-3.19,2.75-2.93,1.87,.2,2.69-.18,2.43-1.89-.12-.77,.22-1.21,1.3-1.17,1.09,.04,1.22,.57,1.21,1.3-.01,1.32,0,2.64,0,3.96Zm-5.19,1.21c.08,.78-.04,1.78,1.25,1.84,1.29,.06,1.43-.92,1.43-1.73,0-.8-.14-1.81-1.29-1.88-1.27-.08-1.31,.92-1.38,1.76Z"/>
  <path class="cls-1" d="M44.22,43.93c.02,2.96,.14,3.04,3.61,2.11,.74-.2,1.35,.06,1.82,.45,.75,.62-.06,1.04-.45,1.44-.3,.31-.7,.61-1.13,.73-1.91,.55-3.8,.62-5.34-.75-1.44-1.29-1.62-5.88-.43-7.6,1.17-1.69,3.11-1.65,4.9-1.46,.9,.1,1.71,.93,2.51,1.49,.26,.18,.46,.62,.04,.86-.54,.3-1.07,.71-1.81,.54-3.67-.84-3.73-.8-3.71,2.18Z"/>
  <path class="cls-1" d="M142.28,46.31c.92,1.18,1.84,.91,2.91,.63,.37-.1,.95,.41,1.43,.63-.24,.34-.39,.86-.74,1-1.54,.6-3.17,.74-4.64-.1-2.05-1.18-1.74-3-1.38-4.72,.43-2.01,2.46-2.03,4.21-2.09,1.61-.06,2.64,.78,3.08,2.14,.48,1.49,.29,2.41-1.93,2.19-.9-.09-1.91-.24-2.95,.31Z"/>
  <path class="cls-1" d="M110.64,42.07c-.1,.41-.17,1.15-.3,1.16-3.22,.24-2.32,3.04-3.67,4.43-.33,.34-.58,.97-1.06,.98-.67,.01-.92-.55-1.21-1.1-1.27-2.4-1.85-4.97-2.68-7.48-.17-.53-.45-1.22,.69-1.24,.75-.02,1.63-.15,1.82,.77,.26,1.21,.92,2.37,.64,3.64-.09,.43-.21,.86,.46,.96,.64,.1,.77-.35,.89-.75,.32-1.04,.6-2.09,.96-3.12,.23-.67,.24-1.56,1.49-1.52,1.24,.04,1.15,.93,1.39,1.6,.19,.55,.38,1.11,.57,1.68Z"/>
  <path class="cls-1" d="M63.25,43.66c.76,.77,1.5,1.19,2.54,1.04,1.07-.16,1.62,.42,1.93,1.14,.36,.82,.17,1.64-.51,2.31-1.19,1.17-4.7,1.19-6.01,.05-.24-.21-.9-.49-.58-.66,2.13-1.12,.48-2.24,.17-3.41-.26-.96,.21-1.99,1.36-2.15,1.5-.21,3.18-.89,4.6,.16,1.01,.75-.4,.8-.66,1.05-.71,.67-1.83-.28-2.82,.47Zm1.95,2.94c-1.04-.22-2.07-.86-3.58-.27,1.42,.84,2.42,1.33,3.58,.27Z"/>
  <path class="cls-1" d="M58.82,45.76c-.87,.8,1.78,3.23-1.94,3.13-5.16-.14-5.39-.21-5.39-3.62,0-.83,0-1.65-.03-2.48-.04-.88,.49-1.12,1.41-1.11,.88,0,1.16,.36,1.14,1.07-.03,.99,0,1.98,0,2.98,0,.73,.26,1.38,1.24,1.35,.82-.03,1.02-.66,1.04-1.27,.04-.99,.05-1.98,.03-2.98-.02-.88,.54-1.12,1.44-1.13,.95-.01,1.08,.48,1.06,1.13-.02,.91,0,1.82,0,2.93Z"/>
  <path class="cls-1" d="M82.33,45.25c.02,2.42-1.23,3.68-3.72,3.73-2.55,.06-3.98-1.18-4.05-3.52-.08-2.64,1.29-3.9,4.7-3.7,2.17,.13,3.16,1.59,3.07,3.49Zm-2.54,.3c0-.99,0-1.98-1.2-2.08-1.24-.1-1.44,.83-1.47,1.71-.02,.86,.04,1.82,1.23,1.93,1.29,.12,1.4-.85,1.44-1.56Z"/>
  <path class="cls-1" d="M159,46.71c-1.09-.8-2.56-.43-3.43-1.4-.51-.57-1.62-1.03-1.05-1.77,.49-.64,.57-2.04,2.28-1.58,.56,.15,1.15-.38,1.88-.28,.88,.12,1.94,.07,1.82,1.08-.09,.81-1.13,.58-1.82,.6-.53,.02-1.12-.26-1.64,.4,.71,.92,2.31,.29,3.09,1.3,.49,.63,1.71,.93,1.21,1.92-.47,.92-.92,1.96-2.5,1.99-1.15,.02-2.3,.23-3.19-.63-.65-.63,.03-.82,.51-1.03,.82-.36,1.89,.37,2.82-.6Z"/>
  <path class="cls-1" d="M72.58,48.75c-2.59-.08-3.26-1.28-3.06-3.12,.18-1.7-1.04-3.32-.08-5.14,.47-.89,1.03-.88,1.7-.79,.91,.13,1.83,3.05,1.39,3.77-1.04,1.69-.47,3.43,.05,5.28Z"/>
  <path class="cls-1" d="M109.61,45.69c-.04-.61-.04-1.34,.53-1.38,3.52-.24,2.4-2.89,2.96-4.48,.38-1.07,.87-1.05,1.7-1.02,1.43,.04,.77,.81,.6,1.38-.55,1.91-1.14,3.82-1.67,5.74-.35,1.29-.67,2.94-2.52,2.72-1.61-.19-1.02-2.03-1.6-2.96Z"/>
  <path class="cls-1" d="M150.38,48.48c-.55-.02-1.06-.58-1.06-.9,.03-2.36-1.25-4.68-.27-7.07,.17-.42,.16-.56,.82-.59,2.05-.12,1.5,1.82,2.76,2.41,.82,.38-.3,.76-.66,1.17-.95,1.06-.25,2.36-.42,3.55-.09,.64,.11,1.38-1.17,1.44Z"/>
  <path class="cls-1" d="M58.33,253.44c0-.41-.01-.83,0-1.24,.02-.48-.02-1.08,.74-1.14,.77-.05,.87,.53,.9,1.02,.05,.74,.08,1.49,.01,2.22-.06,.66,.35,1.73-.92,1.71-1.09-.02-.62-1.01-.73-1.6-.06-.32-.01-.66,0-.99Z"/>
  <path class="cls-1" d="M40.43,257.78c.76-.07,3.99,2.76,3.85,3.37-.09,.37-.39,.55-.82,.55-.59,0-3.72-2.76-3.72-3.26,0-.41,.31-.55,.69-.66Z"/>
  <path class="cls-1" d="M34.86,273.76c.94,.36,2.75-.58,2.76,.86,0,1.1-1.73,.69-2.68,.63-.98-.06-2.79,.68-2.74-.82,.03-1.16,1.75-.34,2.67-.67Z"/>
  <path class="cls-1" d="M83.55,275.29c-.61,0-1.1,.02-1.57,0-.66-.03-1.5-.01-1.4-.83,.07-.59,.78-.64,1.37-.64,.48,0,.99-.09,1.43,.02,.96,.24,2.78-.71,2.73,.82-.04,1.14-1.76,.42-2.57,.64Z"/>
  <path class="cls-1" d="M78.92,257.94c-1,1.73-2.32,2.57-3.5,3.49-.21,.17-.74,.2-1.03,.09-.39-.14-.46-.63-.21-.85,1.26-1.08,2.07-2.77,4.74-2.73Z"/>
</svg>