<?xml version="1.0" encoding="UTF-8"?>
<svg id="Layer_1" data-name="Layer 1" xmlns="http://www.w3.org/2000/svg" viewBox="0 0 200 200">
  <defs>
    <style>
      .cls-1 {
        fill: #fff;
      }
    </style>
  </defs>
  <path class="cls-1" d="M200,157.65c-1.23,5.78-3.75,10.82-7.73,15-4.91,5.16-10.64,9.07-16.85,12.18-13.34,6.7-27.5,10.38-42.03,12.65-16.03,2.51-32.13,3.08-48.27,1.99-5.32-.36-10.62-1.02-15.92-1.6-2.84-.31-4.47-2.18-4.2-4.64,.28-2.54,2.33-3.82,5.25-3.6,9.66,.74,19.32,1.82,29,1.97,20.2,.33,40.12-2.12,59.45-8.67,9.39-3.18,18.43-7.21,26.02-14.15,3.24-2.96,5.97-6.37,7.08-10.9,1.03-4.17,.04-7.99-2.24-11.37-1.53-2.28-3.44-4.28-5.4-6.66-1.39,2.27-2.57,4.24-3.79,6.17-2.18,3.44-5.58,3.3-7.36-.36-3.53-7.23-7.01-14.47-10.45-21.74-1.72-3.62,.07-6.69,3.82-6.52,7.87,.36,15.73,.8,23.59,1.29,3.26,.2,4.83,3.43,3.14,6.44-1.49,2.66-3.14,5.22-4.65,7.7,2.17,2.44,4.34,4.73,6.32,7.17,2.77,3.41,4.16,7.56,5.22,11.85v5.8Zm-27.68-31.67c1.73,3.59,3.21,6.68,4.84,10.06,1.98-3.25,3.8-6.23,5.79-9.49-3.62-.19-6.9-.37-10.63-.57Z"/>
  <path class="cls-1" d="M152.94,127.08c3.48,8.03,1.92,16.48,2.11,24.76,.03,1.14-.85,2.69-1.76,3.42-12.64,10.05-26.77,16.25-42.52,18.2-20.87,2.59-40.21-2.01-58.05-13.73-2.1-1.38-4.15-2.87-6.07-4.52-.79-.67-1.66-1.88-1.66-2.84,0-6.62,.12-13.24,.44-19.85,.09-1.79,.98-3.54,1.55-5.5-.42-.28-.9-.6-1.37-.92-5.37-3.61-8.24-8.77-8.08-15.54,.16-6.67,3.16-11.71,8.66-14.94,1.18-.69,1.48-1.41,1.48-2.72-.04-12.02-.1-24.04,0-36.06,.17-21.82,9.02-38.52,26.76-49.59C84.75,.81,96.09-1.32,107.91,.78c18.72,3.32,32.04,14.4,40.03,32.59,3.2,7.29,4.45,15.11,4.43,23.15-.02,12.16,.01,24.31-.03,36.47,0,1.23,.27,1.94,1.38,2.58,5.59,3.24,8.62,8.33,8.76,15.08,.14,6.77-2.75,11.92-8.15,15.49-.43,.28-.85,.57-1.39,.93Zm-39.22-17.54q.57,3.29,3.32,3.3c4.62,0,9.24,.06,13.87-.01,6.13-.1,11.52,1.91,16.09,6.22,.96,.9,1.74,.86,2.78,.32,3.25-1.69,5.16-5.2,4.91-9.14-.23-3.65-2.66-6.84-6.12-8.05-3.4-1.19-4.02-2.07-4.02-5.81,0-13.33,.02-26.66,0-39.99-.03-14.63-5.21-26.82-15.52-36.56-16.06-15.17-41.94-15.18-58.01-.03-10.38,9.79-15.55,22.04-15.56,36.75,0,13.06,0,26.11,0,39.17,0,4.58-.3,5.03-4.34,6.59-3.31,1.27-5.62,4.5-5.8,8.1-.19,3.86,1.71,7.29,4.87,8.96,1.13,.59,1.93,.55,2.94-.4,4.42-4.14,9.63-6.15,15.54-6.11,4.75,.03,9.5,0,14.26,0q2.99,0,3.28-3.35c-10.57-5.15-17.32-13.76-20.3-25.89-1.6,0-3.16,.09-4.7-.02-2.37-.16-3.8-1.56-3.83-4.06-.08-7.67-.09-15.33,0-23,.03-2.67,1.58-4.07,4.16-4.17,1.15-.04,2.3,0,3.64,0,0-1.85,0-3.42,0-4.99,.01-4.39,1.24-5.71,5.34-5.71,9.18,0,18.36-.03,27.54,.03,1.37,0,2.28-.38,3.12-1.55,2.26-3.12,4.61-6.16,6.98-9.2,2.18-2.8,4.59-2.86,6.93-.19,1.77,2.02,3.72,3.93,5.18,6.19,2.44,3.78,5.48,5.32,9.84,4.79,3.27-.39,4.73,1.45,4.78,4.96,.02,1.84,0,3.67,0,5.66,1.47,0,2.64-.05,3.8,0,2.45,.12,3.97,1.54,4,4.13,.08,7.67,.08,15.33,0,23-.03,2.51-1.45,3.93-3.8,4.09-1.55,.11-3.11,.02-4.75,.02-2.96,12.17-9.8,20.79-20.38,25.95Zm-30.55,11.65c-5.63,0-11.03-.2-16.42,.05-5.76,.27-11.44,5.18-13.19,11.04-1.65,5.53-.67,11.25-.84,16.88-.01,.4,.49,.96,.89,1.21,3.61,2.32,7.13,4.85,10.91,6.82,14.51,7.56,29.84,10.13,45.9,7.99,13.17-1.76,25.13-6.76,35.97-14.82,.48-.36,.9-1.2,.91-1.82,.07-3.87,.11-7.74-.04-11.6-.3-7.54-5.26-14.31-12.3-15.26-5.93-.8-12.03-.16-18.12-.16,.12,2.2-1.09,3.6-2.93,4.73-3.77,2.32-7.48,4.73-11.18,7.18-1.87,1.24-3.6,1.24-5.47,0-3.75-2.48-7.53-4.92-11.35-7.29-1.79-1.11-2.87-2.54-2.75-4.96Zm-9.01-37.45c.13,.56,.17,.83,.25,1.08,2.97,8.63,8.51,14.55,16.64,17.71,3.86,1.5,4.6,2.99,3.46,7.24-.82,3.05-1.71,6.08-2.44,9.15-.13,.52,.18,1.49,.59,1.78,2.11,1.49,4.28,2.89,6.51,4.18,.48,.28,1.38,.19,1.89-.11,2.05-1.2,4-2.59,6.04-3.81,.96-.57,1.23-1.11,.86-2.29-.91-2.95-1.65-5.95-2.46-8.93-1.15-4.23-.42-5.71,3.46-7.21,7.7-2.97,13.11-8.5,16.23-16.54,.26-.67,.44-1.38,.71-2.24h-51.73Zm60.63-22.94h-50.49v3.05c.82,0,1.52,0,2.22,0,7.75,0,15.49-.01,23.24,0,3.25,0,5.05,1.5,5.06,4.11,0,2.6-1.83,4.13-5.04,4.18-.46,0-.91,0-1.37,0-7.36,0-14.71,0-22.07,0-.69,0-1.38,.06-2.05,.1v2.96h50.48v-14.4Zm-61.75-8.6h53.88v-2.28c-.68,0-1.27-.07-1.83,.01-3.09,.44-5.34-.83-7.23-3.42-1.82-2.49-3.94-4.72-6.07-7.22-2.21,2.9-4.32,5.6-6.35,8.37-1.17,1.6-2.6,2.3-4.53,2.29-8.59-.06-17.19-.03-25.78-.03-.68,0-1.37,0-2.07,0v2.28Zm3.2,8.54h-10.99v14.44h10.99v-14.44Z"/>
  <path class="cls-1" d="M19.09,128.43c.98,.89,2.26,1.63,2.97,2.78,.88,1.43,.58,3.13-.59,4.37-.91,.97-2.04,1.7-3.03,2.59-1.93,1.73-4,3.34-5.72,5.28-6.77,7.63-6.33,16.42,.87,23.68,6.06,6.11,13.32,10,20.95,13.26,1.92,.82,3.92,1.45,5.85,2.27,2.42,1.03,3.46,3.17,2.72,5.38-.77,2.33-2.92,3.29-5.44,2.37-9.13-3.34-18.06-7.19-25.58-13.75-3.17-2.76-6.12-6.06-8.41-9.66-5.34-8.39-4.73-18.1,.98-26.24,3.16-4.49,7.12-8.02,11.5-11.06,.73-.51,1.65-.73,2.93-1.28Z"/>
  <path class="cls-1" d="M58.36,191.03c-.01,2.27-1.7,4.05-3.84,4.07-2.22,.01-3.94-1.86-3.88-4.22,.06-2.31,1.69-3.93,3.92-3.9,2.2,.03,3.8,1.75,3.79,4.06Z"/>
  <path class="cls-1" d="M122.84,63.94c2.21,0,3.84,1.68,3.86,3.98,.03,2.34-1.77,4.23-3.96,4.17-2.12-.06-3.8-1.92-3.77-4.16,.03-2.3,1.66-3.98,3.87-3.98Z"/>
</svg>