<?xml version="1.0" encoding="UTF-8"?>
<svg id="Layer_1" data-name="Layer 1" xmlns="http://www.w3.org/2000/svg" viewBox="0 0 200 200">
  <defs>
    <style>
      .cls-1 {
        fill: #fff;
      }
    </style>
  </defs>
  <path class="cls-1" d="M0,132.41c.75-2.47,1.21-5.07,2.3-7.38,4.63-9.75,12.42-15.02,23.25-15.27,8.98-.21,17.96-.05,26.95-.05,.7,0,1.39,0,2.31,0,0-1,0-1.76,0-2.52,0-18.03,.01-36.06,0-54.09,0-4.66,1.26-8.75,5.13-11.66,3.97-2.98,8.37-3.57,12.89-1.6,4.58,2,7.5,5.6,7.63,10.66,.25,10.15,.13,20.3,.18,30.45,.02,3.45-.04,6.9,.19,10.34,.17,2.57,1.84,4.27,4.23,5.11,2.42,.84,4.84,.42,6.43-1.52,1.07-1.3,1.69-3.18,1.96-4.88,.35-2.23,.02-4.55,.22-6.81,.65-7.3,5.65-11.94,12.97-12.17,.91-.03,1.81,0,2.96,0,.04-.79,.1-1.47,.1-2.16,0-8.59,0-17.18,0-25.77,.01-6.94,3.79-10.77,10.72-10.78,22.91-.02,45.83-.02,68.74,0,7.01,0,10.82,3.87,10.83,10.9,0,20.7,0,41.4,0,62.09,0,6.89-3.86,10.78-10.74,10.79-22.91,.01-45.83,.01-68.74,0-7.03,0-10.8-3.81-10.8-10.89,0-8.46,0-16.92,0-25.38,0-.71,0-1.41,0-2.08-5.62-1.48-9.68,1.55-9.71,7.08,0,1.76,.03,3.52-.01,5.27-.17,7.5-5.73,13.11-12.94,13.08-7.22-.02-12.79-5.65-12.83-13.17-.07-12.56,0-25.12-.03-37.69,0-4.07-2.43-6.87-6.01-7.07-3.75-.2-6.67,2.42-6.86,6.18-.03,.65-.02,1.3-.02,1.95,0,17.9,0,35.8,0,53.7,0,.78,0,1.55,0,2.63,.79,0,1.47,0,2.16,0,9.05,0,18.1-.1,27.14,.04,12.11,.18,21.95,8.16,24.83,19.91,4.19,17.09-10.66,33.7-28.1,31.44-7.47-.97-14.26-3.43-19.74-8.85-.4-.39-1.13-.63-1.71-.63-6.25-.04-12.5-.06-18.75,.02-.72,0-1.59,.48-2.11,1.02-7.44,7.73-16.39,10.55-26.66,7.44-10.07-3.06-16.05-10.16-18.02-20.55-.06-.3-.23-.58-.36-.86,0-2.08,0-4.17,0-6.25Zm58.08-16.33c-10.55,0-21.09-.04-31.64,.01-9.38,.04-16.57,5.46-19.28,14.42-3.31,10.94,5.24,23.35,16.66,24.18,7.42,.54,13.34-2.17,17.78-8.12,.66-.89,1.28-1.44,2.51-1.43,8.27,.06,16.54,.02,24.8,.06,.62,0,1.47,.27,1.83,.72,4.99,6.24,11.78,8.6,19.41,8.79,11.69,.3,20.94-10.33,19.3-21.9-1.38-9.73-9.53-16.68-19.73-16.73-10.55-.05-21.09-.01-31.64-.01ZM154.91,38.69c-11.32,0-22.65,0-33.97,0-3.85,0-4.85,1-4.85,4.86,0,20.43,0,40.87,0,61.3,0,3.84,1.02,4.84,4.88,4.84,22.58,0,45.17,0,67.75,0,3.8,0,4.8-.96,4.8-4.68,0-20.56,0-41.13,0-61.69,0-3.64-1-4.63-4.64-4.63-11.32,0-22.65,0-33.97,0Z"/>
  <path class="cls-1" d="M143.75,0c3.18,.75,6.24,1.74,8.73,4.01,3.05,2.77,5.11,6.12,5.33,10.27,.2,3.74,.04,7.51,.04,11.44H48.49V103.03h-6.59c0-.84,0-1.67,0-2.49,0-27.07,.16-54.13-.08-81.2-.09-10.25,4.57-17.48,14.44-19.34h87.5Zm7.64,19.26c1.33-7.64-3.44-12.88-10.76-12.85-27.08,.14-54.16,.05-81.25,.07-1.29,0-2.63,.06-3.86,.39-5.21,1.39-7.83,6.09-6.91,12.39h102.78Z"/>
  <path class="cls-1" d="M42.03,167.82h115.71c.11,.15,.26,.25,.26,.35-.02,5.59,.1,11.18-.1,16.76-.3,8.36-7.52,15.1-16.75,15.06-16.53-.08-33.05-.02-49.58-.02-10.93,0-21.86,.03-32.79,0-8.13-.03-14.17-4.56-16.26-12.23-.42-1.55-.56-3.2-.58-4.81-.08-4.49-.03-8.98-.02-13.47,0-.5,.08-1.01,.13-1.63Zm6.44,6.42c0,3.69-.2,7.21,.09,10.69,.14,1.65,.97,3.39,1.93,4.78,2.12,3.05,5.34,3.82,8.91,3.81,27.06-.03,54.13-.02,81.19-.02,.71,0,1.43-.04,2.14-.1,4.12-.36,7.69-2.95,8.35-6.97,.65-3.97,.46-8.08,.65-12.18H48.48Z"/>
  <path class="cls-1" d="M151.74,122.68h6.23v38.5h-6.23v-38.5Z"/>
  <path class="cls-1" d="M35.36,138.65h-6.31v6.4h-6.36v-6.26h-6.45v-6.5h6.3v-6.4h6.37v6.26h6.44v6.5Z"/>
  <path class="cls-1" d="M87.01,125.89v6.36c-1.84,0-3.68,.05-5.53-.05-.3-.02-.8-.64-.82-1-.09-1.73-.04-3.47-.04-5.32h6.38Z"/>
  <path class="cls-1" d="M93.54,125.85h6.33v6.41c-1.8,0-3.59,.05-5.38-.04-.33-.02-.89-.58-.9-.91-.09-1.79-.04-3.59-.04-5.46Z"/>
  <path class="cls-1" d="M86.98,145.06h-6.19v-6.24h6.19v6.24Z"/>
  <path class="cls-1" d="M93.7,138.76h6.18v6.3h-6.18v-6.3Z"/>
  <path class="cls-1" d="M180.46,103.18c-2.36,0-4.57,.07-6.76-.04-.62-.03-1.32-.47-1.79-.92-1.35-1.31-2.6-2.72-4.13-4.33-2.21,2.36-4.23,4.53-6.43,6.89-2.23-2.44-4.2-4.59-6.23-6.81-2.27,2.39-4.28,4.49-6.36,6.68-2.29-2.44-4.31-4.6-6.71-7.17-1.66,1.87-2.82,3.36-4.19,4.63-.63,.58-1.65,.97-2.52,1.03-2,.15-4.02,.05-6.18,.05-.06-.61-.16-1.1-.16-1.59,0-10.09-.1-20.17,.02-30.26,.16-13.38,8.97-23.63,22.02-25.87,14.47-2.48,28.98,9.03,29.42,23.72,.34,10.99,.12,21.99,.14,32.98,0,.25-.07,.5-.14,1.01Zm-19.03-7.5c2.24-2.38,4.24-4.51,6.64-7.06,2,2.24,3.88,4.35,5.82,6.51,.18-.33,.29-.43,.29-.53,0-8.32,.22-16.66-.09-24.97-.33-8.81-7.47-16.35-16.19-17.73-11.59-1.84-22.2,7.02-22.36,18.79-.1,7.74-.03,15.48-.02,23.22,0,.34,.08,.69,.13,1.03,.18,.11,.36,.23,.54,.34,1.89-2.1,3.77-4.2,5.92-6.59,2.21,2.37,4.2,4.49,6.49,6.93,2.1-2.32,4.09-4.52,6.3-6.96,2.25,2.41,4.24,4.54,6.55,7.02Z"/>
  <path class="cls-1" d="M83.99,186.97v-6.23h31.94v6.23h-31.94Z"/>
  <path class="cls-1" d="M148.53,77.49h12.63v6.27h-12.63v-6.27Z"/>
  <path class="cls-1" d="M142,70.89v-6.27h6.29v6.27h-6.29Z"/>
  <path class="cls-1" d="M161.41,64.59h6.17v6.3h-6.17v-6.3Z"/>
</svg>