<?xml version="1.0" encoding="UTF-8"?>
<svg id="Layer_1" data-name="Layer 1" xmlns="http://www.w3.org/2000/svg" viewBox="0 0 200 200">
  <defs>
    <style>
      .cls-1 {
        fill: #fff;
      }
    </style>
  </defs>
  <path class="cls-1" d="M0,111.97c.99-3.62,2.38-6.96,5.33-9.47,3.24-2.75,7-3.61,11.07-3.61,25.91,0,51.81,0,77.72,0,.83,0,1.66,0,2.73,0v-2.32c0-6.31,0-12.63,0-18.94,0-3.49,.97-4.47,4.43-4.47,16.01,0,32.02,0,48.04,0,3.41,0,5.36-1.22,6.17-3.78,1.01-3.18-1.06-6.51-4.31-6.88-.84-.1-1.69-.07-2.54-.07-32.61,0-65.22,0-97.83,0-4.99,0-9.04-1.69-11.52-6.36-3.86-7.29,.77-16.27,8.85-17.15,1.1-.12,2.2-.19,3.31-.19,17.05-.01,34.11,0,51.16,0,.77,0,1.54,0,2.6,0,0-2.06,.06-3.96-.05-5.85-.02-.38-.67-.9-1.12-1.05-7.52-2.48-11.41-7.83-11.45-15.85-.02-3.92-.02-7.84,0-11.76,.02-2.93,1.15-4.15,4.03-4.17,7.88-.04,15.75-.04,23.63,0,2.78,.02,3.92,1.23,3.94,4.03,.03,4.12,.04,8.24,0,12.36-.08,7.6-4.17,13.18-11.32,15.3-1.07,.32-1.3,.83-1.28,1.81,.04,2.13,.01,4.25,.01,6.38,0,4.44-.82,5.29-5.09,5.29-18.42,0-36.84,0-55.26,0-.84,0-1.7,0-2.53,.1-2.57,.33-4.48,2.56-4.51,5.19-.03,2.53,1.76,4.82,4.21,5.25,1.02,.18,2.07,.19,3.11,.19,32.48,0,64.96,.03,97.44-.02,4.76,0,8.75,1.36,11.33,5.64,2.33,3.87,2.44,7.93,.25,11.92-2.36,4.31-6.17,6.11-10.87,6.11-13.6,.02-27.21,0-40.81,0-1.82,0-3.63,0-5.59,0v19.28h2.4c26.04,0,52.07,0,78.11,0,6.53,0,11.73,2.46,14.59,8.66,.99,2.15,1.53,4.72,1.54,7.1,.11,23.19,.1,46.39,.05,69.59-.02,9.19-6.23,15.45-15.4,15.75-.33,.01-.65,0-.98,0-55.72,0-111.43,0-167.15,.01-5.45,0-10.23-1.54-13.42-6.26-1.36-2.02-2.03-4.52-3.02-6.8,0-24.99,0-49.99,0-74.98Zm176.79-6.38c-.91-.05-1.61-.11-2.3-.11-49.66,0-99.33,.03-148.99,0-1.74,0-2.33,.41-2.32,2.3,.06,27.78,.04,55.56,.05,83.34,0,.7,.09,1.39,.13,1.98,.3,.12,.36,.17,.42,.17,10.15,.03,20.3,.03,30.45,.1,1.21,0,1.33-.78,1.54-1.61,1.02-4.11,2.01-8.24,3.07-12.34,.62-2.41,1.6-3.21,4.02-3.21,24.73-.02,49.47-.02,74.2,0,2.51,0,3.48,.8,4.13,3.33,1.02,3.98,2.06,7.95,2.95,11.96,.32,1.44,.89,1.9,2.33,1.89,9.44-.07,18.88-.03,28.31-.04,.57,0,1.15-.06,1.98-.11,0-.88,0-1.66,0-2.44,.02-3.72-.02-7.44,.08-11.16,.05-1.93,1.37-3.19,3.06-3.2,1.73,0,3.01,1.17,3.23,3.08,.09,.72,.04,1.46,.05,2.19,0,3.84,0,7.68,0,11.47,5.92,1.06,10.45-2.78,10.47-8.89,.05-23.26,.02-46.52,0-69.79,0-.92-.15-1.86-.37-2.76-1.12-4.41-5.56-7.1-10.1-6.01v2.31c0,14.42,0,28.84,0,43.27,0,3.39,.03,6.78-.01,10.17-.03,2.3-1.31,3.75-3.19,3.8-1.83,.05-3.1-1.44-3.18-3.75-.02-.6,0-1.2,0-1.79,0-17.21,0-34.43,0-51.64,0-.78,0-1.56,0-2.52ZM16.65,193.22V105.68c-5.98-.93-10.27,2.94-10.3,9.25-.04,9.24-.01,18.47-.01,27.71,0,13.76-.02,27.51,.01,41.27,.02,6.35,4.12,10.07,10.3,9.31Zm121.21,0c-.65-2.65-1.41-5.12-1.84-7.65-.35-2.04-1.12-2.73-3.27-2.72-21.85,.1-43.7,.06-65.55,.06-.52,0-1.08-.12-1.55,.04-.45,.16-1.06,.53-1.17,.93-.84,3.05-1.57,6.13-2.36,9.33h75.74ZM117.49,6.68c-5.74,0-11.58-.02-17.41,.06-.35,0-.97,.84-.97,1.3-.03,3.39-.11,6.79,.15,10.16,.33,4.2,3.89,7.3,8.26,7.54,5.1,.28,9.36-2.33,9.88-6.74,.46-3.97,.1-8.04,.1-12.32Z"/>
  <path class="cls-1" d="M65.29,128.98c3.02,0,5.81-.02,8.59,0,2.91,.03,4.03,1.11,4.06,4.09,.05,5.18,.05,10.37,0,15.55-.03,2.98-1.17,4.05-4.08,4.07-2.78,.02-5.57,0-8.57,0,0,2.96,0,5.73,0,8.5-.01,3.29-1,4.38-4.13,4.41-5.01,.04-10.02,.04-15.04,0-3.02-.03-4.03-1.14-4.05-4.29-.02-2.78,0-5.56,0-8.62-2.86,0-5.57,0-8.28,0-3.31-.01-4.41-1.13-4.43-4.56-.02-4.92-.03-9.84,0-14.75,.02-3.27,1.15-4.38,4.38-4.4,2.15-.01,4.3-.08,6.44,.02,1.42,.07,1.98-.34,1.91-1.88-.12-2.39-.06-4.78-.02-7.18,.04-2.58,1.16-3.87,3.66-3.91,5.34-.08,10.68-.09,16.01,0,2.39,.04,3.51,1.37,3.54,3.82,.04,2.92,0,5.84,0,9.11Zm-6.42,29.9c0-3.03-.02-5.82,0-8.6,.02-2.98,1.1-4.1,4-4.12,2.78-.03,5.56,0,8.42,0v-10.39c-.26-.08-.38-.16-.5-.16-2.41-.02-4.81-.03-7.22-.03-3.76,0-4.7-.97-4.7-4.83,0-2.63,0-5.25,0-7.87h-10.37c0,2.78,0,5.42,0,8.06,0,3.57-1.04,4.63-4.52,4.64-2.64,0-5.28,0-7.91,0v10.58c2.78,0,5.43-.01,8.08,0,3.28,.02,4.34,1.08,4.35,4.39,.01,2.76,0,5.53,0,8.34h10.37Z"/>
  <path class="cls-1" d="M149.53,149.73c-.31,6.56-5.67,11.81-11.84,11.59-6.47-.22-11.76-5.86-11.45-12.18,.34-6.67,5.86-11.99,12.02-11.59,6.47,.42,11.56,5.92,11.26,12.18Zm-6.57-.24c.02-2.98-2.09-5.19-4.98-5.23-2.99-.04-5.2,2.19-5.17,5.24,.02,2.94,2.19,5.14,5.08,5.14,2.89,0,5.05-2.19,5.07-5.14Z"/>
  <path class="cls-1" d="M170.58,127.88c.07,6.37-5.14,11.8-11.48,11.97-6.24,.17-11.75-5.35-11.82-11.84-.07-6.42,5.38-12,11.69-11.96,6.29,.04,11.54,5.39,11.61,11.83Zm-11.67,5.24c2.9,.01,5.08-2.17,5.12-5.1,.03-3.02-2.19-5.3-5.15-5.27-2.88,.03-5.02,2.24-5.01,5.2,0,2.95,2.15,5.15,5.04,5.16Z"/>
  <path class="cls-1" d="M112.63,137.53c1.36,0,2.73-.09,4.08,.02,2.02,.16,3.25,1.45,3.27,3.25,.02,1.83-1.13,3.17-3.19,3.27-2.78,.14-5.58,.13-8.36,0-2.03-.1-3.22-1.49-3.19-3.29,.03-1.78,1.29-3.08,3.3-3.23,1.35-.11,2.72-.02,4.08-.02Z"/>
  <path class="cls-1" d="M91.47,144.03c-1.49,0-2.98,.1-4.46-.03-1.72-.16-2.66-1.27-2.77-3.02-.11-1.71,.9-3.18,2.69-3.29,3.09-.19,6.21-.19,9.31,0,1.77,.11,2.79,1.61,2.68,3.3-.12,1.76-1.08,2.86-2.79,3.01-1.54,.14-3.1,.03-4.66,.03Z"/>
</svg>