<?xml version="1.0" encoding="UTF-8"?>
<svg id="Layer_1" data-name="Layer 1" xmlns="http://www.w3.org/2000/svg" viewBox="0 0 200 200">
  <defs>
    <style>
      .cls-1 {
        fill: #fff;
      }
    </style>
  </defs>
  <path class="cls-1" d="M96.89,200h-4.69c-.67-.22-1.33-.46-2-.66-4.19-1.25-7.42-3.76-9.42-7.63-.72-1.4-1.53-1.76-3-1.76-21.91,.04-43.83,.03-65.74,.03-.91,0-1.82,0-2.73-.08-4.24-.36-7.09-2.58-8.67-6.5-.19-.47-.43-.91-.65-1.36C0,124.11,0,66.19,0,8.27,1.94,2.02,6.34-.01,12.65,0c51.87,.11,103.74,.06,155.61,.07,1.17,0,2.36-.01,3.5,.2,5.23,.97,8.29,5.1,8.29,11.11,0,34.67,0,69.35-.02,104.02,0,1.3,.17,2.04,1.68,2.47,15.75,4.51,22.97,22.12,15.06,36.46-.47,.84-.71,1.97-.63,2.93,.67,8.03,1.38,16.07,2.19,24.09,.54,5.42-.77,10.16-4.63,14.11-2.46,2.52-5.63,3.62-8.9,4.55h-4.69c-.54-.19-1.07-.4-1.61-.56-4.33-1.26-7.7-3.76-9.76-7.79-.66-1.29-1.41-1.71-2.84-1.7-18.08,.05-36.16,.05-54.24,0-1.59,0-2.66,.16-3.26,1.86-.35,1-1.18,1.85-1.87,2.71-2.49,3.08-5.95,4.48-9.63,5.49Zm-18.25-16.69c.11-.54,.18-.79,.2-1.04,.76-8.29,1.55-16.58,2.24-24.87,.06-.75-.31-1.64-.72-2.31-2.38-3.94-3.73-8.21-3.66-12.78,.17-10.66,5-18.69,14.71-23.15,9.56-4.39,18.62-2.82,26.88,3.69,.87,.69,2.16,1.2,3.26,1.2,11.26,.09,22.53,.08,33.79,0,.99,0,2.16-.46,2.93-1.09,3.38-2.79,7.16-4.71,11.44-5.6,1.18-.25,2.38-.41,3.5-.6V33.51H6.65v2.29c0,47.5,0,95.01,0,142.51,0,4.08,.93,5,5.08,5,21.55,0,43.1,0,64.65,0h2.26ZM173.38,26.57c0-4.92,0-9.72,0-14.52,0-4.47-.87-5.33-5.39-5.33-51.95,0-103.9,0-155.85,0-.46,0-.91,0-1.37,0-2.82,.07-4.06,1.26-4.1,4.06-.04,2.34,0,4.69,0,7.03,0,2.91,0,5.81,0,8.76H173.38Zm1.42,96.9c-10.15,.02-18.54,8.41-18.52,18.54,.02,10.1,8.3,18.47,18.34,18.52,10.08,.06,18.73-8.34,18.72-18.15-.01-10.54-8.24-18.94-18.54-18.92Zm-54.46,18.62c0-10.35-8.19-18.56-18.58-18.6-9.99-.04-18.35,8.33-18.42,18.42-.07,10.28,8.4,18.65,18.84,18.61,9.9-.03,18.15-8.42,18.15-18.44Zm4.33,11.17c2.9,.48,5.94,1.38,7.2,4.03,1.65,3.47,4.23,3.49,7.24,3.27,.84-.06,1.73,.14,2.53-.06,.68-.17,1.54-.6,1.84-1.17,1.69-3.11,4.13-5.13,7.63-5.84,.34-.07,.66-.27,.49-.2-.69-3.93-1.82-7.61-1.83-11.3,0-3.67,1.12-7.35,1.77-11.09h-26.82c2.79,8.19,3.61,11.52-.04,22.34Zm-13.1,29.95h54.06c-1.35-4.35-2.66-8.57-4-12.9-.33,.24-.5,.33-.64,.46-5.87,5.87-13.63,4.7-17.62-2.61-.26-.47-1.05-.88-1.61-.91-2.08-.11-4.16,.02-6.24-.07-1.18-.05-1.79,.27-2.34,1.42-2.22,4.62-7.16,6.89-12.06,5.37-2.02-.63-3.81-1.97-5.76-3.02-1.22,3.95-2.48,8.02-3.79,12.26Zm55.79-16.96c2.04,6.54,3.99,12.85,5.98,19.15,.37,1.17,.74,2.37,1.35,3.42,2.09,3.64,6.29,5.26,10.41,4.14,3.93-1.07,6.8-4.66,6.66-8.8-.13-3.76-.61-7.5-.95-11.25-.31-3.45-.64-6.91-.96-10.44q-11.45,5.29-22.48,3.78Zm-57.63,.34c-3.85,.1-7.7,.71-11.38,.17-3.74-.55-7.31-2.24-11.04-3.45,.03-.09-.08,.14-.1,.38-.58,6.41-1.21,12.81-1.7,19.22-.41,5.42,2.61,9.39,7.66,10.32,4.68,.86,8.81-1.88,10.43-6.99,1.73-5.44,3.4-10.9,5.1-16.35,.38-1.21,.76-2.43,1.03-3.29Zm18.08-2.82c-.04-2.13-1.79-3.86-3.88-3.83-2.19,.03-3.97,1.85-3.94,4.03,.03,2.06,1.83,3.81,3.93,3.81,2.21,0,3.93-1.78,3.89-4.01Zm29.03,0c-.03-2.08-1.8-3.83-3.86-3.82-2.06,0-3.79,1.78-3.78,3.87,.02,2.12,1.72,3.8,3.84,3.79,2.1-.01,3.82-1.76,3.79-3.84Z"/>
  <path class="cls-1" d="M88.49,76.68c-22.19,0-44.38,0-66.57,0-.84,0-1.71,.05-2.53-.11-1.59-.3-2.51-1.32-2.62-2.95-.11-1.62,.63-2.78,2.17-3.29,.72-.24,1.53-.3,2.3-.3,44.7-.01,89.41-.01,134.11,0,.77,0,1.57,.06,2.3,.28,1.66,.5,2.4,1.72,2.25,3.41-.15,1.62-1.11,2.61-2.71,2.87-.76,.13-1.56,.09-2.34,.1-22.12,0-44.25,0-66.37,0Z"/>
  <path class="cls-1" d="M75.01,90.01c-17.64,0-35.29,0-52.93,0-.78,0-1.57,.01-2.34-.08-1.79-.21-2.9-1.37-2.99-3.04-.09-1.76,.93-3.04,2.8-3.41,.63-.12,1.29-.15,1.94-.15,35.68,0,71.36,0,107.04,0,.77,0,1.57,.05,2.32,.24,1.68,.43,2.5,1.6,2.41,3.3-.09,1.71-1.07,2.76-2.77,3.01-.77,.11-1.56,.11-2.34,.11-17.71,0-35.42,0-53.13,0Z"/>
  <path class="cls-1" d="M45.16,166.7c7.74,0,15.48,0,23.23,0,.78,0,1.58-.02,2.33,.13,1.61,.33,2.47,1.47,2.55,3.03,.08,1.48-.65,2.67-2.1,3.17-.72,.25-1.53,.32-2.3,.32-15.94,.02-31.88,.02-47.82,0-.71,0-1.45-.07-2.11-.3-1.53-.53-2.29-1.67-2.17-3.3,.12-1.62,1.04-2.64,2.63-2.94,.7-.13,1.42-.11,2.14-.11,7.87,0,15.74,0,23.62,0Z"/>
  <path class="cls-1" d="M49.95,116.72c-7.22,0-14.44,0-21.66-.01-.9,0-1.85-.03-2.69-.3-1.54-.49-2.28-1.67-2.17-3.3,.11-1.53,.97-2.55,2.45-2.9,.75-.18,1.55-.16,2.33-.16,14.51,0,29.01,0,43.52,0,3.38,0,4.92,1.07,4.88,3.37-.03,2.24-1.62,3.3-5,3.3-7.22,0-14.44,0-21.66,0Z"/>
  <path class="cls-1" d="M46.9,136.71c6.18,0,12.35,0,18.53,0,.65,0,1.32-.04,1.94,.11,1.46,.36,2.39,1.31,2.55,2.84,.17,1.61-.58,2.76-2.07,3.38-.47,.19-1.01,.3-1.52,.3-13.13,.02-26.26,.03-39.39,0-2.2,0-3.56-1.44-3.54-3.35,.02-1.93,1.39-3.24,3.61-3.26,6.63-.04,13.26-.01,19.89-.02Z"/>
  <path class="cls-1" d="M51.79,156.67c-5.85,0-11.7,0-17.55,0-2.66,0-4.17-1.22-4.18-3.3-.01-2.09,1.51-3.34,4.14-3.34,11.7-.01,23.39,0,35.09-.01,1.7,0,3.32,.45,3.68,2.2,.22,1.09-.16,2.6-.85,3.47-.54,.69-1.96,.93-2.99,.95-5.78,.09-11.57,.04-17.35,.04Z"/>
  <path class="cls-1" d="M36.53,43.4c5.4,0,10.81-.02,16.21,0,2.28,.01,3.71,1.17,3.88,3.02,.19,2.06-1.4,3.6-3.89,3.61-5.4,.03-10.81,.01-16.21,.01-5.21,0-10.42,.01-15.62,0-2.68,0-4.16-1.22-4.16-3.33,0-2.11,1.48-3.31,4.16-3.31,5.21-.01,10.42,0,15.62,0Z"/>
  <path class="cls-1" d="M35.01,123.39c4.88,0,9.76-.04,14.64,.02,2.68,.03,4.26,2.11,3.43,4.4-.62,1.71-2.06,2.23-3.74,2.24-2.93,.02-5.86,0-8.79,0-6.31,0-12.62,0-18.94,0-.58,0-1.18,.03-1.75-.06-2.05-.3-3.24-1.68-3.11-3.56,.12-1.8,1.37-3,3.42-3.02,4.94-.06,9.89-.02,14.84-.02,0,0,0,0,0,0Z"/>
  <path class="cls-1" d="M41.56,63.35c-3.64,0-7.28,.02-10.92,0-2.43-.02-3.98-1.38-3.93-3.37,.05-1.93,1.53-3.25,3.88-3.26,7.41-.03,14.82-.04,22.24,0,2.32,.01,3.81,1.38,3.83,3.3,.02,2-1.51,3.31-3.96,3.33-3.71,.03-7.41,0-11.12,0Z"/>
  <path class="cls-1" d="M53.37,103.37c-2.08,0-4.15,.06-6.23-.02-2.37-.09-3.77-1.4-3.76-3.34,.01-1.94,1.42-3.26,3.8-3.3,4.15-.07,8.3-.07,12.46,0,2.24,.04,3.61,1.37,3.66,3.23,.05,1.95-1.35,3.24-3.69,3.41-.13,0-.26,0-.39,0-1.95,0-3.89,0-5.84,0h0Z"/>
  <path class="cls-1" d="M26.58,103.37c-1.95,0-3.89,.04-5.84,0-2.57-.06-3.96-1.24-3.99-3.28-.03-2.06,1.36-3.34,3.89-3.37,4.02-.06,8.05-.06,12.07,0,2.48,.04,3.98,1.39,3.94,3.37-.04,1.98-1.52,3.22-4.04,3.28-2.01,.05-4.02,.01-6.03,.01Z"/>
  <path class="cls-1" d="M66.73,123.43c1.17,0,2.35-.07,3.51,.02,1.82,.14,2.8,1.27,3.03,3.01,.2,1.59-.86,3.21-2.58,3.35-2.7,.22-5.45,.23-8.14-.04-1.77-.17-2.59-1.63-2.42-3.43,.16-1.72,1.2-2.72,2.9-2.88,1.22-.12,2.47-.02,3.7-.02,0,0,0,0,0,0Z"/>
  <path class="cls-1" d="M19.94,16.8c-.03,1.77-1.46,3.19-3.23,3.2-1.84,0-3.39-1.53-3.36-3.32,.03-1.7,1.56-3.2,3.28-3.22,1.84-.02,3.34,1.49,3.31,3.35Z"/>
  <path class="cls-1" d="M33.27,16.61c.04,1.89-1.39,3.37-3.26,3.38-1.83,0-3.34-1.51-3.34-3.35,0-1.67,1.56-3.17,3.31-3.19,1.81-.01,3.26,1.37,3.29,3.15Z"/>
  <path class="cls-1" d="M43.4,19.99c-1.85,.03-3.36-1.46-3.35-3.3,.02-1.74,1.47-3.21,3.22-3.26,1.75-.04,3.24,1.36,3.31,3.13,.08,1.9-1.31,3.39-3.19,3.43Z"/>
  <path class="cls-1" d="M174.84,137.98c-1.82,0-3.36-1.55-3.31-3.35,.05-1.74,1.53-3.2,3.27-3.23,1.74-.03,3.38,1.63,3.33,3.38-.05,1.71-1.57,3.19-3.29,3.2Z"/>
  <path class="cls-1" d="M170.79,141.99c0,1.84-1.52,3.35-3.34,3.31-1.7-.04-3.22-1.57-3.23-3.26-.02-1.77,1.6-3.34,3.38-3.29,1.77,.05,3.18,1.49,3.19,3.25Z"/>
  <path class="cls-1" d="M185.43,142.07c-.05,1.76-1.73,3.31-3.48,3.21-1.76-.1-3.11-1.56-3.08-3.34,.03-1.85,1.58-3.31,3.41-3.2,1.72,.1,3.2,1.67,3.15,3.33Z"/>
  <path class="cls-1" d="M178.12,149.25c.02,1.7-1.47,3.25-3.19,3.31-1.83,.07-3.37-1.42-3.41-3.27-.04-1.78,1.35-3.22,3.16-3.27,1.85-.05,3.42,1.42,3.45,3.23Z"/>
  <path class="cls-1" d="M105.16,145.32c0,1.55,.06,2.78-.01,4-.12,1.87-1.32,3.1-3.01,3.23-1.76,.14-3.23-1-3.48-2.94-.17-1.33-.03-2.7-.03-4.28-1.33,0-2.41,.02-3.49,0-2.37-.07-3.77-1.3-3.79-3.29-.02-2.01,1.38-3.28,3.73-3.35,1.09-.03,2.18,0,3.46,0,0-1.22-.03-2.24,0-3.26,.08-2.48,1.36-4,3.34-4.01,1.99-.01,3.26,1.49,3.32,3.98,.02,1.02,0,2.05,0,3.3,1.42,0,2.64-.05,3.85,.01,2.02,.1,3.43,1.47,3.45,3.27,.02,1.78-1.38,3.21-3.38,3.34-1.22,.08-2.45,.01-3.95,.01Z"/>
</svg>