<?xml version="1.0" encoding="UTF-8"?>
<svg id="Layer_1" data-name="Layer 1" xmlns="http://www.w3.org/2000/svg" viewBox="0 0 200 200">
  <defs>
    <style>
      .cls-1 {
        fill: #fff;
      }
    </style>
  </defs>
  <path class="cls-1" d="M117.45,0c3.75,.86,7.32,2.08,10.33,4.61,4.8,4.03,7.35,9.12,7.47,15.33,.08,4.36,.02,8.71,.02,13.32h16.78v6.74h-16.77c0,.87,0,1.56,0,2.24-.09,5.92,.15,11.87-.35,17.76-.86,10.11-5.81,18.12-14.23,23.91-1.78,1.23-2.59,2.4-2.43,4.54,.2,2.64,.05,5.31,.05,8.25,.96,0,1.73,0,2.49,0,7.73,.05,15.47-.16,23.19,.2,11.99,.57,21.65,10.95,21.64,22.96h-6.4c-.58-2.16-.85-4.48-1.8-6.49-2.8-5.95-7.58-9.5-14.33-9.82-5.67-.27-11.36-.12-17.04-.15-.25,0-.5,.1-.99,.21,0,2.91,.01,5.82,0,8.73-.01,2.88-.54,3.6-3.35,4.52-5.13,1.7-10.27,3.35-15.38,5.1-.6,.21-1.48,.89-1.49,1.36-.09,7.68-.07,15.35-.07,23.23,.73,.05,1.36,.14,1.99,.14,8,0,15.99-.03,23.99,.04,1.37,.01,2.19-.41,2.81-1.59,.63-1.21,1.28-2.51,2.25-3.43,2.39-2.26,3.14-4.9,2.83-8.08-.22-2.24-.04-4.52-.04-6.87h6.74v5.76c.73-.33,1.18-.49,1.59-.72,19.1-10.85,42.66-3.73,52.32,15.83,1.72,3.48,.32,5.74-3.65,5.75-8,.03-15.99,.01-23.99,.01-.77,0-1.55,0-2.44,0v19.93c.7,.03,1.4,.09,2.1,.09,8.06,0,16.13,0,24.19,0,4.22,0,5.62,2.19,3.67,5.94-6.56,12.63-17.11,19.81-31.42,20.54-14.81,.75-26.3-5.56-34.07-18.1-.79-1.28-1.57-1.76-3.1-1.75-19.43,.06-38.86,.06-58.29,0-1.52,0-2.32,.46-3.13,1.73-8.64,13.7-21.25,19.67-37.42,17.83-15.81-1.8-29-14.89-31.3-30.48-2.89-19.61,9.35-37.27,28.97-41.53,9.05-1.96,17.72-.58,25.86,3.85,.61,.33,1.23,.67,2.14,1.16v-5.8h6.83c0,3.38-.07,6.69,.04,9.99,.03,.89,.44,1.85,.94,2.62,1.35,2.07,2.8,4.1,4.32,6.05,.45,.57,1.3,1.17,1.98,1.18,8.46,.08,16.92,.05,25.38,.04,.31,0,.63-.07,1.04-.12v-24.15c-5.55-1.83-11.1-3.67-16.66-5.5-3.01-1-3.51-1.68-3.52-4.8,0-2.79,0-5.58,0-8.47-.41-.1-.71-.25-1.01-.25-5.81,.03-11.64-.11-17.44,.17-7.91,.38-14.57,6.94-15.2,14.68-.1,1.29-.43,1.88-1.86,1.78-1.63-.11-3.27-.03-5.1-.03,.28-8.56,3.92-15.02,10.95-19.63,4.15-2.72,8.81-3.71,13.74-3.7,6.74,.02,13.48,0,20.22,0,.72,0,1.44,0,2.43,0,0-3.65,.03-7.14-.04-10.64,0-.39-.51-.9-.91-1.15-8.66-5.26-14.28-13.95-15.83-24.71h-3.49c0,3.75,.19,7.52-.06,11.26-.17,2.6,.63,4.23,2.97,5.43,1.97,1.01,3.74,2.4,5.7,3.69-1.27,1.88-2.43,3.6-3.77,5.57-3.58-2.4-7.17-4.68-10.57-7.2-.71-.53-.97-1.97-.99-2.99-.1-4.49-.05-8.99-.05-13.48,0-.71,0-1.41,0-2.45-1.12,0-2.08,.05-3.03-.01-2.46-.17-3.69-1.29-3.71-3.67-.06-6.45-.07-12.9,0-19.34,.03-2.51,1.35-3.65,4.1-3.68,4.15-.05,8.31-.01,12.73-.01,0-2.14-.03-4.14,0-6.13,.07-3.32-.07-6.66,.32-9.94,.98-8.33,7.81-15.31,16.16-16.87,.44-.08,.87-.25,1.3-.38,10.71,0,21.42,0,32.12,0Zm73.22,146.73c-.19-.51-.21-.64-.28-.74-13.08-18.31-41.65-16.2-51.76,3.89-1.3,2.58-2.92,3.6-5.83,3.59-20.95-.09-41.9-.08-62.85,0-2.81,.01-4.5-.9-5.74-3.44-6.01-12.27-20.37-19.02-34.39-15.71-14.74,3.48-25.06,18.1-22.95,32.94,1.88,13.17,11.95,23.56,24.95,25.72,13.47,2.24,26.43-4.24,32.52-16.39,1.15-2.29,2.66-3.19,5.26-3.18,20.95,.08,41.9,.1,62.85-.02,3.13-.02,4.89,.97,6.34,3.74,7.74,14.83,25.5,20.47,40.65,13.03,4.6-2.26,8.39-5.49,11.43-10.05-1.07,0-1.78,0-2.49,0-7.14,0-14.28,0-21.41,0-3.49,0-4.68-1.16-4.68-4.56-.01-8.08-.01-16.15,0-24.23,0-3.44,1.14-4.58,4.63-4.59,7.14-.02,14.28,0,21.41,0,.71,0,1.42,0,2.33,0Zm-62.38-106.59h-53.76c0,6.57-.41,13.02,.09,19.41,.97,12.44,11.63,22.68,24.03,23.68,13.41,1.08,25.36-6.93,28.76-19.32,.39-1.44,.82-2.93,.84-4.4,.09-6.42,.04-12.85,.04-19.38Zm-53.63-6.93h53.72c.05-.54,.12-.98,.11-1.42-.05-4.36,.2-8.75-.23-13.07-.7-7.08-6.04-11.88-13.26-12.01-9.05-.16-18.11-.14-27.16,0-6.56,.1-12.3,4.38-13.05,10.42-.65,5.24-.13,10.61-.13,16.09Zm36.75,63.41v-8.02c-6.74,1.85-13.37,1.79-20.03,.02v8h20.03ZM57.54,53.22h9.9v-13.07h-9.9v13.07Zm36.75,50.32c2.44,3.6,4.71,6.95,7.12,10.51,2.44-3.61,4.7-6.97,7.09-10.51h-14.21Zm-9.79-.57c0,2.8-.03,4.99,.03,7.18,0,.36,.32,.92,.62,1.02,2.47,.87,4.96,1.65,7.93,2.62-2.35-3.47-4.36-6.5-6.46-9.47-.36-.51-1.12-.74-2.12-1.35Zm33.61,.59c-1.58,0-6.66,6.53-7.87,9.99,8.36-2.11,8.44-2.21,8.02-9.49,0-.12-.07-.25-.14-.5Z"/>
  <path class="cls-1" d="M131.7,133.49v6.39h-20.01v-6.39h20.01Z"/>
  <path class="cls-1" d="M16.76,164.03c0-3.26,.04-6.51-.01-9.77-.03-1.89,.74-3.19,2.4-4.15,5.23-3.04,10.44-6.12,15.63-9.23,1.58-.95,3.05-.97,4.64-.02,5.25,3.14,10.51,6.25,15.8,9.33,1.52,.89,2.24,2.11,2.24,3.83-.01,6.25-.02,12.5,0,18.75,0,1.72-.71,2.96-2.23,3.84-5.28,3.08-10.55,6.2-15.8,9.33-1.5,.89-2.89,.97-4.47,.14-5.35-2.82-10.74-5.58-16.13-8.33-1.58-.81-2.31-2.01-2.29-3.77,.04-3.32,.01-6.64,.01-9.96,.07,0,.14,0,.2,0Zm6.74-.15s-.08,0-.13,0c0,2.47-.07,4.95,.05,7.42,.03,.62,.52,1.48,1.05,1.77,3.75,2.04,7.56,4,11.39,5.89,.58,.28,1.58,.3,2.13,0,3.9-2.19,7.75-4.46,11.55-6.82,.57-.36,1.06-1.31,1.08-2,.1-4.49,.1-8.99,0-13.48-.01-.68-.54-1.62-1.12-1.98-3.74-2.33-7.53-4.57-11.37-6.73-.53-.3-1.53-.28-2.07,.03-3.83,2.17-7.63,4.41-11.37,6.74-.58,.36-1.1,1.27-1.14,1.95-.14,2.4-.05,4.82-.05,7.22Z"/>
  <path class="cls-1" d="M67.64,166.61v-6.36h67.49v6.36H67.64Z"/>
  <path class="cls-1" d="M104.7,63.26h-6.57v-16.45h6.57v16.45Z"/>
</svg>