<?xml version="1.0" encoding="UTF-8"?>
<svg id="Layer_1" data-name="Layer 1" xmlns="http://www.w3.org/2000/svg" viewBox="0 0 200 200">
  <defs>
    <style>
      .cls-1 {
        fill: #fff;
      }
    </style>
  </defs>
  <path class="cls-1" d="M58.14,45.15c3.63,0,7.26-.12,10.88,.04,1.78,.08,2.09-.53,2-2.12-.14-2.48-.06-4.97-.03-7.45,.07-5.63,4.2-9.73,9.83-9.82,8.32-.14,16.66,.37,24.97-.39,13.96-1.28,26.74-5.9,38.44-13.61,.72-.47,.91-.98,.94-1.79C145.39,4.06,149.48-.08,154.99,0c5.47,.08,9.48,4.44,9.49,10.36,.01,6.85,.03,13.7-.02,20.56,0,1.13,.21,1.71,1.44,2.09,6.96,2.16,11.46,8.24,11.47,15.3,.02,7.08-4.47,13.24-11.36,15.4-1.25,.39-1.58,.92-1.57,2.2,.08,6.85,.05,13.7,.03,20.56-.01,5.87-4.1,10.23-9.58,10.27-5.42,.04-9.6-4.14-9.72-9.89-.02-1.15-.55-1.64-1.37-2.18-10.37-6.77-21.66-11.08-33.93-12.85-.38,.73-.2,1.47-.2,2.18-.02,7.05-.03,14.11,.01,21.16,0,1.13-.11,1.72-1.48,1.61-1.59-.12-3.75-.57-4.65,.24-1.07,.96-.3,3.15-.33,4.81-.05,3.96,.14,7.94-.08,11.89-.12,2.16,.63,2.43,2.53,2.42,11.15-.09,22.3-.06,33.45-.04,17.13,.03,31.02,11.35,34.39,28.13,1.43,7.12,.62,14.08-2.52,20.62-4.35,9.06-8.8,18.07-13.44,26.98-4.75,9.12-16.83,10.88-25.31,3.9-1.78-1.46-3.24-3.2-4.45-5.16-2.36-3.82-4.79-7.6-7.14-11.43-2.08-3.39-5.07-5.02-9.03-5.01-7.79,.03-15.58,.02-23.37,0-3.89,0-6.83,1.62-8.88,4.91-2.55,4.1-5.06,8.23-7.7,12.26-4.29,6.54-11.89,9.8-19.13,8.25-4.6-.99-8.06-3.61-10.19-7.8-4.48-8.84-9.07-17.63-13.26-26.61-10.67-22.87,5.95-48.92,31.2-49.05,11.55-.06,23.11-.04,34.66,.03,1.53,0,1.87-.39,1.84-1.87-.1-5.31-.09-10.61,0-15.92,.02-1.36-.39-1.69-1.67-1.62-1.94,.11-3.9-.04-5.84,.05-1.14,.05-1.59-.29-1.87-1.46-1.81-7.56-3.75-15.09-5.6-22.63-.28-1.15-.62-1.71-2.02-1.81-5-.35-8.73-4.48-8.82-9.53-.05-2.55-.16-5.12,.04-7.65,.15-1.9-.56-2.17-2.22-2.11-3.56,.12-7.12,.03-10.68,.03,0-2.15,0-4.29,0-6.44Zm8.39,77.39c-2.08,0-4.16-.01-6.24,0-20.28,.14-33.87,20.96-25.52,39.4,4.11,9.08,8.82,17.9,13.3,26.81,1.28,2.55,3.44,4.22,6.26,4.56,5.23,.64,9.3-1.48,12.15-5.84,2.56-3.93,4.96-7.96,7.47-11.92,3.32-5.22,8.08-7.87,14.28-7.87,7.79,0,15.58,.02,23.37,0,6.37-.02,11.21,2.68,14.58,8.07,2.41,3.87,4.84,7.72,7.25,11.59,1.7,2.73,4.04,4.63,7.11,5.58,4.8,1.48,9.19,.05,11.29-4.03,4.64-9.05,9.43-18.05,13.55-27.35,7.45-16.78-3.54-36.14-21.69-38.65-6.21-.86-12.47-.16-18.71-.37-.95-.03-1.25,.64-1.69,1.19-12.43,15.67-34.16,15.67-46.6-.04-.65-.82-1.27-1.19-2.33-1.16-2.62,.08-5.24,.03-7.86,.03ZM145.05,19.16c-.21,.04-.35,.02-.45,.08-14.36,8.59-29.89,12.99-46.63,12.97-1.5,0-1.19,.85-1.19,1.67,0,9.6,.03,19.2-.04,28.79-.01,1.5,.34,1.87,1.85,1.86,8.91-.03,17.62,1.36,26.13,4,7.11,2.2,13.81,5.32,20.33,9.25V19.16Zm12.99,29.3c0-12.42,0-24.83,0-37.25,0-.54,.03-1.08-.02-1.61-.16-1.88-1.51-3.17-3.27-3.14-1.67,.03-2.97,1.28-3.14,3.06-.05,.53-.02,1.07-.02,1.61,0,24.83,0,49.67,0,74.5,0,.54-.03,1.08,.02,1.61,.18,1.77,1.49,3.02,3.16,3.04,1.67,.02,3.04-1.21,3.23-2.96,.07-.6,.03-1.21,.03-1.81,0-12.35,0-24.7,0-37.05Zm-67.71,.05c0-4.96-.01-9.92,.01-14.88,0-.92-.05-1.46-1.25-1.42-2.74,.1-5.5,0-8.24,.05-2.13,.04-3.39,1.27-3.4,3.4-.04,8.45-.04,16.89,0,25.34,0,2.23,1.27,3.45,3.52,3.48,2.61,.05,5.23-.06,7.84,.04,1.23,.05,1.58-.27,1.55-1.53-.08-4.82-.03-9.65-.03-14.48Zm-2.29,22.54c1.56,6.19,3.12,12.28,4.6,18.39,.2,.82,.61,.87,1.26,.86,2.69-.02,5.37-.04,8.06,.01,.89,.02,1.3-.12,1.29-1.17-.05-5.57-.04-11.15-.01-16.72,0-.87-.13-1.39-1.17-1.38-4.62,.03-9.23,.01-14.04,.01Zm-3.51,51.53c9.72,9.69,24.87,7.11,30.65,0h-30.65ZM164.49,39.55c0,5.52,0,11,0,16.48,0,.37,0,.75,0,1.16,3.5-.65,6.58-5.02,6.45-9.04-.13-3.96-2.75-7.59-6.45-8.6Z"/>
  <path class="cls-1" d="M58.14,45.15c0,2.15,0,4.29,0,6.44-.02,.74-.14,1.49-.03,2.21,.37,2.4-.28,4-2.95,4.36-1.21,.16-1.33,1.01-.66,1.89,1.5,1.97,.79,3.33-.88,4.85-3.02,2.76-5.89,5.7-8.7,8.68-1.1,1.17-2.03,1.56-3.39,.58-1.6-1.17-2.67-.86-3,1.19-.28,1.72-1.29,2.13-2.96,2.08-4.23-.12-8.47-.15-12.69,0-1.91,.07-3.07-.41-3.38-2.36-.29-1.84-1.25-2-2.6-1.03-1.56,1.12-2.63,.67-3.88-.67-2.98-3.19-6.08-6.27-9.26-9.26-1.14-1.07-1.26-1.9-.53-3.25,1.19-2.19,1.13-2.35-1.29-3.05-1.5-.43-1.96-1.16-1.93-2.69,.1-4.43,.13-8.87-.01-13.3-.05-1.72,.47-2.63,2.13-2.93,1.82-.33,2.38-1.21,1.21-2.85-.96-1.35-.72-2.38,.54-3.56,3.19-2.98,6.27-6.08,9.27-9.26,1.14-1.21,2.14-1.64,3.55-.62,1.52,1.09,2.55,.81,2.86-1.13,.3-1.82,1.35-2.23,3.11-2.17,4.23,.14,8.47,.15,12.69,0,1.84-.07,2.94,.39,3.24,2.27,.3,1.87,1.27,2.16,2.74,1.09,1.47-1.08,2.51-.66,3.72,.63,2.98,3.19,6.07,6.28,9.26,9.26,1.23,1.15,1.42,2.1,.51,3.41-1.01,1.46-.95,2.56,1.08,2.89,1.77,.29,2.46,1.27,2.2,3.08-.15,1.05,0,2.14,.02,3.22Zm-28.99-9.68c-7.13-.03-12.96,5.75-12.98,12.86-.01,7.03,5.7,12.85,12.71,12.93,7.13,.08,13.02-5.67,13.08-12.77,.06-7.14-5.7-13-12.81-13.03Z"/>
  <path class="cls-1" d="M179.48,35.05c-1.02-1.17-1.73-2.06-2.52-2.87-2.02-2.07-2.04-2.05,.02-4.11,2.75-2.75,5.52-5.46,8.22-8.26,.81-.84,1.33-1.1,2.18-.06,1.02,1.23,2.97,2.24,3.1,3.5,.14,1.33-1.93,2.34-3.03,3.48-2.28,2.36-4.63,4.65-6.94,6.98-.31,.32-.54,.71-1.02,1.34Z"/>
  <path class="cls-1" d="M186.38,77.92c-.28-.22-.56-.39-.78-.62-3.32-3.31-6.61-6.64-9.95-9.93-.53-.52-.58-.79-.06-1.41,3.58-4.25,3.56-4.27,7.38-.44,2.27,2.27,4.49,4.6,6.84,6.79,1.02,.95,.89,1.52-.06,2.33-.91,.78-1.72,1.69-2.57,2.54-.23,.23-.48,.45-.79,.74Z"/>
  <path class="cls-1" d="M191.7,51.6c-2.22,0-4.43-.05-6.65,.02-.96,.03-1.21-.26-1.25-1.23-.2-5.25-.23-5.25,5.06-5.25,3.22,0,6.45,.05,9.67-.03,1.13-.03,1.44,.29,1.45,1.43,.06,5.05,.1,5.05-4.86,5.05-1.14,0-2.28,0-3.42,0Z"/>
  <path class="cls-1" d="M29.15,35.47c7.11,.03,12.87,5.89,12.81,13.03-.06,7.1-5.95,12.85-13.08,12.77-7.01-.08-12.72-5.9-12.71-12.93,.01-7.11,5.85-12.9,12.98-12.86Zm-.15,19.34c3.49,.03,6.45-2.84,6.5-6.33,.06-3.5-2.79-6.47-6.28-6.56-3.6-.08-6.6,2.84-6.6,6.43,0,3.5,2.88,6.43,6.38,6.46Z"/>
  <path class="cls-1" d="M70.98,151.55c0,2.68-.04,5.37,.02,8.05,.03,1.14-.19,1.7-1.52,1.68-1.58-.02-3.63-.74-4.64,.32-.99,1.05-.3,3.07-.28,4.66,.01,1.19-.45,1.45-1.54,1.44-5.43-.04-10.87-.06-16.3,0-1.28,.02-1.55-.44-1.57-1.62-.03-1.57,.78-3.67-.39-4.58-.98-.76-2.96-.32-4.49-.24-1.29,.07-1.56-.46-1.55-1.63,.05-5.37,.07-10.74,0-16.1-.02-1.36,.45-1.69,1.73-1.67,1.51,.02,3.47,.7,4.44-.32,.95-1,.3-2.94,.28-4.47-.01-1.15,.22-1.67,1.53-1.66,5.43,.07,10.87,.07,16.3,0,1.28-.02,1.55,.44,1.57,1.62,.03,1.57-.78,3.67,.39,4.58,.98,.76,2.96,.32,4.49,.24,1.3-.07,1.58,.46,1.55,1.64-.07,2.68-.02,5.37-.02,8.05Z"/>
  <path class="cls-1" d="M145.3,135.44c8.85,.05,16.03,7.4,15.96,16.33-.07,8.84-7.45,16-16.38,15.91-8.74-.09-15.89-7.41-15.86-16.23,.04-8.86,7.36-16.06,16.28-16.01Z"/>
  <path class="cls-1" d="M99.8,161.24c-4.16,0-8.33,.03-12.49,0-5.62-.05-9.92-4.32-9.87-9.77,.04-5.34,4.33-9.54,9.87-9.56,8.46-.04,16.92-.04,25.39,0,5.62,.02,9.92,4.32,9.87,9.76-.04,5.34-4.33,9.52-9.87,9.57-4.3,.04-8.6,0-12.89,0Zm.2-12.9c-4.02,0-8.04,0-12.06,0-2.55,0-4.01,1.17-4.04,3.17-.03,2.02,1.44,3.26,3.95,3.27,8.11,.01,16.22,.01,24.33,0,2.5,0,3.98-1.26,3.94-3.28-.04-2.01-1.49-3.16-4.05-3.16-4.02-.01-8.04,0-12.06,0Z"/>
</svg>