<?xml version="1.0" encoding="UTF-8"?>
<svg id="Layer_1" data-name="Layer 1" xmlns="http://www.w3.org/2000/svg" viewBox="0 0 200 200">
  <defs>
    <style>
      .cls-1 {
        fill: #fff;
      }
    </style>
  </defs>
  <path class="cls-1" d="M0,58.96C0,57.27,0,55.58,0,53.88c.72-2.41,1.14-4.97,2.22-7.21,4.57-9.55,12.26-14.31,22.87-14.31,25.18,0,50.36,0,75.54,0,.82,0,1.64,0,2.63,0,0-5.25,0-10.18,0-15.12,.01-5.72,1.83-10.73,6.72-13.96,2.36-1.56,5.31-2.22,8-3.28,22.4,0,44.79,0,67.19,0,.3,.11,.6,.27,.91,.31,4.48,.59,8.24,2.64,10.62,6.4,1.54,2.43,2.24,5.4,3.31,8.13v118.7c-.09,.24-.24,.47-.27,.72-.91,7.87-7.68,14.25-17.34,14.06-7.03-.13-14.06-.03-21.09-.03-.69,0-1.37,0-2.18,0,.16,.72,.22,1.17,.35,1.6,5.54,19.11-2.91,38.26-21.05,46.43-13.14,5.92-25.9,4.87-37.33-4.48-2.53-2.07-4.5-4.84-6.65-7.35-1.86-2.18-4.07-3.66-6.97-3.8-3.18-.16-6.38-.03-9.55-.25-5.58-.39-9.55,1.8-12.92,6.32-6.81,9.13-16.3,13.4-27.62,13.01-17.61-.61-31.94-12.51-36.19-29.67-.47-1.88-.78-3.81-1.17-5.71,0-2.08,0-4.17,0-6.25,.71-3.09,1.13-6.29,2.17-9.27,5.68-16.2,19.85-26.17,37.06-26.25,7.68-.03,15.36,0,23.05,0,.69,0,1.39,0,2.23,0-.05-3.79,.15-7.27,2.84-10.04,2.76-2.85,6.33-2.95,9.93-2.91,.08-.45,.16-.69,.16-.94,0-6.31,.09-12.63-.1-18.93-.05-1.66-.71-3.47-1.6-4.9-2.08-3.36-5.44-4.39-9.24-4.39-14.39,0-28.78,.17-43.16-.1-9.63-.18-16.62-5.11-20.87-13.69C1.28,64.31,.8,61.55,0,58.96Zm109.75,56.99h83.74V25.85H109.75V115.95Zm-6.6-77.33c-1.09,0-1.93,0-2.77,0-24.67,0-49.34,0-74,.01-1.62,0-3.25,.11-4.86,.31-11.66,1.45-18.71,14.97-13.22,25.34,3.53,6.68,9.19,9.9,16.65,9.92,13.93,.05,27.86,.1,41.79-.01,9.5-.08,16.66,6.77,16.92,15.08,.19,5.98,.14,11.96,.19,17.95,0,.76,0,1.52,0,2.48,3.78-.11,7.26,.05,10.01,2.78,2.8,2.78,2.94,6.34,2.96,9.99h6.34V38.62Zm-.03,90.38c-.46-.06-.72-.12-.97-.12-21.22,0-42.45-.24-63.67,.09-13.4,.21-23.46,6.67-29.07,18.9-5.39,11.76-3.8,23.11,4.03,33.41,7.79,10.25,21.99,14.7,33.9,10.8,6.05-1.98,10.56-5.95,14.22-11.06,3.2-4.47,7.7-6.7,13.18-6.81,4.03-.08,8.07-.06,12.11,.02,1.35,.03,2.71,.3,4.03,.63,4.33,1.11,7.37,3.93,9.89,7.49,3.3,4.65,7.7,7.92,13.11,9.71,11.84,3.92,25.93-.46,33.8-10.58,7.45-9.57,9.09-20.17,5.06-31.61-.22-.61-.88-1.46-1.39-1.5-2.04-.17-4.11-.07-6.39-.07,.32,.78,.51,1.32,.76,1.83,2.14,4.52,2.97,9.24,2.36,14.22-1.35,11.03-9.75,20.06-20.66,22.15-10.98,2.1-22.22-3.26-27.5-13.11-5.28-9.84-3.66-22.04,4.17-29.94,1.49-1.5,2.11-2.48,.84-4.49-.89-1.41-1.12-3.29-1.43-5-.28-1.58-.26-3.22-.38-4.97Zm90.27-6.39H109.79c0,3.86-.16,7.63,.08,11.36,.09,1.38,.94,2.84,1.78,4.03,2.03,2.89,5.02,3.92,8.48,3.92,21.02-.02,42.03,0,63.05-.02,.65,0,1.3-.05,1.95-.12,4.02-.41,7.82-3.7,8.19-7.71,.35-3.72,.07-7.51,.07-11.47ZM109.91,19.46c.71,0,1.47,0,2.23,0,11.78,0,23.56,0,35.34,0,14.65,0,29.29-.04,43.94,.04,1.87,0,2.28-.61,2.25-2.33-.14-6.81-4-10.78-10.86-10.79-20.83-.04-41.66-.05-62.49,0-7.51,.02-11.75,5.32-10.41,13.07Zm9.52,129.21c-2.37-.67-4.68-1-6.67-1.99-1.75-.87-2.67-.4-3.84,.77-8.2,8.17-7.53,21.34,1.5,28.79,7.57,6.25,18.65,5.72,25.78-1.22,7.01-6.83,7.7-18.19,1.54-25.75-.34-.41-.89-.91-1.35-.92-3.49-.08-6.98-.04-10.68-.04v6.18h-6.28v-5.83Zm-29.08-26.04c0-1.21,.03-2.12,0-3.02-.1-2.26-1.24-3.53-3.52-3.58-4.1-.09-8.2-.09-12.3,0-2.29,.05-3.44,1.3-3.55,3.55-.05,.95,0,1.9,0,2.94,.83,.05,1.4,.11,1.97,.11,5.71,0,11.43,0,17.42,0Z"/>
  <path class="cls-1" d="M175.61,70.96c-.64,.67-1.12,1.19-1.62,1.69-5.42,5.43-10.87,10.83-16.25,16.29-.98,1-1.97,1.56-3.41,1.45-1.42-.11-2.86-.1-4.29,0-1.4,.09-1.76-.51-1.75-1.82,.04-11.76,.04-23.52,0-35.29,0-1.31,.35-1.99,1.75-1.8,.06,0,.13,0,.19,0q5.87-.11,10.08,4.11c4.55,4.55,9.1,9.1,13.65,13.65,.5,.5,.98,1.03,1.64,1.72Zm-9.7,.18c-3.67-3.59-7.27-7.1-10.71-10.46v21.38c3.51-3.53,6.66-6.7,9.81-9.88,.36-.36,.67-.77,.9-1.04Z"/>
  <path class="cls-1" d="M135.41,70.94c0-5.86,.04-11.71-.03-17.57-.01-1.4,.34-1.93,1.85-1.94,4.86-.02,4.86-.08,4.86,4.8,0,10.54-.04,21.08,.04,31.62,.01,1.89-.42,2.63-2.49,2.56-4.23-.16-4.23-.03-4.23-4.24,0-5.07,0-10.15,0-15.22Z"/>
  <path class="cls-1" d="M38.95,135.52c14.14,.1,25.54,11.7,25.47,25.9-.07,14.11-11.75,25.64-25.86,25.55-14.11-.1-25.69-11.78-25.61-25.84,.08-14.23,11.73-25.7,26-25.6Zm-.24,45.09c10.56-.01,19.41-8.82,19.45-19.34,.03-10.54-9.02-19.56-19.54-19.49-10.54,.08-19.33,8.96-19.3,19.49,.03,10.58,8.83,19.35,19.4,19.34Z"/>
  <path class="cls-1" d="M96.6,148.2h-6.15v-6.27c-.8-.07-1.36-.15-1.91-.15-5.2-.01-10.4,.06-15.6-.05-1.69-.03-2.15,.57-2.02,2.13,.11,1.4,.02,2.82,.02,4.32h-6.25c0-2.49-.22-4.9,.05-7.25,.38-3.23,2.91-5.35,6.17-5.39,6.5-.06,13-.06,19.51,0,3.25,.03,5.7,2.19,6.14,5.42,.25,1.85,.15,3.76,.19,5.64,0,.5-.08,1.01-.14,1.6Z"/>
  <path class="cls-1" d="M164.33,129.14v6.14h-25.47v-6.14h25.47Z"/>
  <path class="cls-1" d="M129.19,164.23v-6h6.16v6h-6.16Z"/>
  <path class="cls-1" d="M109.86,164.24v-6h6v6h-6Z"/>
  <path class="cls-1" d="M125.66,167.93v6.04h-6.01v-6.04h6.01Z"/>
  <path class="cls-1" d="M35.61,164.38h-9.62v-6.2h9.56v-9.66h6.28c0,2.61,.08,5.19-.03,7.76-.06,1.48,.46,1.93,1.9,1.87,2.52-.1,5.05-.03,7.71-.03v6.16h-9.53v9.72h-6.27v-9.61Z"/>
</svg>