<?xml version="1.0" encoding="UTF-8"?>
<svg id="Layer_1" data-name="Layer 1" xmlns="http://www.w3.org/2000/svg" viewBox="0 0 200 200">
  <defs>
    <style>
      .cls-1 {
        fill: #fff;
      }
    </style>
  </defs>
  <path class="cls-1" d="M80.42,0c1.63,1.18,2.01,2.78,1.94,4.61-.08,2.33,.03,4.67-.04,7.01-.07,2.6-1.2,3.59-4,3.62-2.84,.02-5.67,.03-8.51,0-2.54-.03-3.66-1.04-3.72-3.45-.07-2.59,.03-5.19-.04-7.79-.05-1.78,.51-3.17,2.28-4h12.08Zm-4.49,9.28v-3.31h-3.45v3.31h3.45Z"/>
  <path class="cls-1" d="M148.57,181.42c0,3.63,0,7,0,10.38-.01,5.75-2.62,8.2-8.73,8.2-26.85,0-53.71,0-80.56,0-6.1,0-8.69-2.45-8.7-8.23,0-3.37,0-6.75,0-10.35-1.04,0-1.85,0-2.67,0-8.74-.03-17.49,.16-26.22-.14-11.96-.42-21.41-9.77-21.64-21.03-.09-4.23-.03-8.46-.03-12.69,0-39.9-.01-79.8,0-119.7C.03,16.35,7.73,7.55,19.43,5.64c1.42-.23,2.9-.25,4.35-.26,4.65-.03,9.3-.02,13.95,0,3.36,.01,4.35,.94,4.36,4.06,0,10.35,0,20.7,0,31.05,0,.71,0,1.42,0,2.51,5.22-.69,10.26,.59,15.46-1.05,3.4-1.08,4.75-2.54,5.92-5.6,3.09-8.09,9.86-12.05,18.81-12.91,.62-.06,1.25-.2,1.86-.14,2.69,.23,4.77-.2,5.98-2.95,.78-1.77,2.83-2.41,4.9-2.43,2.98-.03,5.97-.03,8.95-.01,2.98,.01,5.02,1.47,6.09,3.96,.49,1.15,1.11,1.39,2.28,1.39,3.05,0,6.11,.02,9.15,.22,8.09,.53,14.89,6.93,15.62,14.56,.09,.9,.23,1.8,.38,2.92,3.32,.65,6.62,1.57,9.99,1.9,3.35,.33,6.76,.07,10.42,.07v-2.24c0-10.28,0-20.57,0-30.85,0-3.57,.88-4.42,4.59-4.43,5.07,0,10.13-.09,15.19,.06,12.4,.37,22.15,9.62,22.24,21.29,.13,16.99,.04,33.98,.04,50.97,0,27.14,.02,54.29,0,81.43-.01,11.11-7.5,19.82-18.8,21.9-1.89,.35-3.86,.39-5.8,.4-8.05,.04-16.1,.02-24.15,.02-.81,0-1.62,0-2.64,0ZM6.43,42.08v102.43c6.68-4.72,9.42-6.01,14.59-6.3,4.08-.23,8.18-.15,12.27-.2,.8-.01,1.6,0,2.45,0V48.75c-.91,0-1.72,0-2.53,0-4.09-.05-8.19,.04-12.27-.2-5.6-.32-10.3-2.7-14.52-6.47Zm187.16,102.62V41.98c-6.08,5.89-13.47,7.13-21.42,6.79-2.61-.11-5.22-.02-7.87-.02v89.25c1.19,0,2.22-.01,3.26,0,3.74,.05,7.49,0,11.23,.18,5.7,.29,10.47,2.66,14.8,6.52Zm-45.19,30.7c10.4,0,20.31,.23,30.21-.07,8.3-.25,15.02-7.43,15.11-15.44,.09-8.08-6.59-15.24-14.99-15.74-5.25-.31-10.53-.21-15.8-.26-4.2-.04-5.01-.76-5.01-4.64,0-29.35,0-58.7,0-88.06,0-.76,0-1.52,0-2.32h-8.33c.17,1.98,.46,3.84,.48,5.71,.1,9.37,.1,18.74,.24,28.11,.01,.92,.47,2.03,1.12,2.73,3.61,3.92,4.6,8.34,2.57,13.08-2.02,4.73-5.98,7.38-11.48,7.75-1.64,.11-3.29,.02-5.15,.02,0,.92,.08,1.57-.01,2.19-.57,3.72-.76,7.55-1.87,11.12-2.63,8.44-8.21,14.92-16.17,19.61-.63,.37-1.44,1.05-1.49,1.64-.18,2.19-.07,4.39-.07,6.84,3.23,0,6.27-.06,9.3,.01,11.01,.24,20.44,8.51,21.32,18.83,.25,2.9,.04,5.83,.04,8.9ZM61.45,106.25c-1.57,0-3.3,.11-5-.02-5.41-.43-9.29-3.07-11.27-7.74-2.02-4.75-1.02-9.15,2.57-13.08,.72-.79,1.27-2.01,1.29-3.04,.12-11.15,.12-22.31,.16-33.48h-7.09c0,.9,0,1.67,0,2.44,0,29.42,0,58.83,0,88.25,0,3.41-.93,4.29-4.53,4.31-4.37,.01-8.75-.11-13.11,.05-2.39,.09-4.86,.38-7.13,1.05-7.2,2.12-11.88,9.5-10.9,16.79,.97,7.18,7.43,13.32,14.89,13.57,9.22,.3,18.45,.17,27.67,.22,.46,0,.93-.09,1.59-.15,0-1.98-.03-3.85,0-5.72,.07-3.6,.52-7.16,2.4-10.37,4.09-6.99,10.03-11.32,18.91-11.29,3.1,0,6.21,0,9.54,0,0-1.71-.14-3.2,.03-4.67,.28-2.32-.62-3.67-2.78-5-8.37-5.13-13.73-12.39-15.8-21.6-.75-3.34-.96-6.79-1.45-10.5Zm14.95,69.31c5.93,0,11.75,0,17.56,0,.83,0,1.67,0,2.49,.11,1.77,.24,2.75,1.25,2.7,2.92-.05,1.57-1.02,2.51-2.69,2.73-.68,.09-1.38,.1-2.07,.1-5.27,0-10.55,0-15.82,0-.73,0-1.46,0-2.21,0v12.61h47.31v-12.63c-2.39,0-4.74,.08-7.07-.02-2.14-.09-3.52-1.59-3.17-3.29,.36-1.75,1.67-2.47,3.46-2.5,2.26-.03,4.52,0,6.74,0,.33-3.55,1.17-4.77,3.14-4.85,1.93-.08,2.77,1.04,3.49,4.66h12.03c0-2.44,.07-4.71-.01-6.98-.29-7.98-5.89-13.23-12.06-14.32-4.11-.72-8.42-.46-12.64-.53-.41,0-.98,.6-1.24,1.05-2.59,4.5-6.65,6.65-12.03,6.71-3.19,.03-6.38,.04-9.58,0-5.13-.06-9.01-2.16-11.71-6.27-.37-.56-1.33-1.09-2.03-1.11-3.33-.12-6.66-.16-9.99,0-1.62,.07-3.35,.36-4.78,1.03-8.78,4.09-10.24,11.18-9.04,20.44h12.73c.24-3.35,1.12-4.62,3.12-4.66,2.03-.04,3.01,1.28,3.38,4.84Zm-8.15-78.22c0,4.82-.24,9.45,.05,14.04,.78,12.65,10.7,23.4,24.12,26.44,12.91,2.92,26.8-2.6,33.89-13.13,5.74-8.53,4.76-17.9,4.73-27.35h-62.79Zm31.72-30.61c-12,0-24-.01-36,0-5.25,0-7.9,2.5-7.95,7.46-.03,2.99-.01,5.99,0,8.98,0,5.8,2.54,8.18,8.71,8.18,23.52,0,47.03,0,70.55,0,.69,0,1.39,.02,2.08-.04,3.9-.34,6.44-2.92,6.47-6.6,.02-3.45-.23-6.92,.06-10.34,.42-4.89-3.48-7.8-8.12-7.72-11.93,.2-23.86,.07-35.79,.07ZM35.72,11.33c-4.76,0-9.4-.17-14.02,.04-7.74,.35-14.29,6.32-15.28,13.64-1.01,7.47,3.78,14.7,11.27,16.92,5.89,1.75,11.93,.66,18.03,1.01V11.33Zm128.48,31.46c.59,.04,.99,.1,1.39,.1,4.43-.08,8.88,.05,13.29-.29,8.45-.65,15-7.8,14.82-15.86-.18-8.11-6.96-14.96-15.43-15.38-4.36-.21-8.73-.1-13.1-.11-.31,0-.63,.14-.97,.21v31.33ZM55.4,63.13c3.45-2.27,7.03-2.3,10.65-2.27,6.66,.05,13.32,.01,19.98,.01,.74,0,1.49,0,2.3,0v-12.12c-.93,0-1.69,0-2.44,0-8.67,0-17.35,0-26.02,0-3.09,0-4.29,.89-4.44,3.79-.17,3.37-.04,6.76-.04,10.58Zm55.39-14.38v12.12c6.45,0,12.75-.06,19.04,.02,4.65,.06,9.42-.72,13.91,1.61,0-3.52,.13-6.77-.04-10.01-.15-2.83-1.36-3.74-4.29-3.74-6.52,0-13.04,0-19.57,0-2.97,0-5.94,0-9.06,0Zm.56,93.95c-7.98,2.37-15.73,2.25-23.66,.02,0,1.82-.01,3.25,0,4.67,0,.78,0,1.56,.1,2.34,.4,3.26,2.83,5.55,6.29,5.67,3.67,.12,7.35,.13,11.02,0,3.38-.12,5.91-2.37,6.2-5.52,.2-2.25,.04-4.53,.04-7.17Zm19.46-99.9c1.55-7.15-3.21-13.16-10.72-13.6-2.76-.16-5.54-.09-8.31-.1-.36,0-.72,.2-.96,.28v13.41h19.99Zm-42.46-.02v-13.52c-10.86-1.45-21.38,5.81-19.75,13.52h19.75Zm6.59-.01h9.26V23.89h-9.26v18.89ZM56.87,181.55c0,3.88-.03,7.62,.05,11.36,0,.41,.66,1.15,1.03,1.16,3.98,.08,7.96,.05,11.97,.05v-12.58h-13.04Zm73.21,12.59c3.68,0,7.14,.05,10.59-.05,.55-.02,1.52-.67,1.53-1.06,.12-3.8,.07-7.6,.07-11.46h-12.19v12.57ZM104.21,60.77v-11.89h-9.21v11.89h9.21Zm-52.7,30.12c-1.49,2.21-1.4,4.64,.21,6.77,2.56,3.38,6.27,2.87,10.5,2.67-.5-1.29-.71-3.07-1.33-3.21-4.07-.89-7.13-2.96-9.38-6.24Zm96.64,.55c-2.7,3.58-6.32,5.37-10.68,5.84v3.09c3.62,.14,7.22,.66,9.77-2.47,1.52-1.87,1.94-3.93,.91-6.47Z"/>
  <path class="cls-1" d="M140.12,3.43c1.6,0,3.19-.03,4.79,0,1.89,.04,3.07,1.02,3.14,2.75,.13,3.18,.12,6.37,.02,9.55-.06,1.86-1.39,2.82-3.29,2.87-3.19,.08-6.38,.1-9.57,0-2.15-.07-3.2-1.08-3.26-3.07-.09-2.99-.1-5.99-.01-8.98,.06-2.09,1.16-3.04,3.4-3.12,1.59-.05,3.19-.01,4.79-.01,0,0,0,0,0,.01Zm1.59,9.26v-3.26h-3.4v3.26h3.4Z"/>
  <path class="cls-1" d="M138.2,146.07c-1.46,0-2.92,.04-4.37,0-2.34-.08-3.5-1.06-3.56-3.22-.09-2.93-.09-5.86,0-8.78,.06-2.18,1.2-3.18,3.53-3.21,3.05-.04,6.11-.05,9.16,0,2.2,.04,3.4,1.02,3.49,3.08,.12,2.99,.12,5.99,0,8.98-.09,2.12-1.32,3.09-3.66,3.16-1.52,.04-3.05,0-4.58,0Zm-1.59-5.96h3.48v-3.28h-3.48v3.28Z"/>
  <path class="cls-1" d="M65.82,137.99c-.03,4.31-3.89,7.93-8.48,7.97-4.67,.04-8.59-3.65-8.56-8.06,.03-4.46,3.87-7.96,8.66-7.9,4.66,.06,8.41,3.64,8.38,7.99Zm-7.97-2.42c-.32,0-.65-.02-.97-.03-.61,.78-1.57,1.5-1.75,2.36-.28,1.27,.75,2.07,2.09,2.11,1.36,.05,2.41-.75,2.25-1.99-.11-.87-1.05-1.64-1.61-2.46Z"/>
  <path class="cls-1" d="M110.64,124.38c-.01,6.16-4.57,10.74-10.66,10.73-6.11-.02-10.63-4.6-10.62-10.77,.01-6.19,4.51-10.7,10.66-10.69,6.14,0,10.63,4.55,10.62,10.73Zm-6.28,.01c.02-2.94-1.72-4.88-4.38-4.87-2.59,0-4.3,1.86-4.35,4.7-.05,2.92,1.66,4.93,4.28,4.99,2.6,.07,4.44-1.93,4.45-4.83Z"/>
  <path class="cls-1" d="M99.99,71.05c10.34,0,20.67-.06,31.01,.02,5.62,.04,9.42,4.35,8.6,9.5-.49,3.11-3.04,5.78-6.34,6.53-1.07,.24-2.19,.35-3.29,.35-19.98,.02-39.96,.02-59.94,.01-5.04,0-8.76-2.54-9.59-6.49-1.11-5.23,2.78-9.85,8.54-9.89,10.34-.08,20.67-.02,31.01-.02Zm.1,5.85c-9.84,0-19.68,0-29.52,0-.62,0-1.4-.19-1.84,.08-.83,.52-2.04,1.32-2.04,2,0,.83,.98,1.77,1.77,2.41,.42,.34,1.33,.18,2.02,.18,19.68,0,39.37,0,59.05,0,.69,0,1.6,.15,2.01-.19,.78-.65,1.75-1.6,1.75-2.43,0-.68-1.22-1.46-2.05-1.98-.44-.27-1.21-.08-1.84-.08-9.77,0-19.54,0-29.32,0Z"/>
</svg>