<?xml version="1.0" encoding="UTF-8"?>
<svg id="Layer_1" data-name="Layer 1" xmlns="http://www.w3.org/2000/svg" viewBox="0 0 200 170">
  <defs>
    <style>
      .cls-1 {
        fill: #5c2e63;
      }
    </style>
  </defs>
  <path class="cls-1" d="M50.81,32.78v-15.9c-3.33,0-6.58,0-9.82,0-3.77,0-4.07-.32-4.06-4.46,0-1.39-.07-2.8,.15-4.16C37.87,3.34,41.56,.02,46.3,.02c21.63-.03,43.27-.02,64.91,0,4.32,0,6.8,2.69,6.83,7.45,.05,7.44,.01,14.88,.02,22.32,0,.88,0,1.77,0,2.99,1.28,0,2.37-.03,3.45,0,3.81,.12,6.27,2.78,6.31,6.98,.06,5.72,.02,11.45,.02,17.17,0,.88,0,1.75,0,2.91h2.64c11.94,0,23.87,.07,35.81-.04,4.14-.04,7.04,1.68,9.18,5.63,7.77,14.33,15.69,28.56,23.49,42.88,.61,1.12,.99,2.58,1,3.89,.08,10.14,.05,20.28,.03,30.42,0,5.14-2.34,7.69-7.01,7.71-6.41,.02-12.82,0-19.39,0-.27,1.26-.49,2.44-.78,3.59-2.4,9.49-10.68,16.32-19.46,16.07-9.49-.27-17.36-7.17-19.29-17.16-.4-2.05-1.1-2.54-2.92-2.54-19.25,.08-38.49,.07-57.74,0-1.7,0-2.42,.42-2.81,2.37-2.11,10.36-10.18,17.4-19.61,17.32-9.48-.08-17.45-7.22-19.44-17.57-.31-1.6-.85-2.11-2.33-2.1-7.31,.07-14.62,.03-21.93,.02C2.3,150.33,0,147.81,0,142.38,0,108.69,0,75,0,41.31c0-6.27,2.08-8.53,7.84-8.53,13.35,0,26.71,0,40.06,0,.88,0,1.77,0,2.91,0Zm67.24,4.54c0,1.35,0,2.31,0,3.28-.02,16.19-.03,32.38-.07,48.57-.01,4.76-2.45,7.44-6.79,7.45-17.75,.02-35.51,.02-53.26,0-4.54,0-6.98-2.75-7.04-7.79-.02-1.6,0-3.2,0-4.96-1.85,0-3.41,0-4.96,0-9.39,0-18.79,.02-28.18,.01-2.15,0-3.2-.96-2.93-2.62,.29-1.81,1.54-1.93,2.9-1.93,8.58,.02,17.16,0,25.74,.01,2.43,0,4.85,0,7.3,0v-19.38c-.96,0-1.77,0-2.57,0-9.92,0-19.84,0-29.76,0-.67,0-1.48,.2-1.98-.14-.67-.45-1.58-1.36-1.54-2.01,.05-.82,.85-1.74,1.54-2.28,.46-.35,1.3-.13,1.97-.13,10,0,19.99,0,29.99,0,.79,0,1.58,0,2.31,0v-18.05c-1,0-1.81,0-2.62,0-13.35,0-26.71,0-40.06,0-3.45,0-3.85,.42-3.85,4.19,0,27.23,0,54.46,0,81.68v2.7H123.68c0-1.08,0-1.96,0-2.85,0-9.97,.01-19.95,.01-29.92,0-17.49,0-34.99-.02-52.48,0-2.62-.66-3.29-3.09-3.33-.74-.01-1.47,0-2.54,0ZM54.47,4.64c.24,3.16,.65,6.13,.65,9.1,.05,24.6,.03,49.21,.03,73.81,0,4.15,.4,4.54,4.25,4.54,16.91-.03,33.81-.04,50.72-.05,3.28,0,3.76-.5,3.76-4.05,0-26.32,0-52.64,0-78.96,0-4.11-.26-4.39-4.12-4.39-17.9,0-35.8,0-53.7,0-.65,0-1.31,0-1.6,0Zm119.08,141.09c6.46,0,12.79,.01,19.12,0,2.65,0,3.13-.54,3.14-3.44,.01-9.4,.06-18.81-.05-28.21-.02-1.61-.46-3.4-1.21-4.78-7.51-13.84-15.16-27.58-22.66-41.41-1.35-2.49-3.05-3.44-5.64-3.42-11.93,.09-23.87,.04-35.81,.04-.8,0-1.59,.07-2.47,.12v80.95h5.48c2.85-12.47,9.94-19.35,19.82-19.5,7.67-.12,17.92,5.2,20.28,19.65Zm-50.01-14.89H63.54c4.31,4.07,6.74,8.89,7.46,14.7h52.55v-14.7Zm29.89,34.51c8.7,.02,15.89-7.78,15.9-17.25,0-9.52-7.11-17.36-15.78-17.38-8.62-.02-15.81,7.67-15.89,17-.08,9.7,6.99,17.6,15.77,17.62Zm-102.32,0c8.73-.03,15.77-7.77,15.77-17.35,0-9.51-7.08-17.23-15.84-17.29-8.61-.05-15.84,7.89-15.79,17.37,.04,9.55,7.17,17.3,15.87,17.27ZM4.18,130.82c0,4.06,.04,7.89-.02,11.71-.03,2.29,.88,3.24,2.96,3.22,5.52-.06,11.04-.02,16.55-.02,2.44,0,4.88,0,7.43,0,.79-6,3.19-10.83,7.52-14.92H4.18ZM50.77,12.16c.37-3.02,0-5.48-2.54-6.9-1.83-1.02-3.6-.8-5.22,.56-1.72,1.44-2.23,3.7-1.49,6.34h9.26Z"/>
  <path class="cls-1" d="M58.62,103.18c13.27,0,26.54,0,39.81,0,.74,0,1.63-.15,2.18,.24,.65,.46,1.35,1.39,1.4,2.17,.04,.64-.72,1.57-1.34,1.96-.58,.37-1.44,.25-2.18,.25-26.76,.01-53.53,.01-80.29,0-.66,0-1.49,.14-1.95-.23-.63-.51-1.38-1.45-1.35-2.18,.03-.73,.84-1.59,1.5-2.06,.49-.34,1.3-.17,1.97-.17,13.42,0,26.84,0,40.26,0Z"/>
  <path class="cls-1" d="M84.34,23.04c-5.74,0-11.49,0-17.23,0-1.56,0-2.98-.27-2.91-2.41,.06-1.99,1.44-2.17,2.9-2.17,11.56,.01,23.13,.01,34.69,0,1.53,0,3.05,.17,3.04,2.28,0,2.07-1.47,2.31-3.03,2.3-5.82-.03-11.64-.01-17.46-.01Z"/>
  <path class="cls-1" d="M80.54,41.45c-4.39,0-8.78,0-13.18,0-1.58,0-3.19-.09-3.16-2.39,.03-2.12,1.56-2.27,3.06-2.27,8.86,0,17.72,.01,26.58,0,1.56,0,2.98,.33,2.96,2.4-.01,1.96-1.43,2.26-2.86,2.27-4.47,.01-8.93,0-13.4,0v-.02Z"/>
  <path class="cls-1" d="M82.12,59.79c-4.99,0-9.98-.01-14.96,0-1.53,0-2.98-.19-2.97-2.34,.01-2,1.38-2.24,2.84-2.24,10.05,0,20.1,0,30.15,0,1.45,0,2.82,.23,2.85,2.22,.04,2.16-1.41,2.36-2.94,2.35-4.99-.02-9.98,0-14.96,0Z"/>
  <path class="cls-1" d="M78.52,73.57c3.87,0,7.74,.02,11.62,0,1.51-.01,2.77,.37,2.76,2.33,0,2-1.35,2.26-2.81,2.25-7.67-.01-15.34-.01-23.01,0-1.45,0-2.84-.19-2.87-2.18-.03-2.11,1.36-2.41,2.93-2.4,3.8,.03,7.6,0,11.39,.01Z"/>
  <path class="cls-1" d="M158.55,103.32c-7,0-14,0-21.01,0-2.82,0-3.37-.61-3.38-3.74-.02-8.16-.04-16.32-.02-24.49,0-3.64,.39-4.07,3.73-4.09,8.57-.04,17.13,.01,25.7-.04,2.02-.01,3.36,.92,4.38,2.76,4.66,8.45,9.37,16.86,14.03,25.31,1.43,2.59,.59,4.24-2.2,4.26-7.08,.04-14.15,.01-21.23,.01v.02Zm17.84-4.81c0-.3,.05-.49,0-.6-3.89-7.07-7.75-14.15-11.73-21.15-.39-.68-1.56-1.16-2.37-1.18-6.56-.09-13.13-.05-19.69-.05-1.32,0-2.64,0-4.05,0v22.98h37.85Z"/>
  <path class="cls-1" d="M143.89,109.4c1.56,0,3.13-.04,4.69,0,1.4,.04,2.46,.95,2.18,2.41-.17,.85-1.39,2.01-2.19,2.07-3.11,.24-6.25,.24-9.36,0-.8-.06-1.99-1.23-2.17-2.09-.3-1.48,.75-2.36,2.17-2.38,1.56-.03,3.13,0,4.69,0Z"/>
  <path class="cls-1" d="M153.4,159.5c-5.84-.04-10.47-5.23-10.39-11.63,.08-6.33,4.93-11.48,10.7-11.35,5.7,.13,10.3,5.3,10.29,11.57-.01,6.38-4.72,11.45-10.59,11.41Zm.15-18.31c-3.44-.04-6.32,3-6.36,6.72-.04,3.72,2.76,6.93,6.13,7.03,3.5,.1,6.45-3.04,6.45-6.89,0-3.76-2.77-6.82-6.22-6.86Z"/>
  <path class="cls-1" d="M51.02,159.5c-5.8-.03-10.55-5.29-10.46-11.58,.09-6.25,4.8-11.39,10.46-11.4,5.81-.01,10.52,5.14,10.53,11.52,0,6.43-4.63,11.48-10.53,11.46Zm.11-18.32c-3.46-.04-6.27,2.97-6.3,6.75-.03,3.81,2.66,6.92,6.09,7.02,3.47,.1,6.48-3.11,6.47-6.91,0-3.72-2.83-6.82-6.26-6.86Z"/>
</svg>