<?xml version="1.0" encoding="UTF-8"?>
<svg id="Layer_1" data-name="Layer 1" xmlns="http://www.w3.org/2000/svg" viewBox="0 0 200 200">
  <defs>
    <style>
      .cls-1 {
        fill: #fbb247;
      }
    </style>
  </defs>
  <path class="cls-1" d="M200,129.75c-4.13,4.14-4.96,3.82-7.12-3.26-9.32-30.47-18.6-60.96-27.91-91.43-.64-2.1-1.37-4.15-2.45-7.38-1.76,5.6-3.15,9.88-4.46,14.21-8.39,27.68-16.75,55.37-25.13,83.06-.59,1.95-1.03,4.2-2.02,5.64-.77,1.12-2.65,2.12-3.38,1.52-1.03-.85-2.02-3.21-2-4.9,.03-2.23,1-4.47,1.66-6.64,8.54-28.1,17.1-56.2,25.64-84.3,.71-2.34,1.31-4.75,2.09-7.56h-51.76c-.1,2.15-.29,4.19-.29,6.24-.02,43.75,.03,87.5-.07,131.25-.01,4.64,.73,6.4,4.18,8.27,5.59,3.04,10.49,8.63,15.76,12.95,1.87,1.53,3.94,3.47,5.96,3.57,8.17,.41,16.37-.1,24.54,.38,1.75,.1,3.41,2.93,5.12,4.49-1.65,1.38-3.3,3.94-4.96,3.95-35.23,.23-70.47,.18-105.7,.16-2.33,0-5.36,.28-4.83-4.56,.19-1.73,3.02-3.98,4.69-4.07,7.67-.44,15.37,.09,23.03-.38,2.16-.13,4.76-1.75,6.27-3.93,4.33-6.23,9-11.13,15.09-13.32,1.23-.44,2.9-3.24,2.91-4.96,.15-45.89,.1-91.78,.07-137.67,0-.65-.24-1.31-.43-2.29H44.67c.79,2.86,1.45,5.48,2.23,8.02,8.46,27.63,16.95,55.25,25.42,82.88,.67,2.18,1.74,4.37,1.77,6.58,.03,1.92-.83,4.52-1.91,5.59-.63,.63-2.7-.71-3.65-1.92-.91-1.17-1.23-3.31-1.76-5.05-9.03-29.61-18.05-59.23-27.08-88.84-.72-2.37-1.52-4.69-2.72-8.38-1.05,3.21-1.76,5.23-2.38,7.29-9,29.63-17.99,59.27-26.99,88.9-.59,1.96-.93,4.35-1.94,5.7-1.01,1.35-3.11,2.74-4.01,2.09-1-.72-1.93-4.05-1.59-5.69,.99-4.75,2.63-9.22,4.02-13.79C12.46,84.76,20.83,57.34,29.43,29.18c-1.34-.31-2.6-.09-3.31-.88-1.04-1.15-2.39-3.14-2.28-4.57,.11-1.43,1.72-3.01,2.9-3.78,.97-.63,2.3-.17,3.47-.17,10.52,0,21.04,.05,31.56-.02,7.22-.05,14.56,1.52,21.05-5.51,1.94-2.11,5.29-1.4,7.58-3.1,2.37-1.76,4.26-4.87,6.33-7.44C97.75,2.44,98.67,.04,99.68,0c1.01-.04,2.79,2,2.99,3.47,.72,5.43,3.47,6.71,6.55,8.16,4.38,2.06,8.62,4.76,12.98,6.92,1.66,.82,3.5,1.29,5.26,1.3,14.53,.1,29.06,.06,43.58,.06,1,0,2.19-.46,2.96,.14,1.3,1.01,2.34,2.7,3.48,4.11-1.04,1.51-1.94,3.4-3.18,4.41-.89,.73-2.25,.3-3.79,.41,.37,1.9,.55,3.48,.98,4.9,8.94,29.41,17.9,58.8,26.9,88.18,.38,1.23,1.06,2.27,1.6,3.4v4.28Z"/>
  <path class="cls-1" d="M162.21,146.71c-1.03-8.62-10.81-11.2-6.16-22.21,1.99-.94,3.79-.69,3.67,4.4-.11,4.67,1.48,7.41,4.89,6.64,3.64-.82,4.01-5.21,3.09-8.79-.99-3.86-3.1-7.15-4.79-10.63-1.98-4.07-4.45-7.77-5.96-12.16-2.25-6.53-.77-12.26,3.11-16.97,1.54-1.87,2.5-4.72,3.73-7.12,1.12,2.22,1.92,5.57,3.43,6.47,5.28,3.15,5.76,8.93,5.5,15.48l-1.35,1.73c-1.03-1.63-2.68-3.06-2.96-4.92-.62-4.11-1.29-8.12-4.85-6.83-3.82,1.38-3.37,6.47-2.19,10,1.4,4.18,3.96,7.55,5.84,11.45,1.87,3.87,4.13,7.66,5.11,12,1.37,6.09,.21,11.66-4.19,15.16-1.19,.95-1.93,3.05-2.87,4.63,.3,.56,.6,1.12,.91,1.67,7.33,0,14.66,.05,21.99-.03,2.5-.03,5.06,.16,5.17,4.63,.13,5.21-2.94,4.13-5.12,4.14-16.03,.06-32.06,.14-48.09-.12-1.74-.03-4.84-2.03-4.94-3.45-.32-4.73,2.42-5.24,5.16-5.2,6.99,.1,13.99,.03,21.88,.03Z"/>
  <path class="cls-1" d="M35.18,144.92c-.96-1.67-2.04-3.23-2.84-5.04-1.52-3.44-3.37-6.81-4.18-10.6-.93-4.39,.89-6.03,4.13-4.51,.1,.83,.07,1.82,.34,2.62,.92,2.73,1.68,5.75,3.07,7.89,.5,.76,3.68-.27,3.87-1.19,.63-3.18,1.31-7.23,.43-9.92-1.37-4.15-4.44-7.12-6.02-11.2-2.03-5.2-3.87-10.84-4.64-16.6-.34-2.57,2-6.03,3.38-8.85,1.33-2.73,2.97-5.14,4.48-7.7,1.37,2.43,2.92,4.7,4.08,7.32,1.6,3.6,3.39,7.26,4.22,11.26,.89,4.27-1.04,5.37-3.92,3.82-.15-1.56,.07-3.61-.54-4.7-1.26-2.25-2.97-3.99-4.49-5.94-.95,2.65-3.06,5.84-2.6,7.85,.97,4.31,3.19,8.09,5.04,11.96,1.86,3.9,4.32,7.34,5.72,11.52,2.32,6.93,.81,12.93-3.42,17.46-.92,.99-1.48,2.66-2.21,4.02,1.2,.77,2.4,2.15,3.62,2.19,6.17,.23,12.36-.25,18.51,.33,1.79,.17,3.45,3.01,5.16,4.62-1.65,1.31-3.29,3.72-4.95,3.75-16.35,.28-32.7,.29-49.05-.01-1.57-.03-3.12-2.63-4.68-4.04,1.6-1.52,3.16-4.23,4.81-4.34,7.15-.48,14.32-.21,21.48-.21,.41-.6,.82-1.19,1.22-1.79Z"/>
</svg>