<?xml version="1.0" encoding="UTF-8"?>
<svg id="Layer_1" data-name="Layer 1" xmlns="http://www.w3.org/2000/svg" viewBox="0 0 200 300">
  <defs>
    <style>
      .cls-1 {
        fill: #fbb247;
      }
    </style>
  </defs>
  <path class="cls-1" d="M0,270.71C0,190.57,0,110.44,0,30.3c.74-2.71,1.03-5.66,2.3-8.1C7.92,11.49,16.6,4.56,28.64,1.98,29.68,1.76,30.53,.68,31.47,0,77.16,0,122.85,0,168.53,0c.78,.65,1.48,1.69,2.36,1.88,17.45,3.81,29.53,15.86,29.1,35.21-.68,30.24-.18,60.51-.18,90.77,0,45.89-.06,91.78,.04,137.68,.03,11.97-4.12,21.67-14.8,27.62-5.17,2.88-10.99,4.6-16.52,6.84H31.47c-16-3.9-27.84-12.24-31.47-29.29Zm187.47-15.61V33.4H13.54V255.09H187.47Zm-87.82,36.77c8.68,.18,16.04-5.83,16.11-13.15,.07-7.22-6.77-13.35-15.22-13.62-8.8-.28-15.26,5.29-15.35,13.23-.09,7.94,5.69,13.35,14.45,13.53Z"/>
  <path class="cls-1" d="M114.37,104.58c-3.33,3.09-6.13,6.26-9.49,8.65-3.23,2.29-6.49,1.45-9.6-1.27-1.29-1.13-3.91-1.48-5.67-1.07-1.08,.25-2.28,2.57-2.36,4.02-.22,4.35-2.93,5.82-6.54,6.2-2.84,.3-5.74,.21-8.61,.06-4.33-.23-6.78-2.24-6.83-6.95-.02-1.44-1.19-3.63-2.37-4.09-1.49-.57-3.93-.29-5.27,.62-4.76,3.26-8.5,3.23-12.56-.72-1.09-1.06-2.06-2.24-3.2-3.23-3.42-2.94-3.59-5.63-.11-8.85,1.24-1.15,2.27-3.89,1.72-5.21-.56-1.34-3.12-2.36-4.92-2.59-5.04-.63-7.18-2.62-7.25-7.6-.14-9.53,.27-9.89,9.82-11.09,1.28-.16,2.81-1.56,3.4-2.77,.47-.95,.07-2.82-.64-3.76-3.73-5.01-3.61-6.73,1.34-11.46,5.34-5.11,9.05-5.5,13.62-2.06,1.47,1.1,3.94,1.82,5.62,1.4,1.21-.3,1.81-2.82,2.8-4.28,1.22-1.8,2.35-4.78,3.89-5.03,4.71-.77,9.65-.96,14.36-.32,1.41,.19,2.98,3.73,3.37,5.93,.86,4.88,4.04,6.53,8.13,3.68,4.87-3.4,8.28-3.12,12.51,.98,1.32,1.28,2.69,2.52,4.09,3.72,2.87,2.49,2.87,4.75,.02,7.44-1.45,1.38-3,3.53-3.03,5.35-.06,3.95,3.38,3.13,5.99,3.32,4.3,.3,6.59,2.21,6.6,6.98,.03,10.25-.02,10.43-9.82,11.51-1.28,.14-2.84,1.47-3.46,2.66-.48,.93,.04,2.64,.58,3.78,.83,1.73,2.07,3.27,3.89,6.03Zm-10.09-36.58c1.09-.83,2.08-1.28,2.57-2.04,1.34-2.06,5.75-2.91,2.8-6.76-3.39-4.43-6.43-5-10.62-2.58-1.75,1.01-4.17,1.53-6.19,1.31-6.28-.68-9.13-4.27-7.1-11.73-3.92,0-7.06,.09-10.19-.03-2.63-.1-3.46,1.03-3.63,3.58-.13,1.92-1.06,5.33-1.88,5.4-4.22,.39-8.51,5.7-12.91,.07-.99-1.26-3.92-2.5-4.97-1.93-2.82,1.54-5.11,4.05-8.69,7.1,1.65,1.05,2.71,1.91,3.91,2.44,3.74,1.66,3.69,3.89,1.89,7.22-2.18,4.02-5.06,5.76-9.61,5.12-3.24-.45-4.29,1.56-3.81,4.34,.44,2.56-1.9,7.33,3.16,6.81,5.31-.54,7.41,2.29,9.48,5.9,1.32,2.31,2.23,4.38-1.26,6.15-1.56,.79-3.42,3.5-3.13,4.92,.88,4.27,8.75,6.68,11.9,3.61,4.45-4.34,7.67,.12,11.43,.84,3.46,.66,2.29,3.37,2.76,5.49,.33,1.46,1.36,3.73,2.38,3.9,3.04,.52,6.23,.19,8.37,.19,1.34-3.71,1.59-7.89,3.38-8.7,4.55-2.05,9.93-5.13,14.48,.7,.65,.83,1.9,1.2,2.65,1.64,1.82-1.24,3.43-2.15,4.81-3.33,1.34-1.14,2.45-2.55,4.02-4.21-2.04-1.64-3.86-2.67-5.01-4.19-.76-1-1.23-3.14-.66-4.04,2.37-3.78,4.42-7.95,10.51-6.81,4.17,.78,3.58-2.99,3.54-5.6-.04-2.54,.86-6.15-3.48-5.71-4.86,.49-7.57-1.16-8.56-5.93-.21-.99-1.29-1.8-2.32-3.15Z"/>
  <path class="cls-1" d="M166.56,112.54c-7.28,1.72-8.11,3.76-3.25,8.87-1.77,3.42-3,7-8.47,4.07-1.92-1.03-5.06-.12-5.46,3.59-.13,1.18-1.65,2.9-2.77,3.11-1.74,.32-4.49,.22-5.4-.86-4.35-5.2-4.61-5.41-9.47-1.06-1.22-.6-2.5-1.32-3.86-1.87-2.33-.94-3.22-2.31-1.71-4.63,1.77-2.71,.49-5.37-2.05-5.16-6.06,.51-5.69-2.94-5.53-6.76,7.61-3.01,7.98-3.97,3.26-8.96,1.67-3.31,2.61-7.33,8.19-4.35,1.31,.7,3.66-.55,5.54-.9-.33-.36-.66-.73-.99-1.09,.98-1.52,1.69-4.02,2.98-4.36,2.31-.61,5.57-2.45,7.01,1.94,1.23,3.78,4.36,3.97,6.62,1.43,3.06-3.44,4.75,.46,7.02,.82,.35,.05-.05,3.02,.44,4.45,.6,1.74,1.96,4.78,2.68,4.69,6.61-.8,5,3.62,5.22,7.04Zm-24.17,6.62c3.71,.08,8.57-3.69,8.8-6.81,.23-3.12-4.31-7.16-8.23-7.3-4.29-.15-8.9,3.45-8.93,6.98-.02,3.31,4.35,7.04,8.35,7.13Z"/>
  <path class="cls-1" d="M100.48,160.04c-19.61,0-39.23,0-58.84,0-1.52,0-3.25,.38-4.51-.21-1.43-.67-3.56-2.43-3.39-3.36,.28-1.52,2-2.99,3.45-4,.81-.56,2.3-.19,3.48-.19,39.56,0,79.13-.03,118.69,.05,3.22,0,8.21-1.37,7.99,4.12-.2,5.04-4.99,3.5-8.03,3.52-19.61,.13-39.23,.07-58.84,.07Z"/>
  <path class="cls-1" d="M89.37,174.62c16.04,0,32.09-.01,48.13,.02,1.68,0,3.57-.21,4.97,.47,1.22,.59,2.45,2.24,2.6,3.54,.11,.96-1.31,2.67-2.41,3.08-1.83,.68-3.95,.8-5.95,.8-31.92,.04-63.84,.03-95.75,.03-1.01,0-2.33,.37-2.98-.12-1.66-1.24-3.02-2.87-4.49-4.35,1.57-1.15,3.1-3.24,4.72-3.3,8.09-.34,16.21-.16,24.31-.16,8.95,0,17.9,0,26.85,0Z"/>
  <path class="cls-1" d="M64.07,196.82c8.27,0,16.53,0,24.8,0,2.65,0,5.33,.2,5.58,3.63,.28,3.9-2.77,4.25-5.49,4.26-16.7,.1-33.41,.07-50.11,.05-2.71,0-5.34-.61-5.32-3.98,.02-3.7,2.83-3.99,5.73-3.98,8.27,.03,16.53,.01,24.8,.01Z"/>
  <path class="cls-1" d="M53.81,219.1c5.4,0,10.83-.31,16.18,.18,1.7,.16,3.19,2.45,4.78,3.77-1.48,1.33-2.92,3.76-4.43,3.8-10.79,.33-21.6,.36-32.38,0-1.54-.05-2.99-2.72-4.49-4.18,1.55-1.19,3.02-3.26,4.66-3.4,5.19-.44,10.45-.16,15.68-.17Z"/>
  <path class="cls-1" d="M111.96,219.85c2.81,2.28,5.62,4.36,8.16,6.73,1.02,.95,1.45,2.54,2.15,3.83-1.75,.64-4.15,2.33-5.14,1.73-4.96-3.02-9.68-6.49-14.12-10.23-.71-.6-.18-4.11,.87-5.04,3.62-3.18,7.56-6.11,11.75-8.48,1.54-.87,4.13,.11,6.24,.25-.75,1.66-1.12,3.68-2.32,4.91-2.18,2.26-4.84,4.06-7.59,6.29Z"/>
  <path class="cls-1" d="M155.19,219.94c-3.14-2.41-6.01-4.16-8.22-6.52-1.04-1.11-.79-3.4-1.13-5.16,1.85-.15,4.26-1.11,5.47-.31,4.57,3.05,8.83,6.59,13.01,10.18,.61,.52,.65,2.9,.07,3.4-4.17,3.58-8.41,7.15-13.01,10.13-1.28,.83-3.85-.32-5.83-.56,.53-1.76,.55-3.99,1.69-5.16,2.15-2.21,4.93-3.8,7.95-6.01Z"/>
  <path class="cls-1" d="M124.75,233.08c1.51-3.84,2.98-6.8,3.84-9.93,1.38-4.99,2.4-10.09,3.5-15.15,.64-2.94,2.07-5.28,5.38-4.6,3.39,.7,3.05,3.55,2.35,6.1-2.2,7.98-4.32,16-6.87,23.87-.43,1.32-2.82,2.62-4.39,2.74-1.12,.09-2.39-1.83-3.8-3.03Z"/>
  <path class="cls-1" d="M76.95,65.06c11.06-.13,19.49,7.05,19.55,16.64,.06,9.54-8.43,16.97-19.33,16.93-10.62-.04-19.16-7.32-19.32-16.46-.16-9.53,8.15-16.98,19.1-17.1Zm.26,3.66c-8.68-.03-14.71,5.44-14.61,13.26,.09,7.57,6.04,12.89,14.45,12.94,8.3,.05,15.67-6.06,15.72-13.02,.05-7-7.21-13.16-15.55-13.18Z"/>
</svg>