<?xml version="1.0" encoding="UTF-8"?>
<svg id="Layer_1" data-name="Layer 1" xmlns="http://www.w3.org/2000/svg" viewBox="0 0 72 72">
  <defs>
    <style>
      .cls-1 {
        fill: #5b2c62;
      }
    </style>
  </defs>
  <path class="cls-1" d="M72,15.81c-.07,8.75-7.68,15.34-16.36,15-8.61-.33-15.69-7.35-15.06-16.14,.57-7.89,7.58-14.34,16.41-13.96,8.68,.37,15.06,7.27,15.02,15.1Zm-23.75-4.63c.36,.3,.71,.58,1.02,.88,1.36,1.29,2.71,2.58,4.06,3.88,.32,.31,.33,.69,.03,.98-1,.95-2,1.91-3,2.86-.68,.65-1.37,1.29-2.06,1.93,.83,.81,1.61,1.58,2.39,2.35,.09-.07,.15-.1,.19-.14,1.58-1.51,3.15-3.02,4.72-4.54,.46-.45,.83-.47,1.28-.04,1.23,1.17,2.45,2.35,3.67,3.53,.42,.4,.85,.8,1.23,1.17,.82-.77,1.61-1.51,2.41-2.26-.07-.07-.13-.15-.2-.22-1.58-1.51-3.16-3.02-4.74-4.54-.39-.38-.41-.74-.04-1.09,1.22-1.17,2.44-2.32,3.65-3.49,.45-.43,.89-.87,1.31-1.28-.82-.79-1.61-1.54-2.39-2.3-1.65,1.58-3.3,3.16-4.96,4.74-.39,.37-.75,.38-1.13,.01-.84-.8-1.67-1.6-2.51-2.4-.82-.79-1.64-1.59-2.47-2.39-.81,.78-1.59,1.52-2.48,2.37Zm4.53,13.04c.37-.39,.75-.77,1.11-1.15-.27,.02-1.05,.74-1.11,1.15Zm-.58,.52s-.08-.07-.12-.11c-.29,.29-.57,.58-.86,.88l.1,.09c.29-.28,.59-.57,.88-.85Zm1.84-1.94s.07,.06,.11,.09c.23-.25,.46-.49,.69-.74-.03-.03-.06-.05-.09-.08-.24,.24-.47,.48-.71,.73Z"/>
  <path class="cls-1" d="M32.42,49.91c0-.33,0-.66,0-.99,0-2.97,0-5.93,0-8.9,0-2.39,0-4.77,0-7.16,0-1.84,0-3.69,.05-5.53,.02-.88,.29-1.72,.89-2.43,.79-.93,1.86-1.21,3.03-1.11,2.07,.17,3.11,1.61,3.21,3.4,.11,2.01,.06,4.03,.07,6.05,0,1.7,0,3.4,0,5.1,0,.12,.01,.24,.02,.42,.95-.74,1.98-.99,3.13-.71,1.14,.27,1.98,.9,2.47,1.93,2.3-1.51,5.42-.62,6.17,1.86,.67-.42,1.39-.66,2.2-.67,1.78-.02,2.97,.89,3.32,2.57,.05,.26,.09,.54,.08,.81-.07,2.63-.06,5.27-.26,7.89-.26,3.42-1.1,6.72-2.77,9.79-.48,.89-1.05,1.75-1.66,2.57-.74,.99-1.14,2.09-1.25,3.28-.1,1.08-.13,2.16-.2,3.24-.03,.44-.26,.68-.68,.69-.37,0-.66-.26-.67-.67-.03-1.66,.09-3.32,.5-4.94,.27-1.07,.91-1.97,1.56-2.85,1.15-1.56,1.95-3.28,2.55-5.1,.89-2.67,1.32-5.4,1.4-8.19,.05-1.81,.09-3.62,.12-5.43,0-.31-.02-.62-.08-.92-.28-1.19-1.34-1.73-2.64-1.35-.9,.26-1.35,.81-1.42,1.72,0,.12-.02,.25-.05,.37-.07,.31-.39,.53-.71,.51-.33-.02-.62-.31-.62-.64-.01-.63,.01-1.26-.01-1.88-.05-.96-.61-1.66-1.54-1.96-1-.32-1.91-.17-2.66,.55-.2,.19-.28,.54-.34,.82-.06,.26,0,.54-.02,.81-.03,.4-.31,.66-.69,.65-.36,0-.66-.29-.67-.67-.01-.48,0-.96,0-1.44-.03-1.5-1.6-2.55-3.03-2.02-.7,.26-1.13,.8-1.35,1.48-.09,.29-.14,.6-.18,.9-.06,.46-.3,.72-.71,.71-.41-.01-.66-.27-.66-.75,0-2.62,.02-5.24,.02-7.86,0-2.06,0-4.11-.05-6.16-.01-.49-.15-1-.34-1.46-.33-.83-1.06-1.18-2.16-1.15-.84,.03-1.51,.46-1.75,1.26-.17,.56-.27,1.16-.28,1.74-.03,2.54-.01,5.07-.01,7.61,0,5.26,0,10.51,0,15.77,0,.35-.04,.69-.41,.84-.36,.15-.66,0-.94-.25-.77-.66-1.33-1.47-1.82-2.32-.86-1.5-1.48-3.11-2.02-4.73-.23-.69-.55-1.34-1.07-1.9-.61-.64-1.37-.79-2.23-.41-.69,.31-1.07,1.04-.9,1.83,.38,1.72,.77,3.43,1.21,5.14,.43,1.69,.86,3.39,1.39,5.06,.62,1.91,1.62,3.67,2.77,5.33,.98,1.43,2.03,2.81,3,4.24,.81,1.2,1.28,2.54,1.46,3.96,.12,1,.18,2.01,.24,3.02,.03,.53-.33,.81-.81,.73-.41-.07-.51-.37-.54-.71-.04-.58-.07-1.15-.09-1.73-.09-2.16-.9-4.04-2.24-5.77-1.87-2.41-3.57-4.93-4.73-7.75-.74-1.78-1.18-3.63-1.59-5.49-.26-1.19-.59-2.36-.88-3.54-.17-.7-.36-1.41-.49-2.12-.2-1.12,.01-2.16,.96-2.92,.91-.73,1.97-1,3.13-.62,.7,.23,1.28,.67,1.65,1.27,.42,.67,.8,1.37,1.07,2.11,.61,1.66,1.22,3.31,2.16,4.84,.08,.14,.18,.26,.27,.39,.03-.01,.06-.02,.09-.03Z"/>
  <path class="cls-1" d="M15.75,30.27C7.1,30.25,.02,23.52,0,15.16-.02,6.75,7.13,0,15.9,0c8.62,0,15.87,6.9,15.73,15.43-.13,8.16-7.24,14.88-15.88,14.85Zm.89-1.37c7.73-.4,13.72-6.57,13.6-13.9-.12-8.05-7.07-14.01-15.11-13.67C7.37,1.66,.71,8.15,1.46,16.42c.62,6.8,6.94,12.96,15.18,12.48Z"/>
  <path class="cls-1" d="M52.65,24.36c.07-.47,.94-1.26,1.24-1.29-.41,.42-.83,.86-1.24,1.29Z"/>
  <path class="cls-1" d="M52.19,24.75c-.29,.28-.59,.57-.88,.85l-.1-.09c.29-.29,.57-.58,.86-.88,.04,.04,.08,.07,.12,.11Z"/>
  <path class="cls-1" d="M54.03,22.81c.24-.24,.47-.48,.71-.73,.03,.03,.06,.05,.09,.08-.23,.25-.46,.49-.69,.74-.04-.03-.07-.06-.11-.09Z"/>
  <path class="cls-1" d="M16.64,28.9c-8.24,.47-14.57-5.68-15.18-12.48C.71,8.15,7.37,1.66,15.14,1.33c8.05-.34,14.99,5.62,15.11,13.67,.11,7.34-5.88,13.5-13.6,13.9Zm-2.74-13.03c-.82-.58-1.59-1.11-2.35-1.66-1.46-1.04-2.91-2.1-4.37-3.14-.39-.28-.97-.13-1.16,.29-.14,.31-.26,.64-.39,.95-.37,.89-.72,1.78-1.11,2.65-.32,.72-.29,1.05,.36,1.53,.96,.72,1.94,1.41,2.9,2.12,1.11,.81,2.2,1.64,3.3,2.46,.9,.67,1.82,1.32,2.71,2,.46,.35,1.17,.34,1.57-.09,.67-.73,1.33-1.46,1.99-2.2,.79-.88,1.57-1.78,2.36-2.66,.59-.65,1.19-1.29,1.77-1.94,.79-.88,1.58-1.77,2.37-2.65,.92-1.03,1.84-2.05,2.75-3.08,.32-.37,.3-.65-.01-1.03-.92-1.09-1.83-2.18-2.74-3.27-.39-.47-.87-.48-1.3-.03-.21,.22-.4,.45-.6,.67-.92,1.04-1.83,2.08-2.75,3.12-1.14,1.29-2.29,2.58-3.43,3.87-.61,.69-1.23,1.37-1.86,2.08Z"/>
  <path class="cls-1" d="M13.9,15.87c.63-.71,1.25-1.39,1.86-2.08,1.15-1.29,2.29-2.58,3.43-3.87,.92-1.04,1.84-2.08,2.75-3.12,.2-.23,.39-.46,.6-.67,.43-.45,.9-.44,1.3,.03,.92,1.09,1.83,2.18,2.74,3.27,.31,.37,.34,.66,.01,1.03-.91,1.03-1.83,2.05-2.75,3.08-.79,.88-1.58,1.77-2.37,2.65-.59,.65-1.19,1.29-1.77,1.94-.79,.88-1.57,1.77-2.36,2.66-.66,.74-1.32,1.47-1.99,2.2-.39,.43-1.1,.44-1.57,.09-.89-.68-1.81-1.33-2.71-2-1.1-.82-2.2-1.64-3.3-2.46-.96-.71-1.95-1.4-2.9-2.12-.64-.48-.68-.81-.36-1.53,.39-.87,.75-1.77,1.11-2.65,.13-.32,.25-.64,.39-.95,.19-.42,.77-.57,1.16-.29,1.46,1.04,2.91,2.1,4.37,3.14,.76,.54,1.53,1.08,2.35,1.66ZM23.18,7.52c-.07,.05-.11,.08-.14,.11-1.72,1.94-3.44,3.88-5.16,5.83-1.04,1.18-2.08,2.36-3.13,3.53-.41,.46-.92,.52-1.4,.18-1.43-1.02-2.85-2.05-4.28-3.07-.67-.48-1.35-.96-2.07-1.46-.38,.93-.75,1.8-1.1,2.69-.03,.09,.03,.27,.11,.33,.74,.55,1.49,1.09,2.23,1.63,1.41,1.03,2.81,2.07,4.21,3.1,.66,.48,1.32,.96,2.02,1.47,3.59-3.98,7.16-7.93,10.74-11.9-.69-.82-1.36-1.62-2.04-2.44Z"/>
</svg>