<?xml version="1.0" encoding="UTF-8"?>
<svg id="Layer_1" data-name="Layer 1" xmlns="http://www.w3.org/2000/svg" viewBox="0 0 72 72">
  <defs>
    <style>
      .cls-1 {
        fill: #5b2c62;
      }
    </style>
  </defs>
  <path class="cls-1" d="M11.95,44.54c.42-1.43,.83-2.82,1.24-4.21,.11-.37,.22-.75,.33-1.11,.19-.61,.42-1.18-.02-1.83-.15-.22-.19-.73-.17-1.1,.06-1.84,.16-3.67,.25-5.5,.06-1.24,.14-2.47,.2-3.7,.04-.84,.17-1.63,.59-2.13,2.33-2.79,4.64-5.64,7.03-8.29,1.53-1.69,3.46-1.1,4.63,1.25,.77,1.55,1.42,3.26,2.12,4.91,.52,1.22,1.05,2.43,1.54,3.68,.17,.43,.37,.61,.67,.68,1.3,.28,2.6,.58,3.9,.88,.94,.22,1.7,1.43,1.75,2.74,.07,1.86-.49,3.28-1.52,3.61-.46,.15-.95,.03-1.43-.06-1.49-.29-2.98-.63-4.46-.95-.64-.14-1.14-.61-1.5-1.49-.22-.52-.43-1.05-.7-1.72-.05,1-.1,1.83-.13,2.66-.07,1.55-.14,3.09-.17,4.64,0,.45,.07,.95,.2,1.35,.84,2.66,1.67,5.33,2.58,7.92,.56,1.59,.82,3.23,.86,5.05,.1,4.79,.26,9.58,.39,14.38,.03,.95,.11,1.92,.02,2.84-.16,1.64-1.13,2.86-2.11,2.96-1.48,.15-2.23-1.39-2.44-2.81-.19-1.23-.24-2.52-.32-3.79-.18-2.88-.34-5.76-.51-8.63-.08-1.4-.19-2.79-.24-4.2-.03-.82-.21-1.51-.5-2.16-1.59-3.55-3.17-7.11-4.78-10.64-.52-1.13-.64-2.31-.54-3.67,.19-2.56,.33-5.13,.49-7.7,.02-.36,.04-.73,.07-1.2-.53,.62-1.02,1.17-1.49,1.75-.07,.09-.1,.32-.11,.49-.13,2.16-.25,4.32-.36,6.48-.09,1.86-.8,3.09-1.93,3.31-.1,.02-.23,.12-.27,.24-.61,2.05-1.21,4.11-1.82,6.2,.2,.17,.38,.32,.56,.48,1.07,.94,1.42,2.58,.91,4.39-.52,1.81-1.06,3.61-1.59,5.41-1.11,3.77-2.22,7.54-3.33,11.32-.06,.19-.11,.43-.09,.64,.14,2.04-.6,3.7-1.8,4.04-1.12,.31-2.23-.89-2.46-2.76-.08-.66-.27-.96-.61-1.22-1.19-.9-2.36-1.85-3.54-2.79-1.21-.96-1.59-2.63-1-4.61,1.72-5.83,3.45-11.66,5.19-17.47,.55-1.83,1.6-2.4,2.73-1.52,1.14,.89,2.26,1.81,3.4,2.72,.11,.09,.22,.17,.36,.27Zm-5.67,9.56c-.02-.7-.28-.96-.57-1.1-.34-.16-.59,.13-.73,.63-.72,2.52-1.44,5.03-2.15,7.55-.14,.5-.04,.92,.23,1.24,.43,.5,.81,.32,1.06-.55,.69-2.38,1.36-4.77,2.04-7.16,.06-.22,.1-.46,.13-.61Zm1.26,12.92c-.43,.01-.82,.67-.82,1.37,0,.7,.4,1.35,.83,1.35,.44,0,.85-.68,.84-1.4-.02-.7-.42-1.34-.84-1.32Z"/>
  <path class="cls-1" d="M72,35.96c0,11.15,0,22.3,0,33.44,0,1.75-.42,2.45-1.48,2.45-9.86,0-19.71,0-29.57,0-1.04,0-1.48-.71-1.48-2.39,0-22.36,0-44.71,0-67.07,0-1.67,.43-2.39,1.44-2.39,9.88,0,19.76,0,29.65,0,1.01,0,1.44,.72,1.44,2.39,0,11.19,0,22.38,0,33.57Zm-2.45,31.9V4.02h-27.64v63.85h27.64Z"/>
  <path class="cls-1" d="M19.52,44.46c.26,.57,.45,.99,.64,1.42,.84,1.89,1.67,3.78,2.52,5.65,.28,.62,.43,1.28,.47,2.04,.11,2.03,.25,4.07,.36,6.1,.01,.25-.02,.54-.08,.77-.75,2.97-1.5,5.94-2.26,8.9-.53,2.05-1.77,3.02-3.07,2.43-.78-.35-1.53-1.89-1.53-3.37,0-.82,.08-1.69,.25-2.46,1.01-4.46,2.06-8.9,3.07-13.36,.12-.53,.16-1.17,.12-1.74-.14-2.07-.32-4.13-.5-6.39Z"/>
  <path class="cls-1" d="M27.71,7.35c0,3.81-1.91,6.92-4.25,6.92-2.33,0-4.24-3.13-4.24-6.94,0-3.84,1.91-6.96,4.27-6.95,2.33,0,4.22,3.13,4.22,6.97Z"/>
  <path class="cls-1" d="M53.65,12.26c0-.47,0-.91,0-1.34,.01-.64,.2-.98,.58-.99,1.01-.01,2.02-.01,3.03,0,.35,0,.54,.34,.55,.89,.02,.47,0,.94,0,1.44,.55,.09,1.06,.21,1.58,.24,.67,.04,1.07,.62,1.29,1.61,.34,1.53,.7,3.05,1.03,4.58,.09,.43,.22,.59,.49,.54,.24-.04,.48,0,.72,0,.3,0,.44,.25,.44,.73,0,.37,0,.74,0,1.12,0,.7-.11,.87-.54,.88-.11,0-.22,0-.26,0,.01,2.31,.03,4.57,.03,6.84,0,.19-.03,.46-.11,.56-.31,.4-.27,.93-.26,1.46,0,.56,0,1.12,0,1.67-.01,.7-.26,1.11-.69,1.13-.37,.02-.73,.01-1.1,0-.45-.02-.7-.42-.71-1.16,0-.87,0-1.73,0-2.64h-7.97c0,.84,0,1.68,0,2.52,0,.89-.24,1.28-.79,1.29-.34,0-.68,.01-1.02,0-.42-.02-.68-.44-.69-1.13,0-.52,0-1.03,0-1.55,0-.56,.09-1.16-.28-1.56-.07-.07-.09-.3-.09-.46,.01-2.11,.04-4.21,.06-6.32,0-.22,.04-.45,.07-.69-.03-.02-.06-.06-.09-.07-.26-.08-.65,.2-.73-.36-.09-.59-.04-1.26-.02-1.89,0-.12,.15-.25,.24-.34,.05-.05,.12-.02,.19-.03,.35-.03,.78,.14,1.02-.15,.24-.29,.28-1.02,.41-1.56,.22-.96,.49-1.91,.65-2.9,.26-1.55,.88-2.16,1.8-2.23,.38-.03,.75-.1,1.18-.15Zm-2.57,7.96h9.39c-.36-1.68-.71-3.33-1.09-4.96-.03-.13-.19-.22-.3-.24-.69-.08-1.39-.2-2.08-.19-1.53,.02-3.05,.12-4.58,.19-.09,0-.24,.11-.26,.23-.37,1.64-.72,3.28-1.09,4.96Zm8.45,6.35c.21,0,.43,.01,.64,0,.48-.03,.68-.42,.68-1.31,0-.88-.2-1.27-.69-1.3-.39-.02-.78,0-1.17,0-.58,0-.8,.36-.79,1.31,0,.95,.21,1.29,.8,1.3,.18,0,.35,0,.53,0Zm-7.59,0h0c.23,0,.45,.01,.68,0,.45-.04,.65-.44,.65-1.3,0-.87-.19-1.27-.65-1.3-.45-.02-.91-.07-1.36,.02-.21,.04-.49,.32-.58,.62-.32,1.06,.05,1.96,.77,1.96,.16,0,.33,0,.49,0Z"/>
  <path class="cls-1" d="M61.01,47.91c-.96-1.57-1.87-3.01-2.73-4.51-.22-.38-.39-.92-.46-1.43-.1-.8,.15-1.46,.6-1.83,.44-.36,.88-.31,1.28,.2,.11,.14,.21,.3,.31,.46,1.51,2.47,3.02,4.94,4.53,7.41,.77,1.25,.76,2.1,0,3.36-1.54,2.52-3.07,5.03-4.61,7.55-.33,.54-.7,.98-1.21,.74-.93-.43-1.22-2.18-.53-3.34,.82-1.4,1.68-2.76,2.52-4.13,.09-.14,.16-.29,.3-.53-.21,0-.34,0-.47,0-4.25,0-8.49,0-12.74,0-.96,0-1.56-1.3-1.24-2.69,.18-.82,.63-1.27,1.26-1.27,3.55,0,7.1,0,10.65,0,.82,0,1.64,0,2.57,0Z"/>
</svg>