<?xml version="1.0" encoding="UTF-8"?>
<svg id="Layer_1" data-name="Layer 1" xmlns="http://www.w3.org/2000/svg" viewBox="0 0 200 200">
  <defs>
    <style>
      .cls-1 {
        fill: #fbb247;
      }
    </style>
  </defs>
  <path class="cls-1" d="M52.94,138.21c6.21-2.77,12.08-5.41,17.96-8.02,9.87-4.38,19.35-3.87,28.55,2.24,3.89,2.58,8.16,6.67,12.05,6.43,3.62-.23,6.99-5.27,10.42-8.27,4.25-3.72,8.43-7.53,12.66-11.27,7.19-6.36,12.73-5.72,18.95,2.58,4.06-3.75,8.05-8.04,14.2-7.02,6.15,1.02,9.66,5.07,11.51,11.44,1.04-.39,1.96-.71,2.87-1.08,6.23-2.55,12.72-.37,15.99,5.38,3.4,5.98,2.18,13.29-3.11,17.88-2.41,2.1-5,3.97-7.52,5.94-6.35,4.96-13.01,9.53-19.01,14.94-14.76,13.32-31.61,20.34-50.83,23.08-13.77,1.96-26.28,1.46-37.91-7.16-1.94-1.44-4.24-2.33-6.17-3.79-3.81-2.88-7.38-2.78-11.05,.24-1.4,1.16-2.9,2.28-4.52,3.03-4.14,1.93-6.17,4.86-5.46,9.9,.49,3.49-1.39,5.29-4.72,5.29-14.28,0-28.56,0-42.84,.02-3.59,0-4.97-1.86-4.96-5.62,.08-19.45,.09-38.9-.01-58.35-.02-4.29,1.59-5.94,5.58-5.91,13.24,.12,26.48,.06,39.72,.04,6.59,0,6.92,.3,7.64,8.04Zm.25,40.78c2.44-1.59,4.23-2.63,5.88-3.87,5.74-4.33,11.48-4.5,17.47-.52,3.78,2.51,7.77,4.65,11.6,7.07,6.83,4.33,14.17,5.45,21.92,4.17,3.67-.61,7.33-1.33,11-1.93,10.32-1.68,20.65-3.45,29.39-10.15,13.15-10.07,26.19-20.3,39.27-30.48,3.04-2.37,4.35-5.44,2-8.97-2.35-3.54-5.59-3.28-8.63-.99-13.31,10.01-26.56,20.11-39.85,30.14-1.32,.99-2.72,2.07-4.23,2.53-6.42,1.94-12.84,3.99-19.38,5.38-10.89,2.32-21.6,1.59-31.85-3.45-2.29-1.13-3.89-2.8-2.75-5.53,1.17-2.78,3.41-2.5,5.7-1.39,1.62,.79,3.29,1.48,4.99,2.06,14.58,4.92,28.18-.57,41.82-4.83,1.28-.4,2.79-3.74,2.46-5.28-.4-1.81-2.46-3.81-4.24-4.53-1.95-.79-4.43-.47-6.62-.19-12.72,1.62-23.95-2.06-34.4-9.81-5.98-4.44-12.88-4.63-19.66-1.8-6.5,2.71-12.91,5.66-19.3,8.66-1.04,.49-2.46,1.79-2.47,2.74-.18,10.05-.11,20.1-.11,30.96Zm-7.91-40.93H7.52v54.01H45.28v-54.01Zm102.27,11.69c7.34-5.35,14.71-10.57,21.92-16.04,2.93-2.22,3.6-5.46,1.4-8.69-2.02-2.96-5.15-3.88-7.79-1.55-7.01,6.17-13.7,12.76-20.43,19.1,1.79,2.62,3.25,4.75,4.91,7.17Zm-24.49-10.21c.12,.55,.24,1.11,.36,1.66,4.05-.73,8.5-.6,12.05-2.43,3.6-1.85,6.28-5.68,9.43-8.57,1.94-1.78,2.95-3.78,1.06-6.08-1.87-2.28-3.94-1.53-5.87,.2-5.67,5.09-11.36,10.15-17.04,15.22Z"/>
  <path class="cls-1" d="M84.5,37.98c-3.76-5.63-3.97-10.72,.34-15.79,.63-.74,.56-2.6,.21-3.73-1.28-4.2-3-8.25-4.16-12.48-.44-1.59-.43-4.12,.47-5.11,.87-.96,3.31-1.06,4.75-.55,9.36,3.29,18.6,3.52,27.96-.03,1.4-.53,3.9-.31,4.72,.67,.86,1.03,.67,3.48,.29,5.15-.54,2.43-1.63,4.73-2.54,7.06-1.66,4.25-3.74,7.99,.16,12.74,2.85,3.47,.89,8.09-1.15,11.15,6.14,8.59,12.43,16.59,17.83,25.21,5.07,8.08,8.78,17.09,7.4,27.18-1.9,13.9-10.23,22.57-22.07,27.32-12.62,5.06-25.7,5.18-38.49,.73-17.36-6.03-25.61-25.92-18.88-44.67,4.32-12.02,11.71-21.88,19.86-31.17,1.01-1.15,2.03-2.28,3.29-3.68Zm15.75,2.37c-3,.5-6.96-.12-8.85,1.69-10.2,9.79-19.21,20.78-23.8,34.88-5.05,15.51,2.76,31,17.87,34.04,8,1.61,16.69,2,24.67,.51,21.4-4,29.34-22.18,18.67-42.27-4.33-8.15-10.51-15.19-15.87-22.71-3.17-4.45-7.09-7.11-12.69-6.14Zm-10.02-30.27c1.99,9.71,2.09,9.77,13.27,9.44,6.3-.19,3.86-6.47,6.79-9.44h-20.06Zm9.16,23.15c2.51,0,5.09,.36,7.52-.14,1.36-.28,2.46-1.97,3.68-3.03-1.15-.97-2.26-2.7-3.46-2.77-5.01-.31-10.06-.3-15.06,.03-1.12,.07-2.13,1.94-3.18,2.99,1.14,.97,2.18,2.53,3.45,2.78,2.29,.46,4.71,.13,7.07,.13Z"/>
  <path class="cls-1" d="M31.08,140.6c6.3,.03,11.6,5.66,11.63,12.36,.03,6.94-5.37,12.54-11.97,12.39-6.47-.14-11.4-5.59-11.32-12.52,.08-6.81,5.28-12.27,11.66-12.24Zm1.19,6.96c-.66-.04-1.31-.08-1.97-.11-1.24,1.77-3.52,3.62-3.42,5.3,.11,1.75,2.5,4.61,3.94,4.65,1.55,.04,4.17-2.47,4.44-4.2,.26-1.66-1.9-3.74-3-5.63Z"/>
  <path class="cls-1" d="M99.88,65.14c2.25,1.92,4.62,3.94,6.98,5.96l-.76,1.72c-1.64-.24-3.28-.47-5.06-.73-.78,2.72-.39,4.81,2.96,6.48,4.49,2.24,4.36,9.01,.2,12.14-1.65,1.24-3.18,2.67-4.83,4.06-2.49-2.66-5.18-5.55-7.88-8.44,.32-.6,.65-1.21,.97-1.81,1.85,.62,3.71,1.25,5.74,1.93,.43-2.53,.75-4.95-2.72-7.02-4.32-2.58-3.91-8.98,.29-11.77,1.24-.82,2.52-1.55,4.1-2.52Z"/>
</svg>