<?xml version="1.0" encoding="UTF-8"?>
<svg id="Layer_1" data-name="Layer 1" xmlns="http://www.w3.org/2000/svg" viewBox="0 0 200 200">
  <defs>
    <style>
      .cls-1 {
        fill: #fbb247;
      }
    </style>
  </defs>
  <path class="cls-1" d="M116.67,92.84c-21.89-10.27-44.21-11.79-67.14-3.62-23.05,8.22-39.62,27.5-39.63,45.8,1.48,0,2.98,0,4.47,0,18.52,0,37.03,.02,55.55-.01,2.54,0,4.8,.24,5.69,2.43,.9,2.23-1.29,4.16-4.93,4.19-8.27,.07-16.55,.04-24.82,.04-12.87,0-25.74,0-38.61-.01-5.11,0-6.28-.95-6.26-4.9,.15-23.84,20.46-46.33,49.99-55.34,1.33-.4,2.64-.83,4.09-1.29-26.7-15.03-35.61-31.91-27.29-51.43C35.26,11.16,56.21-.32,80.2-.03c22.79,.28,43.34,12.69,50.02,30.03,6.18,16.04,.15,37.93-27.08,49.71,6.82,2.96,13.82,6.07,20.93,9,.89,.37,2.48,.03,3.59-.3,36.52-10.79,74.61,10.44,73.29,41-.45,10.48-5.63,19.52-14.65,27.29-1.33,1.14-2.31,2.99-2.33,4.52-.19,11.32-.09,22.64-.11,33.96-.01,4.7-2.72,5.95-7.94,3.68-8.37-3.64-16.77-7.25-25.04-11.04-2.52-1.15-4.41-1.35-7.09-.09-8.22,3.85-16.66,7.41-25.02,11.07-5.37,2.36-8.2,1.07-8.21-3.78-.02-11.32,.05-22.64-.09-33.96-.02-1.38-.7-3.08-1.86-4.07-22.3-19.04-19.78-46.41,5.89-62.72,.6-.38,1.17-.78,2.17-1.45Zm-38.07-15.48c24.9,.08,45.2-15.67,45.28-35.15,.08-19.54-19.95-35.43-44.81-35.53-25.07-.11-45.57,15.79-45.54,35.32,.02,19.49,20.15,35.28,45.07,35.37Zm68.61,85.73c25.07,0,45.31-15.89,45.26-35.52-.05-19.43-20.34-35.3-45.16-35.32-24.95-.02-45.43,16.05-45.31,35.56,.12,19.45,20.42,35.29,45.22,35.28Zm-27.95,27.81c7.13-3.12,14.04-5.66,20.25-9,5.61-3.02,10.13-2.8,15.63,.08,6.25,3.27,13.1,5.84,19.84,8.78v-26.84c-18.76,7.94-37.16,7.84-55.72-.1v27.09Z"/>
  <path class="cls-1" d="M113.52,127.79c-.06-14.67,14.92-26.52,33.6-26.58,18.61-.06,33.77,11.7,33.96,26.36,.19,14.44-15.1,26.52-33.68,26.62-18.54,.1-33.82-11.8-33.88-26.4Zm33.91-19.85c-14.07-.06-25.33,8.68-25.36,19.69-.03,10.85,11.06,19.72,24.83,19.85,13.9,.14,25.57-8.77,25.67-19.59,.1-10.93-11.19-19.89-25.14-19.95Z"/>
  <path class="cls-1" d="M147.27,124.51c1.45-1.97,2.84-3.93,4.33-5.84,1.41-1.8,3.4-2.64,5.95-1.49,2.49,1.13,2.77,2.9,1.45,4.76-2.54,3.58-5.18,7.12-7.79,10.67-.13,.18-.25,.45-.45,.49-1.83,.39-3.92,1.35-5.47,.97-2.93-.72-6.31-6.59-5.24-8.23,1.31-2,3.42-2.34,5.97-1.55,.34,.1,.72,.12,1.25,.2Z"/>
</svg>