<?xml version="1.0" encoding="UTF-8"?>
<svg id="Layer_1" data-name="Layer 1" xmlns="http://www.w3.org/2000/svg" viewBox="0 0 200 200">
  <defs>
    <style>
      .cls-1 {
        fill: #fbb247;
      }
    </style>
  </defs>
  <path class="cls-1" d="M103.29,.08c15.53-.02,31.05-.04,46.58-.05,7.23,0,14.47,.04,21.7,0,2.32-.01,4.59,.4,6.83,1.1,3.36,1.04,4.86,3.93,5.41,7.67,.3,2.07,.26,4.16,.26,6.24,.01,21.43,0,42.85,.01,64.28,0,3.12,.07,6.25,.1,9.37,.01,1.78,.56,3.08,1.69,4.33,2.33,2.57,4.5,5.38,6.64,8.19,1.63,2.14,1.65,4.28,.15,6.59-1.21,1.86-2.56,3.58-3.78,5.42-1.63,2.47-1.19,3.85,1.36,4.64,1.44,.44,2.87,.58,4.35,.48,3.95-.27,5.74,1.81,5.76,6.69,.01,3.3,0,6.59-.04,9.89-.06,3.89-1.61,5.82-4.77,6.02-1.38,.09-2.76,.17-4.13,.28-.36,.03-.74,.09-1.09,.22-2.59,.94-2.95,2.21-1.29,4.78,1.09,1.68,2.3,3.25,3.42,4.91,1.86,2.74,1.78,4.96-.26,7.5-2.17,2.7-4.35,5.4-6.55,8.07-2.11,2.58-3.91,2.66-6.2,.32-1.56-1.59-3.05-3.29-4.66-4.81-1.26-1.18-1.78-.97-2.64,.68-.82,1.57-.76,3.36-.81,5.11-.06,1.64,.03,3.3-.28,4.92-.34,1.8-1.23,2.96-2.72,3.14-3.99,.48-8,.51-12,.11-2.19-.21-3.04-1.44-3.29-4.18-.14-1.58-.15-3.17-.26-4.76-.08-1.13-.12-2.28-.36-3.37-.54-2.51-1.64-3.02-3.32-1.47-1.65,1.52-3.25,3.14-4.77,4.86-1.72,1.95-3.9,2.04-5.29-.2-2.3-3.7-5.43-4.99-8.99-4.81-6.31,.32-12.62,.12-18.93,.13-2.52,0-2.9,.55-2.64,3.59,.4,4.63,.8,9.26,1.15,13.9,.32,4.38,2.15,7.21,5.53,8.56,2.86,1.15,5.86,1.44,8.77,2.28,.49,.14,.99,.24,1.48,.41,1.9,.66,2.62,1.87,2.62,4.34,0,2.22-.82,3.49-2.64,4.18-1.13,.43-2.29,.34-3.43,.27-7.14-.42-14.27,.1-21.41-.02-1.01-.02-2.03-.01-3.04-.02,0-3.06,0-6.11,0-9.17,1.93-.02,3.86-.01,5.8-.05,1.53-.03,1.82-.56,1.22-2.32-.83-2.47-1.68-4.92-1.99-7.58-.55-4.77-.94-9.57-1.15-14.39-.16-3.54-.47-3.97-3.32-4.12,0-2.89,0-5.78,0-8.67,.55-.01,1.1-.03,1.66-.03,9.39,0,18.78-.02,28.16-.01,1.18,0,2.31-.13,3.14-1.34,1.43-2.07,2.93-4.08,4.29-6.22,1.52-2.4,.85-4.28-1.65-4.69-1.13-.19-2.29-.2-3.44-.22-2.37-.05-4.44-.8-5.86-3.37-.49-.89-1.24-1.29-2.14-1.29-5.29-.02-10.58-.06-15.87-.1v-8.86c4.93,.04,9.86,.1,14.79,.12,2.94,.01,3.06-.16,3.13-3.85,.07-3.74,1.11-5.08,4.16-5.33,1.7-.14,3.45,0,5.08-.49,3.05-.91,3.51-2.27,1.57-5.04-.3-.43-.62-.84-.92-1.27-.95-1.32-1.95-2.58-2.82-3.97-1.29-2.09-1.36-4.15-.01-5.9,2.63-3.42,5.35-6.74,8.13-9.98,1.41-1.64,2.81-1.64,4.4-.26,1.16,1.01,2.24,2.14,3.15,3.52,.66,.99,1.49,1.78,2.45,2.31,1.47,.83,2.11,.53,2.78-1.31,.19-.51,.3-1.08,.34-1.63,.17-2.38,.27-4.76,.45-7.13,.2-2.73,1.46-4.23,3.7-4.28,3.36-.07,6.73-.09,10.09-.02,3.07,.07,4.27,1.61,4.43,5.43,.03,.68,.02,1.36,.05,2.04,.08,1.7,.08,3.42,.28,5.1,.28,2.38,1.71,3.06,3.26,1.73,1.39-1.2,2.04-2.73,2.04-4.89-.04-22.05-.02-44.11-.02-66.16,0-4.49,.02-8.98-.02-13.47-.03-2.57-.55-3.17-2.63-3.36-.41-.04-.83-.02-1.24-.02-8.66,0-17.32,0-25.99-.02-14.56-.02-29.12-.05-43.68-.07,0-3.06,0-6.12,0-9.18Zm60.95,163.29c0-.59,0-.82,0-1.05,.19-5.54,1.31-7.32,5.65-8.97,.34-.13,.67-.37,.98-.61,2.74-2.14,4.99-1.89,7.37,.86,.91,1.05,1.79,2.13,2.68,3.19,.48,.58,1.04,1.08,1.72,.7,1-.56,1.67-1.68,2.15-2.8,.36-.86-.59-1.4-.97-2.04-.54-.91-1.21-1.71-1.86-2.51-.89-1.11-1.72-2.32-1.81-3.91-.21-3.99,.65-7.65,2.64-10.83,.96-1.54,2.33-2.34,3.87-2.74,1.37-.36,2.74-.29,4.12-.34,1.4-.05,2.04-.88,2.05-2.54,0-1.77-.65-2.74-1.98-2.86-1.51-.13-3.03-.23-4.55-.3-1.01-.05-1.88-.49-2.63-1.31-4.87-5.32-4.79-13.73,.21-18.78,.94-.95,1.17-1.76,.34-2.96-1.34-1.95-2.18-2.26-3.29-1.06-1.14,1.23-2.3,2.45-3.4,3.74-1.64,1.91-3.41,2.22-5.44,1-1.53-.91-3.11-1.7-4.7-2.44-1.7-.78-2.61-2.21-2.74-4.43-.13-2.09-.28-4.19-.44-6.28-.11-1.53-.72-2.37-2.06-2.31-1.53,.08-2.15,.63-2.3,2.44-.17,2.09-.27,4.19-.38,6.28-.11,2.04-.98,3.35-2.48,4.12-1.82,.94-3.64,1.9-5.45,2.88-1.74,.93-3.28,.66-4.68-.97-1.24-1.44-2.51-2.85-3.79-4.23-1-1.08-1.56-.88-2.9,.78-.81,1.01-1.22,1.95-.25,3.2,1.18,1.51,2.29,3.11,3.43,4.67,1.32,1.81,1.53,3.79,.64,5.97-.79,1.93-1.52,3.88-2.07,5.94-.63,2.4-1.99,3.57-4.01,3.68-1.56,.09-3.13,.21-4.68,.38-1.31,.15-1.86,1.01-1.89,2.77-.03,1.57,.56,2.49,1.83,2.62,1.01,.1,2.02,.17,3.03,.16,2.01-.01,3.71,.76,4.94,2.79,1.11,1.83,1.95,3.85,2.55,6.01,.83,2.97,.44,5.72-1.1,8.19-.56,.9-1.2,1.73-1.84,2.53-1.96,2.45-1.96,2.64,.13,4.87,.03,.04,.08,.06,.11,.1,.69,.93,1.23,.93,2.02-.04,1.37-1.68,2.87-3.19,4.37-4.69,1.06-1.05,2.3-1.61,3.6-.76,1.92,1.27,3.97,2.1,5.98,3.06,1.46,.69,2.33,1.98,2.46,3.95,.13,2.04,.28,4.07,.39,6.11,.11,2.18,.79,2.98,2.5,2.89,1.46-.08,2.07-1.04,1.98-3.13-.02-.45-.06-.9-.06-1Z"/>
  <path class="cls-1" d="M98.05,153.59c0,2.89,0,5.78,0,8.67-3.95,.33-7.91,.09-11.86,.11-1.77,0-2.27,.56-2.5,2.74-.48,4.73-.88,9.47-1.45,14.18-.37,3.06-.4,6.23-1.65,9.07-.87,1.98-.7,2.25,1.17,2.27,1.98,.02,3.96-.01,5.93,0,3.26,.02,6.53,.07,9.79,.1,0,3.06,0,6.11,0,9.17-4.74,.03-9.48,.11-14.23,.09-6.36-.03-12.71-.13-19.07-.22-1.66-.02-3.32-.08-4.94-.54-1.85-.53-2.7-1.83-2.69-4.07,.01-2.24,.88-3.72,2.67-4.11,2.08-.45,4.2-.63,6.29-1.04,4.55-.9,8.34-3.15,9.63-9.17,.42-1.95,.41-4.05,.58-6.08,.26-3.11,.53-6.21,.75-9.32,.18-2.48-.27-3.05-2.29-3.05-13.08,0-26.17,.02-39.25,.02-8.34,0-16.67,0-25.01-.01-5.72,0-9.5-4.55-9.51-11.59-.05-45.86-.08-91.72-.09-137.58C.34,4.77,4.17,.1,10.98,.09,41.24,.04,71.51,.01,101.78-.02c.5,0,1.01,.06,1.51,.1,0,3.06,0,6.12,0,9.18-.69,.03-1.38,.1-2.07,.1-30.09-.01-60.17-.03-90.26-.05-2.6,0-3.07,.54-3.07,3.56-.05,36.94-.1,73.88-.14,110.82,0,3.42,.38,3.89,3.23,3.88,6.77-.03,13.54-.11,20.31-.12,20.09-.03,40.17-.04,60.26-.05,4.93,0,9.86,.03,14.79,.05v8.86c-.55,.02-1.1,.06-1.66,.06-23.58-.02-47.17-.04-70.75-.05-7.69,0-15.38-.02-23.07-.02-2.67,0-3.03,.53-3,3.75,.03,3.07-.03,6.13-.1,9.2-.08,3.58,.37,4.21,3.23,4.3,.51,.02,1.01,0,1.52,0,27.87-.01,55.74-.03,83.61-.04,.64,0,1.29,.05,1.93,.08Z"/>
  <path class="cls-1" d="M44.57,94.9c-3.18-3.7-6.03-7.79-9.05-11.67-2.14-2.74-4.24-5.52-6.29-8.36-1.69-2.33-1.77-4.62-.09-6.86,5.46-7.29,10.92-14.58,16.57-21.65,.24,.69,.33,1.41,.33,2.16,0,2.5,0,4.99,0,7.49,0,.73-.06,1.5,.52,2.01-2.69,3.54-5.38,7.09-8.09,10.6-1.91,2.47-1.92,3.01-.05,5.44,2.29,2.98,4.55,6,6.82,9,0,3.18-.01,6.36-.02,9.54,0,.86,0,1.72-.65,2.3Z"/>
  <path class="cls-1" d="M118.18,80.16c1.65-2.14,3.3-4.27,4.96-6.41,1.33-1.72,1.35-2.77,.04-4.53-1.84-2.46-3.71-4.89-5.57-7.34,.02-1.07,.01-2.14,.05-3.2,.11-3.02-.29-6.07,.33-9.07,2.4,3.24,4.93,6.32,7.29,9.61,1.37,1.91,2.9,3.72,4.4,5.51,1.07,1.28,2.08,2.65,2.99,4.11,1.11,1.77,1.12,3.21,.01,4.97-1.09,1.72-2.32,3.31-3.53,4.91-2.88,3.78-5.78,7.53-8.68,11.29-.63,.82-1.28,1.62-1.92,2.43-.29-4.09,.25-8.21-.37-12.28Z"/>
  <path class="cls-1" d="M80.07,61.1c2.53-8.21,5.02-16.43,7.62-24.61,.84-2.64,2.74-3.68,4.53-2.83,1.87,.89,2.85,3.37,2.11,5.89-2.36,8.01-4.83,15.97-7.35,23.92-1.61,5.09-3.23,10.18-4.72,15.33-.31,1.06-.69,2.09-1.04,3.13-.69-.58-.58-1.48-.58-2.32,0-5.39,0-10.78,0-16.17,0-.83,.13-1.74-.55-2.34Z"/>
  <path class="cls-1" d="M80.07,61.1c.68,.6,.55,1.5,.55,2.34,0,5.39,0,10.78,0,16.17,0,.84-.12,1.74,.58,2.32-1.3,4.28-2.58,8.57-3.91,12.84-1.14,3.65-2.31,7.29-3.5,10.92-.52,1.6-1.34,2.7-2.88,2.96-3.01,.51-4.74-1.78-3.83-5.42,.84-3.36,1.84-6.66,2.86-9.94,3.19-10.34,6.41-20.67,9.63-30.99,.13-.42,.33-.8,.5-1.19Z"/>
  <path class="cls-1" d="M118.18,80.16c.62,4.07,.08,8.2,.37,12.28-3.38,4.46-6.64,9.08-10.27,13.25-.73,.84-1.28,1.93-2.02,2.76-1.61,1.84-3.36,1.8-4.93,.01-1.41-1.6-1.55-3.97-.13-5.95,2.69-3.74,5.47-7.37,8.24-11.01,2.89-3.8,5.82-7.57,8.74-11.35Z"/>
  <path class="cls-1" d="M117.98,49.61c-.62,2.99-.22,6.05-.33,9.07-.04,1.07-.04,2.14-.05,3.2-3.09-3.56-5.82-7.54-8.76-11.28-2.14-2.73-4.23-5.51-6.34-8.28-.35-.45-.7-.91-.99-1.41-1.87-3.31-.99-6.79,2.03-8.25,.51-.24,.78,.09,1.11,.35,2.09,1.61,3.74,3.81,5.39,6.02,2.64,3.53,5.29,7.05,7.93,10.58Z"/>
  <path class="cls-1" d="M44.57,94.9c.65-.58,.65-1.44,.65-2.3,0-3.18,.01-6.36,.02-9.54,3.84,4.99,7.79,9.85,11.42,15.09,1.03,1.49,2.38,2.66,3.35,4.25,1.85,3.05,.96,6.38-1.91,7.3-1.26,.4-2.31-.12-3.14-1.18-3.49-4.5-6.94-9.06-10.4-13.6Z"/>
  <path class="cls-1" d="M46.57,58.02c-.58-.51-.52-1.28-.52-2.01,0-2.5,0-4.99,0-7.49,0-.75-.08-1.47-.33-2.16,2.83-3.73,5.63-7.5,8.5-11.19,2.61-3.36,5.58-2.64,7.16,1.59,.25,.66-.13,.93-.31,1.34-1.23,2.9-3.19,5.07-4.97,7.43-3.15,4.19-6.35,8.33-9.53,12.48Z"/>
  <path class="cls-1" d="M163.83,146.73c-5.19,.91-9.38-1.43-12.69-6.23-3.69-5.37-4.18-13.15-1.38-19.27,2.88-6.3,8.5-9.84,14.08-8.86-.05,2.98-.1,5.97-.15,8.95-.23-.03-.46-.06-.68-.1-2.58-.52-6.09,1.48-7.13,4.68-1.25,3.86-.63,7.68,1.85,10.34,1.71,1.84,3.77,1.77,5.84,1.68,.48,2.92,.11,5.88,.27,8.82Z"/>
  <path class="cls-1" d="M163.83,146.73c-.15-2.94,.22-5.9-.27-8.82,3.45-1.17,5.22-3.85,5.29-8,.07-4.18-1.77-7.25-5.16-8.59,.05-2.98,.1-5.97,.15-8.95,9.5,1.74,14.89,13.83,11.04,24.42-2.1,5.78-5.81,9.26-11.06,9.94Z"/>
</svg>