<?xml version="1.0" encoding="UTF-8"?>
<svg id="Layer_1" data-name="Layer 1" xmlns="http://www.w3.org/2000/svg" viewBox="0 0 200 250">
  <defs>
    <style>
      .cls-1 {
        fill: #5c2e63;
      }
    </style>
  </defs>
  <path class="cls-1" d="M155.06,198.44c-1.28,10.17-2.53,11.79-11.84,15.67,6.71,10.09-.29,16.08-6.88,22.47-5.67,5.5-11.64,6-18.57,1.9-2.68,12.81-12.64,11.53-22.02,11.47-7.65-.05-11.76-4.24-13.64-11.58-10.17,6.79-16.43,.56-22.77-6.03-5.87-6.11-6.58-9.72-2.76-18.57-8.07-1.81-11.75-7.06-11.47-15.35-12.68,0-24.94,0-37.19,0-7.53,0-8.23-.56-7.84-7.92,.63-11.84,1.07-23.72,2.42-35.49,1.92-16.73,10.49-29.93,25.75-37.65,12.52-6.34,25.91-11.06,39.02-16.21,1.52-.6,4.08,.12,5.65,1.06,18.21,10.81,36.27,10.68,54.4-.15,1.45-.87,3.7-1.47,5.24-1.04,13.49,3.76,26.74,8.08,38.93,15.15,16.21,9.4,24.6,23.56,26.41,41.49,1.19,11.8,1.44,23.69,2.07,35.54,.2,3.73-1.78,5.23-5.5,5.21-11.5-.05-22.99,.03-34.49,.05-1.55,0-3.1,0-4.93,0Zm-98.51-19.6c-3.84-9.14-3.25-12.38,2.75-18.54,6.32-6.49,12.56-12.88,21.44-7.02,3.3-3.42,5.65-7.48,9.19-9.22,10.71-5.27,23.09-.65,28.29,9.85,5.65-3.27,11.36-3.94,16.46,.8,7.01,6.51,16.04,12.47,8.37,24.13,5.97,1.57,9.82,4.53,11.54,9.97,.27,.85,2.43,1.57,3.73,1.59,9.93,.15,19.85,.12,29.78,.1,1.18,0,2.36-.31,4.3-.58-1.04-12.05-1.59-23.77-3.19-35.35-1.85-13.41-8.63-24.5-20.99-30.78-10.96-5.58-22.77-9.58-34.29-14.07-1.32-.51-3.44-.05-4.8,.67-19.42,10.31-38.76,10.36-58.22,.1-1.45-.76-3.76-1.04-5.25-.48-10.11,3.87-20.36,7.51-30.07,12.2-13.76,6.66-23.05,17.33-24.92,32.69-1.38,11.31-1.71,22.74-2.46,34.12-.03,.39,.36,.8,.69,1.48,11.27,0,22.6,.03,33.93-.06,.88,0,2.33-.76,2.53-1.44,1.63-5.63,5.67-8.67,11.17-10.13Zm90.03,17.75c0-.62,0-1.23,0-1.85-.01-6.78-.77-7.55-7.49-7.57-1.89,0-3.86,.35-5.64-.07-1.64-.39-3.85-1.3-4.39-2.56-.52-1.23,.37-3.48,1.34-4.77,1.66-2.22,4.27-3.8,5.69-6.12,.92-1.5,1.3-4.36,.44-5.71-6.32-9.93-10.07-10.28-18.59-2.29-.11,.11-.21,.26-.35,.31-1.91,.68-4.29,2.35-5.6,1.75-1.4-.64-2.57-3.44-2.5-5.24,.49-13.73-1.43-11.75-13.68-11.85-3.4-.03-5.23,1.81-5.25,5.2-.02,2.78,.23,5.58-.1,8.31-.16,1.33-1.13,3.24-2.19,3.61-1.32,.47-3.44,.06-4.66-.76-2.04-1.37-3.71-3.32-5.43-5.11-2.93-3.06-5.61-3.22-8.86-.19-9.11,8.5-9.11,8.41-.51,17.27,1.31,1.35,2.76,4.3,2.13,5.34-.92,1.52-3.67,2.78-5.63,2.76-12.9-.13-11.97,.15-11.91,12.58,0,.31,0,.62,.02,.92,.11,3.18,1.85,4.8,5.04,4.92,2.67,.1,5.4-.19,8.01,.23,1.64,.27,3.91,1.23,4.44,2.47,.52,1.23-.43,3.47-1.4,4.78-1.55,2.1-3.69,3.77-5.52,5.68-2.41,2.52-2.32,5.37,.39,7.21,3.73,2.54,5.28,9.43,12.04,6.32,.95-.44,1.65-1.41,2.43-2.16,1.46-1.4,2.73-3.08,4.41-4.16,1.3-.84,3.37-1.62,4.61-1.16,1.21,.45,2.31,2.44,2.53,3.88,.42,2.72,.17,5.53,.19,8.31,.03,3.43,1.88,5.06,5.29,5.11,1.57,.03,3.15,0,4.72,0,8.36,0,8.58-.43,8.92-8.62,.13-2.96,.59-7.23,2.54-8.51,3.43-2.26,5.69,1.91,7.94,4.04,6.09,5.77,6.43,5.83,12.47,.04,.68-.65,1.38-1.26,2.06-1.91,4.28-4.1,4.27-5.56,0-9.91-.76-.78-1.71-1.45-2.25-2.35-1.26-2.11-2.32-4.33-3.46-6.51,2.44-.91,4.88-1.85,7.33-2.72,.42-.15,.94-.02,1.41-.02,8.55-.03,9.05-.52,9.04-8.95Z"/>
  <path class="cls-1" d="M152.98,52.33c-.07,28.87-23.7,51.7-53.45,51.62-29.35-.07-52.79-23.47-52.63-52.51C47.06,22.95,70.95-.11,100.2,0c29.49,.11,52.85,23.27,52.78,52.33Zm-53.27,43.69c24.96,.09,45.31-19.61,45.33-43.88,.02-24.23-20.29-44.2-45.02-44.26-24.72-.06-45,19.86-45.01,44.2,0,24.16,20.02,43.85,44.69,43.93Z"/>
  <path class="cls-1" d="M121.74,194.68c-.06,11.73-10.07,21.29-22.12,21.14-11.97-.15-21.66-10-21.47-21.83,.18-11.54,10.09-20.97,21.95-20.88,12.17,.09,21.72,9.6,21.65,21.57Zm-35.35-.31c-.04,7.31,5.89,13.3,13.3,13.41,7.68,.11,13.88-5.84,13.88-13.33,0-7.34-5.91-13.28-13.31-13.4-7.65-.12-13.82,5.81-13.87,13.32Z"/>
</svg>