<?xml version="1.0" encoding="UTF-8"?>
<svg id="Layer_1" data-name="Layer 1" xmlns="http://www.w3.org/2000/svg" viewBox="0 0 200 250">
  <defs>
    <style>
      .cls-1 {
        fill: #5a2b5f;
      }
    </style>
  </defs>
  <path class="cls-1" d="M200,167.44v9.38c-.12,.55-.28,1.09-.36,1.64-2.7,19.41-11.47,32.14-26.39,37.88-3.07,1.18-6.36,1.46-9.79,2.22,0,2.51,.05,5.21,0,7.9-.28,13.85-7.95,23.47-18.91,23.5-29.04,.06-58.07,.06-87.11,0-10.99-.03-18.73-9.98-18.79-23.87-.01-2.61,0-5.21,0-7.83C17.23,219.89,.77,197.93,.03,174.49c-.36-11.45,2.15-21.82,7.85-30.74,7.84-12.26,18.17-17.9,30.6-17.41v-7.73c-1.96-.24-3.79-.32-5.58-.71C12.25,113.43-.83,90.06,2.75,63.98c.83-6.07,2.68-11.66,5.41-16.76,1.01-1.89,2.71-2.36,4.06-1.27,1.31,1.07,1.67,3.03,.89,4.98-.21,.51-.47,.99-.71,1.48-12.18,25.1,1.62,57.62,24.9,58.7,13.23,.62,25.47-9.9,29.87-25.67,4.43-15.88,.21-33.6-10.41-43.68-9.93-9.42-23.16-10.32-33.97-2.32-2.35,1.74-3.96,1.6-4.96-.43-1.03-2.1-.34-4.07,2.05-5.89,4.06-3.09,8.44-5.09,13.14-5.9,1.84-.32,3.7-.49,5.52-.72,.09-2.36,.02-4.52,.29-6.61C40.32,8,47.74,.09,57.52,.06c17.25-.06,34.5-.02,51.76-.02,12.17,0,24.35-.14,36.52,.1,9.47,.19,16.95,9.6,17.57,21.55,.08,1.62,.14,3.24,.21,4.9,.61,.06,1.06,.13,1.51,.16,16.42,.86,30.24,15.29,33.98,35.53,.34,1.82,.61,3.66,.92,5.49v9.38c-.12,.55-.29,1.08-.36,1.64-2.2,19.15-13.01,34.09-27.98,38.46-2.63,.77-5.35,1.03-8.08,1.53v7.42c.61,.08,1.12,.17,1.62,.2,16.46,.99,30.14,15.34,33.88,35.56,.34,1.82,.61,3.66,.91,5.49ZM132.54,21.96c-.1,.55-.17,.94-.23,1.33-.98,6.07-3.85,9.14-8.7,9.15-15.04,.03-30.07,.03-45.11,0-4.81,0-7.76-3.06-8.61-8.9-.18-1.23-.53-1.65-1.5-1.63-3.06,.06-6.12-.03-9.18,.05-2.04,.05-3.09,1.41-3.2,4-.07,1.56-.17,3.16,.04,4.67,.13,.96,.61,2.16,1.23,2.66,23.35,18.84,23.3,59.58-.09,78.56-.61,.49-1.12,1.78-1.14,2.71-.1,5.75-.1,11.51,0,17.27,.02,.95,.54,2.2,1.14,2.77,20.66,19.33,20.66,55.98,0,75.18-.61,.56-1.11,1.8-1.15,2.76-.14,3.28-.06,6.57-.05,9.86,0,4.64,.81,5.67,4.47,5.67,16.47,0,32.94,0,49.41,0,10.81,0,21.61,0,32.42,0,2.78,0,3.79-1.28,3.81-4.73,.02-3.04-.06-6.09,.03-9.13,.04-1.44-.38-2.19-1.33-2.92-4.93-3.75-8.95-8.74-11.95-14.95-5.26-10.91-6.76-22.61-4.4-35.05,.5-2.65,1.86-3.79,3.64-3.25,1.62,.5,2.33,2.25,1.96,4.88-.05,.32-.12,.65-.13,.97-.13,4.73-.76,9.55-.27,14.19,2.31,21.8,19.15,36.32,36.51,31.8,16.83-4.38,27.68-26.59,23-47.58-3.29-14.77-11.04-24.37-22.89-27.65-11.91-3.3-22.1,1.27-30.12,13.04-1.77,2.6-3.3,3.11-4.79,1.52-1.43-1.53-1.48-3.91,.4-6.21,2.88-3.52,5.97-6.79,9.1-9.97,.85-.87,1.29-1.56,1.27-2.96-.06-4.85-.12-9.71,.02-14.55,.06-2.07-.47-3.19-1.86-4.29-21.76-17.24-22.69-57.35-1.63-75.85,2.81-2.47,3.99-4.88,3.44-8.9-.03-.24,0-.49-.01-.74-.12-2.22-1.08-3.65-2.79-3.72-3.57-.15-7.14-.05-10.75-.05Zm61.64,50.53c-.02-21.32-13.72-38.56-30.59-38.47-16.91,.08-30.44,17.31-30.4,38.7,.04,21.14,13.74,38.4,30.49,38.41,16.83,0,30.52-17.35,30.5-38.64ZM36.26,133.64c-16.89,.07-30.46,17.32-30.43,38.67,.03,21.25,13.79,38.55,30.62,38.47,17.13-.08,30.46-17.13,30.37-38.87-.08-21.15-13.81-38.35-30.56-38.27ZM157.55,27.21c1.28-12.21-5.28-20.15-13.87-19.97-16.72,.35-33.44,.1-50.16,.1-12.04,0-24.07-.06-36.11,.02-8.68,.06-14.5,9.23-12.71,19.91,1.72,.53,3.47,1.07,5.37,1.66,.06-.93,.13-1.64,.14-2.35,.14-7.69,3.57-11.94,9.7-11.99,2.99-.02,5.99-.06,8.98,.01,3.93,.09,6.05,2.4,6.59,7.25,.26,2.28,1.2,3.34,2.98,3.34,15.03,0,30.06,0,45.08,0,1.85,0,2.85-1.04,3.04-3.51,.31-4.09,2.5-6.85,5.75-7.02,3.77-.19,7.56-.27,11.31,.03,4.92,.39,8.14,5.01,8.25,11.28,.02,.94,0,1.89,0,3,2.04-.64,3.79-1.2,5.65-1.78ZM44.6,216.98c0,4.27-.35,8.5,.08,12.61,.79,7.7,6.17,13.05,12.76,13.06,29.1,.04,58.19,.02,87.29,.01,.46,0,.91-.03,1.36-.08,5.39-.52,10.09-5.19,11.11-11.87,.65-4.28,.48-8.77,.67-13.1-2.19-.68-3.99-1.24-5.96-1.85,0,2.66,0,5.03,0,7.41-.02,7.72-3.57,12.24-9.73,12.24-27.4,.02-54.81,.02-82.21,0-6.29,0-9.71-4.42-9.73-12.44,0-2.67,0-5.34,0-8.25-2.09,.84-3.86,1.55-5.63,2.26Zm5.5-100.87c-1.94,.62-3.73,1.19-5.57,1.78v9.51c1.87,.72,3.69,1.42,5.57,2.14v-13.44Zm101.93,.04v12.43c1.95-.61,3.75-1.17,5.68-1.77,0-2.61,.05-5.14-.04-7.66-.02-.53-.49-1.33-.88-1.49-1.53-.61-3.11-1-4.76-1.5Z"/>
  <path class="cls-1" d="M58.67,72.52c0,4.77,.03,9.53,0,14.3-.06,6.53-3.41,11.19-8.57,11.33-7.8,.21-15.62,.22-23.42,0-5.04-.14-8.48-4.75-8.55-11.15-.1-9.61-.1-19.23,0-28.85,.07-6.75,3.73-11.15,9.09-11.19,7.42-.05,14.83-.04,22.25,0,5.7,.03,9.17,4.48,9.2,11.75,.02,4.6,0,9.21,0,13.81Zm-20.2-18.24c-3.64,0-7.28-.02-10.93,0-2.65,.02-3.65,1.27-3.66,4.62-.02,9.12-.02,18.24,0,27.36,0,3.29,1.07,4.61,3.71,4.62,7.22,.02,14.44,.03,21.66,0,2.56,0,3.6-1.27,3.61-4.44,.03-9.28,.03-18.57,0-27.85-.01-3.12-.98-4.28-3.47-4.31-3.64-.04-7.28-.01-10.93-.01Z"/>
  <path class="cls-1" d="M101.05,91.88c11.34,0,21.29,9.02,24.89,22.58,3.61,13.56-.11,28.38-9.31,37.12-8.93,8.49-21.15,8.8-30.46,.68-.96-.84-1.75-1.08-2.83-.52-1.5,.78-3.05,1.39-4.59,2.06-1.69,.73-3.22,.34-4.52-1.19-1.36-1.62-1.69-3.62-1.18-5.87,.11-.47,.24-.94,.38-1.4,1.6-5.25,2.36-10.28,1.75-16.28-2.07-20.17,10.13-37.18,25.86-37.18Zm-21.64,53.26c.17,.11,.33,.21,.5,.32,.67-.26,1.36-.44,2-.8,2.58-1.47,4.83-.9,7.12,1.18,7,6.36,15.82,6.64,22.91,.93,7.18-5.78,10.7-16.11,9.16-26.82-1.9-13.23-12.22-22.45-22.97-20.54-10.71,1.9-18.93,14.82-17.29,28.14,.76,6.16,1.37,11.95-1.43,17.6Z"/>
  <path class="cls-1" d="M152.6,172.64c0-4.68-.03-9.36,0-14.05,.05-5.01,3.08-7.25,6.5-4.78,6.49,4.68,12.96,9.4,19.4,14.17,3.27,2.42,3.25,6.97-.04,9.41-6.44,4.77-12.91,9.49-19.4,14.17-3.32,2.4-6.41,.18-6.46-4.62-.06-4.76-.01-9.53-.01-14.29Zm20.77,.03c-5.08-3.7-9.89-7.21-14.89-10.85v21.71c5.04-3.67,9.83-7.17,14.89-10.86Z"/>
  <path class="cls-1" d="M157.95,75.1c-1.35,0-2.71,.06-4.06-.01-2.02-.11-3.2-1.53-3.19-3.71,0-2.2,1.19-3.56,3.22-3.62,1.35-.04,2.7,0,4.28,0,0-3.37,0-6.55,0-9.72,.02-7.43,3.6-11.94,9.5-11.97,1.95-.01,3.9-.05,5.85,.02,1.89,.06,3.05,1.45,3.1,3.54,.05,2.2-1.14,3.71-3.11,3.78-2.08,.08-4.16-.01-6.24,.04-2.17,.05-3.22,1.35-3.25,4.09-.04,3.28,0,6.56,0,10.23,1.42,0,2.75-.02,4.09,0,2.17,.04,3.41,1.38,3.4,3.65,0,2.24-1.24,3.62-3.41,3.7-1.28,.05-2.57,0-4.09,0,0,2.73,0,5.25,0,7.77,0,4.93,.02,9.86-.01,14.78-.02,2.72-1.14,4.28-2.93,4.27-1.79-.02-2.86-1.58-2.88-4.32-.03-7.31-.04-14.62-.06-21.93,0-.07-.05-.14-.2-.57Z"/>
  <path class="cls-1" d="M21.17,181.55c-3.38-3.71-5.73-8.07-6.02-13.54-.2-3.79,.03-7.7,.59-11.44,.65-4.28,4.25-5.3,6.77-2.23,3.27,3.98,5.16,5.3,8.56,5.93,.14-.52,.29-1.05,.43-1.58,2.23-8.95,9.9-12.38,15.94-6.98,1.25,1.12,2.32,.87,3.45,.25,1.99-1.09,3.82-.96,5.43,.91,1.63,1.89,1.82,4.26,1.14,6.79-.48,1.78-.79,3.73-1.6,5.24-1.74,3.23-2.66,6.83-3.72,10.43-3.68,12.42-11.26,18.39-21.38,19.71-3.5,.46-7.02,.34-10.37-1.39-1.98-1.02-3.42-2.65-3.89-5.4-.52-3.06,.46-5.12,2.83-6,.54-.2,1.08-.41,1.85-.71Zm30.33-21.99c-.94,.13-1.61,.41-2.21,.27-1.49-.34-3.21-.41-4.37-1.43-1.75-1.54-3.36-2.5-5.38-1.36-2.06,1.16-2.61,3.41-2.65,6.07-.06,3.88-.97,4.93-4.04,4.84-.91-.03-1.86,0-2.7-.37-3.15-1.35-6.26-2.86-9.44-4.32-.39,4,.49,7.98,3.04,11.15,1.23,1.53,2.9,2.47,4.21,3.91,.91,.99,2.13,2.36,2.15,3.59,.02,1.25-1.16,2.65-2.01,3.75-.59,.77-1.49,1.15-2.36,1.79,9.22,2.59,18.89-4.97,21.51-16.76,.64-2.87,1.19-5.66,2.89-7.9,.58-.77,.83-1.94,1.35-3.22Z"/>
  <path class="cls-1" d="M101.02,19.89c-1.53-.01-2.86-1.68-2.88-3.61-.02-2.01,1.43-3.79,3.02-3.69,1.55,.09,2.79,1.78,2.75,3.74-.04,1.96-1.35,3.58-2.89,3.56Z"/>
  <path class="cls-1" d="M38.33,83.53c-4.75-.05-8.66-5.07-8.63-11.08,.04-6.02,4.01-10.95,8.77-10.88,4.79,.07,8.68,5.07,8.63,11.07-.06,6.05-4,10.94-8.77,10.89Zm2.98-10.94c.02-1.9-1.3-3.65-2.81-3.71-1.53-.07-2.88,1.53-2.95,3.49-.08,2.07,1.24,3.8,2.88,3.8,1.56,0,2.86-1.62,2.89-3.57Z"/>
  <path class="cls-1" d="M103.01,135.59c-3.65-1.29-7.7-3.65-10.4-8.48-2.04-3.65-1.52-9.93,.72-13.48,.92-1.46,2.13-1.91,3.47-1.13,1.44,.83,1.93,2.38,1.57,4.29-.13,.7-.48,1.34-.7,2.02-1,3.09-.6,4.67,1.62,6.4,.83,.65,1.66,1.28,2.5,1.92,2.27,1.72,3.55,1.47,5.25-1.04,.34-.5,.6-1.08,.96-1.55,1.09-1.44,2.4-1.66,3.71-.63,1.36,1.07,1.59,2.77,1.03,4.55-1.21,3.87-5.6,7.35-9.74,7.13Z"/>
</svg>