<?xml version="1.0" encoding="UTF-8"?>
<svg id="Layer_1" data-name="Layer 1" xmlns="http://www.w3.org/2000/svg" viewBox="0 0 200 200">
  <defs>
    <style>
      .cls-1 {
        fill: #fff;
      }
    </style>
  </defs>
  <path class="cls-1" d="M151.53,200H48.35c-.65-1.05-1.83-2.08-1.85-3.14-.16-7.68-.11-15.36-.07-23.04,.01-2.17,1.07-3.15,3.33-3.17,3.91-.04,7.82-.01,11.72-.02,.69,0,1.37,0,2.06,0v-19.1h-2.44c-16.09,0-32.17,0-48.26,0-8.37,0-12.83-4.42-12.83-12.73C0,96.76,0,54.71,0,12.67,0,4.58,4.61,.01,12.75,.01c53.73,0,107.46,0,161.2,0,4.95,0,9.9-.03,14.85,.01,5.45,.05,9.72,3.57,10.86,8.87,.07,.3,.22,.59,.34,.88V141.41c-2.81,8.63-5.35,10.45-14.61,10.45-15.62,0-31.24,0-46.86,0h-2.23v19.07c.79,0,1.49,0,2.19,0,3.71,0,7.42-.02,11.13,0,2.93,.02,3.84,.94,3.84,3.87,.01,7.09-.03,14.18,.03,21.27,.02,1.72-.51,3.02-1.96,3.93Zm42.23-85.24v-2.04c0-33.39,0-66.78,0-100.18,0-4.73-1.73-6.45-6.49-6.45-58.23,0-116.46,0-174.69,0-4.64,0-6.47,1.86-6.47,6.52,0,33.33,0,66.65,0,99.98v2.17H193.76Zm.6,6.56H6.52c0,6.82-.08,13.51,.08,20.2,.03,1.05,.91,2.47,1.82,3.02,1.25,.75,2.9,1.14,4.38,1.14,36.47,.06,72.95,.05,109.42,.05,21.95,0,43.9,0,65.85,0,3.49,0,6.12-1.92,6.23-5.13,.21-6.36,.06-12.73,.06-19.28ZM52.62,193.79h94.63v-16.72H52.62v16.72Zm17.58-23.02h59.74v-18.75h-59.74v18.75Z"/>
  <path class="cls-1" d="M29.12,88.75c-3.51,0-6.76,.02-10,0-2.69-.02-3.61-.94-3.61-3.66,0-22.59,0-45.17,0-67.76,0-2.7,.94-3.65,3.63-3.65,32.83,0,65.66,0,98.48,0,2.7,0,3.7,.94,3.7,3.62,.02,22.52,.02,45.04,0,67.57,0,2.75-1.04,3.64-4.11,3.65-13.61,.01-27.23,0-40.84,0-5.6,0-11.2-.05-16.8,.04-1.02,.02-2.18,.4-3.02,.98-7.79,5.44-15.53,10.95-23.26,16.48-1.19,.85-2.31,1.44-3.76,.7-1.48-.75-1.64-2.07-1.53-3.49,.36-4.73,.73-9.46,1.12-14.47ZM115.12,19.84H21.67v62.94c2.9,0,5.68,0,8.46,0,4.53,0,5.19,.67,4.92,5.27-.19,3.15-.48,6.29-.74,9.76,.9-.59,1.55-.99,2.18-1.42,5.82-4.05,11.66-8.07,17.45-12.17,1.45-1.03,2.93-1.47,4.71-1.46,18.03,.04,36.07,.03,54.1,.03h2.38V19.84Z"/>
  <path class="cls-1" d="M186.49,61.67c0,11.19,0,22.38-.01,33.57,0,.9,0,1.86-.3,2.69-.71,1.97-2.75,2.38-4.87,1.06-6.45-4.03-12.9-8.07-19.35-12.11-4.52-2.83-9.02-5.69-13.58-8.46-.78-.48-1.8-.77-2.72-.78-4.82-.08-9.63-.02-14.45-.04-3.09-.01-4.15-1.01-4.16-4.08-.03-8.2-.03-16.39,0-24.59,0-2.85,.91-3.72,3.77-3.73,4.95-.02,9.9,.06,14.84-.05,1.22-.03,2.59-.39,3.62-1.02,10.49-6.41,20.92-12.9,31.37-19.37,1.26-.78,2.48-1.8,4.12-.9,1.73,.95,1.72,2.59,1.72,4.25,0,11.19,0,22.38,0,33.57Zm-5.78-29.65c-.47,.21-.71,.28-.91,.41-9.22,5.73-18.45,11.44-27.62,17.24-.59,.37-1.06,1.43-1.07,2.18-.08,6.44-.02,12.87-.07,19.31-.01,1.19,.39,1.84,1.4,2.47,8.91,5.49,17.78,11.04,26.67,16.56,.46,.29,.97,.5,1.61,.82V32.02Zm-36.16,19.67h-11.25v19.69h11.25v-19.69Z"/>
  <path class="cls-1" d="M100.12,141.48c-5.13,.01-9.08-3.86-9.13-8.94-.05-5.08,4.07-9.19,9.17-9.16,5,.03,9.06,4.11,9.04,9.1-.02,5.09-3.95,8.98-9.08,9Zm-.05-6.33c1.63,.01,2.98-1.32,3.02-2.96,.03-1.73-1.34-3.08-3.1-3.05-1.76,.03-2.9,1.22-2.87,3,.03,1.67,1.33,3,2.95,3.01Z"/>
  <path class="cls-1" d="M84.71,58.72c1.85,3.49,1.48,6.76-.98,9.67-2.23,2.64-5.26,3.31-8.52,2.53-4.62-1.1-7.34-5.9-5.95-10.45,.34-1.11,.18-1.75-.62-2.52-2.44-2.35-4.76-4.82-7.24-7.12-.53-.5-1.53-.62-2.33-.68-.96-.07-2.07,.46-2.87,.12-2-.83-3.09,.19-4.37,1.42-3,2.89-6.05,5.73-9.18,8.48-1.06,.94-1.27,1.77-1.01,3.17,.84,4.6-2.08,8.76-6.62,9.76-4.49,.99-8.88-1.55-10.1-5.84-1.23-4.31,.93-8.85,5.18-10.24,1.6-.52,3.44-.28,5.16-.46,.75-.08,1.68-.14,2.19-.6,3.55-3.16,6.97-6.46,10.5-9.64,.88-.8,1.07-1.48,.83-2.67-.99-4.98,1.81-9.22,6.5-10.1,4.78-.9,9.1,1.93,10.02,6.7,.22,1.11,.22,2.4-.14,3.44-.52,1.48-.09,2.35,.96,3.34,2.37,2.23,4.59,4.62,6.96,6.85,.45,.42,1.3,.53,1.98,.57,.76,.04,1.61-.4,2.3-.21,2.15,.59,3.31-.59,4.58-2.02,3.33-3.75,6.78-7.38,10.11-11.13,.4-.45,.65-1.4,.45-1.93-1.7-4.59,.38-9.43,4.83-11.03,4.63-1.66,9.67,.7,11.09,5.19,1.51,4.75-1.07,9.59-5.83,10.9-.68,.19-1.46,.45-2.1,.29-2.3-.59-3.55,.75-4.88,2.25-3.59,4.03-7.27,7.97-10.94,11.97Zm-50.94,8.52c1.63-.07,2.37-1.02,2.32-2.51-.05-1.41-.84-2.27-2.35-2.25-1.57,.02-2.45,.93-2.43,2.4,.01,1.48,.93,2.34,2.46,2.36Zm23.57-27.22c-1.48,.18-2.38,.91-2.38,2.49,0,1.5,.86,2.29,2.27,2.33,1.5,.04,2.45-.71,2.47-2.32,.02-1.58-.89-2.31-2.37-2.5Zm22.37,23.18c.01-1.62-.75-2.45-2.21-2.57-1.38-.12-2.54,.98-2.56,2.37-.02,1.48,.75,2.36,2.23,2.41,1.54,.05,2.43-.76,2.54-2.21Zm23.36-26.43c.05-1.69-.96-2.81-2.35-2.77-1.44,.03-2.33,.79-2.38,2.26-.05,1.56,.8,2.42,2.36,2.47,1.49,.05,2.26-.76,2.37-1.96Z"/>
</svg>