<?xml version="1.0" encoding="UTF-8"?>
<svg id="Layer_1" data-name="Layer 1" xmlns="http://www.w3.org/2000/svg" viewBox="0 0 200 200">
  <defs>
    <style>
      .cls-1 {
        fill: #fbb247;
      }
    </style>
  </defs>
  <path class="cls-1" d="M52.6,138.35c6.5-2.9,12.37-5.53,18.24-8.15,9.87-4.39,19.35-3.89,28.55,2.22,3.89,2.58,8.15,6.68,12.05,6.44,3.61-.22,6.99-5.26,10.42-8.25,3.79-3.31,7.53-6.7,11.29-10.05,8.58-7.66,12.84-7.47,20.37,.92,13.27-9.87,20.57-8.6,25.8,4.81,1.03-.4,2.08-.8,3.12-1.21,5.97-2.33,12.4-.06,15.58,5.52,3.23,5.66,2.59,13.22-2.44,17.21-14.88,11.81-29.45,24.27-45.28,34.48-15.3,9.88-33.26,11.18-50.88,11.13-4.64-.01-9.41-2.62-13.85-4.68-4.2-1.95-8.18-4.54-12.01-7.24-3.88-2.73-7.39-2.8-11.06,.24-1.4,1.16-2.9,2.28-4.52,3.03-4.13,1.93-6.2,4.83-5.48,9.89,.5,3.48-1.35,5.31-4.69,5.31-14.28,0-28.55,0-42.83,.02-3.57,0-5-1.82-4.98-5.59,.08-19.61,.07-39.22,0-58.83-.01-3.82,1.53-5.45,5.09-5.44,14.13,.05,28.26,.09,42.38-.03,5.04-.04,5.27,3.47,5.12,8.24Zm.56,40.65c2.4-1.57,4.09-2.51,5.61-3.7,6.01-4.67,12.02-4.63,18.25-.42,3.51,2.37,7.26,4.32,10.81,6.62,7.08,4.58,14.7,5.67,22.75,4.25,3.22-.57,6.45-1.15,9.68-1.71,9.83-1.7,19.92-2.84,28.33-9.13,13.97-10.46,27.72-21.27,41.5-32.01,2.93-2.28,3.73-5.44,1.49-8.69-2.09-3.05-5.09-3.34-7.89-1.26-13.47,10.04-26.83,20.24-40.3,30.28-1.9,1.41-4.11,2.45-6.31,3.26-3.22,1.17-6.57,1.92-9.84,2.94-13.37,4.17-26.61,4.79-39.62-1.55-2.33-1.14-3.99-3.12-2.47-5.5,.77-1.21,3.56-1.7,5.23-1.37,4.2,.84,8.21,2.75,12.42,3.5,12.06,2.16,23.13-2.91,34.39-6.13,1.35-.38,3.02-3.54,2.77-5.1-.29-1.84-2.24-3.96-3.96-4.8-1.74-.84-4.11-.49-6.16-.25-12.97,1.54-24.57-1.79-35.27-9.87-5.79-4.37-12.61-4.57-19.23-1.84-6.64,2.74-13.2,5.73-19.71,8.83-1.07,.51-2.35,2.15-2.37,3.29-.19,9.79-.11,19.58-.11,30.35Zm-7.91-40.92H7.34v53.99H45.24v-53.99Zm102.21,11.71c7.42-5.41,14.79-10.63,21.99-16.11,2.93-2.23,3.55-5.49,1.32-8.69-2.05-2.95-5.17-3.8-7.8-1.48-6.99,6.18-13.67,12.76-20.34,19.06,1.72,2.57,3.09,4.6,4.84,7.22Zm-24.54-10.17c.16,.48,.33,.96,.49,1.44,3.87-.53,8.23-.05,11.49-1.84,3.96-2.17,7.18-6.06,10.32-9.62,.97-1.1,.61-3.52,.86-5.34-1.84-.12-4.31-1.12-5.42-.23-6.1,4.94-11.86,10.34-17.74,15.58Z"/>
  <path class="cls-1" d="M115.73,36.86c6.74,9.88,13.89,18.51,19.08,28.31,13.39,25.25,3.12,48.52-23.85,53.72-8.55,1.65-17.89,1.39-26.45-.35-20.48-4.16-30.65-25.42-23.03-46.16,4.35-11.82,11.65-21.56,19.69-30.73,1.01-1.15,2.03-2.28,3.21-3.6-3.58-5.59-4.13-11.01,.74-16.2,.53-.56,.24-2.34-.09-3.41-1.33-4.18-3.01-8.25-4.18-12.48-.44-1.59-.43-4.12,.46-5.11,.87-.96,3.31-1.06,4.75-.55,9.36,3.29,18.6,3.53,27.95-.03,1.4-.53,3.9-.31,4.72,.67,.86,1.03,.67,3.48,.29,5.15-.54,2.43-1.63,4.73-2.54,7.06-1.66,4.25-3.9,8.11,.19,12.72,2.41,2.71,1.33,6.41-.97,10.98Zm-15.65,3.46c-2.99,.54-6.92-.02-8.81,1.8-10.07,9.7-18.96,20.58-23.6,34.48-5.23,15.68,2.56,31.3,17.88,34.4,7.86,1.59,16.38,1.95,24.24,.56,21.39-3.78,29.66-22.08,19.13-42.06-4.3-8.16-10.43-15.25-15.81-22.76-3.24-4.52-7.21-7.47-13.03-6.43Zm-9.84-30.24c1.56,8.54,2.21,9.43,6.93,9.45,10.46,.03,10.49,0,12.3-9.45h-19.23Zm9.26,23.14c2.51,0,5.08,.31,7.52-.13,1.28-.23,2.34-1.78,3.51-2.73-1.05-1.06-2.06-2.97-3.17-3.04-5.15-.32-10.34-.29-15.5,0-1.06,.06-2.04,1.74-3.05,2.68,1.05,1.07,1.99,2.82,3.18,3.06,2.43,.48,5,.14,7.51,.16Z"/>
  <path class="cls-1" d="M31,165.35c-6.48,0-11.54-5.34-11.59-12.23-.05-7.02,5.28-12.67,11.82-12.53,6.31,.14,11.54,5.86,11.46,12.54-.07,6.77-5.29,12.22-11.69,12.22Zm1.07-17.84c-.65-.02-1.31-.03-1.96-.05-1.18,1.83-3.4,3.76-3.24,5.45,.16,1.73,2.65,4.49,4.1,4.48,1.54-.02,4.07-2.63,4.28-4.36,.2-1.67-2.02-3.66-3.17-5.51Z"/>
  <path class="cls-1" d="M99.31,94.88c-2.63-2.94-5.26-5.86-7.88-8.78,.37-.58,.74-1.16,1.1-1.74,1.78,.66,3.55,1.32,5.7,2.12,.17-2.44,.95-4.88-2.65-6.99-4.56-2.66-4.07-9.14,.43-12,1.12-.71,2.28-1.37,3.86-2.32,2.18,1.83,4.57,3.83,6.96,5.83-.23,.6-.47,1.19-.7,1.79-1.73-.24-3.46-.47-5.17-.7-.58,2.66-.39,4.79,2.89,6.4,4.72,2.32,4.52,9.25,.08,12.4-1.56,1.11-2.93,2.52-4.61,3.99Z"/>
</svg>