<?xml version="1.0" encoding="UTF-8"?>
<svg id="Layer_1" data-name="Layer 1" xmlns="http://www.w3.org/2000/svg" viewBox="0 0 200 200">
  <defs>
    <style>
      .cls-1 {
        fill: #fbb247;
      }
    </style>
  </defs>
  <path class="cls-1" d="M7.95,110.63c.76,0,1.41,0,2.05,0,12.36,0,24.72,0,37.07,0,3.43,0,4.8,1.15,4.82,4.01,0,1.43,.04,2.87-.02,4.3-.09,1.97-1.63,3.28-3.79,3.3-2.27,.02-3.82-1.28-3.96-3.31-.03-.5-.05-1-.09-1.68-.67,0-1.24,0-1.82,0-12.41,0-24.83,0-37.24,0C1.34,117.25,0,116.12,0,113.08c0-20.23,0-40.46,0-60.69,0-3.43,1.18-4.44,5.29-4.44,10.72-.01,21.44,0,32.15,0,.59,0,1.19,0,2.03,0,0-.96,.07-1.82-.01-2.67-.62-6.24,4.76-10.35,11.53-9.8,1.17,.1,2.36,.01,3.54,.01,.13-.17,.27-.34,.4-.51-1.1-.8-2.26-1.54-3.3-2.4-4.68-3.88-4.74-8.83-.16-12.74,3.85-3.29,7.71-6.56,11.6-9.82,4.35-3.65,10.23-3.63,14.6,0,1.12,.93,2.21,1.89,3.68,3.15,0-1.68,0-2.94,0-4.2C81.37,3.51,85.49,0,91.89,0c5.52,0,11.05-.01,16.57,0,5.88,.01,10.11,3.57,10.19,8.57,.02,1.38,0,2.76,0,4.51,1.38-1.14,2.48-2.06,3.58-2.98,4.52-3.76,10.32-3.77,14.83,.02,3.84,3.23,7.67,6.47,11.48,9.72,4.53,3.87,4.49,8.83-.07,12.66-1.04,.88-2.1,1.74-3.05,2.97,1.7,0,3.39,0,5.09,0,3.82,.02,6.85,1.37,8.63,4.21,.81,1.29,1.08,2.88,1.34,4.36,.21,1.21,.04,2.47,.04,3.89,.79,0,1.42,0,2.06,0,10.83,0,21.65,0,32.48,.01,3.62,0,4.93,1.13,4.93,4.19,0,20.37,0,40.74,0,61.1,0,2.78-1.41,4-4.67,4-12.52,0-25.04,0-37.57,0-.54,0-1.08,0-1.76,0-.05,.73-.08,1.36-.15,1.99-.2,1.77-1.73,2.97-3.8,3-2.05,.03-3.75-1.16-3.87-2.91-.13-1.89-.14-3.8-.02-5.69,.12-1.89,1.78-3,4.31-3,7.44-.01,14.87,0,22.31,0,5.14,0,10.28,0,15.42,0h1.87V54.62h-31.54c0,1.2,0,2.38,0,3.57-.03,5.32-4.12,8.78-10.38,8.8-1.56,0-3.12,0-4.68,0-.13,.17-.26,.33-.4,.5,1.18,.86,2.43,1.67,3.52,2.6,4.42,3.75,4.43,8.69,.05,12.45-3.88,3.33-7.79,6.63-11.71,9.92-4.42,3.7-10.33,3.64-14.68-.14-1.05-.92-2-1.92-3-2.89-.26,.1-.52,.21-.77,.31,0,1.82,.19,3.65-.04,5.45-.52,4.1-4.37,7.16-9.22,7.26-6.11,.12-12.24,.12-18.35,0-5.33-.1-9.37-3.72-9.52-8.28-.05-1.47,0-2.94,0-4.81-1.4,1.18-2.51,2.1-3.6,3.03-4.36,3.7-10.32,3.73-14.72,.02-3.92-3.29-7.83-6.6-11.71-9.92-4.32-3.69-4.31-8.65,.02-12.35,1.11-.95,2.32-1.82,3.48-2.72-.08-.15-.15-.29-.23-.44-1.49,0-2.98,0-4.46,0-6.61,0-10.62-3.39-10.64-8.98,0-1.1,0-2.2,0-3.39H7.95v56.02ZM100,20.45c-20.02,0-36.34,13.78-36.39,30.71-.05,16.99,16.31,30.86,36.39,30.85,20.03,0,36.42-13.83,36.4-30.7-.02-17.05-16.31-30.86-36.39-30.86Zm-22.63,62.93c-6.49-3.35-11.44-7.64-15.34-12.92-1.94,1.65-3.73,3.14-5.47,4.67-.85,.74-.87,1.65-.03,2.37,4.1,3.53,8.24,7.02,12.4,10.5,.86,.72,1.9,.79,2.79,.08,1.86-1.48,3.66-3.03,5.66-4.7Zm60.56-12.91c-3.87,5.37-8.94,9.6-15.32,12.96,1.96,1.62,3.72,3.07,5.49,4.51,1,.81,2.07,.83,3.05,.01,4.11-3.45,8.21-6.92,12.28-10.4,.85-.73,.9-1.62,.07-2.37-1.76-1.57-3.61-3.06-5.57-4.72ZM77.28,19.12c-1.97-1.67-3.77-3.26-5.67-4.77-.83-.66-1.87-.56-2.67,.11-4.15,3.48-8.32,6.95-12.35,10.53-.47,.42-.55,1.76-.12,2.19,1.67,1.68,3.62,3.17,5.6,4.84,3.88-5.37,8.91-9.59,15.21-12.9Zm60.93,12.73c1.7-1.46,3.48-2.95,5.21-4.48,.9-.79,.89-1.71-.01-2.48-4.07-3.48-8.14-6.97-12.32-10.36-.5-.4-2.03-.58-2.45-.26-2,1.52-3.78,3.25-5.51,4.78,2.69,1.9,5.58,3.67,8.07,5.78,2.49,2.11,4.59,4.56,7.02,7.02Zm-49.03,55.7c0,2.33-.03,4.4,.01,6.47,.02,1.08,.73,1.8,2.02,1.8,5.84,.04,11.68,.03,17.52,0,1.21,0,2-.62,2.04-1.63,.08-2.16,.02-4.32,.02-6.64-7.24,1.43-14.33,1.45-21.61,0Zm53.71-27.2c2.81,0,5.37,.03,7.93-.02,1.16-.02,1.84-.7,1.85-1.63,.05-4.95,.05-9.9,.02-14.86,0-.92-.63-1.66-1.79-1.69-2.61-.06-5.22-.02-8-.02,1.72,6.09,1.71,12.05,0,18.21ZM110.81,14.92c0-2.34,.05-4.45-.02-6.57-.04-1.07-.83-1.71-2.12-1.72-5.78-.02-11.57-.02-17.35,0-1.29,0-2.08,.65-2.11,1.72-.07,2.11-.02,4.23-.02,6.53,7.22-1.38,14.3-1.44,21.62,.03Zm-53.69,27.2c-2.8,0-5.36-.04-7.92,.02-1.24,.03-1.9,.77-1.9,1.75-.04,4.91-.03,9.81,0,14.72,0,.93,.61,1.67,1.76,1.7,2.61,.07,5.22,.02,8.02,.02-1.66-6.08-1.74-12.04,.03-18.21Z"/>
  <path class="cls-1" d="M10.52,193.39c2.07-12.01,9.48-20.54,22.16-25.82-14.65-9.1-14.07-25.76-3.28-34.61,10.52-8.63,27.24-8.49,37.53,.28,10.51,8.96,10.85,25.24-3.64,34.32,1.04,.47,2.06,.89,3.03,1.38,10.61,5.26,16.95,13.02,18.87,23.31,.16,.86,.44,1.17,1.51,1.16,8.86-.03,17.72-.03,26.58,0,.88,0,1.34-.12,1.51-1.01,2.07-11.18,9.16-19.3,21.06-24.41,.24-.1,.48-.22,.93-.42-8.38-5.52-12.36-12.65-11.07-21.57,.85-5.91,4.21-10.77,9.7-14.49,10.99-7.45,26.83-6.28,36.23,2.36,9.34,8.58,10.28,24.49-4.32,33.72,12.68,5.29,20.09,13.81,22.15,25.82,2.17,0,4.34-.05,6.51,.01,2.95,.08,4.77,2.32,3.71,4.52-.58,1.21-1.67,1.92-3.23,2.06-.6,.05-1.2,.02-1.8,.02-63.1,0-126.21,0-189.31,0-.49,0-.99,.01-1.48,0-2.21-.09-3.85-1.49-3.86-3.29,0-1.78,1.62-3.24,3.84-3.3,2.18-.06,4.37-.01,6.67-.01Zm66.81-.09c-.87-9.65-11.83-21.93-29.67-21.77-17.51,.16-28.17,12.34-28.97,21.77h58.64Zm104.03,0c-1.09-10.35-12.74-22.28-30.37-21.77-17.71,.51-27.72,13.09-28.27,21.77h58.64Zm-133.39-28.4c10.23,.03,18.83-7.18,18.8-15.77-.03-8.83-8.34-15.93-18.71-15.98-10.22-.05-18.7,7.06-18.79,15.77-.09,8.72,8.38,15.96,18.71,15.99Zm103.68-.01c10.06,.32,18.72-6.7,19.1-15.5,.37-8.58-7.9-15.95-18.22-16.24-10.26-.29-18.83,6.6-19.26,15.5-.41,8.6,7.86,15.9,18.38,16.24Z"/>
  <path class="cls-1" d="M99.99,134.44c4.26,0,8.53-.01,12.79,0,2.63,0,4.3,1.3,4.31,3.29,.01,1.97-1.67,3.31-4.3,3.31-8.53,.02-17.05,.02-25.58,0-2.63,0-4.32-1.34-4.31-3.3,0-2,1.67-3.29,4.3-3.3,4.26-.01,8.53,0,12.79,0Z"/>
  <path class="cls-1" d="M100,123.59c4.21,0,8.42-.01,12.62,0,2.77,0,4.47,1.28,4.47,3.3,0,2.02-1.7,3.31-4.47,3.31-8.42,.01-16.83,.01-25.25,0-2.77,0-4.48-1.3-4.47-3.31,0-2.02,1.7-3.29,4.47-3.3,4.21-.01,8.42,0,12.62,0Z"/>
  <path class="cls-1" d="M100.13,119.36c-3.17,0-6.34,0-9.51,0-2.74,0-4.44-1.3-4.44-3.34,0-1.97,1.69-3.27,4.33-3.27,6.34-.01,12.68-.02,19.02,0,2.61,0,4.3,1.35,4.28,3.32-.03,1.98-1.71,3.27-4.34,3.29-3.11,.01-6.23,0-9.34,0Z"/>
  <path class="cls-1" d="M99.63,67.65c-10.97-.28-19.3-7.75-18.99-17.04,.29-8.85,9.36-16.08,19.82-15.79,10.87,.3,19.21,7.78,18.92,16.98-.28,8.88-9.3,16.12-19.75,15.86Zm11.92-16.23c.12-5.4-4.99-9.89-11.38-9.98-6.28-.09-11.58,4.23-11.71,9.56-.14,5.43,4.92,9.92,11.3,10.04,6.38,.12,11.68-4.2,11.8-9.62Z"/>
</svg>