<?xml version="1.0" encoding="UTF-8"?>
<svg id="Layer_1" data-name="Layer 1" xmlns="http://www.w3.org/2000/svg" viewBox="0 0 72 72">
  <defs>
    <style>
      .cls-1 {
        fill: #5b2c62;
      }
    </style>
  </defs>
  <path class="cls-1" d="M33.1,72c-1.67-.23-3.37-.38-5.02-.69-13.46-2.61-22.66-8.93-26.47-19.16-4.21-11.29-.1-21,11.28-28.87,.17-.12,.4-.19,.6-.28-.06-.07-.12-.14-.17-.2-1.73,0-3.45,0-5.18,0-.61,0-1.22,.01-1.83,0-.92-.03-1.59-.56-1.58-1.2,.01-.64,.7-1.15,1.61-1.19,.21,0,.43,0,.64,0,19.36,0,38.72,0,58.08,0,.18,0,.37,0,.55,0,.98,.02,1.69,.52,1.71,1.18,.02,.67-.68,1.2-1.67,1.21-2.02,.02-4.03,0-6.05,0-.29,0-.58,0-1.13,0,.54,.36,.9,.6,1.25,.84,6.54,4.5,10.54,10.05,11.86,16.72,2.9,14.58-9.99,28.51-28.86,31.18-1.25,.18-2.52,.31-3.78,.46h-5.86ZM15.88,24.56c-.22,.11-.32,.16-.42,.21-7.6,4.87-11.75,11.1-12.2,18.69-.36,6.14,2.06,11.67,7,16.53,8.39,8.26,23.01,11.65,35.92,8.35,.57-.15,.83-.34,.81-.84-.05-1.17-.01-2.34-.02-3.51-.01-1.79-1.09-2.67-3.41-2.8-2.63-.15-4.48-1.73-4.4-3.76,.07-1.91,2.15-3.41,4.76-3.42,1.4,0,2.81,.02,4.21,0,1.91-.04,3.43-1.08,3.48-2.46,.08-2.16,1.37-3.7,3.73-4.83,4.14-1.99,8.22-4.04,12.33-6.06,.46-.22,.72-.43,.6-.89-1.95-7.16-6.86-12.76-14.9-16.73-.7-.35-1.1-.27-1.53,.29-1.59,2.08-3.28,4.12-4.82,6.21-1.49,2.02-3.67,2.97-6.68,2.9-1.95-.04-3.91-.02-5.86,0-.93,.01-1.59,.56-1.56,1.2,.03,.63,.66,1.09,1.57,1.12,.58,.02,1.16,0,1.74,0,3.55,.03,5.44,2.34,3.95,4.81-1.25,2.08-2.52,4.15-3.79,6.23-1.89,3.11-3.75,6.24-5.69,9.34-1.75,2.81-6.46,3.28-9.05,.95-.96-.86-1.28-1.88-1.28-3,.01-2.79,.01-5.58,0-8.37,0-1.12-.54-1.52-1.99-1.54-.52,0-1.04,0-1.56-.02-5.05-.17-8.54-4.01-7.04-7.73,1.05-2.6,3.95-4.2,7.66-4.24,1.4-.02,2.81,.02,4.2-.09,1.14-.1,1.87-.89,1.84-1.74-.02-.86-.79-1.55-1.93-1.7-.57-.08-1.16-.08-1.72-.19-1.99-.39-3.24-1.41-3.97-2.91Zm32.64-1.76c-.37,0-.53,0-.68,0-9.34,0-18.68,0-28.03,0-.09,0-.18,0-.27,0-.56-.02-.75,.19-.71,.61,.09,1.05,1.01,1.72,2.46,1.78,3.14,.12,5.47,2,5.38,4.35-.08,2.3-2.52,4.06-5.65,4.07-1.28,0-2.57-.02-3.85,0-2.4,.05-4.31,1.44-4.57,3.29-.24,1.71,1.33,3.37,3.64,3.77,.7,.12,1.45,.11,2.18,.11,3.18,.02,5.13,1.5,5.13,3.94,0,2.86,0,5.72,0,8.58,0,.99,.64,1.67,1.69,1.83,1.17,.19,2.09-.17,2.65-1.1,3.15-5.17,6.29-10.34,9.43-15.51,.51-.85,.13-1.27-1.09-1.31-1.06-.04-2.16,0-3.17-.21-2.25-.46-3.54-2.14-3.25-3.98,.27-1.66,2.25-3.02,4.58-3.06,2.11-.04,4.21-.04,6.32,0,1.55,.03,2.61-.46,3.36-1.48,.78-1.06,1.62-2.09,2.44-3.14,.64-.82,1.28-1.63,2.01-2.58Zm1.61,44.31c6.63-2.5,11.6-6.16,14.97-11.08,2.78-4.05,3.97-8.37,3.7-13.04-3.87,1.89-7.55,3.77-11.34,5.52-1.77,.82-2.64,1.83-2.77,3.43-.2,2.46-3.04,4.4-6.25,4.45-1.47,.02-2.93,0-4.4,.02-1,.01-1.71,.5-1.74,1.17-.04,.64,.68,1.17,1.66,1.22,3.73,.19,6.15,2.18,6.16,5.07,0,1.05,0,2.09,0,3.25Z"/>
  <path class="cls-1" d="M39.18,0c1.56,0,3.11,0,4.67,0,1.43,0,2.65,.38,3.55,1.22,1.85,1.71,3.65,3.45,5.44,5.21,.26,.25,.38,.64,.38,.97,.03,1.92,.03,3.84,.01,5.76-.01,1.41-1.35,2.42-3.19,2.44-.09,0-.18,0-.27,0-.95-.11-1.53,.12-2.11,.8-1.9,2.25-6.15,2.07-7.9-.28-.31-.41-.61-.54-1.19-.53-2.23,.02-4.46,.02-6.68,0-.55,0-.85,.1-1.14,.49-1.9,2.56-6.37,2.53-8.25-.05-.25-.34-.5-.47-.98-.44-.46,.03-.92,.02-1.37,0-1.34-.06-2.67-.83-2.76-1.83-.13-1.37-.21-2.78,.11-4.12,.49-2.09,2.81-3.46,5.57-3.63,.18-.01,.37-.05,.55-.02,1.78,.29,2.87-.38,3.84-1.44,.99-1.09,2.17-2.09,3.26-3.12C31.72,.48,32.99-.02,34.61,0c1.53,.02,3.05,0,4.58,0ZM20.46,13.15q1.55,.11,2.29-.73c1.97-2.24,6.22-2.12,7.98,.26,.3,.41,.61,.54,1.2,.54,2.2-.03,4.39-.03,6.59,0,.62,0,.94-.14,1.27-.57,1.81-2.39,6.12-2.45,8.03-.13,.65,.78,.91,.85,2.22,.57v-4.66h-1.04c-5.06,0-10.13,0-15.19,0-3.42,0-6.83,0-10.25,0-1.6,0-2.95,.83-3.09,1.96-.11,.9-.02,1.81-.02,2.76Zm27.89-7.2c-1.18-1.12-2.21-2.13-3.28-3.11-.2-.18-.55-.36-.84-.38-1.14-.04-2.28-.02-3.4-.02v3.51h7.53Zm-10.87,0V2.4c-1.02,0-1.97-.03-2.91,.01-.37,.02-.86,.09-1.09,.29-1.17,1.02-2.28,2.09-3.53,3.26h7.52Zm-9.3,8.44c0-.68-.7-1.2-1.57-1.18-.82,.02-1.49,.56-1.49,1.19,0,.63,.68,1.17,1.49,1.19,.84,.02,1.57-.53,1.57-1.2Zm15.64,1.2c.79,.02,1.53-.52,1.57-1.13,.04-.66-.64-1.23-1.5-1.25-.81-.02-1.53,.5-1.58,1.12-.05,.64,.67,1.24,1.51,1.26Z"/>
</svg>