<?xml version="1.0" encoding="UTF-8"?>
<svg id="Layer_1" data-name="Layer 1" xmlns="http://www.w3.org/2000/svg" viewBox="0 0 200 200">
  <defs>
    <style>
      .cls-1 {
        fill: #fbb247;
      }
    </style>
  </defs>
  <path class="cls-1" d="M16.22,27.02c-.49-2.1-1.01-4.25-1.49-6.42-.41-1.8-1.59-3.83-.24-5.44,1.78-2.12,3.75-4.08,5.85-5.52,2.66-1.83,3.24-1.51,5.79,2.51,2,3.16,4.04,4.48,6.95,2.23,.91-.71,2.16-.69,3.26-.83,2.81-.36,4.04-1.92,4.75-5.76,.39-2.11,.88-4.23,1.63-6.13,.27-.69,1.48-1.17,2.16-1,2,.52,3.93,1.48,5.91,2.13,1.8,.59,2.71,1.87,2.85,4.55,.16,3.1,.65,6.19,1.09,9.25,.09,.65,.52,1.42,.94,1.75,1.41,1.07,3.18,1.55,4.29,3.01,3.02,3.92,6.04,1.99,8.95,.33,2.71-1.54,3.29-1.57,4.95,1.86,.99,2.04,1.98,4.08,3.06,6.02,.91,1.64,.88,3.03-.14,4.53-1.23,1.78-2.55,3.49-3.54,5.5-1.42,2.86-.7,6.04-.2,9.1,.16,.99,.59,1.92,.64,2.91,.23,4.24,2.1,6.21,4.9,7.16,3.64,1.23,4.19,2.65,3.29,7.68-.39,2.22-.73,4.47-.97,6.73-.17,1.55-.68,2.27-1.82,2.22-1.05-.04-2.13,.22-3.16,.01-3.18-.64-4.95,1.89-6.45,5.11-.84,1.78-1.56,3.68-2.5,5.34-1.2,2.11-1.01,4.22-.41,6.48,.6,2.29,1.34,4.56,1.64,6.93,.12,.92-.62,2.37-1.26,3.09-1.51,1.7-3.18,3.13-4.82,4.61-.92,.83-1.81,1.23-2.87,.05-1.66-1.86-3.38-3.65-5.21-5.17-.85-.71-2.04-1.08-3.04-.96-1.7,.21-3.35,1.11-5.05,1.41-2.72,.49-4.11,2.84-4.92,6.1-1.36,5.46-1.44,5.62-5.57,5.2-1.72-.18-3.48-.49-5.11-1.22-.69-.31-1.37-1.79-1.55-2.89-.44-2.81-.42-5.76-.95-8.53-.23-1.22-1.24-2.29-2.05-3.16-1.14-1.23-2.54-2.03-3.62-3.34-1.47-1.79-2.97-2.69-4.9-1.72-1.51,.76-3.02,1.52-4.55,2.22-1.48,.68-2.76,.97-3.74-1.53-1.04-2.66-2.42-5.09-3.78-7.49-.69-1.22-.57-2.04,.06-3.13,1.56-2.7,3.15-5.39,4.54-8.25,.37-.77,.16-2.17,.06-3.24-.14-1.41-.67-2.8-.64-4.18,.15-5.59-2.33-8.24-5.67-10.03-.63-.34-1.34-.46-1.94-.88-1.33-.94-2.31-1.8-1.33-4.48,.73-2.01,.56-4.64,.79-6.99,.35-3.7,.56-3.96,3.24-4,1.43-.02,2.85-.03,4.28-.1,1.72-.08,2.84-1.33,3.64-3.39,.92-2.37,2.01-4.62,2.98-6.97,.38-.93,.62-1.98,1-3.25Zm49.3,31.24c.23-16.99-10.78-33.84-24.41-33.63-14.48,.22-24.52,15.89-24.45,33.55,.07,18.57,10.36,33.1,24.34,33.39,13.33,.27,24.5-15.31,24.53-33.31Z"/>
  <path class="cls-1" d="M137.43,173.4c-2.81,0-5.39,.02-7.97,0-1.6-.02-2.21,1.1-2.16,3.19,.04,1.84,.62,2.9,2.01,2.93,1.49,.03,2.98,.08,4.46,.02,1.22-.05,2,.26,2.04,2.32,.01,.73,.72,1.84,1.28,2.08,3.01,1.31,3.55,2.17,3.52,6.54-.02,2.47,.5,5.15-1.4,6.91-.2,.18-.32,.61-.53,.69-2.34,.87-4.68,2.37-7.04,2.4-14.57,.22-29.14,.11-43.71,.12-1.19,0-2.11-.33-3.16-1.46-1.4-1.5-3.31-2.06-4.95-3.19-.46-.32-.96-1.19-1.01-1.86-.14-1.94-.07-3.9-.08-5.86-.01-1.61,1.53-3.85,2.97-4.1,1.19-.21,2.07-.73,2.01-2.61-.05-1.67,.67-1.97,1.66-1.96,2.36,.02,4.71,.01,7.07,0,2.36-.02,2.93-.66,2.92-3.2-.01-2.44-.49-2.95-2.85-2.95-17.36,0-34.72,0-52.08,0-1.4,0-2.89,.39-3.77-1.79-.12-.29-.57-.56-.81-.49-3.19,.86-4.76-2.46-6.59-4.91-.95-1.27-2.31-2.44-1.94-4.82,.03-.2-.08-.59-.21-.68-2.06-1.56-1.37-4.24-1.38-6.57-.04-10.13-.03-20.25-.02-30.38,0-3.35,.66-3.75,2.94-2.51,1.99,1.09,2.68,2.66,2.62,5.69-.18,8.67-.07,17.36-.08,26.04,0,1.55-.08,3.12,1.25,3.88,.19,.11,.43,.49,.43,.76,.12,3.86,2.32,4.58,4.26,6.39,2.86,2.68,5.69,1.76,8.52,1.77,29.39,.11,58.78,.06,88.16,.05,2.36,0,2.91,.71,3.15,3.96,.07,1,.25,1.98,.47,3.61Z"/>
  <path class="cls-1" d="M199.84,116c0,15.66-.09,31.33,.05,46.99,.05,5.59-2.28,10.43-7.02,10.5-.87,.01-1.74,.05-2.6,.05-12.96,0-25.92-.14-38.88,.1-3.04,.05-5.37-1.24-7.04-4.34-.8-1.49-1.07-3.8-1.08-5.74-.09-13.61-.05-27.21-.05-40.82,0-17.71,.17-35.42-.09-53.12-.1-6.98,3.52-11.23,8.06-11.16,13.52,.21,27.04,.05,40.56,.11,2.12,0,4.39-.35,5.99,2.39,1.2,2.08,2.16,4.17,2.15,7.04-.06,16-.03,32.01-.03,48.01h-.01Zm-24.8,49.97c.06,.28,.22,.59,.18,.84-.47,2.6,.58,3.48,2.19,3.5,4.9,.05,9.8,.1,14.7-.04,2.45-.07,4.4-2.94,4.57-6.25,.04-.68,.1-1.36,.1-2.04,.05-31.07-.03-62.13,.26-93.2,.05-5.57-4.86-8.49-7.61-6.37-.44,.34-.92,1.4-.85,2.03,.15,1.47-.25,2.1-1.2,2.3-.85,.17-1.72,.37-2.58,.37-9.18,.03-18.36,.02-27.53,0-.8,0-1.6-.14-2.4-.29-.97-.19-1.57-.69-1.38-2.36,.07-.63-.48-1.97-.83-2.03-1.37-.22-2.89-.52-4.15,.05-2.51,1.13-2.97,4.23-2.97,7.46,0,16.85,0,33.71,0,50.56,0,13.7,.03,27.4,.01,41.1,0,2.23,.24,4.2,1.62,5.68,1.79,1.92,3.61,3.32,6.07,3.12,5.74-.48,11.49-.72,17.24-.97,1.95-.08,4.21,.83,4.56-3.44Z"/>
  <path class="cls-1" d="M131.52,15.67c16.06,0,32.12-.01,48.18,.02,1.73,0,3.26,.45,4.99,1.54,2.06,1.3,3.5,3.14,5.02,5.11,.36,.47,.52,1.25,.73,1.91,.84,2.69,1.98,5.27,1.74,8.38,3,4.21,.66,9.5,1.47,14.17,.07,.38-.57,1.25-1,1.46-.68,.34-1.46,.3-2.2,.45-1.61,.32-2.29-.59-2.21-2.84,.08-2.29,.02-4.59,.02-6.89,0-1.79,.07-3.5-1.32-4.71-.41-.36-.39-1.83-.41-2.79-.04-2.74-1.67-5.55-3.63-6.06-.36-.1-.9-.04-1.05-.34-1.28-2.54-3.19-1.83-4.92-1.83-30.63-.02-61.26-.01-91.89-.01-1.61,0-5.5-3.46-5.88-5.48-.1-.53,.43-1.66,.86-1.93,.57-.35,1.34-.15,2.02-.15,16.49,0,32.99,0,49.48,0Z"/>
  <path class="cls-1" d="M41.05,75.47c-7.77,.84-12.87-8.58-12.83-17.39,.04-9.11,5.22-17.68,13.07-17.62,6.76,.06,13,8.39,12.82,17.97-.16,8.64-5.64,18.03-13.06,17.04Z"/>
  <path class="cls-1" d="M190.4,112.69c0,11.07,.04,22.14-.04,33.2-.01,1.42-.64,2.82-.99,4.23-1.58-.75-1.09-2.67-1.09-4.11-.04-22.14-.03-44.27-.02-66.41,0-1.1,.08-2.22,.27-3.28,.08-.44,.59-1.01,.89-1,.28,0,.72,.67,.79,1.12,.16,1.07,.18,2.2,.18,3.3,.01,10.98,0,21.97,0,32.95Z"/>
  <path class="cls-1" d="M168.09,162.1c.97-.93,1.92-1.9,2.93-2.72,.15-.12,.62,.49,.95,.76-.24,.32-.44,.75-.72,.92-.91,.57-1.85,1.04-2.78,1.54l-.38-.5Z"/>
</svg>