<?xml version="1.0" encoding="UTF-8"?>
<svg id="Layer_1" data-name="Layer 1" xmlns="http://www.w3.org/2000/svg" viewBox="0 0 200 200">
  <defs>
    <style>
      .cls-1 {
        fill: #fbb247;
      }
    </style>
  </defs>
  <path class="cls-1" d="M134.64,199.5c4.5-3.01,9.01-5.57,12.86-8.7,16.86-13.7,17.71-34.3,2.42-50.91-8.91-9.69-20.9-16.11-32.94-22.56-8.13-4.35-16.26-8.75-23.84-13.73-6.23-4.1-10.53-9.51-8.94-18.08-7.62,5.63-11.58,11.57-12.29,18.9-.92,9.5,5.58,16.29,12.13,23.14,3,3.14,5.85,6.7,7.32,10.48,2.1,5.38,.32,10.54-5.57,13.82-5.78,3.22-12.05,3.23-18.07,.25-5.57-2.76-8.26-8.17-7.18-13.91,.24-1.3,.54-2.59,1.02-4.91-14.19,8.89-23.99,19.04-25.43,33.33-1.51,15.02,8.61,25.05,22.01,33.38-7.31-.59-22.16-6.76-30.89-12.83C2.82,170.2-5.76,144.72,3.85,118.12c6.71-18.55,19.65-33.83,35.52-47.4,10.56-9.03,21.89-17.42,32.91-26.06,8.19-6.42,15.75-13.24,20.94-21.71,4.24-6.93,6.48-14.09,3.03-22.96,11.13,7.78,18.63,16.29,22.7,26.82,3.4,8.81,2.51,17.54-.36,26.42-2.13,6.57-4.13,13.41-4.23,20.15-.19,11.82,13.71,19.66,25.73,15.27,6.25-2.28,9.83-6.2,9.93-12.51,1.23,.44,2.37,.75,3.39,1.24,19.89,9.61,35.84,22.3,43.15,41.14,9.31,23.99-.54,48.27-25.92,65.31-11.31,7.59-26.19,14.1-35.98,15.67Z"/>
</svg>