<?xml version="1.0" encoding="UTF-8"?>
<svg id="Layer_1" data-name="Layer 1" xmlns="http://www.w3.org/2000/svg" viewBox="0 0 200 200">
  <defs>
    <style>
      .cls-1 {
        fill: #fbb247;
      }
    </style>
  </defs>
  <path class="cls-1" d="M85.84,21.48c4.01,.77,7.99,1.41,11.91,2.31,6.36,1.46,12.39,3.88,18.11,7,8.28,4.52,15.58,10.3,21.79,17.44,2.9,3.33,5.51,6.87,7.83,10.62,.18,.29,.37,.7,.3,.99-.22,.82,.02,1.26,.77,1.66,1.1,.58,1.34,1.19,1.27,2.13,.47,.63,.88,1.03,1.09,1.52,1.35,3.11,2.8,6.19,3.94,9.38,1.53,4.3,2.58,8.73,3.26,13.26,.83,5.53,1.18,11.08,.82,16.66-.29,4.6-.93,9.14-1.99,13.64-1.29,5.49-3.15,10.77-5.57,15.84-2.76,5.78-6.21,11.14-10.3,16.08-5.12,6.18-11.03,11.47-17.74,15.86-6.49,4.24-13.47,7.45-20.92,9.61-4.68,1.35-9.43,2.34-14.3,2.7-10.86,.82-21.73,.28-32.6,.38-10.84,.1-21.68,.03-32.52,0-2.24,0-4.49-.13-6.73-.22-.98-.04-1.18-.24-1.55-1.35-1.22,.6-1.73-.35-2.3-1.11-1.67-2.26-1.73-4.72-.49-7.11,1.18-2.26,3.22-3.46,5.82-3.45,2.68,0,5.36,.1,8.04,.11,1.76,0,3.53-.12,5.29-.11,1.83,.01,3.66,.15,5.49,.17,.79,.01,1.57-.18,2.36-.18,14.22-.02,28.44,.02,42.66-.05,4.94-.03,9.84-.59,14.62-1.96,2.78-.8,5.64-1.45,8.3-2.55,5.36-2.21,10.44-4.96,15.09-8.47,6.07-4.57,11.23-10,15.4-16.36,.4-.6,.79-1.21,1.18-1.81,.78,.31,1.89-.05,2.01-.84,.1-.69-.21-1.45-.37-2.34,.9,.42,1.18,1.66,2.24,1.06,.3-.17,.46-.58,.69-.89-.58,.19-1.28,.56-1.38,.44-.68-.82,.63-.83,.66-1.58-.29-.22-.67-.5-.98-.73,10.02-22.37,9.3-44.17-3.92-64.99-11.28-17.76-29.82-27.26-46.48-28.96,.22,.27,.36,.48,.54,.65,2.94,2.96,5.92,5.88,8.83,8.87,3.29,3.38,1.98,9.18-2.45,10.76-2.51,.89-4.94,.54-6.89-1.41-6.36-6.32-12.68-12.68-19.04-19-.9-.9-2.07-1.56-2.86-2.54-2.12-2.6-2.19-6.92,.7-9.71,3.58-3.45,7.05-7.01,10.57-10.52,3.58-3.58,7.14-7.17,10.75-10.72,1.99-1.96,5.3-2.24,7.81-.79,2.48,1.44,3.71,4.47,3.04,7.25-.33,1.37-1.04,2.47-2.01,3.44-3.04,3.04-6.09,6.08-9.13,9.13-.25,.25-.5,.52-.71,.74Zm56.23,103.76c-.3,.22-.74,.38-.9,.7-.17,.33-.23,.88-.07,1.19,.33,.64,.8,1.24,1.31,1.75,.23,.22,.8,.35,1.07,.23,.57-.26,1.12-.78,.69-1.48-.16-.26-.74-.32-1.14-.35-.24-.02-.5,.19-.75,.29,.44-.86,.6-1.59-.22-2.33Zm.53-.56c.67,.74,1.23,1.35,1.78,1.96,.09-.09,.18-.18,.27-.26-.28-.35-.65-.67-.82-1.06-.14-.33-.06-.75-.08-1.13,.33,.11,.72,.14,.99,.34,.38,.28,.68,.69,1.01,1.04,.08-.07,.16-.15,.24-.22-.19-.24-.36-.5-.56-.73q-1.04-1.2-2.27-.2c-.12,.09-.28,.14-.57,.28Zm-3.28,5.61c.04,.12,.08,.24,.12,.36,.33-.18,.72-.29,.97-.55,.14-.15,.16-.69,.04-.78-.29-.2-.68-.26-1.05-.32-.28-.05-.57,0-.86,0-.02-.1-.04-.19-.06-.29,.26-.18,.52-.37,.78-.55-.05-.09-.09-.18-.14-.28-.3,.17-.73,.28-.87,.54-.12,.23-.01,.78,.19,.93,.23,.17,.67,.03,1.01,.08,.23,.03,.45,.16,.68,.24-.15,.18-.29,.37-.46,.52-.08,.07-.23,.07-.34,.1Zm.73-3.28c-.11,.09-.21,.18-.32,.27,.56,.64,1.13,1.29,1.69,1.93,.09-.08,.19-.16,.28-.25-.55-.65-1.1-1.3-1.65-1.95Z"/>
  <path class="cls-1" d="M51.41,159.67c-2.88,0-5.76,.02-8.65-.03-.36,0-.75-.34-1.06-.61-.64-.55-1.29-.67-1.99-.18-.69,.48-1.3,.63-1.88-.17-.11-.15-.41-.16-.77-.29,.09,.51,.15,.82,.22,1.21h-1.21c-.07-.29-.16-.61-.25-.95-.16,.03-.3,.01-.34,.07-.79,1.16-1.99,.96-3.13,.95-.73,0-1.47-.09-2.19,.02-1.96,.29-3.39-.49-4.8-1.83-6.84-6.47-12.5-13.81-16.8-22.2-2.1-4.1-3.85-8.33-5.17-12.73C.81,114.37-.32,105.59,.08,96.64c.25-5.6,1.09-11.12,2.5-16.56,3.04-11.7,8.51-22.11,16.34-31.27,5.86-6.86,12.68-12.62,20.6-17,2.51-1.39,5.08-2.66,7.66-3.91,2.15-1.05,5.18-.5,7,1.25,1.98,1.9,2.69,4.18,1.87,6.86-.74,2.43-2.59,3.68-4.79,4.65-4.81,2.12-9.21,4.93-13.32,8.2-6.66,5.3-12.07,11.66-16.26,19.08-2.81,4.97-4.93,10.22-6.36,15.74-1.5,5.8-2.1,11.72-2,17.72,.12,6.48,1.17,12.79,3.17,18.93,2.32,7.1,5.78,13.63,10.37,19.54,3.99,5.15,8.64,9.59,13.95,13.38,3.2,2.28,6.61,4.16,10.13,5.87,.19,.09,.36,.25,.54,.37-.02,.06-.05,.12-.07,.18Zm-14.02-115.01c-.14,.02-.28,.05-.43,.07,.18,1.04-.21,1.61-1.33,1.75,.42,.28,.89,.55,1.22,.43,.38-.14,.82-.58,.91-.97,.09-.38-.23-.85-.37-1.28Zm-3.44-.87c.04,.08,.17,.31,.3,.55,.14-.21,.25-.44,.41-.62,.25-.27,.54-.5,.81-.75,.13-.12,.25-.24,.37-.36-.13-.11-.25-.29-.41-.32-.89-.22-1.51,.33-1.49,1.5Z"/>
  <path class="cls-1" d="M110.07,178.53c7.18-3.1,13.84-6.87,19.91-11.69,.15-.12,.32-.24,.45-.37,.89-.88,1.91-1.19,3.19-1.18,7.29,.07,14.58,.02,21.87,.04,1.64,0,3.27,.14,4.91,.19,.53,.02,1.05-.09,1.58-.1,.62-.01,1.24,.02,1.86,.02,.69,0,1.38,.01,2.07,0,.36-.01,.72-.11,1.08-.11,3.19,0,6.38,0,9.57,0,.13,0,.26-.03,.47-.06-.66-1.49-2.65-2-2.78-3.85-1.36-.19-1.73-.55-1.82-1.86-.89-.05-1.6-.34-1.47-1.16-.77-.57-1.47-.94-1.99-1.49-1.05-1.12-2.23-2.21-2.93-3.53-1.22-2.31-.92-4.7,.68-6.8,1.57-2.07,3.69-2.86,6.27-2.52,1.55,.2,2.79,.94,3.88,1.99,.8,.77,1.59,1.57,2.37,2.37,.25,.26,.54,.55,.62,.87,.36,1.47,1.54,2.49,2.6,3.08,1.74,.96,2.98,2.34,4.32,3.66,3.78,3.74,7.55,7.5,11.27,11.3,2.58,2.63,2.61,6.66,.03,9.26-7.1,7.16-14.22,14.31-21.39,21.4-3.44,3.4-8.77,2.39-10.77-2-1.09-2.4-.7-5.34,1.63-7.63,3.06-3.02,6.1-6.07,9.15-9.11,.13-.13,.21-.31,.43-.65-.51,0-.85,0-1.2,0-7.36,0-14.72,.02-22.07-.01-1.88,0-3.76-.27-5.64-.26-12.34,.07-24.67,.17-37.01,.26-.38,0-.76-.03-1.14-.05Z"/>
  <path class="cls-1" d="M135.26,132.07c.71,.56,.72,1,.27,1.4-.15,.13-.44,.1-.67,.15,.12-.47,.24-.93,.4-1.55Z"/>
  <path class="cls-1" d="M144.16,128.03c-.42,.36-.65,.66-.94,.76-.13,.05-.4-.3-.6-.46,.24-.23,.46-.52,.75-.66,.12-.06,.4,.17,.8,.37Z"/>
  <path class="cls-1" d="M142.53,126.53c-.4,.22-.64,.44-.87,.43-.16,0-.31-.33-.46-.52,.21-.16,.41-.42,.63-.46,.16-.02,.36,.27,.69,.54Z"/>
</svg>